<svg width="346" height="62" viewBox="0 0 346 62" fill="none" xmlns="http://www.w3.org/2000/svg">
<path d="M6.2235 6.615C6.6035 6.675 6.9485 6.83 7.2585 7.08C7.5785 7.33 7.8285 7.64 8.0085 8.01C8.1985 8.38 8.2935 8.775 8.2935 9.195C8.2935 9.725 8.1585 10.205 7.8885 10.635C7.6185 11.055 7.2235 11.39 6.7035 11.64C6.1935 11.88 5.5885 12 4.8885 12H0.988496V1.545H4.7385C5.4485 1.545 6.0535 1.665 6.5535 1.905C7.0535 2.135 7.4285 2.45 7.6785 2.85C7.9285 3.25 8.0535 3.7 8.0535 4.2C8.0535 4.82 7.8835 5.335 7.5435 5.745C7.2135 6.145 6.7735 6.435 6.2235 6.615ZM2.3535 6.06H4.6485C5.2885 6.06 5.7835 5.91 6.1335 5.61C6.4835 5.31 6.6585 4.895 6.6585 4.365C6.6585 3.835 6.4835 3.42 6.1335 3.12C5.7835 2.82 5.2785 2.67 4.6185 2.67H2.3535V6.06ZM4.7685 10.875C5.4485 10.875 5.9785 10.715 6.3585 10.395C6.7385 10.075 6.9285 9.63 6.9285 9.06C6.9285 8.48 6.7285 8.025 6.3285 7.695C5.9285 7.355 5.3935 7.185 4.7235 7.185H2.3535V10.875H4.7685ZM17.4777 3.78V12H16.1127V10.785C15.8527 11.205 15.4877 11.535 15.0177 11.775C14.5577 12.005 14.0477 12.12 13.4877 12.12C12.8477 12.12 12.2727 11.99 11.7627 11.73C11.2527 11.46 10.8477 11.06 10.5477 10.53C10.2577 10 10.1127 9.355 10.1127 8.595V3.78H11.4627V8.415C11.4627 9.225 11.6677 9.85 12.0777 10.29C12.4877 10.72 13.0477 10.935 13.7577 10.935C14.4877 10.935 15.0627 10.71 15.4827 10.26C15.9027 9.81 16.1127 9.155 16.1127 8.295V3.78H17.4777ZM20.4874 2.445C20.2274 2.445 20.0074 2.355 19.8274 2.175C19.6474 1.995 19.5574 1.775 19.5574 1.515C19.5574 1.255 19.6474 1.035 19.8274 0.855C20.0074 0.674999 20.2274 0.584999 20.4874 0.584999C20.7374 0.584999 20.9474 0.674999 21.1174 0.855C21.2974 1.035 21.3874 1.255 21.3874 1.515C21.3874 1.775 21.2974 1.995 21.1174 2.175C20.9474 2.355 20.7374 2.445 20.4874 2.445ZM21.1474 3.78V12H19.7824V3.78H21.1474ZM24.8388 0.9V12H23.4738V0.9H24.8388ZM26.6553 7.86C26.6553 7.02 26.8253 6.285 27.1653 5.655C27.5053 5.015 27.9703 4.52 28.5603 4.17C29.1603 3.82 29.8303 3.645 30.5703 3.645C31.2103 3.645 31.8053 3.795 32.3553 4.095C32.9053 4.385 33.3253 4.77 33.6153 5.25V0.9H34.9953V12H33.6153V10.455C33.3453 10.945 32.9453 11.35 32.4153 11.67C31.8853 11.98 31.2653 12.135 30.5553 12.135C29.8253 12.135 29.1603 11.955 28.5603 11.595C27.9703 11.235 27.5053 10.73 27.1653 10.08C26.8253 9.43 26.6553 8.69 26.6553 7.86ZM33.6153 7.875C33.6153 7.255 33.4903 6.715 33.2403 6.255C32.9903 5.795 32.6503 5.445 32.2203 5.205C31.8003 4.955 31.3353 4.83 30.8253 4.83C30.3153 4.83 29.8503 4.95 29.4303 5.19C29.0103 5.43 28.6753 5.78 28.4253 6.24C28.1753 6.7 28.0503 7.24 28.0503 7.86C28.0503 8.49 28.1753 9.04 28.4253 9.51C28.6753 9.97 29.0103 10.325 29.4303 10.575C29.8503 10.815 30.3153 10.935 30.8253 10.935C31.3353 10.935 31.8003 10.815 32.2203 10.575C32.6503 10.325 32.9903 9.97 33.2403 9.51C33.4903 9.04 33.6153 8.495 33.6153 7.875ZM40.791 7.875C40.791 7.025 40.961 6.285 41.301 5.655C41.641 5.015 42.111 4.52 42.711 4.17C43.321 3.82 44.016 3.645 44.796 3.645C45.806 3.645 46.636 3.89 47.286 4.38C47.946 4.87 48.381 5.55 48.591 6.42H47.121C46.981 5.92 46.706 5.525 46.296 5.235C45.896 4.945 45.396 4.8 44.796 4.8C44.016 4.8 43.386 5.07 42.906 5.61C42.426 6.14 42.186 6.895 42.186 7.875C42.186 8.865 42.426 9.63 42.906 10.17C43.386 10.71 44.016 10.98 44.796 10.98C45.396 10.98 45.896 10.84 46.296 10.56C46.696 10.28 46.971 9.88 47.121 9.36H48.591C48.371 10.2 47.931 10.875 47.271 11.385C46.611 11.885 45.786 12.135 44.796 12.135C44.016 12.135 43.321 11.96 42.711 11.61C42.111 11.26 41.641 10.765 41.301 10.125C40.961 9.485 40.791 8.735 40.791 7.875ZM51.7773 5.115C52.0173 4.645 52.3573 4.28 52.7973 4.02C53.2473 3.76 53.7923 3.63 54.4323 3.63V5.04H54.0723C52.5423 5.04 51.7773 5.87 51.7773 7.53V12H50.4123V3.78H51.7773V5.115ZM63.508 7.575C63.508 7.835 63.493 8.11 63.463 8.4H56.893C56.943 9.21 57.218 9.845 57.718 10.305C58.228 10.755 58.843 10.98 59.563 10.98C60.153 10.98 60.643 10.845 61.033 10.575C61.433 10.295 61.713 9.925 61.873 9.465H63.343C63.123 10.255 62.683 10.9 62.023 11.4C61.363 11.89 60.543 12.135 59.563 12.135C58.783 12.135 58.083 11.96 57.463 11.61C56.853 11.26 56.373 10.765 56.023 10.125C55.673 9.475 55.498 8.725 55.498 7.875C55.498 7.025 55.668 6.28 56.008 5.64C56.348 5 56.823 4.51 57.433 4.17C58.053 3.82 58.763 3.645 59.563 3.645C60.343 3.645 61.033 3.815 61.633 4.155C62.233 4.495 62.693 4.965 63.013 5.565C63.343 6.155 63.508 6.825 63.508 7.575ZM62.098 7.29C62.098 6.77 61.983 6.325 61.753 5.955C61.523 5.575 61.208 5.29 60.808 5.1C60.418 4.9 59.983 4.8 59.503 4.8C58.813 4.8 58.223 5.02 57.733 5.46C57.253 5.9 56.978 6.51 56.908 7.29H62.098ZM64.7998 7.86C64.7998 7.02 64.9698 6.285 65.3098 5.655C65.6498 5.015 66.1148 4.52 66.7048 4.17C67.3048 3.82 67.9748 3.645 68.7148 3.645C69.3548 3.645 69.9498 3.795 70.4998 4.095C71.0498 4.385 71.4698 4.77 71.7598 5.25V0.9H73.1398V12H71.7598V10.455C71.4898 10.945 71.0898 11.35 70.5598 11.67C70.0298 11.98 69.4098 12.135 68.6998 12.135C67.9698 12.135 67.3048 11.955 66.7048 11.595C66.1148 11.235 65.6498 10.73 65.3098 10.08C64.9698 9.43 64.7998 8.69 64.7998 7.86ZM71.7598 7.875C71.7598 7.255 71.6348 6.715 71.3848 6.255C71.1348 5.795 70.7948 5.445 70.3648 5.205C69.9448 4.955 69.4798 4.83 68.9698 4.83C68.4598 4.83 67.9948 4.95 67.5748 5.19C67.1548 5.43 66.8198 5.78 66.5698 6.24C66.3198 6.7 66.1948 7.24 66.1948 7.86C66.1948 8.49 66.3198 9.04 66.5698 9.51C66.8198 9.97 67.1548 10.325 67.5748 10.575C67.9948 10.815 68.4598 10.935 68.9698 10.935C69.4798 10.935 69.9448 10.815 70.3648 10.575C70.7948 10.325 71.1348 9.97 71.3848 9.51C71.6348 9.04 71.7598 8.495 71.7598 7.875ZM76.1515 2.445C75.8915 2.445 75.6715 2.355 75.4915 2.175C75.3115 1.995 75.2215 1.775 75.2215 1.515C75.2215 1.255 75.3115 1.035 75.4915 0.855C75.6715 0.674999 75.8915 0.584999 76.1515 0.584999C76.4015 0.584999 76.6115 0.674999 76.7815 0.855C76.9615 1.035 77.0515 1.255 77.0515 1.515C77.0515 1.775 76.9615 1.995 76.7815 2.175C76.6115 2.355 76.4015 2.445 76.1515 2.445ZM76.8115 3.78V12H75.4465V3.78H76.8115ZM80.5029 5.31C80.7829 4.82 81.1929 4.42 81.7329 4.11C82.2729 3.8 82.8879 3.645 83.5779 3.645C84.3179 3.645 84.9829 3.82 85.5729 4.17C86.1629 4.52 86.6279 5.015 86.9679 5.655C87.3079 6.285 87.4779 7.02 87.4779 7.86C87.4779 8.69 87.3079 9.43 86.9679 10.08C86.6279 10.73 86.1579 11.235 85.5579 11.595C84.9679 11.955 84.3079 12.135 83.5779 12.135C82.8679 12.135 82.2429 11.98 81.7029 11.67C81.1729 11.36 80.7729 10.965 80.5029 10.485V12H79.1379V0.9H80.5029V5.31ZM86.0829 7.86C86.0829 7.24 85.9579 6.7 85.7079 6.24C85.4579 5.78 85.1179 5.43 84.6879 5.19C84.2679 4.95 83.8029 4.83 83.2929 4.83C82.7929 4.83 82.3279 4.955 81.8979 5.205C81.4779 5.445 81.1379 5.8 80.8779 6.27C80.6279 6.73 80.5029 7.265 80.5029 7.875C80.5029 8.495 80.6279 9.04 80.8779 9.51C81.1379 9.97 81.4779 10.325 81.8979 10.575C82.3279 10.815 82.7929 10.935 83.2929 10.935C83.8029 10.935 84.2679 10.815 84.6879 10.575C85.1179 10.325 85.4579 9.97 85.7079 9.51C85.9579 9.04 86.0829 8.49 86.0829 7.86ZM90.6396 0.9V12H89.2746V0.9H90.6396ZM100.466 7.575C100.466 7.835 100.451 8.11 100.421 8.4H93.851C93.901 9.21 94.176 9.845 94.676 10.305C95.186 10.755 95.801 10.98 96.521 10.98C97.111 10.98 97.601 10.845 97.991 10.575C98.391 10.295 98.671 9.925 98.831 9.465H100.301C100.081 10.255 99.641 10.9 98.981 11.4C98.321 11.89 97.501 12.135 96.521 12.135C95.741 12.135 95.041 11.96 94.421 11.61C93.811 11.26 93.331 10.765 92.981 10.125C92.631 9.475 92.456 8.725 92.456 7.875C92.456 7.025 92.626 6.28 92.966 5.64C93.306 5 93.781 4.51 94.391 4.17C95.011 3.82 95.721 3.645 96.521 3.645C97.301 3.645 97.991 3.815 98.591 4.155C99.191 4.495 99.651 4.965 99.971 5.565C100.301 6.155 100.466 6.825 100.466 7.575ZM99.056 7.29C99.056 6.77 98.941 6.325 98.711 5.955C98.481 5.575 98.166 5.29 97.766 5.1C97.376 4.9 96.941 4.8 96.461 4.8C95.771 4.8 95.181 5.02 94.691 5.46C94.211 5.9 93.936 6.51 93.866 7.29H99.056ZM107.632 5.295C107.902 4.825 108.302 4.435 108.832 4.125C109.372 3.805 109.997 3.645 110.707 3.645C111.437 3.645 112.097 3.82 112.687 4.17C113.287 4.52 113.757 5.015 114.097 5.655C114.437 6.285 114.607 7.02 114.607 7.86C114.607 8.69 114.437 9.43 114.097 10.08C113.757 10.73 113.287 11.235 112.687 11.595C112.097 11.955 111.437 12.135 110.707 12.135C110.007 12.135 109.387 11.98 108.847 11.67C108.317 11.35 107.912 10.955 107.632 10.485V15.9H106.267V3.78H107.632V5.295ZM113.212 7.86C113.212 7.24 113.087 6.7 112.837 6.24C112.587 5.78 112.247 5.43 111.817 5.19C111.397 4.95 110.932 4.83 110.422 4.83C109.922 4.83 109.457 4.955 109.027 5.205C108.607 5.445 108.267 5.8 108.007 6.27C107.757 6.73 107.632 7.265 107.632 7.875C107.632 8.495 107.757 9.04 108.007 9.51C108.267 9.97 108.607 10.325 109.027 10.575C109.457 10.815 109.922 10.935 110.422 10.935C110.932 10.935 111.397 10.815 111.817 10.575C112.247 10.325 112.587 9.97 112.837 9.51C113.087 9.04 113.212 8.49 113.212 7.86ZM117.769 5.115C118.009 4.645 118.349 4.28 118.789 4.02C119.239 3.76 119.784 3.63 120.424 3.63V5.04H120.064C118.534 5.04 117.769 5.87 117.769 7.53V12H116.404V3.78H117.769V5.115ZM125.584 12.135C124.814 12.135 124.114 11.96 123.484 11.61C122.864 11.26 122.374 10.765 122.014 10.125C121.664 9.475 121.489 8.725 121.489 7.875C121.489 7.035 121.669 6.295 122.029 5.655C122.399 5.005 122.899 4.51 123.529 4.17C124.159 3.82 124.864 3.645 125.644 3.645C126.424 3.645 127.129 3.82 127.759 4.17C128.389 4.51 128.884 5 129.244 5.64C129.614 6.28 129.799 7.025 129.799 7.875C129.799 8.725 129.609 9.475 129.229 10.125C128.859 10.765 128.354 11.26 127.714 11.61C127.074 11.96 126.364 12.135 125.584 12.135ZM125.584 10.935C126.074 10.935 126.534 10.82 126.964 10.59C127.394 10.36 127.739 10.015 127.999 9.555C128.269 9.095 128.404 8.535 128.404 7.875C128.404 7.215 128.274 6.655 128.014 6.195C127.754 5.735 127.414 5.395 126.994 5.175C126.574 4.945 126.119 4.83 125.629 4.83C125.129 4.83 124.669 4.945 124.249 5.175C123.839 5.395 123.509 5.735 123.259 6.195C123.009 6.655 122.884 7.215 122.884 7.875C122.884 8.545 123.004 9.11 123.244 9.57C123.494 10.03 123.824 10.375 124.234 10.605C124.644 10.825 125.094 10.935 125.584 10.935ZM134.939 4.905H133.214V12H131.849V4.905H130.784V3.78H131.849V3.195C131.849 2.275 132.084 1.605 132.554 1.185C133.034 0.754999 133.799 0.539999 134.849 0.539999V1.68C134.249 1.68 133.824 1.8 133.574 2.04C133.334 2.27 133.214 2.655 133.214 3.195V3.78H134.939V4.905ZM137.235 2.445C136.975 2.445 136.755 2.355 136.575 2.175C136.395 1.995 136.305 1.775 136.305 1.515C136.305 1.255 136.395 1.035 136.575 0.855C136.755 0.674999 136.975 0.584999 137.235 0.584999C137.485 0.584999 137.695 0.674999 137.865 0.855C138.045 1.035 138.135 1.255 138.135 1.515C138.135 1.775 138.045 1.995 137.865 2.175C137.695 2.355 137.485 2.445 137.235 2.445ZM137.895 3.78V12H136.53V3.78H137.895ZM141.587 0.9V12H140.222V0.9H141.587ZM151.413 7.575C151.413 7.835 151.398 8.11 151.368 8.4H144.798C144.848 9.21 145.123 9.845 145.623 10.305C146.133 10.755 146.748 10.98 147.468 10.98C148.058 10.98 148.548 10.845 148.938 10.575C149.338 10.295 149.618 9.925 149.778 9.465H151.248C151.028 10.255 150.588 10.9 149.928 11.4C149.268 11.89 148.448 12.135 147.468 12.135C146.688 12.135 145.988 11.96 145.368 11.61C144.758 11.26 144.278 10.765 143.928 10.125C143.578 9.475 143.403 8.725 143.403 7.875C143.403 7.025 143.573 6.28 143.913 5.64C144.253 5 144.728 4.51 145.338 4.17C145.958 3.82 146.668 3.645 147.468 3.645C148.248 3.645 148.938 3.815 149.538 4.155C150.138 4.495 150.598 4.965 150.918 5.565C151.248 6.155 151.413 6.825 151.413 7.575ZM150.003 7.29C150.003 6.77 149.888 6.325 149.658 5.955C149.428 5.575 149.113 5.29 148.713 5.1C148.323 4.9 147.888 4.8 147.408 4.8C146.718 4.8 146.128 5.02 145.638 5.46C145.158 5.9 144.883 6.51 144.813 7.29H150.003ZM156.125 12.135C155.495 12.135 154.93 12.03 154.43 11.82C153.93 11.6 153.535 11.3 153.245 10.92C152.955 10.53 152.795 10.085 152.765 9.585H154.175C154.215 9.995 154.405 10.33 154.745 10.59C155.095 10.85 155.55 10.98 156.11 10.98C156.63 10.98 157.04 10.865 157.34 10.635C157.64 10.405 157.79 10.115 157.79 9.765C157.79 9.405 157.63 9.14 157.31 8.97C156.99 8.79 156.495 8.615 155.825 8.445C155.215 8.285 154.715 8.125 154.325 7.965C153.945 7.795 153.615 7.55 153.335 7.23C153.065 6.9 152.93 6.47 152.93 5.94C152.93 5.52 153.055 5.135 153.305 4.785C153.555 4.435 153.91 4.16 154.37 3.96C154.83 3.75 155.355 3.645 155.945 3.645C156.855 3.645 157.59 3.875 158.15 4.335C158.71 4.795 159.01 5.425 159.05 6.225H157.685C157.655 5.795 157.48 5.45 157.16 5.19C156.85 4.93 156.43 4.8 155.9 4.8C155.41 4.8 155.02 4.905 154.73 5.115C154.44 5.325 154.295 5.6 154.295 5.94C154.295 6.21 154.38 6.435 154.55 6.615C154.73 6.785 154.95 6.925 155.21 7.035C155.48 7.135 155.85 7.25 156.32 7.38C156.91 7.54 157.39 7.7 157.76 7.86C158.13 8.01 158.445 8.24 158.705 8.55C158.975 8.86 159.115 9.265 159.125 9.765C159.125 10.215 159 10.62 158.75 10.98C158.5 11.34 158.145 11.625 157.685 11.835C157.235 12.035 156.715 12.135 156.125 12.135ZM166.416 5.31C166.696 4.82 167.106 4.42 167.646 4.11C168.186 3.8 168.801 3.645 169.491 3.645C170.231 3.645 170.896 3.82 171.486 4.17C172.076 4.52 172.541 5.015 172.881 5.655C173.221 6.285 173.391 7.02 173.391 7.86C173.391 8.69 173.221 9.43 172.881 10.08C172.541 10.73 172.071 11.235 171.471 11.595C170.881 11.955 170.221 12.135 169.491 12.135C168.781 12.135 168.156 11.98 167.616 11.67C167.086 11.36 166.686 10.965 166.416 10.485V12H165.051V0.9H166.416V5.31ZM171.996 7.86C171.996 7.24 171.871 6.7 171.621 6.24C171.371 5.78 171.031 5.43 170.601 5.19C170.181 4.95 169.716 4.83 169.206 4.83C168.706 4.83 168.241 4.955 167.811 5.205C167.391 5.445 167.051 5.8 166.791 6.27C166.541 6.73 166.416 7.265 166.416 7.875C166.416 8.495 166.541 9.04 166.791 9.51C167.051 9.97 167.391 10.325 167.811 10.575C168.241 10.815 168.706 10.935 169.206 10.935C169.716 10.935 170.181 10.815 170.601 10.575C171.031 10.325 171.371 9.97 171.621 9.51C171.871 9.04 171.996 8.49 171.996 7.86ZM182.268 3.78L177.318 15.87H175.908L177.528 11.91L174.213 3.78H175.728L178.308 10.44L180.858 3.78H182.268ZM191.224 12.135C190.454 12.135 189.754 11.96 189.124 11.61C188.504 11.26 188.014 10.765 187.654 10.125C187.304 9.475 187.129 8.725 187.129 7.875C187.129 7.035 187.309 6.295 187.669 5.655C188.039 5.005 188.539 4.51 189.169 4.17C189.799 3.82 190.504 3.645 191.284 3.645C192.064 3.645 192.769 3.82 193.399 4.17C194.029 4.51 194.524 5 194.884 5.64C195.254 6.28 195.439 7.025 195.439 7.875C195.439 8.725 195.249 9.475 194.869 10.125C194.499 10.765 193.994 11.26 193.354 11.61C192.714 11.96 192.004 12.135 191.224 12.135ZM191.224 10.935C191.714 10.935 192.174 10.82 192.604 10.59C193.034 10.36 193.379 10.015 193.639 9.555C193.909 9.095 194.044 8.535 194.044 7.875C194.044 7.215 193.914 6.655 193.654 6.195C193.394 5.735 193.054 5.395 192.634 5.175C192.214 4.945 191.759 4.83 191.269 4.83C190.769 4.83 190.309 4.945 189.889 5.175C189.479 5.395 189.149 5.735 188.899 6.195C188.649 6.655 188.524 7.215 188.524 7.875C188.524 8.545 188.644 9.11 188.884 9.57C189.134 10.03 189.464 10.375 189.874 10.605C190.284 10.825 190.734 10.935 191.224 10.935ZM198.599 5.31C198.879 4.82 199.289 4.42 199.829 4.11C200.369 3.8 200.984 3.645 201.674 3.645C202.414 3.645 203.079 3.82 203.669 4.17C204.259 4.52 204.724 5.015 205.064 5.655C205.404 6.285 205.574 7.02 205.574 7.86C205.574 8.69 205.404 9.43 205.064 10.08C204.724 10.73 204.254 11.235 203.654 11.595C203.064 11.955 202.404 12.135 201.674 12.135C200.964 12.135 200.339 11.98 199.799 11.67C199.269 11.36 198.869 10.965 198.599 10.485V12H197.234V0.9H198.599V5.31ZM204.179 7.86C204.179 7.24 204.054 6.7 203.804 6.24C203.554 5.78 203.214 5.43 202.784 5.19C202.364 4.95 201.899 4.83 201.389 4.83C200.889 4.83 200.424 4.955 199.994 5.205C199.574 5.445 199.234 5.8 198.974 6.27C198.724 6.73 198.599 7.265 198.599 7.875C198.599 8.495 198.724 9.04 198.974 9.51C199.234 9.97 199.574 10.325 199.994 10.575C200.424 10.815 200.889 10.935 201.389 10.935C201.899 10.935 202.364 10.815 202.784 10.575C203.214 10.325 203.554 9.97 203.804 9.51C204.054 9.04 204.179 8.49 204.179 7.86ZM209.035 4.905V9.75C209.035 10.15 209.12 10.435 209.29 10.605C209.46 10.765 209.755 10.845 210.175 10.845H211.18V12H209.95C209.19 12 208.62 11.825 208.24 11.475C207.86 11.125 207.67 10.55 207.67 9.75V4.905H206.605V3.78H207.67V1.71H209.035V3.78H211.18V4.905H209.035ZM212.324 7.86C212.324 7.02 212.494 6.285 212.834 5.655C213.174 5.015 213.639 4.52 214.229 4.17C214.829 3.82 215.494 3.645 216.224 3.645C216.944 3.645 217.569 3.8 218.099 4.11C218.629 4.42 219.024 4.81 219.284 5.28V3.78H220.664V12H219.284V10.47C219.014 10.95 218.609 11.35 218.069 11.67C217.539 11.98 216.919 12.135 216.209 12.135C215.479 12.135 214.819 11.955 214.229 11.595C213.639 11.235 213.174 10.73 212.834 10.08C212.494 9.43 212.324 8.69 212.324 7.86ZM219.284 7.875C219.284 7.255 219.159 6.715 218.909 6.255C218.659 5.795 218.319 5.445 217.889 5.205C217.469 4.955 217.004 4.83 216.494 4.83C215.984 4.83 215.519 4.95 215.099 5.19C214.679 5.43 214.344 5.78 214.094 6.24C213.844 6.7 213.719 7.24 213.719 7.86C213.719 8.49 213.844 9.04 214.094 9.51C214.344 9.97 214.679 10.325 215.099 10.575C215.519 10.815 215.984 10.935 216.494 10.935C217.004 10.935 217.469 10.815 217.889 10.575C218.319 10.325 218.659 9.97 218.909 9.51C219.159 9.04 219.284 8.495 219.284 7.875ZM223.676 2.445C223.416 2.445 223.196 2.355 223.016 2.175C222.836 1.995 222.746 1.775 222.746 1.515C222.746 1.255 222.836 1.035 223.016 0.855C223.196 0.674999 223.416 0.584999 223.676 0.584999C223.926 0.584999 224.136 0.674999 224.306 0.855C224.486 1.035 224.576 1.255 224.576 1.515C224.576 1.775 224.486 1.995 224.306 2.175C224.136 2.355 223.926 2.445 223.676 2.445ZM224.336 3.78V12H222.971V3.78H224.336ZM230.667 3.63C231.667 3.63 232.477 3.935 233.097 4.545C233.717 5.145 234.027 6.015 234.027 7.155V12H232.677V7.35C232.677 6.53 232.472 5.905 232.062 5.475C231.652 5.035 231.092 4.815 230.382 4.815C229.662 4.815 229.087 5.04 228.657 5.49C228.237 5.94 228.027 6.595 228.027 7.455V12H226.662V3.78H228.027V4.95C228.297 4.53 228.662 4.205 229.122 3.975C229.592 3.745 230.107 3.63 230.667 3.63ZM236.962 2.445C236.702 2.445 236.482 2.355 236.302 2.175C236.122 1.995 236.032 1.775 236.032 1.515C236.032 1.255 236.122 1.035 236.302 0.855C236.482 0.674999 236.702 0.584999 236.962 0.584999C237.212 0.584999 237.422 0.674999 237.592 0.855C237.772 1.035 237.862 1.255 237.862 1.515C237.862 1.775 237.772 1.995 237.592 2.175C237.422 2.355 237.212 2.445 236.962 2.445ZM237.622 3.78V12H236.257V3.78H237.622ZM243.953 3.63C244.953 3.63 245.763 3.935 246.383 4.545C247.003 5.145 247.313 6.015 247.313 7.155V12H245.963V7.35C245.963 6.53 245.758 5.905 245.348 5.475C244.938 5.035 244.378 4.815 243.668 4.815C242.948 4.815 242.373 5.04 241.943 5.49C241.523 5.94 241.313 6.595 241.313 7.455V12H239.948V3.78H241.313V4.95C241.583 4.53 241.948 4.205 242.408 3.975C242.878 3.745 243.393 3.63 243.953 3.63ZM252.933 3.645C253.643 3.645 254.263 3.8 254.793 4.11C255.333 4.42 255.733 4.81 255.993 5.28V3.78H257.373V12.18C257.373 12.93 257.213 13.595 256.893 14.175C256.573 14.765 256.113 15.225 255.513 15.555C254.923 15.885 254.233 16.05 253.443 16.05C252.363 16.05 251.463 15.795 250.743 15.285C250.023 14.775 249.598 14.08 249.468 13.2H250.818C250.968 13.7 251.278 14.1 251.748 14.4C252.218 14.71 252.783 14.865 253.443 14.865C254.193 14.865 254.803 14.63 255.273 14.16C255.753 13.69 255.993 13.03 255.993 12.18V10.455C255.723 10.935 255.323 11.335 254.793 11.655C254.263 11.975 253.643 12.135 252.933 12.135C252.203 12.135 251.538 11.955 250.938 11.595C250.348 11.235 249.883 10.73 249.543 10.08C249.203 9.43 249.033 8.69 249.033 7.86C249.033 7.02 249.203 6.285 249.543 5.655C249.883 5.015 250.348 4.52 250.938 4.17C251.538 3.82 252.203 3.645 252.933 3.645ZM255.993 7.875C255.993 7.255 255.868 6.715 255.618 6.255C255.368 5.795 255.028 5.445 254.598 5.205C254.178 4.955 253.713 4.83 253.203 4.83C252.693 4.83 252.228 4.95 251.808 5.19C251.388 5.43 251.053 5.78 250.803 6.24C250.553 6.7 250.428 7.24 250.428 7.86C250.428 8.49 250.553 9.04 250.803 9.51C251.053 9.97 251.388 10.325 251.808 10.575C252.228 10.815 252.693 10.935 253.203 10.935C253.713 10.935 254.178 10.815 254.598 10.575C255.028 10.325 255.368 9.97 255.618 9.51C255.868 9.04 255.993 8.495 255.993 7.875ZM263.169 7.875C263.169 7.025 263.339 6.285 263.679 5.655C264.019 5.015 264.489 4.52 265.089 4.17C265.699 3.82 266.394 3.645 267.174 3.645C268.184 3.645 269.014 3.89 269.664 4.38C270.324 4.87 270.759 5.55 270.969 6.42H269.499C269.359 5.92 269.084 5.525 268.674 5.235C268.274 4.945 267.774 4.8 267.174 4.8C266.394 4.8 265.764 5.07 265.284 5.61C264.804 6.14 264.564 6.895 264.564 7.875C264.564 8.865 264.804 9.63 265.284 10.17C265.764 10.71 266.394 10.98 267.174 10.98C267.774 10.98 268.274 10.84 268.674 10.56C269.074 10.28 269.349 9.88 269.499 9.36H270.969C270.749 10.2 270.309 10.875 269.649 11.385C268.989 11.885 268.164 12.135 267.174 12.135C266.394 12.135 265.699 11.96 265.089 11.61C264.489 11.26 264.019 10.765 263.679 10.125C263.339 9.485 263.169 8.735 263.169 7.875ZM280.29 7.575C280.29 7.835 280.275 8.11 280.245 8.4H273.675C273.725 9.21 274 9.845 274.5 10.305C275.01 10.755 275.625 10.98 276.345 10.98C276.935 10.98 277.425 10.845 277.815 10.575C278.215 10.295 278.495 9.925 278.655 9.465H280.125C279.905 10.255 279.465 10.9 278.805 11.4C278.145 11.89 277.325 12.135 276.345 12.135C275.565 12.135 274.865 11.96 274.245 11.61C273.635 11.26 273.155 10.765 272.805 10.125C272.455 9.475 272.28 8.725 272.28 7.875C272.28 7.025 272.45 6.28 272.79 5.64C273.13 5 273.605 4.51 274.215 4.17C274.835 3.82 275.545 3.645 276.345 3.645C277.125 3.645 277.815 3.815 278.415 4.155C279.015 4.495 279.475 4.965 279.795 5.565C280.125 6.155 280.29 6.825 280.29 7.575ZM278.88 7.29C278.88 6.77 278.765 6.325 278.535 5.955C278.305 5.575 277.99 5.29 277.59 5.1C277.2 4.9 276.765 4.8 276.285 4.8C275.595 4.8 275.005 5.02 274.515 5.46C274.035 5.9 273.76 6.51 273.69 7.29H278.88ZM283.457 5.115C283.697 4.645 284.037 4.28 284.477 4.02C284.927 3.76 285.472 3.63 286.112 3.63V5.04H285.752C284.222 5.04 283.457 5.87 283.457 7.53V12H282.092V3.78H283.457V5.115ZM289.353 4.905V9.75C289.353 10.15 289.438 10.435 289.608 10.605C289.778 10.765 290.073 10.845 290.493 10.845H291.498V12H290.268C289.508 12 288.938 11.825 288.558 11.475C288.178 11.125 287.988 10.55 287.988 9.75V4.905H286.923V3.78H287.988V1.71H289.353V3.78H291.498V4.905H289.353ZM293.857 2.445C293.597 2.445 293.377 2.355 293.197 2.175C293.017 1.995 292.927 1.775 292.927 1.515C292.927 1.255 293.017 1.035 293.197 0.855C293.377 0.674999 293.597 0.584999 293.857 0.584999C294.107 0.584999 294.317 0.674999 294.487 0.855C294.667 1.035 294.757 1.255 294.757 1.515C294.757 1.775 294.667 1.995 294.487 2.175C294.317 2.355 294.107 2.445 293.857 2.445ZM294.517 3.78V12H293.152V3.78H294.517ZM300.188 4.905H298.463V12H297.098V4.905H296.033V3.78H297.098V3.195C297.098 2.275 297.333 1.605 297.803 1.185C298.283 0.754999 299.048 0.539999 300.098 0.539999V1.68C299.498 1.68 299.073 1.8 298.823 2.04C298.583 2.27 298.463 2.655 298.463 3.195V3.78H300.188V4.905ZM302.485 2.445C302.225 2.445 302.005 2.355 301.825 2.175C301.645 1.995 301.555 1.775 301.555 1.515C301.555 1.255 301.645 1.035 301.825 0.855C302.005 0.674999 302.225 0.584999 302.485 0.584999C302.735 0.584999 302.945 0.674999 303.115 0.855C303.295 1.035 303.385 1.255 303.385 1.515C303.385 1.775 303.295 1.995 303.115 2.175C302.945 2.355 302.735 2.445 302.485 2.445ZM303.145 3.78V12H301.78V3.78H303.145ZM304.961 7.875C304.961 7.025 305.131 6.285 305.471 5.655C305.811 5.015 306.281 4.52 306.881 4.17C307.491 3.82 308.186 3.645 308.966 3.645C309.976 3.645 310.806 3.89 311.456 4.38C312.116 4.87 312.551 5.55 312.761 6.42H311.291C311.151 5.92 310.876 5.525 310.466 5.235C310.066 4.945 309.566 4.8 308.966 4.8C308.186 4.8 307.556 5.07 307.076 5.61C306.596 6.14 306.356 6.895 306.356 7.875C306.356 8.865 306.596 9.63 307.076 10.17C307.556 10.71 308.186 10.98 308.966 10.98C309.566 10.98 310.066 10.84 310.466 10.56C310.866 10.28 311.141 9.88 311.291 9.36H312.761C312.541 10.2 312.101 10.875 311.441 11.385C310.781 11.885 309.956 12.135 308.966 12.135C308.186 12.135 307.491 11.96 306.881 11.61C306.281 11.26 305.811 10.765 305.471 10.125C305.131 9.485 304.961 8.735 304.961 7.875ZM314.072 7.86C314.072 7.02 314.242 6.285 314.582 5.655C314.922 5.015 315.387 4.52 315.977 4.17C316.577 3.82 317.242 3.645 317.972 3.645C318.692 3.645 319.317 3.8 319.847 4.11C320.377 4.42 320.772 4.81 321.032 5.28V3.78H322.412V12H321.032V10.47C320.762 10.95 320.357 11.35 319.817 11.67C319.287 11.98 318.667 12.135 317.957 12.135C317.227 12.135 316.567 11.955 315.977 11.595C315.387 11.235 314.922 10.73 314.582 10.08C314.242 9.43 314.072 8.69 314.072 7.86ZM321.032 7.875C321.032 7.255 320.907 6.715 320.657 6.255C320.407 5.795 320.067 5.445 319.637 5.205C319.217 4.955 318.752 4.83 318.242 4.83C317.732 4.83 317.267 4.95 316.847 5.19C316.427 5.43 316.092 5.78 315.842 6.24C315.592 6.7 315.467 7.24 315.467 7.86C315.467 8.49 315.592 9.04 315.842 9.51C316.092 9.97 316.427 10.325 316.847 10.575C317.267 10.815 317.732 10.935 318.242 10.935C318.752 10.935 319.217 10.815 319.637 10.575C320.067 10.325 320.407 9.97 320.657 9.51C320.907 9.04 321.032 8.495 321.032 7.875ZM326.384 4.905V9.75C326.384 10.15 326.469 10.435 326.639 10.605C326.809 10.765 327.104 10.845 327.524 10.845H328.529V12H327.299C326.539 12 325.969 11.825 325.589 11.475C325.209 11.125 325.019 10.55 325.019 9.75V4.905H323.954V3.78H325.019V1.71H326.384V3.78H328.529V4.905H326.384ZM337.683 7.575C337.683 7.835 337.668 8.11 337.638 8.4H331.068C331.118 9.21 331.393 9.845 331.893 10.305C332.403 10.755 333.018 10.98 333.738 10.98C334.328 10.98 334.818 10.845 335.208 10.575C335.608 10.295 335.888 9.925 336.048 9.465H337.518C337.298 10.255 336.858 10.9 336.198 11.4C335.538 11.89 334.718 12.135 333.738 12.135C332.958 12.135 332.258 11.96 331.638 11.61C331.028 11.26 330.548 10.765 330.198 10.125C329.848 9.475 329.673 8.725 329.673 7.875C329.673 7.025 329.843 6.28 330.183 5.64C330.523 5 330.998 4.51 331.608 4.17C332.228 3.82 332.938 3.645 333.738 3.645C334.518 3.645 335.208 3.815 335.808 4.155C336.408 4.495 336.868 4.965 337.188 5.565C337.518 6.155 337.683 6.825 337.683 7.575ZM336.273 7.29C336.273 6.77 336.158 6.325 335.928 5.955C335.698 5.575 335.383 5.29 334.983 5.1C334.593 4.9 334.158 4.8 333.678 4.8C332.988 4.8 332.398 5.02 331.908 5.46C331.428 5.9 331.153 6.51 331.083 7.29H336.273ZM342.395 12.135C341.765 12.135 341.2 12.03 340.7 11.82C340.2 11.6 339.805 11.3 339.515 10.92C339.225 10.53 339.065 10.085 339.035 9.585H340.445C340.485 9.995 340.675 10.33 341.015 10.59C341.365 10.85 341.82 10.98 342.38 10.98C342.9 10.98 343.31 10.865 343.61 10.635C343.91 10.405 344.06 10.115 344.06 9.765C344.06 9.405 343.9 9.14 343.58 8.97C343.26 8.79 342.765 8.615 342.095 8.445C341.485 8.285 340.985 8.125 340.595 7.965C340.215 7.795 339.885 7.55 339.605 7.23C339.335 6.9 339.2 6.47 339.2 5.94C339.2 5.52 339.325 5.135 339.575 4.785C339.825 4.435 340.18 4.16 340.64 3.96C341.1 3.75 341.625 3.645 342.215 3.645C343.125 3.645 343.86 3.875 344.42 4.335C344.98 4.795 345.28 5.425 345.32 6.225H343.955C343.925 5.795 343.75 5.45 343.43 5.19C343.12 4.93 342.7 4.8 342.17 4.8C341.68 4.8 341.29 4.905 341 5.115C340.71 5.325 340.565 5.6 340.565 5.94C340.565 6.21 340.65 6.435 340.82 6.615C341 6.785 341.22 6.925 341.48 7.035C341.75 7.135 342.12 7.25 342.59 7.38C343.18 7.54 343.66 7.7 344.03 7.86C344.4 8.01 344.715 8.24 344.975 8.55C345.245 8.86 345.385 9.265 345.395 9.765C345.395 10.215 345.27 10.62 345.02 10.98C344.77 11.34 344.415 11.625 343.955 11.835C343.505 12.035 342.985 12.135 342.395 12.135ZM32.5757 27.905H30.8507V35H29.4857V27.905H28.4207V26.78H29.4857V26.195C29.4857 25.275 29.7207 24.605 30.1907 24.185C30.6707 23.755 31.4357 23.54 32.4857 23.54V24.68C31.8857 24.68 31.4607 24.8 31.2107 25.04C30.9707 25.27 30.8507 25.655 30.8507 26.195V26.78H32.5757V27.905ZM35.5322 28.115C35.7722 27.645 36.1122 27.28 36.5522 27.02C37.0022 26.76 37.5472 26.63 38.1872 26.63V28.04H37.8272C36.2972 28.04 35.5322 28.87 35.5322 30.53V35H34.1672V26.78H35.5322V28.115ZM43.3479 35.135C42.5779 35.135 41.8779 34.96 41.2479 34.61C40.6279 34.26 40.1379 33.765 39.7779 33.125C39.4279 32.475 39.2529 31.725 39.2529 30.875C39.2529 30.035 39.4329 29.295 39.7929 28.655C40.1629 28.005 40.6629 27.51 41.2929 27.17C41.9229 26.82 42.6279 26.645 43.4079 26.645C44.1879 26.645 44.8929 26.82 45.5229 27.17C46.1529 27.51 46.6479 28 47.0079 28.64C47.3779 29.28 47.5629 30.025 47.5629 30.875C47.5629 31.725 47.3729 32.475 46.9929 33.125C46.6229 33.765 46.1179 34.26 45.4779 34.61C44.8379 34.96 44.1279 35.135 43.3479 35.135ZM43.3479 33.935C43.8379 33.935 44.2979 33.82 44.7279 33.59C45.1579 33.36 45.5029 33.015 45.7629 32.555C46.0329 32.095 46.1679 31.535 46.1679 30.875C46.1679 30.215 46.0379 29.655 45.7779 29.195C45.5179 28.735 45.1779 28.395 44.7579 28.175C44.3379 27.945 43.8829 27.83 43.3929 27.83C42.8929 27.83 42.4329 27.945 42.0129 28.175C41.6029 28.395 41.2729 28.735 41.0229 29.195C40.7729 29.655 40.6479 30.215 40.6479 30.875C40.6479 31.545 40.7679 32.11 41.0079 32.57C41.2579 33.03 41.5879 33.375 41.9979 33.605C42.4079 33.825 42.8579 33.935 43.3479 33.935ZM59.2426 26.63C59.8826 26.63 60.4526 26.765 60.9526 27.035C61.4526 27.295 61.8476 27.69 62.1376 28.22C62.4276 28.75 62.5726 29.395 62.5726 30.155V35H61.2226V30.35C61.2226 29.53 61.0176 28.905 60.6076 28.475C60.2076 28.035 59.6626 27.815 58.9726 27.815C58.2626 27.815 57.6976 28.045 57.2776 28.505C56.8576 28.955 56.6476 29.61 56.6476 30.47V35H55.2976V30.35C55.2976 29.53 55.0926 28.905 54.6826 28.475C54.2826 28.035 53.7376 27.815 53.0476 27.815C52.3376 27.815 51.7726 28.045 51.3526 28.505C50.9326 28.955 50.7226 29.61 50.7226 30.47V35H49.3576V26.78H50.7226V27.965C50.9926 27.535 51.3526 27.205 51.8026 26.975C52.2626 26.745 52.7676 26.63 53.3176 26.63C54.0076 26.63 54.6176 26.785 55.1476 27.095C55.6776 27.405 56.0726 27.86 56.3326 28.46C56.5626 27.88 56.9426 27.43 57.4726 27.11C58.0026 26.79 58.5926 26.63 59.2426 26.63ZM70.4758 27.905V32.75C70.4758 33.15 70.5608 33.435 70.7308 33.605C70.9008 33.765 71.1958 33.845 71.6158 33.845H72.6208V35H71.3908C70.6308 35 70.0608 34.825 69.6808 34.475C69.3008 34.125 69.1108 33.55 69.1108 32.75V27.905H68.0458V26.78H69.1108V24.71H70.4758V26.78H72.6208V27.905H70.4758ZM73.7646 30.86C73.7646 30.02 73.9346 29.285 74.2746 28.655C74.6146 28.015 75.0796 27.52 75.6696 27.17C76.2696 26.82 76.9346 26.645 77.6646 26.645C78.3846 26.645 79.0096 26.8 79.5396 27.11C80.0696 27.42 80.4646 27.81 80.7246 28.28V26.78H82.1046V35H80.7246V33.47C80.4546 33.95 80.0496 34.35 79.5096 34.67C78.9796 34.98 78.3596 35.135 77.6496 35.135C76.9196 35.135 76.2596 34.955 75.6696 34.595C75.0796 34.235 74.6146 33.73 74.2746 33.08C73.9346 32.43 73.7646 31.69 73.7646 30.86ZM80.7246 30.875C80.7246 30.255 80.5996 29.715 80.3496 29.255C80.0996 28.795 79.7596 28.445 79.3296 28.205C78.9096 27.955 78.4446 27.83 77.9346 27.83C77.4246 27.83 76.9596 27.95 76.5396 28.19C76.1196 28.43 75.7846 28.78 75.5346 29.24C75.2846 29.7 75.1596 30.24 75.1596 30.86C75.1596 31.49 75.2846 32.04 75.5346 32.51C75.7846 32.97 76.1196 33.325 76.5396 33.575C76.9596 33.815 77.4246 33.935 77.9346 33.935C78.4446 33.935 78.9096 33.815 79.3296 33.575C79.7596 33.325 80.0996 32.97 80.3496 32.51C80.5996 32.04 80.7246 31.495 80.7246 30.875ZM87.3213 35.135C86.6913 35.135 86.1263 35.03 85.6263 34.82C85.1263 34.6 84.7313 34.3 84.4413 33.92C84.1513 33.53 83.9913 33.085 83.9613 32.585H85.3713C85.4113 32.995 85.6013 33.33 85.9413 33.59C86.2913 33.85 86.7463 33.98 87.3063 33.98C87.8263 33.98 88.2363 33.865 88.5363 33.635C88.8363 33.405 88.9863 33.115 88.9863 32.765C88.9863 32.405 88.8263 32.14 88.5063 31.97C88.1863 31.79 87.6913 31.615 87.0213 31.445C86.4113 31.285 85.9113 31.125 85.5213 30.965C85.1413 30.795 84.8113 30.55 84.5313 30.23C84.2613 29.9 84.1263 29.47 84.1263 28.94C84.1263 28.52 84.2513 28.135 84.5013 27.785C84.7513 27.435 85.1063 27.16 85.5663 26.96C86.0263 26.75 86.5513 26.645 87.1413 26.645C88.0513 26.645 88.7863 26.875 89.3463 27.335C89.9063 27.795 90.2063 28.425 90.2463 29.225H88.8813C88.8513 28.795 88.6763 28.45 88.3563 28.19C88.0463 27.93 87.6263 27.8 87.0963 27.8C86.6063 27.8 86.2163 27.905 85.9263 28.115C85.6363 28.325 85.4913 28.6 85.4913 28.94C85.4913 29.21 85.5763 29.435 85.7463 29.615C85.9263 29.785 86.1463 29.925 86.4063 30.035C86.6763 30.135 87.0463 30.25 87.5163 30.38C88.1063 30.54 88.5863 30.7 88.9563 30.86C89.3263 31.01 89.6413 31.24 89.9013 31.55C90.1713 31.86 90.3113 32.265 90.3213 32.765C90.3213 33.215 90.1963 33.62 89.9463 33.98C89.6963 34.34 89.3413 34.625 88.8813 34.835C88.4313 35.035 87.9113 35.135 87.3213 35.135ZM96.8383 35L93.6133 31.37V35H92.2483V23.9H93.6133V30.425L96.7783 26.78H98.6833L94.8133 30.875L98.6983 35H96.8383ZM102.878 35.135C102.248 35.135 101.683 35.03 101.183 34.82C100.683 34.6 100.288 34.3 99.998 33.92C99.708 33.53 99.548 33.085 99.518 32.585H100.928C100.968 32.995 101.158 33.33 101.498 33.59C101.848 33.85 102.303 33.98 102.863 33.98C103.383 33.98 103.793 33.865 104.093 33.635C104.393 33.405 104.543 33.115 104.543 32.765C104.543 32.405 104.383 32.14 104.063 31.97C103.743 31.79 103.248 31.615 102.578 31.445C101.968 31.285 101.468 31.125 101.078 30.965C100.698 30.795 100.368 30.55 100.088 30.23C99.818 29.9 99.683 29.47 99.683 28.94C99.683 28.52 99.808 28.135 100.058 27.785C100.308 27.435 100.663 27.16 101.123 26.96C101.583 26.75 102.108 26.645 102.698 26.645C103.608 26.645 104.343 26.875 104.903 27.335C105.463 27.795 105.763 28.425 105.803 29.225H104.438C104.408 28.795 104.233 28.45 103.913 28.19C103.603 27.93 103.183 27.8 102.653 27.8C102.163 27.8 101.773 27.905 101.483 28.115C101.193 28.325 101.048 28.6 101.048 28.94C101.048 29.21 101.133 29.435 101.303 29.615C101.483 29.785 101.703 29.925 101.963 30.035C102.233 30.135 102.603 30.25 103.073 30.38C103.663 30.54 104.143 30.7 104.513 30.86C104.883 31.01 105.198 31.24 105.458 31.55C105.728 31.86 105.868 32.265 105.878 32.765C105.878 33.215 105.753 33.62 105.503 33.98C105.253 34.34 104.898 34.625 104.438 34.835C103.988 35.035 103.468 35.135 102.878 35.135ZM113.469 27.905V32.75C113.469 33.15 113.554 33.435 113.724 33.605C113.894 33.765 114.189 33.845 114.609 33.845H115.614V35H114.384C113.624 35 113.054 34.825 112.674 34.475C112.294 34.125 112.104 33.55 112.104 32.75V27.905H111.039V26.78H112.104V24.71H113.469V26.78H115.614V27.905H113.469ZM120.853 35.135C120.083 35.135 119.383 34.96 118.753 34.61C118.133 34.26 117.643 33.765 117.283 33.125C116.933 32.475 116.758 31.725 116.758 30.875C116.758 30.035 116.938 29.295 117.298 28.655C117.668 28.005 118.168 27.51 118.798 27.17C119.428 26.82 120.133 26.645 120.913 26.645C121.693 26.645 122.398 26.82 123.028 27.17C123.658 27.51 124.153 28 124.513 28.64C124.883 29.28 125.068 30.025 125.068 30.875C125.068 31.725 124.878 32.475 124.498 33.125C124.128 33.765 123.623 34.26 122.983 34.61C122.343 34.96 121.633 35.135 120.853 35.135ZM120.853 33.935C121.343 33.935 121.803 33.82 122.233 33.59C122.663 33.36 123.008 33.015 123.268 32.555C123.538 32.095 123.673 31.535 123.673 30.875C123.673 30.215 123.543 29.655 123.283 29.195C123.023 28.735 122.683 28.395 122.263 28.175C121.843 27.945 121.388 27.83 120.898 27.83C120.398 27.83 119.938 27.945 119.518 28.175C119.108 28.395 118.778 28.735 118.528 29.195C118.278 29.655 118.153 30.215 118.153 30.875C118.153 31.545 118.273 32.11 118.513 32.57C118.763 33.03 119.093 33.375 119.503 33.605C119.913 33.825 120.363 33.935 120.853 33.935ZM130.352 30.86C130.352 30.02 130.522 29.285 130.862 28.655C131.202 28.015 131.667 27.52 132.257 27.17C132.857 26.82 133.522 26.645 134.252 26.645C134.972 26.645 135.597 26.8 136.127 27.11C136.657 27.42 137.052 27.81 137.312 28.28V26.78H138.692V35H137.312V33.47C137.042 33.95 136.637 34.35 136.097 34.67C135.567 34.98 134.947 35.135 134.237 35.135C133.507 35.135 132.847 34.955 132.257 34.595C131.667 34.235 131.202 33.73 130.862 33.08C130.522 32.43 130.352 31.69 130.352 30.86ZM137.312 30.875C137.312 30.255 137.187 29.715 136.937 29.255C136.687 28.795 136.347 28.445 135.917 28.205C135.497 27.955 135.032 27.83 134.522 27.83C134.012 27.83 133.547 27.95 133.127 28.19C132.707 28.43 132.372 28.78 132.122 29.24C131.872 29.7 131.747 30.24 131.747 30.86C131.747 31.49 131.872 32.04 132.122 32.51C132.372 32.97 132.707 33.325 133.127 33.575C133.547 33.815 134.012 33.935 134.522 33.935C135.032 33.935 135.497 33.815 135.917 33.575C136.347 33.325 136.687 32.97 136.937 32.51C137.187 32.04 137.312 31.495 137.312 30.875ZM141.703 25.445C141.443 25.445 141.223 25.355 141.043 25.175C140.863 24.995 140.773 24.775 140.773 24.515C140.773 24.255 140.863 24.035 141.043 23.855C141.223 23.675 141.443 23.585 141.703 23.585C141.953 23.585 142.163 23.675 142.333 23.855C142.513 24.035 142.603 24.255 142.603 24.515C142.603 24.775 142.513 24.995 142.333 25.175C142.163 25.355 141.953 25.445 141.703 25.445ZM142.363 26.78V35H140.998V26.78H142.363ZM144.18 30.86C144.18 30.02 144.35 29.285 144.69 28.655C145.03 28.015 145.495 27.52 146.085 27.17C146.685 26.82 147.355 26.645 148.095 26.645C148.735 26.645 149.33 26.795 149.88 27.095C150.43 27.385 150.85 27.77 151.14 28.25V23.9H152.52V35H151.14V33.455C150.87 33.945 150.47 34.35 149.94 34.67C149.41 34.98 148.79 35.135 148.08 35.135C147.35 35.135 146.685 34.955 146.085 34.595C145.495 34.235 145.03 33.73 144.69 33.08C144.35 32.43 144.18 31.69 144.18 30.86ZM151.14 30.875C151.14 30.255 151.015 29.715 150.765 29.255C150.515 28.795 150.175 28.445 149.745 28.205C149.325 27.955 148.86 27.83 148.35 27.83C147.84 27.83 147.375 27.95 146.955 28.19C146.535 28.43 146.2 28.78 145.95 29.24C145.7 29.7 145.575 30.24 145.575 30.86C145.575 31.49 145.7 32.04 145.95 32.51C146.2 32.97 146.535 33.325 146.955 33.575C147.375 33.815 147.84 33.935 148.35 33.935C148.86 33.935 149.325 33.815 149.745 33.575C150.175 33.325 150.515 32.97 150.765 32.51C151.015 32.04 151.14 31.495 151.14 30.875ZM165.905 26.78L160.955 38.87H159.545L161.165 34.91L157.85 26.78H159.365L161.945 33.44L164.495 26.78H165.905ZM170.863 35.135C170.093 35.135 169.393 34.96 168.763 34.61C168.143 34.26 167.653 33.765 167.293 33.125C166.943 32.475 166.768 31.725 166.768 30.875C166.768 30.035 166.948 29.295 167.308 28.655C167.678 28.005 168.178 27.51 168.808 27.17C169.438 26.82 170.143 26.645 170.923 26.645C171.703 26.645 172.408 26.82 173.038 27.17C173.668 27.51 174.163 28 174.523 28.64C174.893 29.28 175.078 30.025 175.078 30.875C175.078 31.725 174.888 32.475 174.508 33.125C174.138 33.765 173.633 34.26 172.993 34.61C172.353 34.96 171.643 35.135 170.863 35.135ZM170.863 33.935C171.353 33.935 171.813 33.82 172.243 33.59C172.673 33.36 173.018 33.015 173.278 32.555C173.548 32.095 173.683 31.535 173.683 30.875C173.683 30.215 173.553 29.655 173.293 29.195C173.033 28.735 172.693 28.395 172.273 28.175C171.853 27.945 171.398 27.83 170.908 27.83C170.408 27.83 169.948 27.945 169.528 28.175C169.118 28.395 168.788 28.735 168.538 29.195C168.288 29.655 168.163 30.215 168.163 30.875C168.163 31.545 168.283 32.11 168.523 32.57C168.773 33.03 169.103 33.375 169.513 33.605C169.923 33.825 170.373 33.935 170.863 33.935ZM184.162 26.78V35H182.797V33.785C182.537 34.205 182.172 34.535 181.702 34.775C181.242 35.005 180.732 35.12 180.172 35.12C179.532 35.12 178.957 34.99 178.447 34.73C177.937 34.46 177.532 34.06 177.232 33.53C176.942 33 176.797 32.355 176.797 31.595V26.78H178.147V31.415C178.147 32.225 178.352 32.85 178.762 33.29C179.172 33.72 179.732 33.935 180.442 33.935C181.172 33.935 181.747 33.71 182.167 33.26C182.587 32.81 182.797 32.155 182.797 31.295V26.78H184.162ZM187.832 28.115C188.072 27.645 188.412 27.28 188.852 27.02C189.302 26.76 189.847 26.63 190.487 26.63V28.04H190.127C188.597 28.04 187.832 28.87 187.832 30.53V35H186.467V26.78H187.832V28.115ZM195.552 30.875C195.552 30.025 195.722 29.285 196.062 28.655C196.402 28.015 196.872 27.52 197.472 27.17C198.082 26.82 198.777 26.645 199.557 26.645C200.567 26.645 201.397 26.89 202.047 27.38C202.707 27.87 203.142 28.55 203.352 29.42H201.882C201.742 28.92 201.467 28.525 201.057 28.235C200.657 27.945 200.157 27.8 199.557 27.8C198.777 27.8 198.147 28.07 197.667 28.61C197.187 29.14 196.947 29.895 196.947 30.875C196.947 31.865 197.187 32.63 197.667 33.17C198.147 33.71 198.777 33.98 199.557 33.98C200.157 33.98 200.657 33.84 201.057 33.56C201.457 33.28 201.732 32.88 201.882 32.36H203.352C203.132 33.2 202.692 33.875 202.032 34.385C201.372 34.885 200.547 35.135 199.557 35.135C198.777 35.135 198.082 34.96 197.472 34.61C196.872 34.26 196.402 33.765 196.062 33.125C195.722 32.485 195.552 31.735 195.552 30.875ZM204.663 30.86C204.663 30.02 204.833 29.285 205.173 28.655C205.513 28.015 205.978 27.52 206.568 27.17C207.168 26.82 207.833 26.645 208.563 26.645C209.283 26.645 209.908 26.8 210.438 27.11C210.968 27.42 211.363 27.81 211.623 28.28V26.78H213.003V35H211.623V33.47C211.353 33.95 210.948 34.35 210.408 34.67C209.878 34.98 209.258 35.135 208.548 35.135C207.818 35.135 207.158 34.955 206.568 34.595C205.978 34.235 205.513 33.73 205.173 33.08C204.833 32.43 204.663 31.69 204.663 30.86ZM211.623 30.875C211.623 30.255 211.498 29.715 211.248 29.255C210.998 28.795 210.658 28.445 210.228 28.205C209.808 27.955 209.343 27.83 208.833 27.83C208.323 27.83 207.858 27.95 207.438 28.19C207.018 28.43 206.683 28.78 206.433 29.24C206.183 29.7 206.058 30.24 206.058 30.86C206.058 31.49 206.183 32.04 206.433 32.51C206.683 32.97 207.018 33.325 207.438 33.575C207.858 33.815 208.323 33.935 208.833 33.935C209.343 33.935 209.808 33.815 210.228 33.575C210.658 33.325 210.998 32.97 211.248 32.51C211.498 32.04 211.623 31.495 211.623 30.875ZM216.675 28.115C216.915 27.645 217.255 27.28 217.695 27.02C218.145 26.76 218.69 26.63 219.33 26.63V28.04H218.97C217.44 28.04 216.675 28.87 216.675 30.53V35H215.31V26.78H216.675V28.115ZM228.405 30.575C228.405 30.835 228.39 31.11 228.36 31.4H221.79C221.84 32.21 222.115 32.845 222.615 33.305C223.125 33.755 223.74 33.98 224.46 33.98C225.05 33.98 225.54 33.845 225.93 33.575C226.33 33.295 226.61 32.925 226.77 32.465H228.24C228.02 33.255 227.58 33.9 226.92 34.4C226.26 34.89 225.44 35.135 224.46 35.135C223.68 35.135 222.98 34.96 222.36 34.61C221.75 34.26 221.27 33.765 220.92 33.125C220.57 32.475 220.395 31.725 220.395 30.875C220.395 30.025 220.565 29.28 220.905 28.64C221.245 28 221.72 27.51 222.33 27.17C222.95 26.82 223.66 26.645 224.46 26.645C225.24 26.645 225.93 26.815 226.53 27.155C227.13 27.495 227.59 27.965 227.91 28.565C228.24 29.155 228.405 29.825 228.405 30.575ZM226.995 30.29C226.995 29.77 226.88 29.325 226.65 28.955C226.42 28.575 226.105 28.29 225.705 28.1C225.315 27.9 224.88 27.8 224.4 27.8C223.71 27.8 223.12 28.02 222.63 28.46C222.15 28.9 221.875 29.51 221.805 30.29H226.995ZM237.707 30.575C237.707 30.835 237.692 31.11 237.662 31.4H231.092C231.142 32.21 231.417 32.845 231.917 33.305C232.427 33.755 233.042 33.98 233.762 33.98C234.352 33.98 234.842 33.845 235.232 33.575C235.632 33.295 235.912 32.925 236.072 32.465H237.542C237.322 33.255 236.882 33.9 236.222 34.4C235.562 34.89 234.742 35.135 233.762 35.135C232.982 35.135 232.282 34.96 231.662 34.61C231.052 34.26 230.572 33.765 230.222 33.125C229.872 32.475 229.697 31.725 229.697 30.875C229.697 30.025 229.867 29.28 230.207 28.64C230.547 28 231.022 27.51 231.632 27.17C232.252 26.82 232.962 26.645 233.762 26.645C234.542 26.645 235.232 26.815 235.832 27.155C236.432 27.495 236.892 27.965 237.212 28.565C237.542 29.155 237.707 29.825 237.707 30.575ZM236.297 30.29C236.297 29.77 236.182 29.325 235.952 28.955C235.722 28.575 235.407 28.29 235.007 28.1C234.617 27.9 234.182 27.8 233.702 27.8C233.012 27.8 232.422 28.02 231.932 28.46C231.452 28.9 231.177 29.51 231.107 30.29H236.297ZM240.874 28.115C241.114 27.645 241.454 27.28 241.894 27.02C242.344 26.76 242.889 26.63 243.529 26.63V28.04H243.169C241.639 28.04 240.874 28.87 240.874 30.53V35H239.509V26.78H240.874V28.115ZM252.494 26.645C253.204 26.645 253.824 26.8 254.354 27.11C254.894 27.42 255.294 27.81 255.554 28.28V26.78H256.934V35.18C256.934 35.93 256.774 36.595 256.454 37.175C256.134 37.765 255.674 38.225 255.074 38.555C254.484 38.885 253.794 39.05 253.004 39.05C251.924 39.05 251.024 38.795 250.304 38.285C249.584 37.775 249.159 37.08 249.029 36.2H250.379C250.529 36.7 250.839 37.1 251.309 37.4C251.779 37.71 252.344 37.865 253.004 37.865C253.754 37.865 254.364 37.63 254.834 37.16C255.314 36.69 255.554 36.03 255.554 35.18V33.455C255.284 33.935 254.884 34.335 254.354 34.655C253.824 34.975 253.204 35.135 252.494 35.135C251.764 35.135 251.099 34.955 250.499 34.595C249.909 34.235 249.444 33.73 249.104 33.08C248.764 32.43 248.594 31.69 248.594 30.86C248.594 30.02 248.764 29.285 249.104 28.655C249.444 28.015 249.909 27.52 250.499 27.17C251.099 26.82 251.764 26.645 252.494 26.645ZM255.554 30.875C255.554 30.255 255.429 29.715 255.179 29.255C254.929 28.795 254.589 28.445 254.159 28.205C253.739 27.955 253.274 27.83 252.764 27.83C252.254 27.83 251.789 27.95 251.369 28.19C250.949 28.43 250.614 28.78 250.364 29.24C250.114 29.7 249.989 30.24 249.989 30.86C249.989 31.49 250.114 32.04 250.364 32.51C250.614 32.97 250.949 33.325 251.369 33.575C251.789 33.815 252.254 33.935 252.764 33.935C253.274 33.935 253.739 33.815 254.159 33.575C254.589 33.325 254.929 32.97 255.179 32.51C255.429 32.04 255.554 31.495 255.554 30.875ZM260.605 28.115C260.845 27.645 261.185 27.28 261.625 27.02C262.075 26.76 262.62 26.63 263.26 26.63V28.04H262.9C261.37 28.04 260.605 28.87 260.605 30.53V35H259.24V26.78H260.605V28.115ZM268.421 35.135C267.651 35.135 266.951 34.96 266.321 34.61C265.701 34.26 265.211 33.765 264.851 33.125C264.501 32.475 264.326 31.725 264.326 30.875C264.326 30.035 264.506 29.295 264.866 28.655C265.236 28.005 265.736 27.51 266.366 27.17C266.996 26.82 267.701 26.645 268.481 26.645C269.261 26.645 269.966 26.82 270.596 27.17C271.226 27.51 271.721 28 272.081 28.64C272.451 29.28 272.636 30.025 272.636 30.875C272.636 31.725 272.446 32.475 272.066 33.125C271.696 33.765 271.191 34.26 270.551 34.61C269.911 34.96 269.201 35.135 268.421 35.135ZM268.421 33.935C268.911 33.935 269.371 33.82 269.801 33.59C270.231 33.36 270.576 33.015 270.836 32.555C271.106 32.095 271.241 31.535 271.241 30.875C271.241 30.215 271.111 29.655 270.851 29.195C270.591 28.735 270.251 28.395 269.831 28.175C269.411 27.945 268.956 27.83 268.466 27.83C267.966 27.83 267.506 27.945 267.086 28.175C266.676 28.395 266.346 28.735 266.096 29.195C265.846 29.655 265.721 30.215 265.721 30.875C265.721 31.545 265.841 32.11 266.081 32.57C266.331 33.03 266.661 33.375 267.071 33.605C267.481 33.825 267.931 33.935 268.421 33.935ZM285.381 26.78L282.816 35H281.406L279.426 28.475L277.446 35H276.036L273.456 26.78H274.851L276.741 33.68L278.781 26.78H280.176L282.171 33.695L284.031 26.78H285.381ZM288.401 27.905V32.75C288.401 33.15 288.486 33.435 288.656 33.605C288.826 33.765 289.121 33.845 289.541 33.845H290.546V35H289.316C288.556 35 287.986 34.825 287.606 34.475C287.226 34.125 287.036 33.55 287.036 32.75V27.905H285.971V26.78H287.036V24.71H288.401V26.78H290.546V27.905H288.401ZM296.279 26.63C296.899 26.63 297.459 26.765 297.959 27.035C298.459 27.295 298.849 27.69 299.129 28.22C299.419 28.75 299.564 29.395 299.564 30.155V35H298.214V30.35C298.214 29.53 298.009 28.905 297.599 28.475C297.189 28.035 296.629 27.815 295.919 27.815C295.199 27.815 294.624 28.04 294.194 28.49C293.774 28.94 293.564 29.595 293.564 30.455V35H292.199V23.9H293.564V27.95C293.834 27.53 294.204 27.205 294.674 26.975C295.154 26.745 295.689 26.63 296.279 26.63ZM306.498 25.445C306.238 25.445 306.018 25.355 305.838 25.175C305.658 24.995 305.568 24.775 305.568 24.515C305.568 24.255 305.658 24.035 305.838 23.855C306.018 23.675 306.238 23.585 306.498 23.585C306.748 23.585 306.958 23.675 307.128 23.855C307.308 24.035 307.398 24.255 307.398 24.515C307.398 24.775 307.308 24.995 307.128 25.175C306.958 25.355 306.748 25.445 306.498 25.445ZM307.158 26.78V35H305.793V26.78H307.158ZM313.49 26.63C314.49 26.63 315.3 26.935 315.92 27.545C316.54 28.145 316.85 29.015 316.85 30.155V35H315.5V30.35C315.5 29.53 315.295 28.905 314.885 28.475C314.475 28.035 313.915 27.815 313.205 27.815C312.485 27.815 311.91 28.04 311.48 28.49C311.06 28.94 310.85 29.595 310.85 30.455V35H309.485V26.78H310.85V27.95C311.12 27.53 311.485 27.205 311.945 26.975C312.415 26.745 312.93 26.63 313.49 26.63ZM92.7707 50.905V55.75C92.7707 56.15 92.8557 56.435 93.0257 56.605C93.1957 56.765 93.4907 56.845 93.9107 56.845H94.9157V58H93.6857C92.9257 58 92.3557 57.825 91.9757 57.475C91.5957 57.125 91.4057 56.55 91.4057 55.75V50.905H90.3407V49.78H91.4057V47.71H92.7707V49.78H94.9157V50.905H92.7707ZM100.65 49.63C101.27 49.63 101.83 49.765 102.33 50.035C102.83 50.295 103.22 50.69 103.5 51.22C103.79 51.75 103.935 52.395 103.935 53.155V58H102.585V53.35C102.585 52.53 102.38 51.905 101.97 51.475C101.56 51.035 101 50.815 100.29 50.815C99.5696 50.815 98.9946 51.04 98.5646 51.49C98.1446 51.94 97.9346 52.595 97.9346 53.455V58H96.5696V46.9H97.9346V50.95C98.2046 50.53 98.5746 50.205 99.0446 49.975C99.5246 49.745 100.06 49.63 100.65 49.63ZM113.664 53.575C113.664 53.835 113.649 54.11 113.619 54.4H107.049C107.099 55.21 107.374 55.845 107.874 56.305C108.384 56.755 108.999 56.98 109.719 56.98C110.309 56.98 110.799 56.845 111.189 56.575C111.589 56.295 111.869 55.925 112.029 55.465H113.499C113.279 56.255 112.839 56.9 112.179 57.4C111.519 57.89 110.699 58.135 109.719 58.135C108.939 58.135 108.239 57.96 107.619 57.61C107.009 57.26 106.529 56.765 106.179 56.125C105.829 55.475 105.654 54.725 105.654 53.875C105.654 53.025 105.824 52.28 106.164 51.64C106.504 51 106.979 50.51 107.589 50.17C108.209 49.82 108.919 49.645 109.719 49.645C110.499 49.645 111.189 49.815 111.789 50.155C112.389 50.495 112.849 50.965 113.169 51.565C113.499 52.155 113.664 52.825 113.664 53.575ZM112.254 53.29C112.254 52.77 112.139 52.325 111.909 51.955C111.679 51.575 111.364 51.29 110.964 51.1C110.574 50.9 110.139 50.8 109.659 50.8C108.969 50.8 108.379 51.02 107.889 51.46C107.409 51.9 107.134 52.51 107.064 53.29H112.254ZM120.17 48.445C119.91 48.445 119.69 48.355 119.51 48.175C119.33 47.995 119.24 47.775 119.24 47.515C119.24 47.255 119.33 47.035 119.51 46.855C119.69 46.675 119.91 46.585 120.17 46.585C120.42 46.585 120.63 46.675 120.8 46.855C120.98 47.035 121.07 47.255 121.07 47.515C121.07 47.775 120.98 47.995 120.8 48.175C120.63 48.355 120.42 48.445 120.17 48.445ZM120.83 49.78V58H119.465V49.78H120.83ZM127.161 49.63C128.161 49.63 128.971 49.935 129.591 50.545C130.211 51.145 130.521 52.015 130.521 53.155V58H129.171V53.35C129.171 52.53 128.966 51.905 128.556 51.475C128.146 51.035 127.586 50.815 126.876 50.815C126.156 50.815 125.581 51.04 125.151 51.49C124.731 51.94 124.521 52.595 124.521 53.455V58H123.156V49.78H124.521V50.95C124.791 50.53 125.156 50.205 125.616 49.975C126.086 49.745 126.601 49.63 127.161 49.63ZM132.241 53.86C132.241 53.02 132.411 52.285 132.751 51.655C133.091 51.015 133.556 50.52 134.146 50.17C134.746 49.82 135.416 49.645 136.156 49.645C136.796 49.645 137.391 49.795 137.941 50.095C138.491 50.385 138.911 50.77 139.201 51.25V46.9H140.581V58H139.201V56.455C138.931 56.945 138.531 57.35 138.001 57.67C137.471 57.98 136.851 58.135 136.141 58.135C135.411 58.135 134.746 57.955 134.146 57.595C133.556 57.235 133.091 56.73 132.751 56.08C132.411 55.43 132.241 54.69 132.241 53.86ZM139.201 53.875C139.201 53.255 139.076 52.715 138.826 52.255C138.576 51.795 138.236 51.445 137.806 51.205C137.386 50.955 136.921 50.83 136.411 50.83C135.901 50.83 135.436 50.95 135.016 51.19C134.596 51.43 134.261 51.78 134.011 52.24C133.761 52.7 133.636 53.24 133.636 53.86C133.636 54.49 133.761 55.04 134.011 55.51C134.261 55.97 134.596 56.325 135.016 56.575C135.436 56.815 135.901 56.935 136.411 56.935C136.921 56.935 137.386 56.815 137.806 56.575C138.236 56.325 138.576 55.97 138.826 55.51C139.076 55.04 139.201 54.495 139.201 53.875ZM150.178 49.78V58H148.813V56.785C148.553 57.205 148.188 57.535 147.718 57.775C147.258 58.005 146.748 58.12 146.188 58.12C145.548 58.12 144.973 57.99 144.463 57.73C143.953 57.46 143.548 57.06 143.248 56.53C142.958 56 142.813 55.355 142.813 54.595V49.78H144.163V54.415C144.163 55.225 144.368 55.85 144.778 56.29C145.188 56.72 145.748 56.935 146.458 56.935C147.188 56.935 147.763 56.71 148.183 56.26C148.603 55.81 148.813 55.155 148.813 54.295V49.78H150.178ZM155.393 58.135C154.763 58.135 154.198 58.03 153.698 57.82C153.198 57.6 152.803 57.3 152.513 56.92C152.223 56.53 152.063 56.085 152.033 55.585H153.443C153.483 55.995 153.673 56.33 154.013 56.59C154.363 56.85 154.818 56.98 155.378 56.98C155.898 56.98 156.308 56.865 156.608 56.635C156.908 56.405 157.058 56.115 157.058 55.765C157.058 55.405 156.898 55.14 156.578 54.97C156.258 54.79 155.763 54.615 155.093 54.445C154.483 54.285 153.983 54.125 153.593 53.965C153.213 53.795 152.883 53.55 152.603 53.23C152.333 52.9 152.198 52.47 152.198 51.94C152.198 51.52 152.323 51.135 152.573 50.785C152.823 50.435 153.178 50.16 153.638 49.96C154.098 49.75 154.623 49.645 155.213 49.645C156.123 49.645 156.858 49.875 157.418 50.335C157.978 50.795 158.278 51.425 158.318 52.225H156.953C156.923 51.795 156.748 51.45 156.428 51.19C156.118 50.93 155.698 50.8 155.168 50.8C154.678 50.8 154.288 50.905 153.998 51.115C153.708 51.325 153.563 51.6 153.563 51.94C153.563 52.21 153.648 52.435 153.818 52.615C153.998 52.785 154.218 52.925 154.478 53.035C154.748 53.135 155.118 53.25 155.588 53.38C156.178 53.54 156.658 53.7 157.028 53.86C157.398 54.01 157.713 54.24 157.973 54.55C158.243 54.86 158.383 55.265 158.393 55.765C158.393 56.215 158.268 56.62 158.018 56.98C157.768 57.34 157.413 57.625 156.953 57.835C156.503 58.035 155.983 58.135 155.393 58.135ZM161.985 50.905V55.75C161.985 56.15 162.07 56.435 162.24 56.605C162.41 56.765 162.705 56.845 163.125 56.845H164.13V58H162.9C162.14 58 161.57 57.825 161.19 57.475C160.81 57.125 160.62 56.55 160.62 55.75V50.905H159.555V49.78H160.62V47.71H161.985V49.78H164.13V50.905H161.985ZM167.148 51.115C167.388 50.645 167.728 50.28 168.168 50.02C168.618 49.76 169.163 49.63 169.803 49.63V51.04H169.443C167.913 51.04 167.148 51.87 167.148 53.53V58H165.783V49.78H167.148V51.115ZM178.459 49.78L173.509 61.87H172.099L173.719 57.91L170.404 49.78H171.919L174.499 56.44L177.049 49.78H178.459ZM187.415 58.135C186.645 58.135 185.945 57.96 185.315 57.61C184.695 57.26 184.205 56.765 183.845 56.125C183.495 55.475 183.32 54.725 183.32 53.875C183.32 53.035 183.5 52.295 183.86 51.655C184.23 51.005 184.73 50.51 185.36 50.17C185.99 49.82 186.695 49.645 187.475 49.645C188.255 49.645 188.96 49.82 189.59 50.17C190.22 50.51 190.715 51 191.075 51.64C191.445 52.28 191.63 53.025 191.63 53.875C191.63 54.725 191.44 55.475 191.06 56.125C190.69 56.765 190.185 57.26 189.545 57.61C188.905 57.96 188.195 58.135 187.415 58.135ZM187.415 56.935C187.905 56.935 188.365 56.82 188.795 56.59C189.225 56.36 189.57 56.015 189.83 55.555C190.1 55.095 190.235 54.535 190.235 53.875C190.235 53.215 190.105 52.655 189.845 52.195C189.585 51.735 189.245 51.395 188.825 51.175C188.405 50.945 187.95 50.83 187.46 50.83C186.96 50.83 186.5 50.945 186.08 51.175C185.67 51.395 185.34 51.735 185.09 52.195C184.84 52.655 184.715 53.215 184.715 53.875C184.715 54.545 184.835 55.11 185.075 55.57C185.325 56.03 185.655 56.375 186.065 56.605C186.475 56.825 186.925 56.935 187.415 56.935ZM196.77 50.905H195.045V58H193.68V50.905H192.615V49.78H193.68V49.195C193.68 48.275 193.915 47.605 194.385 47.185C194.865 46.755 195.63 46.54 196.68 46.54V47.68C196.08 47.68 195.655 47.8 195.405 48.04C195.165 48.27 195.045 48.655 195.045 49.195V49.78H196.77V50.905ZM205.706 50.905H203.981V58H202.616V50.905H201.551V49.78H202.616V49.195C202.616 48.275 202.851 47.605 203.321 47.185C203.801 46.755 204.566 46.54 205.616 46.54V47.68C205.016 47.68 204.591 47.8 204.341 48.04C204.101 48.27 203.981 48.655 203.981 49.195V49.78H205.706V50.905ZM208.002 48.445C207.742 48.445 207.522 48.355 207.342 48.175C207.162 47.995 207.072 47.775 207.072 47.515C207.072 47.255 207.162 47.035 207.342 46.855C207.522 46.675 207.742 46.585 208.002 46.585C208.252 46.585 208.462 46.675 208.632 46.855C208.812 47.035 208.902 47.255 208.902 47.515C208.902 47.775 208.812 47.995 208.632 48.175C208.462 48.355 208.252 48.445 208.002 48.445ZM208.662 49.78V58H207.297V49.78H208.662ZM214.993 49.63C215.993 49.63 216.803 49.935 217.423 50.545C218.043 51.145 218.353 52.015 218.353 53.155V58H217.003V53.35C217.003 52.53 216.798 51.905 216.388 51.475C215.978 51.035 215.418 50.815 214.708 50.815C213.988 50.815 213.413 51.04 212.983 51.49C212.563 51.94 212.353 52.595 212.353 53.455V58H210.988V49.78H212.353V50.95C212.623 50.53 212.988 50.205 213.448 49.975C213.918 49.745 214.433 49.63 214.993 49.63ZM222.248 50.905V55.75C222.248 56.15 222.333 56.435 222.503 56.605C222.673 56.765 222.968 56.845 223.388 56.845H224.393V58H223.163C222.403 58 221.833 57.825 221.453 57.475C221.073 57.125 220.883 56.55 220.883 55.75V50.905H219.818V49.78H220.883V47.71H222.248V49.78H224.393V50.905H222.248ZM233.547 53.575C233.547 53.835 233.532 54.11 233.502 54.4H226.932C226.982 55.21 227.257 55.845 227.757 56.305C228.267 56.755 228.882 56.98 229.602 56.98C230.192 56.98 230.682 56.845 231.072 56.575C231.472 56.295 231.752 55.925 231.912 55.465H233.382C233.162 56.255 232.722 56.9 232.062 57.4C231.402 57.89 230.582 58.135 229.602 58.135C228.822 58.135 228.122 57.96 227.502 57.61C226.892 57.26 226.412 56.765 226.062 56.125C225.712 55.475 225.537 54.725 225.537 53.875C225.537 53.025 225.707 52.28 226.047 51.64C226.387 51 226.862 50.51 227.472 50.17C228.092 49.82 228.802 49.645 229.602 49.645C230.382 49.645 231.072 49.815 231.672 50.155C232.272 50.495 232.732 50.965 233.052 51.565C233.382 52.155 233.547 52.825 233.547 53.575ZM232.137 53.29C232.137 52.77 232.022 52.325 231.792 51.955C231.562 51.575 231.247 51.29 230.847 51.1C230.457 50.9 230.022 50.8 229.542 50.8C228.852 50.8 228.262 51.02 227.772 51.46C227.292 51.9 227.017 52.51 226.947 53.29H232.137ZM234.839 53.875C234.839 53.025 235.009 52.285 235.349 51.655C235.689 51.015 236.159 50.52 236.759 50.17C237.369 49.82 238.064 49.645 238.844 49.645C239.854 49.645 240.684 49.89 241.334 50.38C241.994 50.87 242.429 51.55 242.639 52.42H241.169C241.029 51.92 240.754 51.525 240.344 51.235C239.944 50.945 239.444 50.8 238.844 50.8C238.064 50.8 237.434 51.07 236.954 51.61C236.474 52.14 236.234 52.895 236.234 53.875C236.234 54.865 236.474 55.63 236.954 56.17C237.434 56.71 238.064 56.98 238.844 56.98C239.444 56.98 239.944 56.84 240.344 56.56C240.744 56.28 241.019 55.88 241.169 55.36H242.639C242.419 56.2 241.979 56.875 241.319 57.385C240.659 57.885 239.834 58.135 238.844 58.135C238.064 58.135 237.369 57.96 236.759 57.61C236.159 57.26 235.689 56.765 235.349 56.125C235.009 55.485 234.839 54.735 234.839 53.875ZM248.54 49.63C249.16 49.63 249.72 49.765 250.22 50.035C250.72 50.295 251.11 50.69 251.39 51.22C251.68 51.75 251.825 52.395 251.825 53.155V58H250.475V53.35C250.475 52.53 250.27 51.905 249.86 51.475C249.45 51.035 248.89 50.815 248.18 50.815C247.46 50.815 246.885 51.04 246.455 51.49C246.035 51.94 245.825 52.595 245.825 53.455V58H244.46V46.9H245.825V50.95C246.095 50.53 246.465 50.205 246.935 49.975C247.415 49.745 247.95 49.63 248.54 49.63ZM254.49 58.09C254.23 58.09 254.01 58 253.83 57.82C253.65 57.64 253.56 57.42 253.56 57.16C253.56 56.9 253.65 56.68 253.83 56.5C254.01 56.32 254.23 56.23 254.49 56.23C254.74 56.23 254.95 56.32 255.12 56.5C255.3 56.68 255.39 56.9 255.39 57.16C255.39 57.42 255.3 57.64 255.12 57.82C254.95 58 254.74 58.09 254.49 58.09Z" fill="#2F2F2F"/>
</svg>
