<svg width="262" height="35" viewBox="0 0 262 35" fill="none" xmlns="http://www.w3.org/2000/svg">
<path d="M6.456 7.92V12.464H13.784V16.688H6.456V21.616H14.744V26H0.984V3.536H14.744V7.92H6.456ZM17.2085 17.04C17.2085 15.2053 17.5498 13.5947 18.2325 12.208C18.9365 10.8213 19.8858 9.75467 21.0805 9.008C22.2752 8.26133 23.6085 7.888 25.0805 7.888C26.3392 7.888 27.4378 8.144 28.3765 8.656C29.3365 9.168 30.0725 9.84 30.5845 10.672V8.144H36.0565V26H30.5845V23.472C30.0512 24.304 29.3045 24.976 28.3445 25.488C27.4058 26 26.3072 26.256 25.0485 26.256C23.5978 26.256 22.2752 25.8827 21.0805 25.136C19.8858 24.368 18.9365 23.2907 18.2325 21.904C17.5498 20.496 17.2085 18.8747 17.2085 17.04ZM30.5845 17.072C30.5845 15.7067 30.2005 14.6293 29.4325 13.84C28.6858 13.0507 27.7685 12.656 26.6805 12.656C25.5925 12.656 24.6645 13.0507 23.8965 13.84C23.1498 14.608 22.7765 15.6747 22.7765 17.04C22.7765 18.4053 23.1498 19.4933 23.8965 20.304C24.6645 21.0933 25.5925 21.488 26.6805 21.488C27.7685 21.488 28.6858 21.0933 29.4325 20.304C30.2005 19.5147 30.5845 18.4373 30.5845 17.072ZM45.4873 11.12C46.1273 10.1387 46.9273 9.37067 47.8873 8.816C48.8473 8.24 49.9139 7.952 51.0873 7.952V13.744H49.5833C48.2179 13.744 47.1939 14.0427 46.5113 14.64C45.8286 15.216 45.4873 16.24 45.4873 17.712V26H40.0153V8.144H45.4873V11.12ZM64.5828 7.952C66.6734 7.952 68.3374 8.63467 69.5748 10C70.8334 11.344 71.4628 13.2 71.4628 15.568V26H66.0228V16.304C66.0228 15.1093 65.7134 14.1813 65.0948 13.52C64.4761 12.8587 63.6441 12.528 62.5988 12.528C61.5534 12.528 60.7214 12.8587 60.1028 13.52C59.4841 14.1813 59.1748 15.1093 59.1748 16.304V26H53.7028V8.144H59.1748V10.512C59.7294 9.72267 60.4761 9.104 61.4148 8.656C62.3534 8.18667 63.4094 7.952 64.5828 7.952ZM81.1185 14.736C81.1185 12.5173 81.5985 10.544 82.5585 8.816C83.5185 7.06667 84.8518 5.712 86.5585 4.752C88.2865 3.77067 90.2385 3.28 92.4145 3.28C95.0812 3.28 97.3638 3.984 99.2625 5.392C101.161 6.8 102.431 8.72 103.071 11.152H97.0545C96.6065 10.2133 95.9665 9.49867 95.1345 9.008C94.3238 8.51733 93.3958 8.272 92.3505 8.272C90.6652 8.272 89.2998 8.85867 88.2545 10.032C87.2092 11.2053 86.6865 12.7733 86.6865 14.736C86.6865 16.6987 87.2092 18.2667 88.2545 19.44C89.2998 20.6133 90.6652 21.2 92.3505 21.2C93.3958 21.2 94.3238 20.9547 95.1345 20.464C95.9665 19.9733 96.6065 19.2587 97.0545 18.32H103.071C102.431 20.752 101.161 22.672 99.2625 24.08C97.3638 25.4667 95.0812 26.16 92.4145 26.16C90.2385 26.16 88.2865 25.68 86.5585 24.72C84.8518 23.7387 83.5185 22.384 82.5585 20.656C81.5985 18.928 81.1185 16.9547 81.1185 14.736ZM111.894 11.12C112.534 10.1387 113.334 9.37067 114.294 8.816C115.254 8.24 116.32 7.952 117.494 7.952V13.744H115.99C114.624 13.744 113.6 14.0427 112.918 14.64C112.235 15.216 111.894 16.24 111.894 17.712V26H106.422V8.144H111.894V11.12ZM136.941 16.784C136.941 17.296 136.909 17.8293 136.845 18.384H124.461C124.546 19.4933 124.898 20.3467 125.517 20.944C126.157 21.52 126.936 21.808 127.853 21.808C129.218 21.808 130.168 21.232 130.701 20.08H136.525C136.226 21.2533 135.682 22.3093 134.893 23.248C134.125 24.1867 133.154 24.9227 131.981 25.456C130.808 25.9893 129.496 26.256 128.045 26.256C126.296 26.256 124.738 25.8827 123.373 25.136C122.008 24.3893 120.941 23.3227 120.173 21.936C119.405 20.5493 119.021 18.928 119.021 17.072C119.021 15.216 119.394 13.5947 120.141 12.208C120.909 10.8213 121.976 9.75467 123.341 9.008C124.706 8.26133 126.274 7.888 128.045 7.888C129.773 7.888 131.309 8.25067 132.653 8.976C133.997 9.70133 135.042 10.736 135.789 12.08C136.557 13.424 136.941 14.992 136.941 16.784ZM131.341 15.344C131.341 14.4053 131.021 13.6587 130.381 13.104C129.741 12.5493 128.941 12.272 127.981 12.272C127.064 12.272 126.285 12.5387 125.645 13.072C125.026 13.6053 124.642 14.3627 124.493 15.344H131.341ZM138.74 17.04C138.74 15.2053 139.081 13.5947 139.764 12.208C140.468 10.8213 141.417 9.75467 142.612 9.008C143.806 8.26133 145.14 7.888 146.612 7.888C147.785 7.888 148.852 8.13333 149.812 8.624C150.793 9.11467 151.561 9.776 152.116 10.608V2.32H157.588V26H152.116V23.44C151.604 24.2933 150.868 24.976 149.908 25.488C148.969 26 147.87 26.256 146.612 26.256C145.14 26.256 143.806 25.8827 142.612 25.136C141.417 24.368 140.468 23.2907 139.764 21.904C139.081 20.496 138.74 18.8747 138.74 17.04ZM152.116 17.072C152.116 15.7067 151.732 14.6293 150.964 13.84C150.217 13.0507 149.3 12.656 148.212 12.656C147.124 12.656 146.196 13.0507 145.428 13.84C144.681 14.608 144.308 15.6747 144.308 17.04C144.308 18.4053 144.681 19.4933 145.428 20.304C146.196 21.0933 147.124 21.488 148.212 21.488C149.3 21.488 150.217 21.0933 150.964 20.304C151.732 19.5147 152.116 18.4373 152.116 17.072ZM164.299 6.288C163.339 6.288 162.549 6.01067 161.931 5.456C161.333 4.88 161.035 4.176 161.035 3.344C161.035 2.49067 161.333 1.78667 161.931 1.232C162.549 0.655998 163.339 0.367998 164.299 0.367998C165.237 0.367998 166.005 0.655998 166.603 1.232C167.221 1.78667 167.531 2.49067 167.531 3.344C167.531 4.176 167.221 4.88 166.603 5.456C166.005 6.01067 165.237 6.288 164.299 6.288ZM167.019 8.144V26H161.547V8.144H167.019ZM176.456 10.672C176.968 9.84 177.704 9.168 178.664 8.656C179.624 8.144 180.723 7.888 181.96 7.888C183.432 7.888 184.765 8.26133 185.96 9.008C187.155 9.75467 188.093 10.8213 188.776 12.208C189.48 13.5947 189.832 15.2053 189.832 17.04C189.832 18.8747 189.48 20.496 188.776 21.904C188.093 23.2907 187.155 24.368 185.96 25.136C184.765 25.8827 183.432 26.256 181.96 26.256C180.701 26.256 179.603 26.0107 178.664 25.52C177.725 25.008 176.989 24.336 176.456 23.504V26H170.984V2.32H176.456V10.672ZM184.264 17.04C184.264 15.6747 183.88 14.608 183.112 13.84C182.365 13.0507 181.437 12.656 180.328 12.656C179.24 12.656 178.312 13.0507 177.544 13.84C176.797 14.6293 176.424 15.7067 176.424 17.072C176.424 18.4373 176.797 19.5147 177.544 20.304C178.312 21.0933 179.24 21.488 180.328 21.488C181.416 21.488 182.344 21.0933 183.112 20.304C183.88 19.4933 184.264 18.4053 184.264 17.04ZM195.455 6.288C194.495 6.288 193.705 6.01067 193.087 5.456C192.489 4.88 192.191 4.176 192.191 3.344C192.191 2.49067 192.489 1.78667 193.087 1.232C193.705 0.655998 194.495 0.367998 195.455 0.367998C196.393 0.367998 197.161 0.655998 197.759 1.232C198.377 1.78667 198.687 2.49067 198.687 3.344C198.687 4.176 198.377 4.88 197.759 5.456C197.161 6.01067 196.393 6.288 195.455 6.288ZM198.175 8.144V26H192.703V8.144H198.175ZM207.612 2.32V26H202.14V2.32H207.612ZM214.33 6.288C213.37 6.288 212.58 6.01067 211.962 5.456C211.364 4.88 211.066 4.176 211.066 3.344C211.066 2.49067 211.364 1.78667 211.962 1.232C212.58 0.655998 213.37 0.367998 214.33 0.367998C215.268 0.367998 216.036 0.655998 216.634 1.232C217.252 1.78667 217.562 2.49067 217.562 3.344C217.562 4.176 217.252 4.88 216.634 5.456C216.036 6.01067 215.268 6.288 214.33 6.288ZM217.05 8.144V26H211.578V8.144H217.05ZM230.967 21.36V26H228.183C226.199 26 224.653 25.52 223.543 24.56C222.434 23.5787 221.879 21.9893 221.879 19.792V12.688H219.703V8.144H221.879V3.792H227.351V8.144H230.935V12.688H227.351V19.856C227.351 20.3893 227.479 20.7733 227.735 21.008C227.991 21.2427 228.418 21.36 229.015 21.36H230.967ZM252.255 8.144L241.055 34.48H235.167L239.263 25.392L231.999 8.144H238.111L242.239 19.312L246.335 8.144H252.255ZM261.434 2.736L260.794 18.064H256.154L255.514 2.736H261.434ZM258.554 26.256C257.594 26.256 256.805 25.9787 256.186 25.424C255.589 24.848 255.29 24.144 255.29 23.312C255.29 22.4587 255.589 21.744 256.186 21.168C256.805 20.592 257.594 20.304 258.554 20.304C259.493 20.304 260.261 20.592 260.858 21.168C261.477 21.744 261.786 22.4587 261.786 23.312C261.786 24.144 261.477 24.848 260.858 25.424C260.261 25.9787 259.493 26.256 258.554 26.256Z" fill="url(#paint0_linear_58_75)"/>
<defs>
<linearGradient id="paint0_linear_58_75" x1="125.169" y1="-15.5" x2="127.035" y2="38.9774" gradientUnits="userSpaceOnUse">
<stop stop-color="#579DFF"/>
<stop offset="1" stop-color="#486CF5"/>
</linearGradient>
</defs>
</svg>
