<svg width="160" height="27" viewBox="0 0 160 27" fill="none" xmlns="http://www.w3.org/2000/svg">
<g filter="url(#filter0_d_58_187)">
<path d="M16.672 6.48C16.368 5.92 15.928 5.496 15.352 5.208C14.792 4.904 14.128 4.752 13.36 4.752C12.032 4.752 10.968 5.192 10.168 6.072C9.368 6.936 8.968 8.096 8.968 9.552C8.968 11.104 9.384 12.32 10.216 13.2C11.064 14.064 12.224 14.496 13.696 14.496C14.704 14.496 15.552 14.24 16.24 13.728C16.944 13.216 17.456 12.48 17.776 11.52H12.568V8.496H21.496V12.312C21.192 13.336 20.672 14.288 19.936 15.168C19.216 16.048 18.296 16.76 17.176 17.304C16.056 17.848 14.792 18.12 13.384 18.12C11.72 18.12 10.232 17.76 8.92 17.04C7.624 16.304 6.608 15.288 5.872 13.992C5.152 12.696 4.792 11.216 4.792 9.552C4.792 7.888 5.152 6.408 5.872 5.112C6.608 3.8 7.624 2.784 8.92 2.064C10.216 1.328 11.696 0.959999 13.36 0.959999C15.376 0.959999 17.072 1.448 18.448 2.424C19.84 3.4 20.76 4.752 21.208 6.48H16.672ZM23.0732 9.552C23.0732 7.888 23.4333 6.408 24.1533 5.112C24.8733 3.8 25.8733 2.784 27.1533 2.064C28.4493 1.328 29.9133 0.959999 31.5453 0.959999C33.5453 0.959999 35.2573 1.488 36.6813 2.544C38.1053 3.6 39.0573 5.04 39.5373 6.864H35.0253C34.6893 6.16 34.2093 5.624 33.5853 5.256C32.9773 4.888 32.2813 4.704 31.4973 4.704C30.2333 4.704 29.2093 5.144 28.4253 6.024C27.6413 6.904 27.2493 8.08 27.2493 9.552C27.2493 11.024 27.6413 12.2 28.4253 13.08C29.2093 13.96 30.2333 14.4 31.4973 14.4C32.2813 14.4 32.9773 14.216 33.5853 13.848C34.2093 13.48 34.6893 12.944 35.0253 12.24H39.5373C39.0573 14.064 38.1053 15.504 36.6813 16.56C35.2573 17.6 33.5453 18.12 31.5453 18.12C29.9133 18.12 28.4493 17.76 27.1533 17.04C25.8733 16.304 24.8733 15.288 24.1533 13.992C23.4333 12.696 23.0732 11.216 23.0732 9.552ZM46.1545 0.24V18H42.0505V0.24H46.1545ZM48.3126 11.28C48.3126 9.904 48.5686 8.696 49.0806 7.656C49.6086 6.616 50.3206 5.816 51.2166 5.256C52.1126 4.696 53.1126 4.416 54.2166 4.416C55.1606 4.416 55.9846 4.608 56.6886 4.992C57.4086 5.376 57.9606 5.88 58.3446 6.504V4.608H62.4486V18H58.3446V16.104C57.9446 16.728 57.3846 17.232 56.6646 17.616C55.9606 18 55.1366 18.192 54.1926 18.192C53.1046 18.192 52.1126 17.912 51.2166 17.352C50.3206 16.776 49.6086 15.968 49.0806 14.928C48.5686 13.872 48.3126 12.656 48.3126 11.28ZM58.3446 11.304C58.3446 10.28 58.0566 9.472 57.4806 8.88C56.9206 8.288 56.2326 7.992 55.4166 7.992C54.6006 7.992 53.9046 8.288 53.3286 8.88C52.7686 9.456 52.4886 10.256 52.4886 11.28C52.4886 12.304 52.7686 13.12 53.3286 13.728C53.9046 14.32 54.6006 14.616 55.4166 14.616C56.2326 14.616 56.9206 14.32 57.4806 13.728C58.0566 13.136 58.3446 12.328 58.3446 11.304ZM70.8657 18.192C69.6977 18.192 68.6577 17.992 67.7457 17.592C66.8337 17.192 66.1137 16.648 65.5857 15.96C65.0577 15.256 64.7617 14.472 64.6977 13.608H68.7537C68.8017 14.072 69.0177 14.448 69.4017 14.736C69.7857 15.024 70.2577 15.168 70.8177 15.168C71.3297 15.168 71.7217 15.072 71.9937 14.88C72.2817 14.672 72.4257 14.408 72.4257 14.088C72.4257 13.704 72.2257 13.424 71.8257 13.248C71.4257 13.056 70.7777 12.848 69.8817 12.624C68.9217 12.4 68.1217 12.168 67.4817 11.928C66.8417 11.672 66.2897 11.28 65.8257 10.752C65.3617 10.208 65.1297 9.48 65.1297 8.568C65.1297 7.8 65.3377 7.104 65.7537 6.48C66.1857 5.84 66.8097 5.336 67.6257 4.968C68.4577 4.6 69.4417 4.416 70.5777 4.416C72.2577 4.416 73.5777 4.832 74.5377 5.664C75.5137 6.496 76.0737 7.6 76.2177 8.976H72.4257C72.3617 8.512 72.1537 8.144 71.8017 7.872C71.4657 7.6 71.0177 7.464 70.4577 7.464C69.9777 7.464 69.6097 7.56 69.3537 7.752C69.0977 7.928 68.9697 8.176 68.9697 8.496C68.9697 8.88 69.1697 9.168 69.5697 9.36C69.9857 9.552 70.6257 9.744 71.4897 9.936C72.4817 10.192 73.2897 10.448 73.9137 10.704C74.5377 10.944 75.0817 11.344 75.5457 11.904C76.0257 12.448 76.2737 13.184 76.2897 14.112C76.2897 14.896 76.0657 15.6 75.6177 16.224C75.1857 16.832 74.5537 17.312 73.7217 17.664C72.9057 18.016 71.9537 18.192 70.8657 18.192ZM84.2485 18.192C83.0805 18.192 82.0405 17.992 81.1285 17.592C80.2165 17.192 79.4965 16.648 78.9685 15.96C78.4405 15.256 78.1445 14.472 78.0805 13.608H82.1365C82.1845 14.072 82.4005 14.448 82.7845 14.736C83.1685 15.024 83.6405 15.168 84.2005 15.168C84.7125 15.168 85.1045 15.072 85.3765 14.88C85.6645 14.672 85.8085 14.408 85.8085 14.088C85.8085 13.704 85.6085 13.424 85.2085 13.248C84.8085 13.056 84.1605 12.848 83.2645 12.624C82.3045 12.4 81.5045 12.168 80.8645 11.928C80.2245 11.672 79.6725 11.28 79.2085 10.752C78.7445 10.208 78.5125 9.48 78.5125 8.568C78.5125 7.8 78.7205 7.104 79.1365 6.48C79.5685 5.84 80.1925 5.336 81.0085 4.968C81.8405 4.6 82.8245 4.416 83.9605 4.416C85.6405 4.416 86.9605 4.832 87.9205 5.664C88.8965 6.496 89.4565 7.6 89.6005 8.976H85.8085C85.7445 8.512 85.5365 8.144 85.1845 7.872C84.8485 7.6 84.4005 7.464 83.8405 7.464C83.3605 7.464 82.9925 7.56 82.7365 7.752C82.4805 7.928 82.3525 8.176 82.3525 8.496C82.3525 8.88 82.5525 9.168 82.9525 9.36C83.3685 9.552 84.0085 9.744 84.8725 9.936C85.8645 10.192 86.6725 10.448 87.2965 10.704C87.9205 10.944 88.4645 11.344 88.9285 11.904C89.4085 12.448 89.6565 13.184 89.6725 14.112C89.6725 14.896 89.4485 15.6 89.0005 16.224C88.5685 16.832 87.9365 17.312 87.1045 17.664C86.2885 18.016 85.3365 18.192 84.2485 18.192ZM96.2873 6.84C96.7673 6.104 97.3673 5.528 98.0873 5.112C98.8073 4.68 99.6073 4.464 100.487 4.464V8.808H99.3593C98.3353 8.808 97.5673 9.032 97.0553 9.48C96.5433 9.912 96.2873 10.68 96.2873 11.784V18H92.1833V4.608H96.2873V6.84ZM108.545 18.192C107.233 18.192 106.049 17.912 104.993 17.352C103.953 16.792 103.129 15.992 102.521 14.952C101.929 13.912 101.633 12.696 101.633 11.304C101.633 9.928 101.937 8.72 102.545 7.68C103.153 6.624 103.985 5.816 105.041 5.256C106.097 4.696 107.281 4.416 108.593 4.416C109.905 4.416 111.089 4.696 112.145 5.256C113.201 5.816 114.033 6.624 114.641 7.68C115.249 8.72 115.553 9.928 115.553 11.304C115.553 12.68 115.241 13.896 114.617 14.952C114.009 15.992 113.169 16.792 112.097 17.352C111.041 17.912 109.857 18.192 108.545 18.192ZM108.545 14.64C109.329 14.64 109.993 14.352 110.537 13.776C111.097 13.2 111.377 12.376 111.377 11.304C111.377 10.232 111.105 9.408 110.561 8.832C110.033 8.256 109.377 7.968 108.593 7.968C107.793 7.968 107.129 8.256 106.601 8.832C106.073 9.392 105.809 10.216 105.809 11.304C105.809 12.376 106.065 13.2 106.577 13.776C107.105 14.352 107.761 14.64 108.545 14.64ZM123.826 18.192C122.514 18.192 121.33 17.912 120.274 17.352C119.234 16.792 118.41 15.992 117.802 14.952C117.21 13.912 116.914 12.696 116.914 11.304C116.914 9.928 117.218 8.72 117.826 7.68C118.434 6.624 119.266 5.816 120.322 5.256C121.378 4.696 122.562 4.416 123.874 4.416C125.186 4.416 126.37 4.696 127.426 5.256C128.482 5.816 129.314 6.624 129.922 7.68C130.53 8.72 130.834 9.928 130.834 11.304C130.834 12.68 130.522 13.896 129.898 14.952C129.29 15.992 128.45 16.792 127.378 17.352C126.322 17.912 125.138 18.192 123.826 18.192ZM123.826 14.64C124.61 14.64 125.274 14.352 125.818 13.776C126.378 13.2 126.658 12.376 126.658 11.304C126.658 10.232 126.386 9.408 125.842 8.832C125.314 8.256 124.658 7.968 123.874 7.968C123.074 7.968 122.41 8.256 121.882 8.832C121.354 9.392 121.09 10.216 121.09 11.304C121.09 12.376 121.346 13.2 121.858 13.776C122.386 14.352 123.042 14.64 123.826 14.64ZM150.099 4.464C151.763 4.464 153.083 4.968 154.059 5.976C155.051 6.984 155.547 8.384 155.547 10.176V18H151.467V10.728C151.467 9.864 151.235 9.2 150.771 8.736C150.323 8.256 149.699 8.016 148.899 8.016C148.099 8.016 147.467 8.256 147.003 8.736C146.555 9.2 146.331 9.864 146.331 10.728V18H142.251V10.728C142.251 9.864 142.019 9.2 141.555 8.736C141.107 8.256 140.483 8.016 139.683 8.016C138.883 8.016 138.251 8.256 137.787 8.736C137.339 9.2 137.115 9.864 137.115 10.728V18H133.011V4.608H137.115V6.288C137.531 5.728 138.075 5.288 138.747 4.968C139.419 4.632 140.179 4.464 141.027 4.464C142.035 4.464 142.931 4.68 143.715 5.112C144.515 5.544 145.139 6.16 145.587 6.96C146.051 6.224 146.683 5.624 147.483 5.16C148.283 4.696 149.155 4.464 150.099 4.464Z" fill="#E8E8E8"/>
</g>
<defs>
<filter id="filter0_d_58_187" x="0.791992" y="0.240234" width="158.755" height="25.9517" filterUnits="userSpaceOnUse" color-interpolation-filters="sRGB">
<feFlood flood-opacity="0" result="BackgroundImageFix"/>
<feColorMatrix in="SourceAlpha" type="matrix" values="0 0 0 0 0 0 0 0 0 0 0 0 0 0 0 0 0 0 127 0" result="hardAlpha"/>
<feOffset dy="4"/>
<feGaussianBlur stdDeviation="2"/>
<feComposite in2="hardAlpha" operator="out"/>
<feColorMatrix type="matrix" values="0 0 0 0 0 0 0 0 0 0 0 0 0 0 0 0 0 0 0.25 0"/>
<feBlend mode="normal" in2="BackgroundImageFix" result="effect1_dropShadow_58_187"/>
<feBlend mode="normal" in="SourceGraphic" in2="effect1_dropShadow_58_187" result="shape"/>
</filter>
</defs>
</svg>
