<svg width="131" height="27" viewBox="0 0 131 27" fill="none" xmlns="http://www.w3.org/2000/svg">
<g filter="url(#filter0_d_58_189)">
<path d="M16.672 6.48C16.368 5.92 15.928 5.496 15.352 5.208C14.792 4.904 14.128 4.752 13.36 4.752C12.032 4.752 10.968 5.192 10.168 6.072C9.368 6.936 8.968 8.096 8.968 9.552C8.968 11.104 9.384 12.32 10.216 13.2C11.064 14.064 12.224 14.496 13.696 14.496C14.704 14.496 15.552 14.24 16.24 13.728C16.944 13.216 17.456 12.48 17.776 11.52H12.568V8.496H21.496V12.312C21.192 13.336 20.672 14.288 19.936 15.168C19.216 16.048 18.296 16.76 17.176 17.304C16.056 17.848 14.792 18.12 13.384 18.12C11.72 18.12 10.232 17.76 8.92 17.04C7.624 16.304 6.608 15.288 5.872 13.992C5.152 12.696 4.792 11.216 4.792 9.552C4.792 7.888 5.152 6.408 5.872 5.112C6.608 3.8 7.624 2.784 8.92 2.064C10.216 1.328 11.696 0.959999 13.36 0.959999C15.376 0.959999 17.072 1.448 18.448 2.424C19.84 3.4 20.76 4.752 21.208 6.48H16.672ZM23.0732 9.552C23.0732 7.888 23.4333 6.408 24.1533 5.112C24.8733 3.8 25.8733 2.784 27.1533 2.064C28.4493 1.328 29.9133 0.959999 31.5453 0.959999C33.5453 0.959999 35.2573 1.488 36.6813 2.544C38.1053 3.6 39.0573 5.04 39.5373 6.864H35.0253C34.6893 6.16 34.2093 5.624 33.5853 5.256C32.9773 4.888 32.2813 4.704 31.4973 4.704C30.2333 4.704 29.2093 5.144 28.4253 6.024C27.6413 6.904 27.2493 8.08 27.2493 9.552C27.2493 11.024 27.6413 12.2 28.4253 13.08C29.2093 13.96 30.2333 14.4 31.4973 14.4C32.2813 14.4 32.9773 14.216 33.5853 13.848C34.2093 13.48 34.6893 12.944 35.0253 12.24H39.5373C39.0573 14.064 38.1053 15.504 36.6813 16.56C35.2573 17.6 33.5453 18.12 31.5453 18.12C29.9133 18.12 28.4493 17.76 27.1533 17.04C25.8733 16.304 24.8733 15.288 24.1533 13.992C23.4333 12.696 23.0732 11.216 23.0732 9.552ZM48.1465 18.192C46.8345 18.192 45.6505 17.912 44.5945 17.352C43.5545 16.792 42.7305 15.992 42.1225 14.952C41.5305 13.912 41.2345 12.696 41.2345 11.304C41.2345 9.928 41.5385 8.72 42.1465 7.68C42.7545 6.624 43.5865 5.816 44.6425 5.256C45.6985 4.696 46.8825 4.416 48.1945 4.416C49.5065 4.416 50.6905 4.696 51.7465 5.256C52.8025 5.816 53.6345 6.624 54.2425 7.68C54.8505 8.72 55.1545 9.928 55.1545 11.304C55.1545 12.68 54.8425 13.896 54.2185 14.952C53.6105 15.992 52.7705 16.792 51.6985 17.352C50.6425 17.912 49.4585 18.192 48.1465 18.192ZM48.1465 14.64C48.9305 14.64 49.5945 14.352 50.1385 13.776C50.6985 13.2 50.9785 12.376 50.9785 11.304C50.9785 10.232 50.7065 9.408 50.1625 8.832C49.6345 8.256 48.9785 7.968 48.1945 7.968C47.3945 7.968 46.7305 8.256 46.2025 8.832C45.6745 9.392 45.4105 10.216 45.4105 11.304C45.4105 12.376 45.6665 13.2 46.1785 13.776C46.7065 14.352 47.3625 14.64 48.1465 14.64ZM65.4918 4.464C67.0598 4.464 68.3078 4.976 69.2358 6C70.1798 7.008 70.6518 8.4 70.6518 10.176V18H66.5718V10.728C66.5718 9.832 66.3398 9.136 65.8758 8.64C65.4118 8.144 64.7878 7.896 64.0038 7.896C63.2198 7.896 62.5958 8.144 62.1318 8.64C61.6678 9.136 61.4358 9.832 61.4358 10.728V18H57.3318V4.608H61.4358V6.384C61.8518 5.792 62.4118 5.328 63.1158 4.992C63.8198 4.64 64.6118 4.464 65.4918 4.464ZM81.6636 4.464C83.2316 4.464 84.4796 4.976 85.4076 6C86.3516 7.008 86.8236 8.4 86.8236 10.176V18H82.7436V10.728C82.7436 9.832 82.5116 9.136 82.0476 8.64C81.5836 8.144 80.9596 7.896 80.1756 7.896C79.3916 7.896 78.7676 8.144 78.3036 8.64C77.8396 9.136 77.6076 9.832 77.6076 10.728V18H73.5036V4.608H77.6076V6.384C78.0236 5.792 78.5836 5.328 79.2876 4.992C79.9916 4.64 80.7836 4.464 81.6636 4.464ZM102.299 11.088C102.299 11.472 102.276 11.872 102.228 12.288H92.9395C93.0035 13.12 93.2675 13.76 93.7315 14.208C94.2115 14.64 94.7955 14.856 95.4835 14.856C96.5075 14.856 97.2195 14.424 97.6195 13.56H101.988C101.764 14.44 101.356 15.232 100.764 15.936C100.188 16.64 99.4595 17.192 98.5795 17.592C97.6995 17.992 96.7155 18.192 95.6275 18.192C94.3155 18.192 93.1475 17.912 92.1235 17.352C91.0995 16.792 90.2995 15.992 89.7235 14.952C89.1475 13.912 88.8595 12.696 88.8595 11.304C88.8595 9.912 89.1395 8.696 89.6995 7.656C90.2755 6.616 91.0755 5.816 92.0995 5.256C93.1235 4.696 94.2995 4.416 95.6275 4.416C96.9235 4.416 98.0755 4.688 99.0835 5.232C100.092 5.776 100.876 6.552 101.436 7.56C102.012 8.568 102.299 9.744 102.299 11.088ZM98.0995 10.008C98.0995 9.304 97.8595 8.744 97.3795 8.328C96.8995 7.912 96.2995 7.704 95.5795 7.704C94.8915 7.704 94.3075 7.904 93.8275 8.304C93.3635 8.704 93.0755 9.272 92.9635 10.008H98.0995ZM103.649 11.304C103.649 9.912 103.929 8.696 104.489 7.656C105.065 6.616 105.857 5.816 106.865 5.256C107.889 4.696 109.057 4.416 110.369 4.416C112.049 4.416 113.449 4.856 114.569 5.736C115.705 6.616 116.449 7.856 116.801 9.456H112.433C112.065 8.432 111.353 7.92 110.297 7.92C109.545 7.92 108.945 8.216 108.497 8.808C108.049 9.384 107.825 10.216 107.825 11.304C107.825 12.392 108.049 13.232 108.497 13.824C108.945 14.4 109.545 14.688 110.297 14.688C111.353 14.688 112.065 14.176 112.433 13.152H116.801C116.449 14.72 115.705 15.952 114.569 16.848C113.433 17.744 112.033 18.192 110.369 18.192C109.057 18.192 107.889 17.912 106.865 17.352C105.857 16.792 105.065 15.992 104.489 14.952C103.929 13.912 103.649 12.696 103.649 11.304ZM126.46 14.52V18H124.372C122.884 18 121.724 17.64 120.892 16.92C120.06 16.184 119.644 14.992 119.644 13.344V8.016H118.012V4.608H119.644V1.344H123.748V4.608H126.436V8.016H123.748V13.392C123.748 13.792 123.844 14.08 124.036 14.256C124.228 14.432 124.548 14.52 124.996 14.52H126.46Z" fill="#E8E8E8"/>
</g>
<defs>
<filter id="filter0_d_58_189" x="0.791992" y="0.959961" width="129.668" height="25.2319" filterUnits="userSpaceOnUse" color-interpolation-filters="sRGB">
<feFlood flood-opacity="0" result="BackgroundImageFix"/>
<feColorMatrix in="SourceAlpha" type="matrix" values="0 0 0 0 0 0 0 0 0 0 0 0 0 0 0 0 0 0 127 0" result="hardAlpha"/>
<feOffset dy="4"/>
<feGaussianBlur stdDeviation="2"/>
<feComposite in2="hardAlpha" operator="out"/>
<feColorMatrix type="matrix" values="0 0 0 0 0 0 0 0 0 0 0 0 0 0 0 0 0 0 0.25 0"/>
<feBlend mode="normal" in2="BackgroundImageFix" result="effect1_dropShadow_58_189"/>
<feBlend mode="normal" in="SourceGraphic" in2="effect1_dropShadow_58_189" result="shape"/>
</filter>
</defs>
</svg>
