<svg width="122" height="29" viewBox="0 0 122 29" fill="none" xmlns="http://www.w3.org/2000/svg">
<g filter="url(#filter0_d_58_193)">
<path d="M16.672 8.48C16.368 7.92 15.928 7.496 15.352 7.208C14.792 6.904 14.128 6.752 13.36 6.752C12.032 6.752 10.968 7.192 10.168 8.072C9.368 8.936 8.968 10.096 8.968 11.552C8.968 13.104 9.384 14.32 10.216 15.2C11.064 16.064 12.224 16.496 13.696 16.496C14.704 16.496 15.552 16.24 16.24 15.728C16.944 15.216 17.456 14.48 17.776 13.52H12.568V10.496H21.496V14.312C21.192 15.336 20.672 16.288 19.936 17.168C19.216 18.048 18.296 18.76 17.176 19.304C16.056 19.848 14.792 20.12 13.384 20.12C11.72 20.12 10.232 19.76 8.92 19.04C7.624 18.304 6.608 17.288 5.872 15.992C5.152 14.696 4.792 13.216 4.792 11.552C4.792 9.888 5.152 8.408 5.872 7.112C6.608 5.8 7.624 4.784 8.92 4.064C10.216 3.328 11.696 2.96 13.36 2.96C15.376 2.96 17.072 3.448 18.448 4.424C19.84 5.4 20.76 6.752 21.208 8.48H16.672ZM23.0732 11.552C23.0732 9.888 23.4333 8.408 24.1533 7.112C24.8733 5.8 25.8733 4.784 27.1533 4.064C28.4493 3.328 29.9133 2.96 31.5453 2.96C33.5453 2.96 35.2573 3.488 36.6813 4.544C38.1053 5.6 39.0573 7.04 39.5373 8.864H35.0253C34.6893 8.16 34.2093 7.624 33.5853 7.256C32.9773 6.888 32.2813 6.704 31.4973 6.704C30.2333 6.704 29.2093 7.144 28.4253 8.024C27.6413 8.904 27.2493 10.08 27.2493 11.552C27.2493 13.024 27.6413 14.2 28.4253 15.08C29.2093 15.96 30.2333 16.4 31.4973 16.4C32.2813 16.4 32.9773 16.216 33.5853 15.848C34.2093 15.48 34.6893 14.944 35.0253 14.24H39.5373C39.0573 16.064 38.1053 17.504 36.6813 18.56C35.2573 19.6 33.5453 20.12 31.5453 20.12C29.9133 20.12 28.4493 19.76 27.1533 19.04C25.8733 18.304 24.8733 17.288 24.1533 15.992C23.4333 14.696 23.0732 13.216 23.0732 11.552ZM46.1545 8.84C46.6345 8.104 47.2345 7.528 47.9545 7.112C48.6745 6.68 49.4745 6.464 50.3545 6.464V10.808H49.2265C48.2025 10.808 47.4345 11.032 46.9225 11.48C46.4105 11.912 46.1545 12.68 46.1545 13.784V20H42.0505V6.608H46.1545V8.84ZM64.9401 13.088C64.9401 13.472 64.9161 13.872 64.8681 14.288H55.5801C55.6441 15.12 55.9081 15.76 56.3721 16.208C56.8521 16.64 57.4361 16.856 58.1241 16.856C59.1481 16.856 59.8601 16.424 60.2601 15.56H64.6281C64.4041 16.44 63.9961 17.232 63.4041 17.936C62.8281 18.64 62.1001 19.192 61.2201 19.592C60.3401 19.992 59.3561 20.192 58.2681 20.192C56.9561 20.192 55.7881 19.912 54.7641 19.352C53.7401 18.792 52.9401 17.992 52.3641 16.952C51.7881 15.912 51.5001 14.696 51.5001 13.304C51.5001 11.912 51.7801 10.696 52.3401 9.656C52.9161 8.616 53.7161 7.816 54.7401 7.256C55.7641 6.696 56.9401 6.416 58.2681 6.416C59.5641 6.416 60.7161 6.688 61.7241 7.232C62.7321 7.776 63.5161 8.552 64.0761 9.56C64.6521 10.568 64.9401 11.744 64.9401 13.088ZM60.7401 12.008C60.7401 11.304 60.5001 10.744 60.0201 10.328C59.5401 9.912 58.9401 9.704 58.2201 9.704C57.5321 9.704 56.9481 9.904 56.4681 10.304C56.0041 10.704 55.7161 11.272 55.6041 12.008H60.7401ZM66.2892 13.28C66.2892 11.904 66.5452 10.696 67.0572 9.656C67.5852 8.616 68.2972 7.816 69.1932 7.256C70.0892 6.696 71.0892 6.416 72.1932 6.416C73.0732 6.416 73.8732 6.6 74.5932 6.968C75.3292 7.336 75.9052 7.832 76.3212 8.456V2.24H80.4252V20H76.3212V18.08C75.9372 18.72 75.3852 19.232 74.6652 19.616C73.9612 20 73.1372 20.192 72.1932 20.192C71.0892 20.192 70.0892 19.912 69.1932 19.352C68.2972 18.776 67.5852 17.968 67.0572 16.928C66.5452 15.872 66.2892 14.656 66.2892 13.28ZM76.3212 13.304C76.3212 12.28 76.0332 11.472 75.4572 10.88C74.8972 10.288 74.2092 9.992 73.3932 9.992C72.5772 9.992 71.8812 10.288 71.3052 10.88C70.7452 11.456 70.4652 12.256 70.4652 13.28C70.4652 14.304 70.7452 15.12 71.3052 15.728C71.8812 16.32 72.5772 16.616 73.3932 16.616C74.2092 16.616 74.8972 16.32 75.4572 15.728C76.0332 15.136 76.3212 14.328 76.3212 13.304ZM85.4583 5.216C84.7383 5.216 84.1463 5.008 83.6823 4.592C83.2343 4.16 83.0103 3.632 83.0103 3.008C83.0103 2.368 83.2343 1.84 83.6823 1.424C84.1463 0.991999 84.7383 0.775999 85.4583 0.775999C86.1623 0.775999 86.7383 0.991999 87.1863 1.424C87.6503 1.84 87.8823 2.368 87.8823 3.008C87.8823 3.632 87.6503 4.16 87.1863 4.592C86.7383 5.008 86.1623 5.216 85.4583 5.216ZM87.4983 6.608V20H83.3943V6.608H87.4983ZM94.5764 8.504C94.9604 7.88 95.5124 7.376 96.2324 6.992C96.9524 6.608 97.7764 6.416 98.7044 6.416C99.8084 6.416 100.808 6.696 101.704 7.256C102.6 7.816 103.304 8.616 103.816 9.656C104.344 10.696 104.608 11.904 104.608 13.28C104.608 14.656 104.344 15.872 103.816 16.928C103.304 17.968 102.6 18.776 101.704 19.352C100.808 19.912 99.8084 20.192 98.7044 20.192C97.7604 20.192 96.9364 20.008 96.2324 19.64C95.5284 19.256 94.9764 18.752 94.5764 18.128V20H90.4724V2.24H94.5764V8.504ZM100.432 13.28C100.432 12.256 100.144 11.456 99.5684 10.88C99.0084 10.288 98.3124 9.992 97.4804 9.992C96.6644 9.992 95.9684 10.288 95.3924 10.88C94.8324 11.472 94.5524 12.28 94.5524 13.304C94.5524 14.328 94.8324 15.136 95.3924 15.728C95.9684 16.32 96.6644 16.616 97.4804 16.616C98.2964 16.616 98.9924 16.32 99.5684 15.728C100.144 15.12 100.432 14.304 100.432 13.28ZM112.209 20.192C111.041 20.192 110.001 19.992 109.089 19.592C108.177 19.192 107.457 18.648 106.929 17.96C106.401 17.256 106.105 16.472 106.041 15.608H110.097C110.145 16.072 110.361 16.448 110.745 16.736C111.129 17.024 111.601 17.168 112.161 17.168C112.673 17.168 113.065 17.072 113.337 16.88C113.625 16.672 113.769 16.408 113.769 16.088C113.769 15.704 113.569 15.424 113.169 15.248C112.769 15.056 112.121 14.848 111.225 14.624C110.265 14.4 109.465 14.168 108.825 13.928C108.185 13.672 107.633 13.28 107.169 12.752C106.705 12.208 106.473 11.48 106.473 10.568C106.473 9.8 106.681 9.104 107.097 8.48C107.529 7.84 108.153 7.336 108.969 6.968C109.801 6.6 110.785 6.416 111.921 6.416C113.601 6.416 114.921 6.832 115.881 7.664C116.857 8.496 117.417 9.6 117.561 10.976H113.769C113.705 10.512 113.497 10.144 113.145 9.872C112.809 9.6 112.361 9.464 111.801 9.464C111.321 9.464 110.953 9.56 110.697 9.752C110.441 9.928 110.313 10.176 110.313 10.496C110.313 10.88 110.513 11.168 110.913 11.36C111.329 11.552 111.969 11.744 112.833 11.936C113.825 12.192 114.633 12.448 115.257 12.704C115.881 12.944 116.425 13.344 116.889 13.904C117.369 14.448 117.617 15.184 117.633 16.112C117.633 16.896 117.409 17.6 116.961 18.224C116.529 18.832 115.897 19.312 115.065 19.664C114.249 20.016 113.297 20.192 112.209 20.192Z" fill="#E8E8E8"/>
</g>
<defs>
<filter id="filter0_d_58_193" x="0.791992" y="0.775879" width="120.842" height="27.416" filterUnits="userSpaceOnUse" color-interpolation-filters="sRGB">
<feFlood flood-opacity="0" result="BackgroundImageFix"/>
<feColorMatrix in="SourceAlpha" type="matrix" values="0 0 0 0 0 0 0 0 0 0 0 0 0 0 0 0 0 0 127 0" result="hardAlpha"/>
<feOffset dy="4"/>
<feGaussianBlur stdDeviation="2"/>
<feComposite in2="hardAlpha" operator="out"/>
<feColorMatrix type="matrix" values="0 0 0 0 0 0 0 0 0 0 0 0 0 0 0 0 0 0 0.25 0"/>
<feBlend mode="normal" in2="BackgroundImageFix" result="effect1_dropShadow_58_193"/>
<feBlend mode="normal" in="SourceGraphic" in2="effect1_dropShadow_58_193" result="shape"/>
</filter>
</defs>
</svg>
