<svg width="116" height="27" viewBox="0 0 116 27" fill="none" xmlns="http://www.w3.org/2000/svg">
<g filter="url(#filter0_d_58_192)">
<path d="M16.672 6.48C16.368 5.92 15.928 5.496 15.352 5.208C14.792 4.904 14.128 4.752 13.36 4.752C12.032 4.752 10.968 5.192 10.168 6.072C9.368 6.936 8.968 8.096 8.968 9.552C8.968 11.104 9.384 12.32 10.216 13.2C11.064 14.064 12.224 14.496 13.696 14.496C14.704 14.496 15.552 14.24 16.24 13.728C16.944 13.216 17.456 12.48 17.776 11.52H12.568V8.496H21.496V12.312C21.192 13.336 20.672 14.288 19.936 15.168C19.216 16.048 18.296 16.76 17.176 17.304C16.056 17.848 14.792 18.12 13.384 18.12C11.72 18.12 10.232 17.76 8.92 17.04C7.624 16.304 6.608 15.288 5.872 13.992C5.152 12.696 4.792 11.216 4.792 9.552C4.792 7.888 5.152 6.408 5.872 5.112C6.608 3.8 7.624 2.784 8.92 2.064C10.216 1.328 11.696 0.959999 13.36 0.959999C15.376 0.959999 17.072 1.448 18.448 2.424C19.84 3.4 20.76 4.752 21.208 6.48H16.672ZM30.0813 1.152C31.8573 1.152 33.4093 1.504 34.7373 2.208C36.0653 2.912 37.0893 3.904 37.8093 5.184C38.5453 6.448 38.9133 7.912 38.9133 9.576C38.9133 11.224 38.5453 12.688 37.8093 13.968C37.0893 15.248 36.0573 16.24 34.7133 16.944C33.3853 17.648 31.8413 18 30.0813 18H23.7693V1.152H30.0813ZM29.8173 14.448C31.3693 14.448 32.5773 14.024 33.4413 13.176C34.3053 12.328 34.7373 11.128 34.7373 9.576C34.7373 8.024 34.3053 6.816 33.4413 5.952C32.5773 5.088 31.3693 4.656 29.8173 4.656H27.8733V14.448H29.8173ZM47.3028 18.192C45.9908 18.192 44.8068 17.912 43.7508 17.352C42.7108 16.792 41.8868 15.992 41.2788 14.952C40.6868 13.912 40.3908 12.696 40.3908 11.304C40.3908 9.928 40.6948 8.72 41.3027 7.68C41.9108 6.624 42.7428 5.816 43.7988 5.256C44.8548 4.696 46.0388 4.416 47.3508 4.416C48.6628 4.416 49.8468 4.696 50.9028 5.256C51.9588 5.816 52.7908 6.624 53.3988 7.68C54.0068 8.72 54.3108 9.928 54.3108 11.304C54.3108 12.68 53.9988 13.896 53.3748 14.952C52.7668 15.992 51.9268 16.792 50.8548 17.352C49.7988 17.912 48.6148 18.192 47.3028 18.192ZM47.3028 14.64C48.0868 14.64 48.7508 14.352 49.2948 13.776C49.8548 13.2 50.1348 12.376 50.1348 11.304C50.1348 10.232 49.8628 9.408 49.3188 8.832C48.7908 8.256 48.1348 7.968 47.3508 7.968C46.5508 7.968 45.8868 8.256 45.3588 8.832C44.8308 9.392 44.5668 10.216 44.5668 11.304C44.5668 12.376 44.8228 13.2 45.3348 13.776C45.8628 14.352 46.5188 14.64 47.3028 14.64ZM64.648 4.464C66.216 4.464 67.464 4.976 68.392 6C69.336 7.008 69.808 8.4 69.808 10.176V18H65.728V10.728C65.728 9.832 65.496 9.136 65.032 8.64C64.568 8.144 63.944 7.896 63.16 7.896C62.376 7.896 61.752 8.144 61.288 8.64C60.824 9.136 60.592 9.832 60.592 10.728V18H56.488V4.608H60.592V6.384C61.008 5.792 61.568 5.328 62.272 4.992C62.976 4.64 63.768 4.464 64.648 4.464ZM71.8439 11.28C71.8439 9.904 72.0999 8.696 72.6119 7.656C73.1399 6.616 73.8519 5.816 74.7479 5.256C75.6439 4.696 76.6439 4.416 77.7479 4.416C78.6919 4.416 79.5159 4.608 80.2199 4.992C80.9399 5.376 81.4919 5.88 81.8759 6.504V4.608H85.9799V18H81.8759V16.104C81.4759 16.728 80.9159 17.232 80.1959 17.616C79.4919 18 78.6679 18.192 77.7239 18.192C76.6359 18.192 75.6439 17.912 74.7479 17.352C73.8519 16.776 73.1399 15.968 72.6119 14.928C72.0999 13.872 71.8439 12.656 71.8439 11.28ZM81.8759 11.304C81.8759 10.28 81.5879 9.472 81.0119 8.88C80.4519 8.288 79.7639 7.992 78.9479 7.992C78.1319 7.992 77.4359 8.288 76.8599 8.88C76.2999 9.456 76.0199 10.256 76.0199 11.28C76.0199 12.304 76.2999 13.12 76.8599 13.728C77.4359 14.32 78.1319 14.616 78.9479 14.616C79.7639 14.616 80.4519 14.32 81.0119 13.728C81.5879 13.136 81.8759 12.328 81.8759 11.304ZM96.4129 14.52V18H94.3249C92.8369 18 91.6769 17.64 90.8449 16.92C90.0129 16.184 89.5969 14.992 89.5969 13.344V8.016H87.9649V4.608H89.5969V1.344H93.7009V4.608H96.3889V8.016H93.7009V13.392C93.7009 13.792 93.7969 14.08 93.9889 14.256C94.1809 14.432 94.5009 14.52 94.9489 14.52H96.4129ZM111.323 11.088C111.323 11.472 111.299 11.872 111.251 12.288H101.963C102.027 13.12 102.291 13.76 102.755 14.208C103.235 14.64 103.819 14.856 104.507 14.856C105.531 14.856 106.243 14.424 106.643 13.56H111.011C110.787 14.44 110.379 15.232 109.787 15.936C109.211 16.64 108.483 17.192 107.603 17.592C106.723 17.992 105.739 18.192 104.651 18.192C103.339 18.192 102.171 17.912 101.147 17.352C100.123 16.792 99.3229 15.992 98.7469 14.952C98.1709 13.912 97.8829 12.696 97.8829 11.304C97.8829 9.912 98.1629 8.696 98.7229 7.656C99.2989 6.616 100.099 5.816 101.123 5.256C102.147 4.696 103.323 4.416 104.651 4.416C105.947 4.416 107.099 4.688 108.107 5.232C109.115 5.776 109.899 6.552 110.459 7.56C111.035 8.568 111.323 9.744 111.323 11.088ZM107.123 10.008C107.123 9.304 106.883 8.744 106.403 8.328C105.923 7.912 105.323 7.704 104.603 7.704C103.915 7.704 103.331 7.904 102.851 8.304C102.387 8.704 102.099 9.272 101.987 10.008H107.123Z" fill="#E8E8E8"/>
</g>
<defs>
<filter id="filter0_d_58_192" x="0.791992" y="0.959961" width="114.531" height="25.2319" filterUnits="userSpaceOnUse" color-interpolation-filters="sRGB">
<feFlood flood-opacity="0" result="BackgroundImageFix"/>
<feColorMatrix in="SourceAlpha" type="matrix" values="0 0 0 0 0 0 0 0 0 0 0 0 0 0 0 0 0 0 127 0" result="hardAlpha"/>
<feOffset dy="4"/>
<feGaussianBlur stdDeviation="2"/>
<feComposite in2="hardAlpha" operator="out"/>
<feColorMatrix type="matrix" values="0 0 0 0 0 0 0 0 0 0 0 0 0 0 0 0 0 0 0.25 0"/>
<feBlend mode="normal" in2="BackgroundImageFix" result="effect1_dropShadow_58_192"/>
<feBlend mode="normal" in="SourceGraphic" in2="effect1_dropShadow_58_192" result="shape"/>
</filter>
</defs>
</svg>
