<svg width="328" height="62" viewBox="0 0 328 62" fill="none" xmlns="http://www.w3.org/2000/svg">
<path d="M7.47025 9.675H2.91025L2.07025 12H0.630254L4.41025 1.605H5.98525L9.75025 12H8.31025L7.47025 9.675ZM7.08025 8.565L5.19025 3.285L3.30025 8.565H7.08025ZM14.3077 12.135C13.6777 12.135 13.1127 12.03 12.6127 11.82C12.1127 11.6 11.7177 11.3 11.4277 10.92C11.1377 10.53 10.9777 10.085 10.9477 9.585H12.3577C12.3977 9.995 12.5877 10.33 12.9277 10.59C13.2777 10.85 13.7327 10.98 14.2927 10.98C14.8127 10.98 15.2227 10.865 15.5227 10.635C15.8227 10.405 15.9727 10.115 15.9727 9.765C15.9727 9.405 15.8127 9.14 15.4927 8.97C15.1727 8.79 14.6777 8.615 14.0077 8.445C13.3977 8.285 12.8977 8.125 12.5077 7.965C12.1277 7.795 11.7977 7.55 11.5177 7.23C11.2477 6.9 11.1127 6.47 11.1127 5.94C11.1127 5.52 11.2377 5.135 11.4877 4.785C11.7377 4.435 12.0927 4.16 12.5527 3.96C13.0127 3.75 13.5377 3.645 14.1277 3.645C15.0377 3.645 15.7727 3.875 16.3327 4.335C16.8927 4.795 17.1927 5.425 17.2327 6.225H15.8677C15.8377 5.795 15.6627 5.45 15.3427 5.19C15.0327 4.93 14.6127 4.8 14.0827 4.8C13.5927 4.8 13.2027 4.905 12.9127 5.115C12.6227 5.325 12.4777 5.6 12.4777 5.94C12.4777 6.21 12.5627 6.435 12.7327 6.615C12.9127 6.785 13.1327 6.925 13.3927 7.035C13.6627 7.135 14.0327 7.25 14.5027 7.38C15.0927 7.54 15.5727 7.7 15.9427 7.86C16.3127 8.01 16.6277 8.24 16.8877 8.55C17.1577 8.86 17.2977 9.265 17.3077 9.765C17.3077 10.215 17.1827 10.62 16.9327 10.98C16.6827 11.34 16.3277 11.625 15.8677 11.835C15.4177 12.035 14.8977 12.135 14.3077 12.135ZM22.1446 12.135C21.5146 12.135 20.9496 12.03 20.4496 11.82C19.9496 11.6 19.5546 11.3 19.2646 10.92C18.9746 10.53 18.8146 10.085 18.7846 9.585H20.1946C20.2346 9.995 20.4246 10.33 20.7646 10.59C21.1146 10.85 21.5696 10.98 22.1296 10.98C22.6496 10.98 23.0596 10.865 23.3596 10.635C23.6596 10.405 23.8096 10.115 23.8096 9.765C23.8096 9.405 23.6496 9.14 23.3296 8.97C23.0096 8.79 22.5146 8.615 21.8446 8.445C21.2346 8.285 20.7346 8.125 20.3446 7.965C19.9646 7.795 19.6346 7.55 19.3546 7.23C19.0846 6.9 18.9496 6.47 18.9496 5.94C18.9496 5.52 19.0746 5.135 19.3246 4.785C19.5746 4.435 19.9296 4.16 20.3896 3.96C20.8496 3.75 21.3746 3.645 21.9646 3.645C22.8746 3.645 23.6096 3.875 24.1696 4.335C24.7296 4.795 25.0296 5.425 25.0696 6.225H23.7046C23.6746 5.795 23.4996 5.45 23.1796 5.19C22.8696 4.93 22.4496 4.8 21.9196 4.8C21.4296 4.8 21.0396 4.905 20.7496 5.115C20.4596 5.325 20.3146 5.6 20.3146 5.94C20.3146 6.21 20.3996 6.435 20.5696 6.615C20.7496 6.785 20.9696 6.925 21.2296 7.035C21.4996 7.135 21.8696 7.25 22.3396 7.38C22.9296 7.54 23.4096 7.7 23.7796 7.86C24.1496 8.01 24.4646 8.24 24.7246 8.55C24.9946 8.86 25.1346 9.265 25.1446 9.765C25.1446 10.215 25.0196 10.62 24.7696 10.98C24.5196 11.34 24.1646 11.625 23.7046 11.835C23.2546 12.035 22.7346 12.135 22.1446 12.135ZM27.7765 2.445C27.5165 2.445 27.2965 2.355 27.1165 2.175C26.9365 1.995 26.8465 1.775 26.8465 1.515C26.8465 1.255 26.9365 1.035 27.1165 0.855C27.2965 0.674999 27.5165 0.584999 27.7765 0.584999C28.0265 0.584999 28.2365 0.674999 28.4065 0.855C28.5865 1.035 28.6765 1.255 28.6765 1.515C28.6765 1.775 28.5865 1.995 28.4065 2.175C28.2365 2.355 28.0265 2.445 27.7765 2.445ZM28.4365 3.78V12H27.0715V3.78H28.4365ZM33.6729 12.135C33.0429 12.135 32.4779 12.03 31.9779 11.82C31.4779 11.6 31.0829 11.3 30.7929 10.92C30.5029 10.53 30.3429 10.085 30.3129 9.585H31.7229C31.7629 9.995 31.9529 10.33 32.2929 10.59C32.6429 10.85 33.0979 10.98 33.6579 10.98C34.1779 10.98 34.5879 10.865 34.8879 10.635C35.1879 10.405 35.3379 10.115 35.3379 9.765C35.3379 9.405 35.1779 9.14 34.8579 8.97C34.5379 8.79 34.0429 8.615 33.3729 8.445C32.7629 8.285 32.2629 8.125 31.8729 7.965C31.4929 7.795 31.1629 7.55 30.8829 7.23C30.6129 6.9 30.4779 6.47 30.4779 5.94C30.4779 5.52 30.6029 5.135 30.8529 4.785C31.1029 4.435 31.4579 4.16 31.9179 3.96C32.3779 3.75 32.9029 3.645 33.4929 3.645C34.4029 3.645 35.1379 3.875 35.6979 4.335C36.2579 4.795 36.5579 5.425 36.5979 6.225H35.2329C35.2029 5.795 35.0279 5.45 34.7079 5.19C34.3979 4.93 33.9779 4.8 33.4479 4.8C32.9579 4.8 32.5679 4.905 32.2779 5.115C31.9879 5.325 31.8429 5.6 31.8429 5.94C31.8429 6.21 31.9279 6.435 32.0979 6.615C32.2779 6.785 32.4979 6.925 32.7579 7.035C33.0279 7.135 33.3979 7.25 33.8679 7.38C34.4579 7.54 34.9379 7.7 35.3079 7.86C35.6779 8.01 35.9929 8.24 36.2529 8.55C36.5229 8.86 36.6629 9.265 36.6729 9.765C36.6729 10.215 36.5479 10.62 36.2979 10.98C36.0479 11.34 35.6929 11.625 35.2329 11.835C34.7829 12.035 34.2629 12.135 33.6729 12.135ZM40.2648 4.905V9.75C40.2648 10.15 40.3498 10.435 40.5198 10.605C40.6898 10.765 40.9848 10.845 41.4048 10.845H42.4098V12H41.1798C40.4198 12 39.8498 11.825 39.4698 11.475C39.0898 11.125 38.8998 10.55 38.8998 9.75V4.905H37.8348V3.78H38.8998V1.71H40.2648V3.78H42.4098V4.905H40.2648ZM48.7677 2.445C48.5077 2.445 48.2877 2.355 48.1077 2.175C47.9277 1.995 47.8377 1.775 47.8377 1.515C47.8377 1.255 47.9277 1.035 48.1077 0.855C48.2877 0.674999 48.5077 0.584999 48.7677 0.584999C49.0177 0.584999 49.2277 0.674999 49.3977 0.855C49.5777 1.035 49.6677 1.255 49.6677 1.515C49.6677 1.775 49.5777 1.995 49.3977 2.175C49.2277 2.355 49.0177 2.445 48.7677 2.445ZM49.4277 3.78V12H48.0627V3.78H49.4277ZM55.7591 3.63C56.7591 3.63 57.5691 3.935 58.1891 4.545C58.8091 5.145 59.1191 6.015 59.1191 7.155V12H57.7691V7.35C57.7691 6.53 57.5641 5.905 57.1541 5.475C56.7441 5.035 56.1841 4.815 55.4741 4.815C54.7541 4.815 54.1791 5.04 53.7491 5.49C53.3291 5.94 53.1191 6.595 53.1191 7.455V12H51.7541V3.78H53.1191V4.95C53.3891 4.53 53.7541 4.205 54.2141 3.975C54.6841 3.745 55.1991 3.63 55.7591 3.63ZM68.6929 4.905H66.9679V12H65.6029V4.905H64.5379V3.78H65.6029V3.195C65.6029 2.275 65.8379 1.605 66.3079 1.185C66.7879 0.754999 67.5529 0.539999 68.6029 0.539999V1.68C68.0029 1.68 67.5779 1.8 67.3279 2.04C67.0879 2.27 66.9679 2.655 66.9679 3.195V3.78H68.6929V4.905ZM77.5744 3.78V12H76.2094V10.785C75.9494 11.205 75.5844 11.535 75.1144 11.775C74.6544 12.005 74.1444 12.12 73.5844 12.12C72.9444 12.12 72.3694 11.99 71.8594 11.73C71.3494 11.46 70.9444 11.06 70.6444 10.53C70.3544 10 70.2094 9.355 70.2094 8.595V3.78H71.5594V8.415C71.5594 9.225 71.7644 9.85 72.1744 10.29C72.5844 10.72 73.1444 10.935 73.8544 10.935C74.5844 10.935 75.1594 10.71 75.5794 10.26C75.9994 9.81 76.2094 9.155 76.2094 8.295V3.78H77.5744ZM83.8841 3.63C84.8841 3.63 85.6941 3.935 86.3141 4.545C86.9341 5.145 87.2441 6.015 87.2441 7.155V12H85.8941V7.35C85.8941 6.53 85.6891 5.905 85.2791 5.475C84.8691 5.035 84.3091 4.815 83.5991 4.815C82.8791 4.815 82.3041 5.04 81.8741 5.49C81.4541 5.94 81.2441 6.595 81.2441 7.455V12H79.8791V3.78H81.2441V4.95C81.5141 4.53 81.8791 4.205 82.3391 3.975C82.8091 3.745 83.3241 3.63 83.8841 3.63ZM88.9638 7.86C88.9638 7.02 89.1338 6.285 89.4738 5.655C89.8138 5.015 90.2788 4.52 90.8688 4.17C91.4688 3.82 92.1388 3.645 92.8788 3.645C93.5188 3.645 94.1138 3.795 94.6638 4.095C95.2138 4.385 95.6338 4.77 95.9238 5.25V0.9H97.3038V12H95.9238V10.455C95.6538 10.945 95.2538 11.35 94.7238 11.67C94.1938 11.98 93.5738 12.135 92.8638 12.135C92.1338 12.135 91.4688 11.955 90.8688 11.595C90.2788 11.235 89.8138 10.73 89.4738 10.08C89.1338 9.43 88.9638 8.69 88.9638 7.86ZM95.9238 7.875C95.9238 7.255 95.7988 6.715 95.5488 6.255C95.2988 5.795 94.9588 5.445 94.5288 5.205C94.1088 4.955 93.6438 4.83 93.1338 4.83C92.6238 4.83 92.1588 4.95 91.7388 5.19C91.3188 5.43 90.9838 5.78 90.7338 6.24C90.4838 6.7 90.3588 7.24 90.3588 7.86C90.3588 8.49 90.4838 9.04 90.7338 9.51C90.9838 9.97 91.3188 10.325 91.7388 10.575C92.1588 10.815 92.6238 10.935 93.1338 10.935C93.6438 10.935 94.1088 10.815 94.5288 10.575C94.9588 10.325 95.2988 9.97 95.5488 9.51C95.7988 9.04 95.9238 8.495 95.9238 7.875ZM100.976 5.115C101.216 4.645 101.556 4.28 101.996 4.02C102.446 3.76 102.991 3.63 103.631 3.63V5.04H103.271C101.741 5.04 100.976 5.87 100.976 7.53V12H99.6106V3.78H100.976V5.115ZM104.696 7.86C104.696 7.02 104.866 6.285 105.206 5.655C105.546 5.015 106.011 4.52 106.601 4.17C107.201 3.82 107.866 3.645 108.596 3.645C109.316 3.645 109.941 3.8 110.471 4.11C111.001 4.42 111.396 4.81 111.656 5.28V3.78H113.036V12H111.656V10.47C111.386 10.95 110.981 11.35 110.441 11.67C109.911 11.98 109.291 12.135 108.581 12.135C107.851 12.135 107.191 11.955 106.601 11.595C106.011 11.235 105.546 10.73 105.206 10.08C104.866 9.43 104.696 8.69 104.696 7.86ZM111.656 7.875C111.656 7.255 111.531 6.715 111.281 6.255C111.031 5.795 110.691 5.445 110.261 5.205C109.841 4.955 109.376 4.83 108.866 4.83C108.356 4.83 107.891 4.95 107.471 5.19C107.051 5.43 106.716 5.78 106.466 6.24C106.216 6.7 106.091 7.24 106.091 7.86C106.091 8.49 106.216 9.04 106.466 9.51C106.716 9.97 107.051 10.325 107.471 10.575C107.891 10.815 108.356 10.935 108.866 10.935C109.376 10.935 109.841 10.815 110.261 10.575C110.691 10.325 111.031 9.97 111.281 9.51C111.531 9.04 111.656 8.495 111.656 7.875ZM116.048 2.445C115.788 2.445 115.568 2.355 115.388 2.175C115.208 1.995 115.118 1.775 115.118 1.515C115.118 1.255 115.208 1.035 115.388 0.855C115.568 0.674999 115.788 0.584999 116.048 0.584999C116.298 0.584999 116.508 0.674999 116.678 0.855C116.858 1.035 116.948 1.255 116.948 1.515C116.948 1.775 116.858 1.995 116.678 2.175C116.508 2.355 116.298 2.445 116.048 2.445ZM116.708 3.78V12H115.343V3.78H116.708ZM121.944 12.135C121.314 12.135 120.749 12.03 120.249 11.82C119.749 11.6 119.354 11.3 119.064 10.92C118.774 10.53 118.614 10.085 118.584 9.585H119.994C120.034 9.995 120.224 10.33 120.564 10.59C120.914 10.85 121.369 10.98 121.929 10.98C122.449 10.98 122.859 10.865 123.159 10.635C123.459 10.405 123.609 10.115 123.609 9.765C123.609 9.405 123.449 9.14 123.129 8.97C122.809 8.79 122.314 8.615 121.644 8.445C121.034 8.285 120.534 8.125 120.144 7.965C119.764 7.795 119.434 7.55 119.154 7.23C118.884 6.9 118.749 6.47 118.749 5.94C118.749 5.52 118.874 5.135 119.124 4.785C119.374 4.435 119.729 4.16 120.189 3.96C120.649 3.75 121.174 3.645 121.764 3.645C122.674 3.645 123.409 3.875 123.969 4.335C124.529 4.795 124.829 5.425 124.869 6.225H123.504C123.474 5.795 123.299 5.45 122.979 5.19C122.669 4.93 122.249 4.8 121.719 4.8C121.229 4.8 120.839 4.905 120.549 5.115C120.259 5.325 120.114 5.6 120.114 5.94C120.114 6.21 120.199 6.435 120.369 6.615C120.549 6.785 120.769 6.925 121.029 7.035C121.299 7.135 121.669 7.25 122.139 7.38C122.729 7.54 123.209 7.7 123.579 7.86C123.949 8.01 124.264 8.24 124.524 8.55C124.794 8.86 124.934 9.265 124.944 9.765C124.944 10.215 124.819 10.62 124.569 10.98C124.319 11.34 123.964 11.625 123.504 11.835C123.054 12.035 122.534 12.135 121.944 12.135ZM127.576 2.445C127.316 2.445 127.096 2.355 126.916 2.175C126.736 1.995 126.646 1.775 126.646 1.515C126.646 1.255 126.736 1.035 126.916 0.855C127.096 0.674999 127.316 0.584999 127.576 0.584999C127.826 0.584999 128.036 0.674999 128.206 0.855C128.386 1.035 128.476 1.255 128.476 1.515C128.476 1.775 128.386 1.995 128.206 2.175C128.036 2.355 127.826 2.445 127.576 2.445ZM128.236 3.78V12H126.871V3.78H128.236ZM134.568 3.63C135.568 3.63 136.378 3.935 136.998 4.545C137.618 5.145 137.928 6.015 137.928 7.155V12H136.578V7.35C136.578 6.53 136.373 5.905 135.963 5.475C135.553 5.035 134.993 4.815 134.283 4.815C133.563 4.815 132.988 5.04 132.558 5.49C132.138 5.94 131.928 6.595 131.928 7.455V12H130.563V3.78H131.928V4.95C132.198 4.53 132.563 4.205 133.023 3.975C133.493 3.745 134.008 3.63 134.568 3.63ZM143.547 3.645C144.257 3.645 144.877 3.8 145.407 4.11C145.947 4.42 146.347 4.81 146.607 5.28V3.78H147.987V12.18C147.987 12.93 147.827 13.595 147.507 14.175C147.187 14.765 146.727 15.225 146.127 15.555C145.537 15.885 144.847 16.05 144.057 16.05C142.977 16.05 142.077 15.795 141.357 15.285C140.637 14.775 140.212 14.08 140.082 13.2H141.432C141.582 13.7 141.892 14.1 142.362 14.4C142.832 14.71 143.397 14.865 144.057 14.865C144.807 14.865 145.417 14.63 145.887 14.16C146.367 13.69 146.607 13.03 146.607 12.18V10.455C146.337 10.935 145.937 11.335 145.407 11.655C144.877 11.975 144.257 12.135 143.547 12.135C142.817 12.135 142.152 11.955 141.552 11.595C140.962 11.235 140.497 10.73 140.157 10.08C139.817 9.43 139.647 8.69 139.647 7.86C139.647 7.02 139.817 6.285 140.157 5.655C140.497 5.015 140.962 4.52 141.552 4.17C142.152 3.82 142.817 3.645 143.547 3.645ZM146.607 7.875C146.607 7.255 146.482 6.715 146.232 6.255C145.982 5.795 145.642 5.445 145.212 5.205C144.792 4.955 144.327 4.83 143.817 4.83C143.307 4.83 142.842 4.95 142.422 5.19C142.002 5.43 141.667 5.78 141.417 6.24C141.167 6.7 141.042 7.24 141.042 7.86C141.042 8.49 141.167 9.04 141.417 9.51C141.667 9.97 142.002 10.325 142.422 10.575C142.842 10.815 143.307 10.935 143.817 10.935C144.327 10.935 144.792 10.815 145.212 10.575C145.642 10.325 145.982 9.97 146.232 9.51C146.482 9.04 146.607 8.495 146.607 7.875ZM157.203 12.135C156.573 12.135 156.008 12.03 155.508 11.82C155.008 11.6 154.613 11.3 154.323 10.92C154.033 10.53 153.873 10.085 153.843 9.585H155.253C155.293 9.995 155.483 10.33 155.823 10.59C156.173 10.85 156.628 10.98 157.188 10.98C157.708 10.98 158.118 10.865 158.418 10.635C158.718 10.405 158.868 10.115 158.868 9.765C158.868 9.405 158.708 9.14 158.388 8.97C158.068 8.79 157.573 8.615 156.903 8.445C156.293 8.285 155.793 8.125 155.403 7.965C155.023 7.795 154.693 7.55 154.413 7.23C154.143 6.9 154.008 6.47 154.008 5.94C154.008 5.52 154.133 5.135 154.383 4.785C154.633 4.435 154.988 4.16 155.448 3.96C155.908 3.75 156.433 3.645 157.023 3.645C157.933 3.645 158.668 3.875 159.228 4.335C159.788 4.795 160.088 5.425 160.128 6.225H158.763C158.733 5.795 158.558 5.45 158.238 5.19C157.928 4.93 157.508 4.8 156.978 4.8C156.488 4.8 156.098 4.905 155.808 5.115C155.518 5.325 155.373 5.6 155.373 5.94C155.373 6.21 155.458 6.435 155.628 6.615C155.808 6.785 156.028 6.925 156.288 7.035C156.558 7.135 156.928 7.25 157.398 7.38C157.988 7.54 158.468 7.7 158.838 7.86C159.208 8.01 159.523 8.24 159.783 8.55C160.053 8.86 160.193 9.265 160.203 9.765C160.203 10.215 160.078 10.62 159.828 10.98C159.578 11.34 159.223 11.625 158.763 11.835C158.313 12.035 157.793 12.135 157.203 12.135ZM169.63 7.575C169.63 7.835 169.615 8.11 169.585 8.4H163.015C163.065 9.21 163.34 9.845 163.84 10.305C164.35 10.755 164.965 10.98 165.685 10.98C166.275 10.98 166.765 10.845 167.155 10.575C167.555 10.295 167.835 9.925 167.995 9.465H169.465C169.245 10.255 168.805 10.9 168.145 11.4C167.485 11.89 166.665 12.135 165.685 12.135C164.905 12.135 164.205 11.96 163.585 11.61C162.975 11.26 162.495 10.765 162.145 10.125C161.795 9.475 161.62 8.725 161.62 7.875C161.62 7.025 161.79 6.28 162.13 5.64C162.47 5 162.945 4.51 163.555 4.17C164.175 3.82 164.885 3.645 165.685 3.645C166.465 3.645 167.155 3.815 167.755 4.155C168.355 4.495 168.815 4.965 169.135 5.565C169.465 6.155 169.63 6.825 169.63 7.575ZM168.22 7.29C168.22 6.77 168.105 6.325 167.875 5.955C167.645 5.575 167.33 5.29 166.93 5.1C166.54 4.9 166.105 4.8 165.625 4.8C164.935 4.8 164.345 5.02 163.855 5.46C163.375 5.9 163.1 6.51 163.03 7.29H168.22ZM174.492 10.74L177.042 3.78H178.497L175.272 12H173.682L170.457 3.78H171.927L174.492 10.74ZM187.34 7.575C187.34 7.835 187.325 8.11 187.295 8.4H180.725C180.775 9.21 181.05 9.845 181.55 10.305C182.06 10.755 182.675 10.98 183.395 10.98C183.985 10.98 184.475 10.845 184.865 10.575C185.265 10.295 185.545 9.925 185.705 9.465H187.175C186.955 10.255 186.515 10.9 185.855 11.4C185.195 11.89 184.375 12.135 183.395 12.135C182.615 12.135 181.915 11.96 181.295 11.61C180.685 11.26 180.205 10.765 179.855 10.125C179.505 9.475 179.33 8.725 179.33 7.875C179.33 7.025 179.5 6.28 179.84 5.64C180.18 5 180.655 4.51 181.265 4.17C181.885 3.82 182.595 3.645 183.395 3.645C184.175 3.645 184.865 3.815 185.465 4.155C186.065 4.495 186.525 4.965 186.845 5.565C187.175 6.155 187.34 6.825 187.34 7.575ZM185.93 7.29C185.93 6.77 185.815 6.325 185.585 5.955C185.355 5.575 185.04 5.29 184.64 5.1C184.25 4.9 183.815 4.8 183.335 4.8C182.645 4.8 182.055 5.02 181.565 5.46C181.085 5.9 180.81 6.51 180.74 7.29H185.93ZM190.507 5.115C190.747 4.645 191.087 4.28 191.527 4.02C191.977 3.76 192.522 3.63 193.162 3.63V5.04H192.802C191.272 5.04 190.507 5.87 190.507 7.53V12H189.142V3.78H190.507V5.115ZM194.228 7.86C194.228 7.02 194.398 6.285 194.738 5.655C195.078 5.015 195.543 4.52 196.133 4.17C196.733 3.82 197.398 3.645 198.128 3.645C198.848 3.645 199.473 3.8 200.003 4.11C200.533 4.42 200.928 4.81 201.188 5.28V3.78H202.568V12H201.188V10.47C200.918 10.95 200.513 11.35 199.973 11.67C199.443 11.98 198.823 12.135 198.113 12.135C197.383 12.135 196.723 11.955 196.133 11.595C195.543 11.235 195.078 10.73 194.738 10.08C194.398 9.43 194.228 8.69 194.228 7.86ZM201.188 7.875C201.188 7.255 201.063 6.715 200.813 6.255C200.563 5.795 200.223 5.445 199.793 5.205C199.373 4.955 198.908 4.83 198.398 4.83C197.888 4.83 197.423 4.95 197.003 5.19C196.583 5.43 196.248 5.78 195.998 6.24C195.748 6.7 195.623 7.24 195.623 7.86C195.623 8.49 195.748 9.04 195.998 9.51C196.248 9.97 196.583 10.325 197.003 10.575C197.423 10.815 197.888 10.935 198.398 10.935C198.908 10.935 199.373 10.815 199.793 10.575C200.223 10.325 200.563 9.97 200.813 9.51C201.063 9.04 201.188 8.495 201.188 7.875ZM206.239 0.9V12H204.874V0.9H206.239ZM215.91 4.905H214.185V12H212.82V4.905H211.755V3.78H212.82V3.195C212.82 2.275 213.055 1.605 213.525 1.185C214.005 0.754999 214.77 0.539999 215.82 0.539999V1.68C215.22 1.68 214.795 1.8 214.545 2.04C214.305 2.27 214.185 2.655 214.185 3.195V3.78H215.91V4.905ZM218.206 2.445C217.946 2.445 217.726 2.355 217.546 2.175C217.366 1.995 217.276 1.775 217.276 1.515C217.276 1.255 217.366 1.035 217.546 0.855C217.726 0.674999 217.946 0.584999 218.206 0.584999C218.456 0.584999 218.666 0.674999 218.836 0.855C219.016 1.035 219.106 1.255 219.106 1.515C219.106 1.775 219.016 1.995 218.836 2.175C218.666 2.355 218.456 2.445 218.206 2.445ZM218.866 3.78V12H217.501V3.78H218.866ZM225.198 3.63C226.198 3.63 227.008 3.935 227.628 4.545C228.248 5.145 228.558 6.015 228.558 7.155V12H227.208V7.35C227.208 6.53 227.003 5.905 226.593 5.475C226.183 5.035 225.623 4.815 224.913 4.815C224.193 4.815 223.618 5.04 223.188 5.49C222.768 5.94 222.558 6.595 222.558 7.455V12H221.193V3.78H222.558V4.95C222.828 4.53 223.193 4.205 223.653 3.975C224.123 3.745 224.638 3.63 225.198 3.63ZM232.452 4.905V9.75C232.452 10.15 232.537 10.435 232.707 10.605C232.877 10.765 233.172 10.845 233.592 10.845H234.597V12H233.367C232.607 12 232.037 11.825 231.657 11.475C231.277 11.125 231.087 10.55 231.087 9.75V4.905H230.022V3.78H231.087V1.71H232.452V3.78H234.597V4.905H232.452ZM243.751 7.575C243.751 7.835 243.736 8.11 243.706 8.4H237.136C237.186 9.21 237.461 9.845 237.961 10.305C238.471 10.755 239.086 10.98 239.806 10.98C240.396 10.98 240.886 10.845 241.276 10.575C241.676 10.295 241.956 9.925 242.116 9.465H243.586C243.366 10.255 242.926 10.9 242.266 11.4C241.606 11.89 240.786 12.135 239.806 12.135C239.026 12.135 238.326 11.96 237.706 11.61C237.096 11.26 236.616 10.765 236.266 10.125C235.916 9.475 235.741 8.725 235.741 7.875C235.741 7.025 235.911 6.28 236.251 5.64C236.591 5 237.066 4.51 237.676 4.17C238.296 3.82 239.006 3.645 239.806 3.645C240.586 3.645 241.276 3.815 241.876 4.155C242.476 4.495 242.936 4.965 243.256 5.565C243.586 6.155 243.751 6.825 243.751 7.575ZM242.341 7.29C242.341 6.77 242.226 6.325 241.996 5.955C241.766 5.575 241.451 5.29 241.051 5.1C240.661 4.9 240.226 4.8 239.746 4.8C239.056 4.8 238.466 5.02 237.976 5.46C237.496 5.9 237.221 6.51 237.151 7.29H242.341ZM245.043 7.875C245.043 7.025 245.213 6.285 245.553 5.655C245.893 5.015 246.363 4.52 246.963 4.17C247.573 3.82 248.268 3.645 249.048 3.645C250.058 3.645 250.888 3.89 251.538 4.38C252.198 4.87 252.633 5.55 252.843 6.42H251.373C251.233 5.92 250.958 5.525 250.548 5.235C250.148 4.945 249.648 4.8 249.048 4.8C248.268 4.8 247.638 5.07 247.158 5.61C246.678 6.14 246.438 6.895 246.438 7.875C246.438 8.865 246.678 9.63 247.158 10.17C247.638 10.71 248.268 10.98 249.048 10.98C249.648 10.98 250.148 10.84 250.548 10.56C250.948 10.28 251.223 9.88 251.373 9.36H252.843C252.623 10.2 252.183 10.875 251.523 11.385C250.863 11.885 250.038 12.135 249.048 12.135C248.268 12.135 247.573 11.96 246.963 11.61C246.363 11.26 245.893 10.765 245.553 10.125C245.213 9.485 245.043 8.735 245.043 7.875ZM258.744 3.63C259.364 3.63 259.924 3.765 260.424 4.035C260.924 4.295 261.314 4.69 261.594 5.22C261.884 5.75 262.029 6.395 262.029 7.155V12H260.679V7.35C260.679 6.53 260.474 5.905 260.064 5.475C259.654 5.035 259.094 4.815 258.384 4.815C257.664 4.815 257.089 5.04 256.659 5.49C256.239 5.94 256.029 6.595 256.029 7.455V12H254.664V0.9H256.029V4.95C256.299 4.53 256.669 4.205 257.139 3.975C257.619 3.745 258.154 3.63 258.744 3.63ZM269.623 5.295C269.893 4.825 270.293 4.435 270.823 4.125C271.363 3.805 271.988 3.645 272.698 3.645C273.428 3.645 274.088 3.82 274.678 4.17C275.278 4.52 275.748 5.015 276.088 5.655C276.428 6.285 276.598 7.02 276.598 7.86C276.598 8.69 276.428 9.43 276.088 10.08C275.748 10.73 275.278 11.235 274.678 11.595C274.088 11.955 273.428 12.135 272.698 12.135C271.998 12.135 271.378 11.98 270.838 11.67C270.308 11.35 269.903 10.955 269.623 10.485V15.9H268.258V3.78H269.623V5.295ZM275.203 7.86C275.203 7.24 275.078 6.7 274.828 6.24C274.578 5.78 274.238 5.43 273.808 5.19C273.388 4.95 272.923 4.83 272.413 4.83C271.913 4.83 271.448 4.955 271.018 5.205C270.598 5.445 270.258 5.8 269.998 6.27C269.748 6.73 269.623 7.265 269.623 7.875C269.623 8.495 269.748 9.04 269.998 9.51C270.258 9.97 270.598 10.325 271.018 10.575C271.448 10.815 271.913 10.935 272.413 10.935C272.923 10.935 273.388 10.815 273.808 10.575C274.238 10.325 274.578 9.97 274.828 9.51C275.078 9.04 275.203 8.49 275.203 7.86ZM279.76 5.115C280 4.645 280.34 4.28 280.78 4.02C281.23 3.76 281.775 3.63 282.415 3.63V5.04H282.055C280.525 5.04 279.76 5.87 279.76 7.53V12H278.395V3.78H279.76V5.115ZM287.575 12.135C286.805 12.135 286.105 11.96 285.475 11.61C284.855 11.26 284.365 10.765 284.005 10.125C283.655 9.475 283.48 8.725 283.48 7.875C283.48 7.035 283.66 6.295 284.02 5.655C284.39 5.005 284.89 4.51 285.52 4.17C286.15 3.82 286.855 3.645 287.635 3.645C288.415 3.645 289.12 3.82 289.75 4.17C290.38 4.51 290.875 5 291.235 5.64C291.605 6.28 291.79 7.025 291.79 7.875C291.79 8.725 291.6 9.475 291.22 10.125C290.85 10.765 290.345 11.26 289.705 11.61C289.065 11.96 288.355 12.135 287.575 12.135ZM287.575 10.935C288.065 10.935 288.525 10.82 288.955 10.59C289.385 10.36 289.73 10.015 289.99 9.555C290.26 9.095 290.395 8.535 290.395 7.875C290.395 7.215 290.265 6.655 290.005 6.195C289.745 5.735 289.405 5.395 288.985 5.175C288.565 4.945 288.11 4.83 287.62 4.83C287.12 4.83 286.66 4.945 286.24 5.175C285.83 5.395 285.5 5.735 285.25 6.195C285 6.655 284.875 7.215 284.875 7.875C284.875 8.545 284.995 9.11 285.235 9.57C285.485 10.03 285.815 10.375 286.225 10.605C286.635 10.825 287.085 10.935 287.575 10.935ZM294.32 2.445C294.06 2.445 293.84 2.355 293.66 2.175C293.49 1.995 293.405 1.775 293.405 1.515C293.405 1.255 293.49 1.035 293.66 0.855C293.84 0.674999 294.06 0.584999 294.32 0.584999C294.58 0.584999 294.795 0.674999 294.965 0.855C295.145 1.035 295.235 1.255 295.235 1.515C295.235 1.775 295.145 1.995 294.965 2.175C294.795 2.355 294.58 2.445 294.32 2.445ZM294.995 13.785C294.995 14.515 294.81 15.05 294.44 15.39C294.07 15.73 293.53 15.9 292.82 15.9H292.025V14.745H292.595C292.975 14.745 293.24 14.67 293.39 14.52C293.55 14.37 293.63 14.115 293.63 13.755V3.78H294.995V13.785ZM304.806 7.575C304.806 7.835 304.791 8.11 304.761 8.4H298.191C298.241 9.21 298.516 9.845 299.016 10.305C299.526 10.755 300.141 10.98 300.861 10.98C301.451 10.98 301.941 10.845 302.331 10.575C302.731 10.295 303.011 9.925 303.171 9.465H304.641C304.421 10.255 303.981 10.9 303.321 11.4C302.661 11.89 301.841 12.135 300.861 12.135C300.081 12.135 299.381 11.96 298.761 11.61C298.151 11.26 297.671 10.765 297.321 10.125C296.971 9.475 296.796 8.725 296.796 7.875C296.796 7.025 296.966 6.28 297.306 5.64C297.646 5 298.121 4.51 298.731 4.17C299.351 3.82 300.061 3.645 300.861 3.645C301.641 3.645 302.331 3.815 302.931 4.155C303.531 4.495 303.991 4.965 304.311 5.565C304.641 6.155 304.806 6.825 304.806 7.575ZM303.396 7.29C303.396 6.77 303.281 6.325 303.051 5.955C302.821 5.575 302.506 5.29 302.106 5.1C301.716 4.9 301.281 4.8 300.801 4.8C300.111 4.8 299.521 5.02 299.031 5.46C298.551 5.9 298.276 6.51 298.206 7.29H303.396ZM306.098 7.875C306.098 7.025 306.268 6.285 306.608 5.655C306.948 5.015 307.418 4.52 308.018 4.17C308.628 3.82 309.323 3.645 310.103 3.645C311.113 3.645 311.943 3.89 312.593 4.38C313.253 4.87 313.688 5.55 313.898 6.42H312.428C312.288 5.92 312.013 5.525 311.603 5.235C311.203 4.945 310.703 4.8 310.103 4.8C309.323 4.8 308.693 5.07 308.213 5.61C307.733 6.14 307.493 6.895 307.493 7.875C307.493 8.865 307.733 9.63 308.213 10.17C308.693 10.71 309.323 10.98 310.103 10.98C310.703 10.98 311.203 10.84 311.603 10.56C312.003 10.28 312.278 9.88 312.428 9.36H313.898C313.678 10.2 313.238 10.875 312.578 11.385C311.918 11.885 311.093 12.135 310.103 12.135C309.323 12.135 308.628 11.96 308.018 11.61C307.418 11.26 306.948 10.765 306.608 10.125C306.268 9.485 306.098 8.735 306.098 7.875ZM317.384 4.905V9.75C317.384 10.15 317.469 10.435 317.639 10.605C317.809 10.765 318.104 10.845 318.524 10.845H319.529V12H318.299C317.539 12 316.969 11.825 316.589 11.475C316.209 11.125 316.019 10.55 316.019 9.75V4.905H314.954V3.78H316.019V1.71H317.384V3.78H319.529V4.905H317.384ZM324.093 12.135C323.463 12.135 322.898 12.03 322.398 11.82C321.898 11.6 321.503 11.3 321.213 10.92C320.923 10.53 320.763 10.085 320.733 9.585H322.143C322.183 9.995 322.373 10.33 322.713 10.59C323.063 10.85 323.518 10.98 324.078 10.98C324.598 10.98 325.008 10.865 325.308 10.635C325.608 10.405 325.758 10.115 325.758 9.765C325.758 9.405 325.598 9.14 325.278 8.97C324.958 8.79 324.463 8.615 323.793 8.445C323.183 8.285 322.683 8.125 322.293 7.965C321.913 7.795 321.583 7.55 321.303 7.23C321.033 6.9 320.898 6.47 320.898 5.94C320.898 5.52 321.023 5.135 321.273 4.785C321.523 4.435 321.878 4.16 322.338 3.96C322.798 3.75 323.323 3.645 323.913 3.645C324.823 3.645 325.558 3.875 326.118 4.335C326.678 4.795 326.978 5.425 327.018 6.225H325.653C325.623 5.795 325.448 5.45 325.128 5.19C324.818 4.93 324.398 4.8 323.868 4.8C323.378 4.8 322.988 4.905 322.698 5.115C322.408 5.325 322.263 5.6 322.263 5.94C322.263 6.21 322.348 6.435 322.518 6.615C322.698 6.785 322.918 6.925 323.178 7.035C323.448 7.135 323.818 7.25 324.288 7.38C324.878 7.54 325.358 7.7 325.728 7.86C326.098 8.01 326.413 8.24 326.673 8.55C326.943 8.86 327.083 9.265 327.093 9.765C327.093 10.215 326.968 10.62 326.718 10.98C326.468 11.34 326.113 11.625 325.653 11.835C325.203 12.035 324.683 12.135 324.093 12.135ZM28.8662 26.78L26.3012 35H24.8912L22.9112 28.475L20.9312 35H19.5212L16.9412 26.78H18.3362L20.2262 33.68L22.2662 26.78H23.6612L25.6562 33.695L27.5162 26.78H28.8662ZM30.9259 25.445C30.6659 25.445 30.4459 25.355 30.2659 25.175C30.0859 24.995 29.9959 24.775 29.9959 24.515C29.9959 24.255 30.0859 24.035 30.2659 23.855C30.4459 23.675 30.6659 23.585 30.9259 23.585C31.1759 23.585 31.3859 23.675 31.5559 23.855C31.7359 24.035 31.8259 24.255 31.8259 24.515C31.8259 24.775 31.7359 24.995 31.5559 25.175C31.3859 25.355 31.1759 25.445 30.9259 25.445ZM31.5859 26.78V35H30.2209V26.78H31.5859ZM35.5773 27.905V32.75C35.5773 33.15 35.6623 33.435 35.8323 33.605C36.0023 33.765 36.2973 33.845 36.7173 33.845H37.7223V35H36.4923C35.7323 35 35.1623 34.825 34.7823 34.475C34.4023 34.125 34.2123 33.55 34.2123 32.75V27.905H33.1473V26.78H34.2123V24.71H35.5773V26.78H37.7223V27.905H35.5773ZM43.4562 26.63C44.0762 26.63 44.6362 26.765 45.1362 27.035C45.6362 27.295 46.0262 27.69 46.3062 28.22C46.5962 28.75 46.7412 29.395 46.7412 30.155V35H45.3912V30.35C45.3912 29.53 45.1862 28.905 44.7762 28.475C44.3662 28.035 43.8062 27.815 43.0962 27.815C42.3762 27.815 41.8012 28.04 41.3712 28.49C40.9512 28.94 40.7412 29.595 40.7412 30.455V35H39.3762V23.9H40.7412V27.95C41.0112 27.53 41.3812 27.205 41.8512 26.975C42.3312 26.745 42.8662 26.63 43.4562 26.63ZM55.8799 35.135C55.2499 35.135 54.6849 35.03 54.1849 34.82C53.6849 34.6 53.2899 34.3 52.9999 33.92C52.7099 33.53 52.5499 33.085 52.5199 32.585H53.9299C53.9699 32.995 54.1599 33.33 54.4999 33.59C54.8499 33.85 55.3049 33.98 55.8649 33.98C56.3849 33.98 56.7949 33.865 57.0949 33.635C57.3949 33.405 57.5449 33.115 57.5449 32.765C57.5449 32.405 57.3849 32.14 57.0649 31.97C56.7449 31.79 56.2499 31.615 55.5799 31.445C54.9699 31.285 54.4699 31.125 54.0799 30.965C53.6999 30.795 53.3699 30.55 53.0899 30.23C52.8199 29.9 52.6849 29.47 52.6849 28.94C52.6849 28.52 52.8099 28.135 53.0599 27.785C53.3099 27.435 53.6649 27.16 54.1249 26.96C54.5849 26.75 55.1099 26.645 55.6999 26.645C56.6099 26.645 57.3449 26.875 57.9049 27.335C58.4649 27.795 58.7649 28.425 58.8049 29.225H57.4399C57.4099 28.795 57.2349 28.45 56.9149 28.19C56.6049 27.93 56.1849 27.8 55.6549 27.8C55.1649 27.8 54.7749 27.905 54.4849 28.115C54.1949 28.325 54.0499 28.6 54.0499 28.94C54.0499 29.21 54.1349 29.435 54.3049 29.615C54.4849 29.785 54.7049 29.925 54.9649 30.035C55.2349 30.135 55.6049 30.25 56.0749 30.38C56.6649 30.54 57.1449 30.7 57.5149 30.86C57.8849 31.01 58.1999 31.24 58.4599 31.55C58.7299 31.86 58.8699 32.265 58.8799 32.765C58.8799 33.215 58.7549 33.62 58.5049 33.98C58.2549 34.34 57.8999 34.625 57.4399 34.835C56.9899 35.035 56.4699 35.135 55.8799 35.135ZM70.6919 26.63C71.3319 26.63 71.9019 26.765 72.4019 27.035C72.9019 27.295 73.2969 27.69 73.5869 28.22C73.8769 28.75 74.0219 29.395 74.0219 30.155V35H72.6719V30.35C72.6719 29.53 72.4669 28.905 72.0569 28.475C71.6569 28.035 71.1119 27.815 70.4219 27.815C69.7119 27.815 69.1469 28.045 68.7269 28.505C68.3069 28.955 68.0969 29.61 68.0969 30.47V35H66.7469V30.35C66.7469 29.53 66.5419 28.905 66.1319 28.475C65.7319 28.035 65.1869 27.815 64.4969 27.815C63.7869 27.815 63.2219 28.045 62.8019 28.505C62.3819 28.955 62.1719 29.61 62.1719 30.47V35H60.8069V26.78H62.1719V27.965C62.4419 27.535 62.8019 27.205 63.2519 26.975C63.7119 26.745 64.2169 26.63 64.7669 26.63C65.4569 26.63 66.0669 26.785 66.5969 27.095C67.1269 27.405 67.5219 27.86 67.7819 28.46C68.0119 27.88 68.3919 27.43 68.9219 27.11C69.4519 26.79 70.0419 26.63 70.6919 26.63ZM79.846 35.135C79.076 35.135 78.376 34.96 77.746 34.61C77.126 34.26 76.636 33.765 76.276 33.125C75.926 32.475 75.751 31.725 75.751 30.875C75.751 30.035 75.931 29.295 76.291 28.655C76.661 28.005 77.161 27.51 77.791 27.17C78.421 26.82 79.126 26.645 79.906 26.645C80.686 26.645 81.391 26.82 82.021 27.17C82.651 27.51 83.146 28 83.506 28.64C83.876 29.28 84.061 30.025 84.061 30.875C84.061 31.725 83.871 32.475 83.491 33.125C83.121 33.765 82.616 34.26 81.976 34.61C81.336 34.96 80.626 35.135 79.846 35.135ZM79.846 33.935C80.336 33.935 80.796 33.82 81.226 33.59C81.656 33.36 82.001 33.015 82.261 32.555C82.531 32.095 82.666 31.535 82.666 30.875C82.666 30.215 82.536 29.655 82.276 29.195C82.016 28.735 81.676 28.395 81.256 28.175C80.836 27.945 80.381 27.83 79.891 27.83C79.391 27.83 78.931 27.945 78.511 28.175C78.101 28.395 77.771 28.735 77.521 29.195C77.271 29.655 77.146 30.215 77.146 30.875C77.146 31.545 77.266 32.11 77.506 32.57C77.756 33.03 78.086 33.375 78.496 33.605C78.906 33.825 79.356 33.935 79.846 33.935ZM89.4407 35.135C88.6707 35.135 87.9707 34.96 87.3407 34.61C86.7207 34.26 86.2307 33.765 85.8707 33.125C85.5207 32.475 85.3457 31.725 85.3457 30.875C85.3457 30.035 85.5257 29.295 85.8857 28.655C86.2557 28.005 86.7557 27.51 87.3857 27.17C88.0157 26.82 88.7207 26.645 89.5007 26.645C90.2807 26.645 90.9857 26.82 91.6157 27.17C92.2457 27.51 92.7407 28 93.1007 28.64C93.4707 29.28 93.6557 30.025 93.6557 30.875C93.6557 31.725 93.4657 32.475 93.0857 33.125C92.7157 33.765 92.2107 34.26 91.5707 34.61C90.9307 34.96 90.2207 35.135 89.4407 35.135ZM89.4407 33.935C89.9307 33.935 90.3907 33.82 90.8207 33.59C91.2507 33.36 91.5957 33.015 91.8557 32.555C92.1257 32.095 92.2607 31.535 92.2607 30.875C92.2607 30.215 92.1307 29.655 91.8707 29.195C91.6107 28.735 91.2707 28.395 90.8507 28.175C90.4307 27.945 89.9757 27.83 89.4857 27.83C88.9857 27.83 88.5257 27.945 88.1057 28.175C87.6957 28.395 87.3657 28.735 87.1157 29.195C86.8657 29.655 86.7407 30.215 86.7407 30.875C86.7407 31.545 86.8607 32.11 87.1007 32.57C87.3507 33.03 87.6807 33.375 88.0907 33.605C88.5007 33.825 88.9507 33.935 89.4407 33.935ZM97.1154 27.905V32.75C97.1154 33.15 97.2004 33.435 97.3704 33.605C97.5404 33.765 97.8354 33.845 98.2554 33.845H99.2604V35H98.0304C97.2704 35 96.7004 34.825 96.3204 34.475C95.9404 34.125 95.7504 33.55 95.7504 32.75V27.905H94.6854V26.78H95.7504V24.71H97.1154V26.78H99.2604V27.905H97.1154ZM104.994 26.63C105.614 26.63 106.174 26.765 106.674 27.035C107.174 27.295 107.564 27.69 107.844 28.22C108.134 28.75 108.279 29.395 108.279 30.155V35H106.929V30.35C106.929 29.53 106.724 28.905 106.314 28.475C105.904 28.035 105.344 27.815 104.634 27.815C103.914 27.815 103.339 28.04 102.909 28.49C102.489 28.94 102.279 29.595 102.279 30.455V35H100.914V23.9H102.279V27.95C102.549 27.53 102.919 27.205 103.389 26.975C103.869 26.745 104.404 26.63 104.994 26.63ZM116.173 27.905V32.75C116.173 33.15 116.258 33.435 116.428 33.605C116.598 33.765 116.893 33.845 117.313 33.845H118.318V35H117.088C116.328 35 115.758 34.825 115.378 34.475C114.998 34.125 114.808 33.55 114.808 32.75V27.905H113.743V26.78H114.808V24.71H116.173V26.78H118.318V27.905H116.173ZM121.337 28.115C121.577 27.645 121.917 27.28 122.357 27.02C122.807 26.76 123.352 26.63 123.992 26.63V28.04H123.632C122.102 28.04 121.337 28.87 121.337 30.53V35H119.972V26.78H121.337V28.115ZM125.058 30.86C125.058 30.02 125.228 29.285 125.568 28.655C125.908 28.015 126.373 27.52 126.963 27.17C127.563 26.82 128.228 26.645 128.958 26.645C129.678 26.645 130.303 26.8 130.833 27.11C131.363 27.42 131.758 27.81 132.018 28.28V26.78H133.398V35H132.018V33.47C131.748 33.95 131.343 34.35 130.803 34.67C130.273 34.98 129.653 35.135 128.943 35.135C128.213 35.135 127.553 34.955 126.963 34.595C126.373 34.235 125.908 33.73 125.568 33.08C125.228 32.43 125.058 31.69 125.058 30.86ZM132.018 30.875C132.018 30.255 131.893 29.715 131.643 29.255C131.393 28.795 131.053 28.445 130.623 28.205C130.203 27.955 129.738 27.83 129.228 27.83C128.718 27.83 128.253 27.95 127.833 28.19C127.413 28.43 127.078 28.78 126.828 29.24C126.578 29.7 126.453 30.24 126.453 30.86C126.453 31.49 126.578 32.04 126.828 32.51C127.078 32.97 127.413 33.325 127.833 33.575C128.253 33.815 128.718 33.935 129.228 33.935C129.738 33.935 130.203 33.815 130.623 33.575C131.053 33.325 131.393 32.97 131.643 32.51C131.893 32.04 132.018 31.495 132.018 30.875ZM139.709 26.63C140.709 26.63 141.519 26.935 142.139 27.545C142.759 28.145 143.069 29.015 143.069 30.155V35H141.719V30.35C141.719 29.53 141.514 28.905 141.104 28.475C140.694 28.035 140.134 27.815 139.424 27.815C138.704 27.815 138.129 28.04 137.699 28.49C137.279 28.94 137.069 29.595 137.069 30.455V35H135.704V26.78H137.069V27.95C137.339 27.53 137.704 27.205 138.164 26.975C138.634 26.745 139.149 26.63 139.709 26.63ZM148.209 35.135C147.579 35.135 147.014 35.03 146.514 34.82C146.014 34.6 145.619 34.3 145.329 33.92C145.039 33.53 144.879 33.085 144.849 32.585H146.259C146.299 32.995 146.489 33.33 146.829 33.59C147.179 33.85 147.634 33.98 148.194 33.98C148.714 33.98 149.124 33.865 149.424 33.635C149.724 33.405 149.874 33.115 149.874 32.765C149.874 32.405 149.714 32.14 149.394 31.97C149.074 31.79 148.579 31.615 147.909 31.445C147.299 31.285 146.799 31.125 146.409 30.965C146.029 30.795 145.699 30.55 145.419 30.23C145.149 29.9 145.014 29.47 145.014 28.94C145.014 28.52 145.139 28.135 145.389 27.785C145.639 27.435 145.994 27.16 146.454 26.96C146.914 26.75 147.439 26.645 148.029 26.645C148.939 26.645 149.674 26.875 150.234 27.335C150.794 27.795 151.094 28.425 151.134 29.225H149.769C149.739 28.795 149.564 28.45 149.244 28.19C148.934 27.93 148.514 27.8 147.984 27.8C147.494 27.8 147.104 27.905 146.814 28.115C146.524 28.325 146.379 28.6 146.379 28.94C146.379 29.21 146.464 29.435 146.634 29.615C146.814 29.785 147.034 29.925 147.294 30.035C147.564 30.135 147.934 30.25 148.404 30.38C148.994 30.54 149.474 30.7 149.844 30.86C150.214 31.01 150.529 31.24 150.789 31.55C151.059 31.86 151.199 32.265 151.209 32.765C151.209 33.215 151.084 33.62 150.834 33.98C150.584 34.34 150.229 34.625 149.769 34.835C149.319 35.035 148.799 35.135 148.209 35.135ZM154.501 28.295C154.771 27.825 155.171 27.435 155.701 27.125C156.241 26.805 156.866 26.645 157.576 26.645C158.306 26.645 158.966 26.82 159.556 27.17C160.156 27.52 160.626 28.015 160.966 28.655C161.306 29.285 161.476 30.02 161.476 30.86C161.476 31.69 161.306 32.43 160.966 33.08C160.626 33.73 160.156 34.235 159.556 34.595C158.966 34.955 158.306 35.135 157.576 35.135C156.876 35.135 156.256 34.98 155.716 34.67C155.186 34.35 154.781 33.955 154.501 33.485V38.9H153.136V26.78H154.501V28.295ZM160.081 30.86C160.081 30.24 159.956 29.7 159.706 29.24C159.456 28.78 159.116 28.43 158.686 28.19C158.266 27.95 157.801 27.83 157.291 27.83C156.791 27.83 156.326 27.955 155.896 28.205C155.476 28.445 155.136 28.8 154.876 29.27C154.626 29.73 154.501 30.265 154.501 30.875C154.501 31.495 154.626 32.04 154.876 32.51C155.136 32.97 155.476 33.325 155.896 33.575C156.326 33.815 156.791 33.935 157.291 33.935C157.801 33.935 158.266 33.815 158.686 33.575C159.116 33.325 159.456 32.97 159.706 32.51C159.956 32.04 160.081 31.49 160.081 30.86ZM162.763 30.86C162.763 30.02 162.933 29.285 163.273 28.655C163.613 28.015 164.078 27.52 164.668 27.17C165.268 26.82 165.933 26.645 166.663 26.645C167.383 26.645 168.008 26.8 168.538 27.11C169.068 27.42 169.463 27.81 169.723 28.28V26.78H171.103V35H169.723V33.47C169.453 33.95 169.048 34.35 168.508 34.67C167.978 34.98 167.358 35.135 166.648 35.135C165.918 35.135 165.258 34.955 164.668 34.595C164.078 34.235 163.613 33.73 163.273 33.08C162.933 32.43 162.763 31.69 162.763 30.86ZM169.723 30.875C169.723 30.255 169.598 29.715 169.348 29.255C169.098 28.795 168.758 28.445 168.328 28.205C167.908 27.955 167.443 27.83 166.933 27.83C166.423 27.83 165.958 27.95 165.538 28.19C165.118 28.43 164.783 28.78 164.533 29.24C164.283 29.7 164.158 30.24 164.158 30.86C164.158 31.49 164.283 32.04 164.533 32.51C164.783 32.97 165.118 33.325 165.538 33.575C165.958 33.815 166.423 33.935 166.933 33.935C167.443 33.935 167.908 33.815 168.328 33.575C168.758 33.325 169.098 32.97 169.348 32.51C169.598 32.04 169.723 31.495 169.723 30.875ZM174.774 28.115C175.014 27.645 175.354 27.28 175.794 27.02C176.244 26.76 176.789 26.63 177.429 26.63V28.04H177.069C175.539 28.04 174.774 28.87 174.774 30.53V35H173.409V26.78H174.774V28.115ZM186.505 30.575C186.505 30.835 186.49 31.11 186.46 31.4H179.89C179.94 32.21 180.215 32.845 180.715 33.305C181.225 33.755 181.84 33.98 182.56 33.98C183.15 33.98 183.64 33.845 184.03 33.575C184.43 33.295 184.71 32.925 184.87 32.465H186.34C186.12 33.255 185.68 33.9 185.02 34.4C184.36 34.89 183.54 35.135 182.56 35.135C181.78 35.135 181.08 34.96 180.46 34.61C179.85 34.26 179.37 33.765 179.02 33.125C178.67 32.475 178.495 31.725 178.495 30.875C178.495 30.025 178.665 29.28 179.005 28.64C179.345 28 179.82 27.51 180.43 27.17C181.05 26.82 181.76 26.645 182.56 26.645C183.34 26.645 184.03 26.815 184.63 27.155C185.23 27.495 185.69 27.965 186.01 28.565C186.34 29.155 186.505 29.825 186.505 30.575ZM185.095 30.29C185.095 29.77 184.98 29.325 184.75 28.955C184.52 28.575 184.205 28.29 183.805 28.1C183.415 27.9 182.98 27.8 182.5 27.8C181.81 27.8 181.22 28.02 180.73 28.46C180.25 28.9 179.975 29.51 179.905 30.29H185.095ZM192.312 26.63C193.312 26.63 194.122 26.935 194.742 27.545C195.362 28.145 195.672 29.015 195.672 30.155V35H194.322V30.35C194.322 29.53 194.117 28.905 193.707 28.475C193.297 28.035 192.737 27.815 192.027 27.815C191.307 27.815 190.732 28.04 190.302 28.49C189.882 28.94 189.672 29.595 189.672 30.455V35H188.307V26.78H189.672V27.95C189.942 27.53 190.307 27.205 190.767 26.975C191.237 26.745 191.752 26.63 192.312 26.63ZM197.392 30.875C197.392 30.025 197.562 29.285 197.902 28.655C198.242 28.015 198.712 27.52 199.312 27.17C199.922 26.82 200.617 26.645 201.397 26.645C202.407 26.645 203.237 26.89 203.887 27.38C204.547 27.87 204.982 28.55 205.192 29.42H203.722C203.582 28.92 203.307 28.525 202.897 28.235C202.497 27.945 201.997 27.8 201.397 27.8C200.617 27.8 199.987 28.07 199.507 28.61C199.027 29.14 198.787 29.895 198.787 30.875C198.787 31.865 199.027 32.63 199.507 33.17C199.987 33.71 200.617 33.98 201.397 33.98C201.997 33.98 202.497 33.84 202.897 33.56C203.297 33.28 203.572 32.88 203.722 32.36H205.192C204.972 33.2 204.532 33.875 203.872 34.385C203.212 34.885 202.387 35.135 201.397 35.135C200.617 35.135 199.922 34.96 199.312 34.61C198.712 34.26 198.242 33.765 197.902 33.125C197.562 32.485 197.392 31.735 197.392 30.875ZM214.093 26.78L209.143 38.87H207.733L209.353 34.91L206.038 26.78H207.553L210.133 33.44L212.683 26.78H214.093ZM218.954 30.86C218.954 30.02 219.124 29.285 219.464 28.655C219.804 28.015 220.269 27.52 220.859 27.17C221.459 26.82 222.124 26.645 222.854 26.645C223.574 26.645 224.199 26.8 224.729 27.11C225.259 27.42 225.654 27.81 225.914 28.28V26.78H227.294V35H225.914V33.47C225.644 33.95 225.239 34.35 224.699 34.67C224.169 34.98 223.549 35.135 222.839 35.135C222.109 35.135 221.449 34.955 220.859 34.595C220.269 34.235 219.804 33.73 219.464 33.08C219.124 32.43 218.954 31.69 218.954 30.86ZM225.914 30.875C225.914 30.255 225.789 29.715 225.539 29.255C225.289 28.795 224.949 28.445 224.519 28.205C224.099 27.955 223.634 27.83 223.124 27.83C222.614 27.83 222.149 27.95 221.729 28.19C221.309 28.43 220.974 28.78 220.724 29.24C220.474 29.7 220.349 30.24 220.349 30.86C220.349 31.49 220.474 32.04 220.724 32.51C220.974 32.97 221.309 33.325 221.729 33.575C222.149 33.815 222.614 33.935 223.124 33.935C223.634 33.935 224.099 33.815 224.519 33.575C224.949 33.325 225.289 32.97 225.539 32.51C225.789 32.04 225.914 31.495 225.914 30.875ZM233.606 26.63C234.606 26.63 235.416 26.935 236.036 27.545C236.656 28.145 236.966 29.015 236.966 30.155V35H235.616V30.35C235.616 29.53 235.411 28.905 235.001 28.475C234.591 28.035 234.031 27.815 233.321 27.815C232.601 27.815 232.026 28.04 231.596 28.49C231.176 28.94 230.966 29.595 230.966 30.455V35H229.601V26.78H230.966V27.95C231.236 27.53 231.601 27.205 232.061 26.975C232.531 26.745 233.046 26.63 233.606 26.63ZM238.686 30.86C238.686 30.02 238.856 29.285 239.196 28.655C239.536 28.015 240.001 27.52 240.591 27.17C241.191 26.82 241.861 26.645 242.601 26.645C243.241 26.645 243.836 26.795 244.386 27.095C244.936 27.385 245.356 27.77 245.646 28.25V23.9H247.026V35H245.646V33.455C245.376 33.945 244.976 34.35 244.446 34.67C243.916 34.98 243.296 35.135 242.586 35.135C241.856 35.135 241.191 34.955 240.591 34.595C240.001 34.235 239.536 33.73 239.196 33.08C238.856 32.43 238.686 31.69 238.686 30.86ZM245.646 30.875C245.646 30.255 245.521 29.715 245.271 29.255C245.021 28.795 244.681 28.445 244.251 28.205C243.831 27.955 243.366 27.83 242.856 27.83C242.346 27.83 241.881 27.95 241.461 28.19C241.041 28.43 240.706 28.78 240.456 29.24C240.206 29.7 240.081 30.24 240.081 30.86C240.081 31.49 240.206 32.04 240.456 32.51C240.706 32.97 241.041 33.325 241.461 33.575C241.881 33.815 242.346 33.935 242.856 33.935C243.366 33.935 243.831 33.815 244.251 33.575C244.681 33.325 245.021 32.97 245.271 32.51C245.521 32.04 245.646 31.495 245.646 30.875ZM256.391 33.74L258.941 26.78H260.396L257.171 35H255.581L252.356 26.78H253.826L256.391 33.74ZM269.239 30.575C269.239 30.835 269.224 31.11 269.194 31.4H262.624C262.674 32.21 262.949 32.845 263.449 33.305C263.959 33.755 264.574 33.98 265.294 33.98C265.884 33.98 266.374 33.845 266.764 33.575C267.164 33.295 267.444 32.925 267.604 32.465H269.074C268.854 33.255 268.414 33.9 267.754 34.4C267.094 34.89 266.274 35.135 265.294 35.135C264.514 35.135 263.814 34.96 263.194 34.61C262.584 34.26 262.104 33.765 261.754 33.125C261.404 32.475 261.229 31.725 261.229 30.875C261.229 30.025 261.399 29.28 261.739 28.64C262.079 28 262.554 27.51 263.164 27.17C263.784 26.82 264.494 26.645 265.294 26.645C266.074 26.645 266.764 26.815 267.364 27.155C267.964 27.495 268.424 27.965 268.744 28.565C269.074 29.155 269.239 29.825 269.239 30.575ZM267.829 30.29C267.829 29.77 267.714 29.325 267.484 28.955C267.254 28.575 266.939 28.29 266.539 28.1C266.149 27.9 265.714 27.8 265.234 27.8C264.544 27.8 263.954 28.02 263.464 28.46C262.984 28.9 262.709 29.51 262.639 30.29H267.829ZM272.406 28.115C272.646 27.645 272.986 27.28 273.426 27.02C273.876 26.76 274.421 26.63 275.061 26.63V28.04H274.701C273.171 28.04 272.406 28.87 272.406 30.53V35H271.041V26.78H272.406V28.115ZM277.342 25.445C277.082 25.445 276.862 25.355 276.682 25.175C276.502 24.995 276.412 24.775 276.412 24.515C276.412 24.255 276.502 24.035 276.682 23.855C276.862 23.675 277.082 23.585 277.342 23.585C277.592 23.585 277.802 23.675 277.972 23.855C278.152 24.035 278.242 24.255 278.242 24.515C278.242 24.775 278.152 24.995 277.972 25.175C277.802 25.355 277.592 25.445 277.342 25.445ZM278.002 26.78V35H276.637V26.78H278.002ZM283.673 27.905H281.948V35H280.583V27.905H279.518V26.78H280.583V26.195C280.583 25.275 280.818 24.605 281.288 24.185C281.768 23.755 282.533 23.54 283.583 23.54V24.68C282.983 24.68 282.558 24.8 282.308 25.04C282.068 25.27 281.948 25.655 281.948 26.195V26.78H283.673V27.905ZM285.97 25.445C285.71 25.445 285.49 25.355 285.31 25.175C285.13 24.995 285.04 24.775 285.04 24.515C285.04 24.255 285.13 24.035 285.31 23.855C285.49 23.675 285.71 23.585 285.97 23.585C286.22 23.585 286.43 23.675 286.6 23.855C286.78 24.035 286.87 24.255 286.87 24.515C286.87 24.775 286.78 24.995 286.6 25.175C286.43 25.355 286.22 25.445 285.97 25.445ZM286.63 26.78V35H285.265V26.78H286.63ZM296.456 30.575C296.456 30.835 296.441 31.11 296.411 31.4H289.841C289.891 32.21 290.166 32.845 290.666 33.305C291.176 33.755 291.791 33.98 292.511 33.98C293.101 33.98 293.591 33.845 293.981 33.575C294.381 33.295 294.661 32.925 294.821 32.465H296.291C296.071 33.255 295.631 33.9 294.971 34.4C294.311 34.89 293.491 35.135 292.511 35.135C291.731 35.135 291.031 34.96 290.411 34.61C289.801 34.26 289.321 33.765 288.971 33.125C288.621 32.475 288.446 31.725 288.446 30.875C288.446 30.025 288.616 29.28 288.956 28.64C289.296 28 289.771 27.51 290.381 27.17C291.001 26.82 291.711 26.645 292.511 26.645C293.291 26.645 293.981 26.815 294.581 27.155C295.181 27.495 295.641 27.965 295.961 28.565C296.291 29.155 296.456 29.825 296.456 30.575ZM295.046 30.29C295.046 29.77 294.931 29.325 294.701 28.955C294.471 28.575 294.156 28.29 293.756 28.1C293.366 27.9 292.931 27.8 292.451 27.8C291.761 27.8 291.171 28.02 290.681 28.46C290.201 28.9 289.926 29.51 289.856 30.29H295.046ZM297.748 30.86C297.748 30.02 297.918 29.285 298.258 28.655C298.598 28.015 299.063 27.52 299.653 27.17C300.253 26.82 300.923 26.645 301.663 26.645C302.303 26.645 302.898 26.795 303.448 27.095C303.998 27.385 304.418 27.77 304.708 28.25V23.9H306.088V35H304.708V33.455C304.438 33.945 304.038 34.35 303.508 34.67C302.978 34.98 302.358 35.135 301.648 35.135C300.918 35.135 300.253 34.955 299.653 34.595C299.063 34.235 298.598 33.73 298.258 33.08C297.918 32.43 297.748 31.69 297.748 30.86ZM304.708 30.875C304.708 30.255 304.583 29.715 304.333 29.255C304.083 28.795 303.743 28.445 303.313 28.205C302.893 27.955 302.428 27.83 301.918 27.83C301.408 27.83 300.943 27.95 300.523 28.19C300.103 28.43 299.768 28.78 299.518 29.24C299.268 29.7 299.143 30.24 299.143 30.86C299.143 31.49 299.268 32.04 299.518 32.51C299.768 32.97 300.103 33.325 300.523 33.575C300.943 33.815 301.408 33.935 301.918 33.935C302.428 33.935 302.893 33.815 303.313 33.575C303.743 33.325 304.083 32.97 304.333 32.51C304.583 32.04 304.708 31.495 304.708 30.875ZM70.0671 50.905V55.75C70.0671 56.15 70.1521 56.435 70.3221 56.605C70.4921 56.765 70.7871 56.845 71.2071 56.845H72.2121V58H70.9821C70.2221 58 69.6521 57.825 69.2721 57.475C68.8921 57.125 68.7021 56.55 68.7021 55.75V50.905H67.6371V49.78H68.7021V47.71H70.0671V49.78H72.2121V50.905H70.0671ZM75.2309 51.115C75.4709 50.645 75.8109 50.28 76.2509 50.02C76.7009 49.76 77.2459 49.63 77.8859 49.63V51.04H77.5259C75.9959 51.04 75.2309 51.87 75.2309 53.53V58H73.8659V49.78H75.2309V51.115ZM78.9516 53.86C78.9516 53.02 79.1216 52.285 79.4616 51.655C79.8016 51.015 80.2666 50.52 80.8566 50.17C81.4566 49.82 82.1216 49.645 82.8516 49.645C83.5716 49.645 84.1966 49.8 84.7266 50.11C85.2566 50.42 85.6516 50.81 85.9116 51.28V49.78H87.2916V58H85.9116V56.47C85.6416 56.95 85.2366 57.35 84.6966 57.67C84.1666 57.98 83.5466 58.135 82.8366 58.135C82.1066 58.135 81.4466 57.955 80.8566 57.595C80.2666 57.235 79.8016 56.73 79.4616 56.08C79.1216 55.43 78.9516 54.69 78.9516 53.86ZM85.9116 53.875C85.9116 53.255 85.7866 52.715 85.5366 52.255C85.2866 51.795 84.9466 51.445 84.5166 51.205C84.0966 50.955 83.6316 50.83 83.1216 50.83C82.6116 50.83 82.1466 50.95 81.7266 51.19C81.3066 51.43 80.9716 51.78 80.7216 52.24C80.4716 52.7 80.3466 53.24 80.3466 53.86C80.3466 54.49 80.4716 55.04 80.7216 55.51C80.9716 55.97 81.3066 56.325 81.7266 56.575C82.1466 56.815 82.6116 56.935 83.1216 56.935C83.6316 56.935 84.0966 56.815 84.5166 56.575C84.9466 56.325 85.2866 55.97 85.5366 55.51C85.7866 55.04 85.9116 54.495 85.9116 53.875ZM89.0884 53.875C89.0884 53.025 89.2584 52.285 89.5984 51.655C89.9384 51.015 90.4084 50.52 91.0084 50.17C91.6184 49.82 92.3134 49.645 93.0934 49.645C94.1034 49.645 94.9334 49.89 95.5834 50.38C96.2434 50.87 96.6784 51.55 96.8884 52.42H95.4184C95.2784 51.92 95.0034 51.525 94.5934 51.235C94.1934 50.945 93.6934 50.8 93.0934 50.8C92.3134 50.8 91.6834 51.07 91.2034 51.61C90.7234 52.14 90.4834 52.895 90.4834 53.875C90.4834 54.865 90.7234 55.63 91.2034 56.17C91.6834 56.71 92.3134 56.98 93.0934 56.98C93.6934 56.98 94.1934 56.84 94.5934 56.56C94.9934 56.28 95.2684 55.88 95.4184 55.36H96.8884C96.6684 56.2 96.2284 56.875 95.5684 57.385C94.9084 57.885 94.0834 58.135 93.0934 58.135C92.3134 58.135 91.6184 57.96 91.0084 57.61C90.4084 57.26 89.9384 56.765 89.5984 56.125C89.2584 55.485 89.0884 54.735 89.0884 53.875ZM103.3 58L100.075 54.37V58H98.7097V46.9H100.075V53.425L103.24 49.78H105.145L101.275 53.875L105.16 58H103.3ZM113.929 53.575C113.929 53.835 113.914 54.11 113.884 54.4H107.314C107.364 55.21 107.639 55.845 108.139 56.305C108.649 56.755 109.264 56.98 109.984 56.98C110.574 56.98 111.064 56.845 111.454 56.575C111.854 56.295 112.134 55.925 112.294 55.465H113.764C113.544 56.255 113.104 56.9 112.444 57.4C111.784 57.89 110.964 58.135 109.984 58.135C109.204 58.135 108.504 57.96 107.884 57.61C107.274 57.26 106.794 56.765 106.444 56.125C106.094 55.475 105.919 54.725 105.919 53.875C105.919 53.025 106.089 52.28 106.429 51.64C106.769 51 107.244 50.51 107.854 50.17C108.474 49.82 109.184 49.645 109.984 49.645C110.764 49.645 111.454 49.815 112.054 50.155C112.654 50.495 113.114 50.965 113.434 51.565C113.764 52.155 113.929 52.825 113.929 53.575ZM112.519 53.29C112.519 52.77 112.404 52.325 112.174 51.955C111.944 51.575 111.629 51.29 111.229 51.1C110.839 50.9 110.404 50.8 109.924 50.8C109.234 50.8 108.644 51.02 108.154 51.46C107.674 51.9 107.399 52.51 107.329 53.29H112.519ZM115.221 53.86C115.221 53.02 115.391 52.285 115.731 51.655C116.071 51.015 116.536 50.52 117.126 50.17C117.726 49.82 118.396 49.645 119.136 49.645C119.776 49.645 120.371 49.795 120.921 50.095C121.471 50.385 121.891 50.77 122.181 51.25V46.9H123.561V58H122.181V56.455C121.911 56.945 121.511 57.35 120.981 57.67C120.451 57.98 119.831 58.135 119.121 58.135C118.391 58.135 117.726 57.955 117.126 57.595C116.536 57.235 116.071 56.73 115.731 56.08C115.391 55.43 115.221 54.69 115.221 53.86ZM122.181 53.875C122.181 53.255 122.056 52.715 121.806 52.255C121.556 51.795 121.216 51.445 120.786 51.205C120.366 50.955 119.901 50.83 119.391 50.83C118.881 50.83 118.416 50.95 117.996 51.19C117.576 51.43 117.241 51.78 116.991 52.24C116.741 52.7 116.616 53.24 116.616 53.86C116.616 54.49 116.741 55.04 116.991 55.51C117.241 55.97 117.576 56.325 117.996 56.575C118.416 56.815 118.881 56.935 119.391 56.935C119.901 56.935 120.366 56.815 120.786 56.575C121.216 56.325 121.556 55.97 121.806 55.51C122.056 55.04 122.181 54.495 122.181 53.875ZM131.232 51.115C131.472 50.645 131.812 50.28 132.252 50.02C132.702 49.76 133.247 49.63 133.887 49.63V51.04H133.527C131.997 51.04 131.232 51.87 131.232 53.53V58H129.867V49.78H131.232V51.115ZM142.963 53.575C142.963 53.835 142.948 54.11 142.918 54.4H136.348C136.398 55.21 136.673 55.845 137.173 56.305C137.683 56.755 138.298 56.98 139.018 56.98C139.608 56.98 140.098 56.845 140.488 56.575C140.888 56.295 141.168 55.925 141.328 55.465H142.798C142.578 56.255 142.138 56.9 141.478 57.4C140.818 57.89 139.998 58.135 139.018 58.135C138.238 58.135 137.538 57.96 136.918 57.61C136.308 57.26 135.828 56.765 135.478 56.125C135.128 55.475 134.953 54.725 134.953 53.875C134.953 53.025 135.123 52.28 135.463 51.64C135.803 51 136.278 50.51 136.888 50.17C137.508 49.82 138.218 49.645 139.018 49.645C139.798 49.645 140.488 49.815 141.088 50.155C141.688 50.495 142.148 50.965 142.468 51.565C142.798 52.155 142.963 52.825 142.963 53.575ZM141.553 53.29C141.553 52.77 141.438 52.325 141.208 51.955C140.978 51.575 140.663 51.29 140.263 51.1C139.873 50.9 139.438 50.8 138.958 50.8C138.268 50.8 137.678 51.02 137.188 51.46C136.708 51.9 136.433 52.51 136.363 53.29H141.553ZM144.254 53.86C144.254 53.02 144.424 52.285 144.764 51.655C145.104 51.015 145.569 50.52 146.159 50.17C146.759 49.82 147.424 49.645 148.154 49.645C148.874 49.645 149.499 49.8 150.029 50.11C150.559 50.42 150.954 50.81 151.214 51.28V49.78H152.594V58H151.214V56.47C150.944 56.95 150.539 57.35 149.999 57.67C149.469 57.98 148.849 58.135 148.139 58.135C147.409 58.135 146.749 57.955 146.159 57.595C145.569 57.235 145.104 56.73 144.764 56.08C144.424 55.43 144.254 54.69 144.254 53.86ZM151.214 53.875C151.214 53.255 151.089 52.715 150.839 52.255C150.589 51.795 150.249 51.445 149.819 51.205C149.399 50.955 148.934 50.83 148.424 50.83C147.914 50.83 147.449 50.95 147.029 51.19C146.609 51.43 146.274 51.78 146.024 52.24C145.774 52.7 145.649 53.24 145.649 53.86C145.649 54.49 145.774 55.04 146.024 55.51C146.274 55.97 146.609 56.325 147.029 56.575C147.449 56.815 147.914 56.935 148.424 56.935C148.934 56.935 149.399 56.815 149.819 56.575C150.249 56.325 150.589 55.97 150.839 55.51C151.089 55.04 151.214 54.495 151.214 53.875ZM156.266 46.9V58H154.901V46.9H156.266ZM164.293 51.925V53.08H158.308V51.925H164.293ZM168.519 50.905V55.75C168.519 56.15 168.604 56.435 168.774 56.605C168.944 56.765 169.239 56.845 169.659 56.845H170.664V58H169.434C168.674 58 168.104 57.825 167.724 57.475C167.344 57.125 167.154 56.55 167.154 55.75V50.905H166.089V49.78H167.154V47.71H168.519V49.78H170.664V50.905H168.519ZM173.023 48.445C172.763 48.445 172.543 48.355 172.363 48.175C172.183 47.995 172.093 47.775 172.093 47.515C172.093 47.255 172.183 47.035 172.363 46.855C172.543 46.675 172.763 46.585 173.023 46.585C173.273 46.585 173.483 46.675 173.653 46.855C173.833 47.035 173.923 47.255 173.923 47.515C173.923 47.775 173.833 47.995 173.653 48.175C173.483 48.355 173.273 48.445 173.023 48.445ZM173.683 49.78V58H172.318V49.78H173.683ZM185.894 49.63C186.534 49.63 187.104 49.765 187.604 50.035C188.104 50.295 188.499 50.69 188.789 51.22C189.079 51.75 189.224 52.395 189.224 53.155V58H187.874V53.35C187.874 52.53 187.669 51.905 187.259 51.475C186.859 51.035 186.314 50.815 185.624 50.815C184.914 50.815 184.349 51.045 183.929 51.505C183.509 51.955 183.299 52.61 183.299 53.47V58H181.949V53.35C181.949 52.53 181.744 51.905 181.334 51.475C180.934 51.035 180.389 50.815 179.699 50.815C178.989 50.815 178.424 51.045 178.004 51.505C177.584 51.955 177.374 52.61 177.374 53.47V58H176.009V49.78H177.374V50.965C177.644 50.535 178.004 50.205 178.454 49.975C178.914 49.745 179.419 49.63 179.969 49.63C180.659 49.63 181.269 49.785 181.799 50.095C182.329 50.405 182.724 50.86 182.984 51.46C183.214 50.88 183.594 50.43 184.124 50.11C184.654 49.79 185.244 49.63 185.894 49.63ZM198.964 53.575C198.964 53.835 198.949 54.11 198.919 54.4H192.349C192.399 55.21 192.674 55.845 193.174 56.305C193.684 56.755 194.299 56.98 195.019 56.98C195.609 56.98 196.099 56.845 196.489 56.575C196.889 56.295 197.169 55.925 197.329 55.465H198.799C198.579 56.255 198.139 56.9 197.479 57.4C196.819 57.89 195.999 58.135 195.019 58.135C194.239 58.135 193.539 57.96 192.919 57.61C192.309 57.26 191.829 56.765 191.479 56.125C191.129 55.475 190.954 54.725 190.954 53.875C190.954 53.025 191.124 52.28 191.464 51.64C191.804 51 192.279 50.51 192.889 50.17C193.509 49.82 194.219 49.645 195.019 49.645C195.799 49.645 196.489 49.815 197.089 50.155C197.689 50.495 198.149 50.965 198.469 51.565C198.799 52.155 198.964 52.825 198.964 53.575ZM197.554 53.29C197.554 52.77 197.439 52.325 197.209 51.955C196.979 51.575 196.664 51.29 196.264 51.1C195.874 50.9 195.439 50.8 194.959 50.8C194.269 50.8 193.679 51.02 193.189 51.46C192.709 51.9 192.434 52.51 192.364 53.29H197.554ZM205.469 48.445C205.209 48.445 204.989 48.355 204.809 48.175C204.629 47.995 204.539 47.775 204.539 47.515C204.539 47.255 204.629 47.035 204.809 46.855C204.989 46.675 205.209 46.585 205.469 46.585C205.719 46.585 205.929 46.675 206.099 46.855C206.279 47.035 206.369 47.255 206.369 47.515C206.369 47.775 206.279 47.995 206.099 48.175C205.929 48.355 205.719 48.445 205.469 48.445ZM206.129 49.78V58H204.764V49.78H206.129ZM218.341 49.63C218.981 49.63 219.551 49.765 220.051 50.035C220.551 50.295 220.946 50.69 221.236 51.22C221.526 51.75 221.671 52.395 221.671 53.155V58H220.321V53.35C220.321 52.53 220.116 51.905 219.706 51.475C219.306 51.035 218.761 50.815 218.071 50.815C217.361 50.815 216.796 51.045 216.376 51.505C215.956 51.955 215.746 52.61 215.746 53.47V58H214.396V53.35C214.396 52.53 214.191 51.905 213.781 51.475C213.381 51.035 212.836 50.815 212.146 50.815C211.436 50.815 210.871 51.045 210.451 51.505C210.031 51.955 209.821 52.61 209.821 53.47V58H208.456V49.78H209.821V50.965C210.091 50.535 210.451 50.205 210.901 49.975C211.361 49.745 211.866 49.63 212.416 49.63C213.106 49.63 213.716 49.785 214.246 50.095C214.776 50.405 215.171 50.86 215.431 51.46C215.661 50.88 216.041 50.43 216.571 50.11C217.101 49.79 217.691 49.63 218.341 49.63ZM225.275 51.295C225.545 50.825 225.945 50.435 226.475 50.125C227.015 49.805 227.64 49.645 228.35 49.645C229.08 49.645 229.74 49.82 230.33 50.17C230.93 50.52 231.4 51.015 231.74 51.655C232.08 52.285 232.25 53.02 232.25 53.86C232.25 54.69 232.08 55.43 231.74 56.08C231.4 56.73 230.93 57.235 230.33 57.595C229.74 57.955 229.08 58.135 228.35 58.135C227.65 58.135 227.03 57.98 226.49 57.67C225.96 57.35 225.555 56.955 225.275 56.485V61.9H223.91V49.78H225.275V51.295ZM230.855 53.86C230.855 53.24 230.73 52.7 230.48 52.24C230.23 51.78 229.89 51.43 229.46 51.19C229.04 50.95 228.575 50.83 228.065 50.83C227.565 50.83 227.1 50.955 226.67 51.205C226.25 51.445 225.91 51.8 225.65 52.27C225.4 52.73 225.275 53.265 225.275 53.875C225.275 54.495 225.4 55.04 225.65 55.51C225.91 55.97 226.25 56.325 226.67 56.575C227.1 56.815 227.565 56.935 228.065 56.935C228.575 56.935 229.04 56.815 229.46 56.575C229.89 56.325 230.23 55.97 230.48 55.51C230.73 55.04 230.855 54.49 230.855 53.86ZM233.537 53.86C233.537 53.02 233.707 52.285 234.047 51.655C234.387 51.015 234.852 50.52 235.442 50.17C236.042 49.82 236.707 49.645 237.437 49.645C238.157 49.645 238.782 49.8 239.312 50.11C239.842 50.42 240.237 50.81 240.497 51.28V49.78H241.877V58H240.497V56.47C240.227 56.95 239.822 57.35 239.282 57.67C238.752 57.98 238.132 58.135 237.422 58.135C236.692 58.135 236.032 57.955 235.442 57.595C234.852 57.235 234.387 56.73 234.047 56.08C233.707 55.43 233.537 54.69 233.537 53.86ZM240.497 53.875C240.497 53.255 240.372 52.715 240.122 52.255C239.872 51.795 239.532 51.445 239.102 51.205C238.682 50.955 238.217 50.83 237.707 50.83C237.197 50.83 236.732 50.95 236.312 51.19C235.892 51.43 235.557 51.78 235.307 52.24C235.057 52.7 234.932 53.24 234.932 53.86C234.932 54.49 235.057 55.04 235.307 55.51C235.557 55.97 235.892 56.325 236.312 56.575C236.732 56.815 237.197 56.935 237.707 56.935C238.217 56.935 238.682 56.815 239.102 56.575C239.532 56.325 239.872 55.97 240.122 55.51C240.372 55.04 240.497 54.495 240.497 53.875ZM243.673 53.875C243.673 53.025 243.843 52.285 244.183 51.655C244.523 51.015 244.993 50.52 245.593 50.17C246.203 49.82 246.898 49.645 247.678 49.645C248.688 49.645 249.518 49.89 250.168 50.38C250.828 50.87 251.263 51.55 251.473 52.42H250.003C249.863 51.92 249.588 51.525 249.178 51.235C248.778 50.945 248.278 50.8 247.678 50.8C246.898 50.8 246.268 51.07 245.788 51.61C245.308 52.14 245.068 52.895 245.068 53.875C245.068 54.865 245.308 55.63 245.788 56.17C246.268 56.71 246.898 56.98 247.678 56.98C248.278 56.98 248.778 56.84 249.178 56.56C249.578 56.28 249.853 55.88 250.003 55.36H251.473C251.253 56.2 250.813 56.875 250.153 57.385C249.493 57.885 248.668 58.135 247.678 58.135C246.898 58.135 246.203 57.96 245.593 57.61C244.993 57.26 244.523 56.765 244.183 56.125C243.843 55.485 243.673 54.735 243.673 53.875ZM254.96 50.905V55.75C254.96 56.15 255.045 56.435 255.215 56.605C255.385 56.765 255.68 56.845 256.1 56.845H257.105V58H255.875C255.115 58 254.545 57.825 254.165 57.475C253.785 57.125 253.595 56.55 253.595 55.75V50.905H252.53V49.78H253.595V47.71H254.96V49.78H257.105V50.905H254.96ZM259.194 58.09C258.934 58.09 258.714 58 258.534 57.82C258.354 57.64 258.264 57.42 258.264 57.16C258.264 56.9 258.354 56.68 258.534 56.5C258.714 56.32 258.934 56.23 259.194 56.23C259.444 56.23 259.654 56.32 259.824 56.5C260.004 56.68 260.094 56.9 260.094 57.16C260.094 57.42 260.004 57.64 259.824 57.82C259.654 58 259.444 58.09 259.194 58.09Z" fill="#2F2F2F"/>
</svg>
