<svg width="280" height="25" viewBox="0 0 280 25" fill="none" xmlns="http://www.w3.org/2000/svg">
<path d="M14.584 12.48C15.8853 12.7573 16.9307 13.408 17.72 14.432C18.5093 15.4347 18.904 16.5867 18.904 17.888C18.904 19.7653 18.2427 21.2587 16.92 22.368C15.6187 23.456 13.7947 24 11.448 24H0.984V1.536H11.096C13.3787 1.536 15.16 2.05867 16.44 3.104C17.7413 4.14933 18.392 5.568 18.392 7.36C18.392 8.68267 18.04 9.78133 17.336 10.656C16.6533 11.5307 15.736 12.1387 14.584 12.48ZM6.456 10.624H10.04C10.936 10.624 11.6187 10.432 12.088 10.048C12.5787 9.64267 12.824 9.056 12.824 8.288C12.824 7.52 12.5787 6.93333 12.088 6.528C11.6187 6.12267 10.936 5.92 10.04 5.92H6.456V10.624ZM10.488 19.584C11.4053 19.584 12.1093 19.3813 12.6 18.976C13.112 18.5493 13.368 17.9413 13.368 17.152C13.368 16.3627 13.1013 15.744 12.568 15.296C12.056 14.848 11.3413 14.624 10.424 14.624H6.456V19.584H10.488ZM38.9097 14.784C38.9097 15.296 38.8778 15.8293 38.8138 16.384H26.4298C26.5151 17.4933 26.8671 18.3467 27.4858 18.944C28.1258 19.52 28.9044 19.808 29.8218 19.808C31.1871 19.808 32.1364 19.232 32.6698 18.08H38.4938C38.1951 19.2533 37.6511 20.3093 36.8618 21.248C36.0938 22.1867 35.1231 22.9227 33.9498 23.456C32.7764 23.9893 31.4644 24.256 30.0138 24.256C28.2644 24.256 26.7071 23.8827 25.3418 23.136C23.9764 22.3893 22.9098 21.3227 22.1418 19.936C21.3738 18.5493 20.9898 16.928 20.9898 15.072C20.9898 13.216 21.3631 11.5947 22.1098 10.208C22.8778 8.82133 23.9444 7.75467 25.3098 7.008C26.6751 6.26133 28.2431 5.888 30.0138 5.888C31.7418 5.888 33.2778 6.25067 34.6218 6.976C35.9658 7.70133 37.0111 8.736 37.7578 10.08C38.5258 11.424 38.9097 12.992 38.9097 14.784ZM33.3098 13.344C33.3098 12.4053 32.9898 11.6587 32.3498 11.104C31.7098 10.5493 30.9098 10.272 29.9498 10.272C29.0324 10.272 28.2538 10.5387 27.6138 11.072C26.9951 11.6053 26.6111 12.3627 26.4618 13.344H33.3098ZM40.7085 15.072C40.7085 13.216 41.0818 11.5947 41.8285 10.208C42.5965 8.82133 43.6525 7.75467 44.9965 7.008C46.3618 6.26133 47.9192 5.888 49.6685 5.888C51.9085 5.888 53.7752 6.47467 55.2685 7.648C56.7832 8.82133 57.7752 10.4747 58.2445 12.608H52.4205C51.9298 11.2427 50.9805 10.56 49.5725 10.56C48.5698 10.56 47.7698 10.9547 47.1725 11.744C46.5752 12.512 46.2765 13.6213 46.2765 15.072C46.2765 16.5227 46.5752 17.6427 47.1725 18.432C47.7698 19.2 48.5698 19.584 49.5725 19.584C50.9805 19.584 51.9298 18.9013 52.4205 17.536H58.2445C57.7752 19.6267 56.7832 21.2693 55.2685 22.464C53.7538 23.6587 51.8872 24.256 49.6685 24.256C47.9192 24.256 46.3618 23.8827 44.9965 23.136C43.6525 22.3893 42.5965 21.3227 41.8285 19.936C41.0818 18.5493 40.7085 16.928 40.7085 15.072ZM69.2995 24.256C67.5502 24.256 65.9715 23.8827 64.5635 23.136C63.1768 22.3893 62.0782 21.3227 61.2675 19.936C60.4782 18.5493 60.0835 16.928 60.0835 15.072C60.0835 13.2373 60.4888 11.6267 61.2995 10.24C62.1102 8.832 63.2195 7.75467 64.6275 7.008C66.0355 6.26133 67.6142 5.888 69.3635 5.888C71.1128 5.888 72.6915 6.26133 74.0995 7.008C75.5075 7.75467 76.6168 8.832 77.4275 10.24C78.2382 11.6267 78.6435 13.2373 78.6435 15.072C78.6435 16.9067 78.2275 18.528 77.3955 19.936C76.5848 21.3227 75.4648 22.3893 74.0355 23.136C72.6275 23.8827 71.0488 24.256 69.2995 24.256ZM69.2995 19.52C70.3448 19.52 71.2302 19.136 71.9555 18.368C72.7022 17.6 73.0755 16.5013 73.0755 15.072C73.0755 13.6427 72.7128 12.544 71.9875 11.776C71.2835 11.008 70.4088 10.624 69.3635 10.624C68.2968 10.624 67.4115 11.008 66.7075 11.776C66.0035 12.5227 65.6515 13.6213 65.6515 15.072C65.6515 16.5013 65.9928 17.6 66.6755 18.368C67.3795 19.136 68.2542 19.52 69.2995 19.52ZM104.331 5.952C106.549 5.952 108.309 6.624 109.611 7.968C110.933 9.312 111.595 11.1787 111.595 13.568V24H106.155V14.304C106.155 13.152 105.845 12.2667 105.227 11.648C104.629 11.008 103.797 10.688 102.731 10.688C101.664 10.688 100.821 11.008 100.203 11.648C99.6052 12.2667 99.3065 13.152 99.3065 14.304V24H93.8665V14.304C93.8665 13.152 93.5572 12.2667 92.9385 11.648C92.3412 11.008 91.5092 10.688 90.4425 10.688C89.3758 10.688 88.5332 11.008 87.9145 11.648C87.3172 12.2667 87.0185 13.152 87.0185 14.304V24H81.5465V6.144H87.0185V8.384C87.5732 7.63733 88.2985 7.05067 89.1945 6.624C90.0905 6.176 91.1038 5.952 92.2345 5.952C93.5785 5.952 94.7732 6.24 95.8185 6.816C96.8852 7.392 97.7172 8.21333 98.3145 9.28C98.9332 8.29867 99.7758 7.49867 100.843 6.88C101.909 6.26133 103.072 5.952 104.331 5.952ZM132.253 14.784C132.253 15.296 132.222 15.8293 132.158 16.384H119.774C119.859 17.4933 120.211 18.3467 120.83 18.944C121.47 19.52 122.248 19.808 123.166 19.808C124.531 19.808 125.48 19.232 126.014 18.08H131.838C131.539 19.2533 130.995 20.3093 130.206 21.248C129.438 22.1867 128.467 22.9227 127.294 23.456C126.12 23.9893 124.808 24.256 123.358 24.256C121.608 24.256 120.051 23.8827 118.686 23.136C117.32 22.3893 116.254 21.3227 115.486 19.936C114.718 18.5493 114.334 16.928 114.334 15.072C114.334 13.216 114.707 11.5947 115.454 10.208C116.222 8.82133 117.288 7.75467 118.654 7.008C120.019 6.26133 121.587 5.888 123.358 5.888C125.086 5.888 126.622 6.25067 127.966 6.976C129.31 7.70133 130.355 8.736 131.102 10.08C131.87 11.424 132.253 12.992 132.253 14.784ZM126.654 13.344C126.654 12.4053 126.334 11.6587 125.694 11.104C125.054 10.5493 124.254 10.272 123.294 10.272C122.376 10.272 121.598 10.5387 120.958 11.072C120.339 11.6053 119.955 12.3627 119.806 13.344H126.654ZM155.906 20.032H147.522L146.178 24H140.45L148.578 1.536H154.914L163.042 24H157.25L155.906 20.032ZM154.498 15.808L151.714 7.584L148.962 15.808H154.498ZM180.713 1.536C183.081 1.536 185.15 2.00533 186.921 2.944C188.691 3.88267 190.057 5.20533 191.017 6.912C191.998 8.59733 192.489 10.5493 192.489 12.768C192.489 14.9653 191.998 16.9173 191.017 18.624C190.057 20.3307 188.681 21.6533 186.889 22.592C185.118 23.5307 183.059 24 180.713 24H172.297V1.536H180.713ZM180.361 19.264C182.43 19.264 184.041 18.6987 185.193 17.568C186.345 16.4373 186.921 14.8373 186.921 12.768C186.921 10.6987 186.345 9.088 185.193 7.936C184.041 6.784 182.43 6.208 180.361 6.208H177.769V19.264H180.361ZM203.675 24.256C201.925 24.256 200.347 23.8827 198.939 23.136C197.552 22.3893 196.453 21.3227 195.643 19.936C194.853 18.5493 194.459 16.928 194.459 15.072C194.459 13.2373 194.864 11.6267 195.674 10.24C196.485 8.832 197.595 7.75467 199.003 7.008C200.411 6.26133 201.989 5.888 203.739 5.888C205.488 5.888 207.067 6.26133 208.475 7.008C209.883 7.75467 210.992 8.832 211.803 10.24C212.613 11.6267 213.019 13.2373 213.019 15.072C213.019 16.9067 212.603 18.528 211.771 19.936C210.96 21.3227 209.84 22.3893 208.411 23.136C207.003 23.8827 205.424 24.256 203.675 24.256ZM203.675 19.52C204.72 19.52 205.605 19.136 206.331 18.368C207.077 17.6 207.451 16.5013 207.451 15.072C207.451 13.6427 207.088 12.544 206.363 11.776C205.659 11.008 204.784 10.624 203.739 10.624C202.672 10.624 201.787 11.008 201.083 11.776C200.379 12.5227 200.027 13.6213 200.027 15.072C200.027 16.5013 200.368 17.6 201.051 18.368C201.755 19.136 202.629 19.52 203.675 19.52ZM226.802 5.952C228.892 5.952 230.556 6.63467 231.794 8C233.052 9.344 233.682 11.2 233.682 13.568V24H228.242V14.304C228.242 13.1093 227.932 12.1813 227.314 11.52C226.695 10.8587 225.863 10.528 224.818 10.528C223.772 10.528 222.94 10.8587 222.322 11.52C221.703 12.1813 221.394 13.1093 221.394 14.304V24H215.922V6.144H221.394V8.512C221.948 7.72267 222.695 7.104 223.634 6.656C224.572 6.18667 225.628 5.952 226.802 5.952ZM245.612 24.256C243.863 24.256 242.284 23.8827 240.876 23.136C239.489 22.3893 238.391 21.3227 237.58 19.936C236.791 18.5493 236.396 16.928 236.396 15.072C236.396 13.2373 236.801 11.6267 237.612 10.24C238.423 8.832 239.532 7.75467 240.94 7.008C242.348 6.26133 243.927 5.888 245.676 5.888C247.425 5.888 249.004 6.26133 250.412 7.008C251.82 7.75467 252.929 8.832 253.74 10.24C254.551 11.6267 254.956 13.2373 254.956 15.072C254.956 16.9067 254.54 18.528 253.708 19.936C252.897 21.3227 251.777 22.3893 250.348 23.136C248.94 23.8827 247.361 24.256 245.612 24.256ZM245.612 19.52C246.657 19.52 247.543 19.136 248.268 18.368C249.015 17.6 249.388 16.5013 249.388 15.072C249.388 13.6427 249.025 12.544 248.3 11.776C247.596 11.008 246.721 10.624 245.676 10.624C244.609 10.624 243.724 11.008 243.02 11.776C242.316 12.5227 241.964 13.6213 241.964 15.072C241.964 16.5013 242.305 17.6 242.988 18.368C243.692 19.136 244.567 19.52 245.612 19.52ZM263.331 9.12C263.971 8.13867 264.771 7.37067 265.731 6.816C266.691 6.24 267.758 5.952 268.931 5.952V11.744H267.427C266.062 11.744 265.038 12.0427 264.355 12.64C263.672 13.216 263.331 14.24 263.331 15.712V24H257.859V6.144H263.331V9.12ZM278.747 0.735998L278.107 16.064H273.467L272.827 0.735998H278.747ZM275.867 24.256C274.907 24.256 274.117 23.9787 273.499 23.424C272.901 22.848 272.603 22.144 272.603 21.312C272.603 20.4587 272.901 19.744 273.499 19.168C274.117 18.592 274.907 18.304 275.867 18.304C276.805 18.304 277.573 18.592 278.171 19.168C278.789 19.744 279.099 20.4587 279.099 21.312C279.099 22.144 278.789 22.848 278.171 23.424C277.573 23.9787 276.805 24.256 275.867 24.256Z" fill="url(#paint0_linear_58_95)"/>
<defs>
<linearGradient id="paint0_linear_58_95" x1="133.707" y1="-17.5" x2="135.455" y2="36.9852" gradientUnits="userSpaceOnUse">
<stop stop-color="#579DFF"/>
<stop offset="1" stop-color="#486CF5"/>
</linearGradient>
</defs>
</svg>
