<svg width="124" height="24" viewBox="0 0 124 24" fill="none" xmlns="http://www.w3.org/2000/svg">
<g filter="url(#filter0_d_58_99)">
<path d="M14.56 5.52939C14.3067 5.06273 13.94 4.70939 13.46 4.46939C12.9933 4.21606 12.44 4.08939 11.8 4.08939C10.6933 4.08939 9.80667 4.45606 9.14 5.18939C8.47333 5.90939 8.14 6.87606 8.14 8.08939C8.14 9.38273 8.48667 10.3961 9.18 11.1294C9.88667 11.8494 10.8533 12.2094 12.08 12.2094C12.92 12.2094 13.6267 11.9961 14.2 11.5694C14.7867 11.1427 15.2133 10.5294 15.48 9.72939H11.14V7.20939H18.58V10.3894C18.3267 11.2427 17.8933 12.0361 17.28 12.7694C16.68 13.5027 15.9133 14.0961 14.98 14.5494C14.0467 15.0027 12.9933 15.2294 11.82 15.2294C10.4333 15.2294 9.19333 14.9294 8.1 14.3294C7.02 13.7161 6.17333 12.8694 5.56 11.7894C4.96 10.7094 4.66 9.47606 4.66 8.08939C4.66 6.70273 4.96 5.46939 5.56 4.38939C6.17333 3.29606 7.02 2.44939 8.1 1.84939C9.18 1.23606 10.4133 0.929394 11.8 0.929394C13.48 0.929394 14.8933 1.33606 16.04 2.14939C17.2 2.96273 17.9667 4.08939 18.34 5.52939H14.56ZM30.9944 9.36939C30.9944 9.68939 30.9744 10.0227 30.9344 10.3694H23.1944C23.2477 11.0627 23.4677 11.5961 23.8544 11.9694C24.2544 12.3294 24.741 12.5094 25.3144 12.5094C26.1677 12.5094 26.761 12.1494 27.0944 11.4294H30.7344C30.5477 12.1627 30.2077 12.8227 29.7144 13.4094C29.2344 13.9961 28.6277 14.4561 27.8944 14.7894C27.161 15.1227 26.341 15.2894 25.4344 15.2894C24.341 15.2894 23.3677 15.0561 22.5144 14.5894C21.661 14.1227 20.9944 13.4561 20.5144 12.5894C20.0344 11.7227 19.7944 10.7094 19.7944 9.54939C19.7944 8.38939 20.0277 7.37606 20.4944 6.50939C20.9744 5.64273 21.641 4.97606 22.4944 4.50939C23.3477 4.04273 24.3277 3.80939 25.4344 3.80939C26.5144 3.80939 27.4744 4.03606 28.3144 4.48939C29.1544 4.94273 29.8077 5.58939 30.2744 6.42939C30.7544 7.26939 30.9944 8.24939 30.9944 9.36939ZM27.4944 8.46939C27.4944 7.88273 27.2944 7.41606 26.8944 7.06939C26.4944 6.72273 25.9944 6.54939 25.3944 6.54939C24.821 6.54939 24.3344 6.71606 23.9344 7.04939C23.5477 7.38273 23.3077 7.85606 23.2144 8.46939H27.4944ZM39.0186 12.2294V15.1294H37.2786C36.0386 15.1294 35.0719 14.8294 34.3786 14.2294C33.6853 13.6161 33.3386 12.6227 33.3386 11.2494V6.80939H31.9786V3.96939H33.3386V1.24939H36.7586V3.96939H38.9986V6.80939H36.7586V11.2894C36.7586 11.6227 36.8386 11.8627 36.9986 12.0094C37.1586 12.1561 37.4253 12.2294 37.7986 12.2294H39.0186ZM50.2419 15.2694C49.2152 15.2694 48.2952 15.1027 47.4819 14.7694C46.6685 14.4361 46.0152 13.9427 45.5219 13.2894C45.0419 12.6361 44.7885 11.8494 44.7619 10.9294H48.4019C48.4552 11.4494 48.6352 11.8494 48.9419 12.1294C49.2485 12.3961 49.6485 12.5294 50.1419 12.5294C50.6485 12.5294 51.0485 12.4161 51.3419 12.1894C51.6352 11.9494 51.7819 11.6227 51.7819 11.2094C51.7819 10.8627 51.6619 10.5761 51.4219 10.3494C51.1952 10.1227 50.9085 9.93606 50.5619 9.78939C50.2285 9.64273 49.7485 9.47606 49.1219 9.28939C48.2152 9.00939 47.4752 8.72939 46.9019 8.44939C46.3285 8.16939 45.8352 7.75606 45.4219 7.20939C45.0085 6.66273 44.8019 5.94939 44.8019 5.06939C44.8019 3.76273 45.2752 2.74273 46.2219 2.00939C47.1685 1.26273 48.4019 0.889394 49.9219 0.889394C51.4685 0.889394 52.7152 1.26273 53.6619 2.00939C54.6085 2.74273 55.1152 3.76939 55.1819 5.08939H51.4819C51.4552 4.63606 51.2885 4.28273 50.9819 4.02939C50.6752 3.76273 50.2819 3.62939 49.8019 3.62939C49.3885 3.62939 49.0552 3.74273 48.8019 3.96939C48.5485 4.18273 48.4219 4.49606 48.4219 4.90939C48.4219 5.36273 48.6352 5.71606 49.0619 5.96939C49.4885 6.22273 50.1552 6.49606 51.0619 6.78939C51.9685 7.09606 52.7019 7.38939 53.2619 7.66939C53.8352 7.94939 54.3285 8.35606 54.7419 8.88939C55.1552 9.42273 55.3619 10.1094 55.3619 10.9494C55.3619 11.7494 55.1552 12.4761 54.7419 13.1294C54.3419 13.7827 53.7552 14.3027 52.9819 14.6894C52.2085 15.0761 51.2952 15.2694 50.2419 15.2694ZM63.6866 12.2294V15.1294H61.9466C60.7066 15.1294 59.7399 14.8294 59.0466 14.2294C58.3532 13.6161 58.0066 12.6227 58.0066 11.2494V6.80939H56.6466V3.96939H58.0066V1.24939H61.4266V3.96939H63.6666V6.80939H61.4266V11.2894C61.4266 11.6227 61.5066 11.8627 61.6666 12.0094C61.8266 12.1561 62.0932 12.2294 62.4666 12.2294H63.6866ZM64.9116 9.52939C64.9116 8.38273 65.1249 7.37606 65.5516 6.50939C65.9916 5.64273 66.5849 4.97606 67.3316 4.50939C68.0782 4.04273 68.9116 3.80939 69.8316 3.80939C70.6182 3.80939 71.3049 3.96939 71.8916 4.28939C72.4916 4.60939 72.9516 5.02939 73.2716 5.54939V3.96939H76.6916V15.1294H73.2716V13.5494C72.9382 14.0694 72.4716 14.4894 71.8716 14.8094C71.2849 15.1294 70.5982 15.2894 69.8116 15.2894C68.9049 15.2894 68.0782 15.0561 67.3316 14.5894C66.5849 14.1094 65.9916 13.4361 65.5516 12.5694C65.1249 11.6894 64.9116 10.6761 64.9116 9.52939ZM73.2716 9.54939C73.2716 8.69606 73.0316 8.02273 72.5516 7.52939C72.0849 7.03606 71.5116 6.78939 70.8316 6.78939C70.1516 6.78939 69.5716 7.03606 69.0916 7.52939C68.6249 8.00939 68.3916 8.67606 68.3916 9.52939C68.3916 10.3827 68.6249 11.0627 69.0916 11.5694C69.5716 12.0627 70.1516 12.3094 70.8316 12.3094C71.5116 12.3094 72.0849 12.0627 72.5516 11.5694C73.0316 11.0761 73.2716 10.4027 73.2716 9.54939ZM82.5858 5.82939C82.9858 5.21606 83.4858 4.73606 84.0858 4.38939C84.6858 4.02939 85.3524 3.84939 86.0858 3.84939V7.46939H85.1458C84.2924 7.46939 83.6524 7.65606 83.2258 8.02939C82.7991 8.38939 82.5858 9.02939 82.5858 9.94939V15.1294H79.1658V3.96939H82.5858V5.82939ZM93.9405 12.2294V15.1294H92.2005C90.9605 15.1294 89.9938 14.8294 89.3005 14.2294C88.6071 13.6161 88.2605 12.6227 88.2605 11.2494V6.80939H86.9005V3.96939H88.2605V1.24939H91.6805V3.96939H93.9205V6.80939H91.6805V11.2894C91.6805 11.6227 91.7605 11.8627 91.9205 12.0094C92.0805 12.1561 92.3471 12.2294 92.7205 12.2294H93.9405ZM106.365 9.36939C106.365 9.68939 106.345 10.0227 106.305 10.3694H98.5655C98.6188 11.0627 98.8388 11.5961 99.2255 11.9694C99.6255 12.3294 100.112 12.5094 100.685 12.5094C101.539 12.5094 102.132 12.1494 102.465 11.4294H106.105C105.919 12.1627 105.579 12.8227 105.085 13.4094C104.605 13.9961 103.999 14.4561 103.265 14.7894C102.532 15.1227 101.712 15.2894 100.805 15.2894C99.7121 15.2894 98.7388 15.0561 97.8855 14.5894C97.0321 14.1227 96.3655 13.4561 95.8855 12.5894C95.4055 11.7227 95.1655 10.7094 95.1655 9.54939C95.1655 8.38939 95.3988 7.37606 95.8655 6.50939C96.3455 5.64273 97.0121 4.97606 97.8655 4.50939C98.7188 4.04273 99.6988 3.80939 100.805 3.80939C101.885 3.80939 102.845 4.03606 103.685 4.48939C104.525 4.94273 105.179 5.58939 105.645 6.42939C106.125 7.26939 106.365 8.24939 106.365 9.36939ZM102.865 8.46939C102.865 7.88273 102.665 7.41606 102.265 7.06939C101.865 6.72273 101.365 6.54939 100.765 6.54939C100.192 6.54939 99.7055 6.71606 99.3055 7.04939C98.9188 7.38273 98.6788 7.85606 98.5855 8.46939H102.865ZM107.49 9.52939C107.49 8.38273 107.703 7.37606 108.13 6.50939C108.57 5.64273 109.163 4.97606 109.91 4.50939C110.656 4.04273 111.49 3.80939 112.41 3.80939C113.143 3.80939 113.81 3.96273 114.41 4.26939C115.023 4.57606 115.503 4.98939 115.85 5.50939V0.329394H119.27V15.1294H115.85V13.5294C115.53 14.0627 115.07 14.4894 114.47 14.8094C113.883 15.1294 113.196 15.2894 112.41 15.2894C111.49 15.2894 110.656 15.0561 109.91 14.5894C109.163 14.1094 108.57 13.4361 108.13 12.5694C107.703 11.6894 107.49 10.6761 107.49 9.52939ZM115.85 9.54939C115.85 8.69606 115.61 8.02273 115.13 7.52939C114.663 7.03606 114.09 6.78939 113.41 6.78939C112.73 6.78939 112.15 7.03606 111.67 7.52939C111.203 8.00939 110.97 8.67606 110.97 9.52939C110.97 10.3827 111.203 11.0627 111.67 11.5694C112.15 12.0627 112.73 12.3094 113.41 12.3094C114.09 12.3094 114.663 12.0627 115.13 11.5694C115.61 11.0761 115.85 10.4027 115.85 9.54939Z" fill="#E8E8E8"/>
</g>
<defs>
<filter id="filter0_d_58_99" x="0.660156" y="0.32959" width="122.609" height="22.9595" filterUnits="userSpaceOnUse" color-interpolation-filters="sRGB">
<feFlood flood-opacity="0" result="BackgroundImageFix"/>
<feColorMatrix in="SourceAlpha" type="matrix" values="0 0 0 0 0 0 0 0 0 0 0 0 0 0 0 0 0 0 127 0" result="hardAlpha"/>
<feOffset dy="4"/>
<feGaussianBlur stdDeviation="2"/>
<feComposite in2="hardAlpha" operator="out"/>
<feColorMatrix type="matrix" values="0 0 0 0 0 0 0 0 0 0 0 0 0 0 0 0 0 0 0.15 0"/>
<feBlend mode="normal" in2="BackgroundImageFix" result="effect1_dropShadow_58_99"/>
<feBlend mode="normal" in="SourceGraphic" in2="effect1_dropShadow_58_99" result="shape"/>
</filter>
</defs>
</svg>
