<svg width="327" height="35" viewBox="0 0 327 35" fill="none" xmlns="http://www.w3.org/2000/svg">
<path d="M14.584 14.48C15.8853 14.7573 16.9307 15.408 17.72 16.432C18.5093 17.4347 18.904 18.5867 18.904 19.888C18.904 21.7653 18.2427 23.2587 16.92 24.368C15.6187 25.456 13.7947 26 11.448 26H0.984V3.536H11.096C13.3787 3.536 15.16 4.05867 16.44 5.104C17.7413 6.14933 18.392 7.568 18.392 9.36C18.392 10.6827 18.04 11.7813 17.336 12.656C16.6533 13.5307 15.736 14.1387 14.584 14.48ZM6.456 12.624H10.04C10.936 12.624 11.6187 12.432 12.088 12.048C12.5787 11.6427 12.824 11.056 12.824 10.288C12.824 9.52 12.5787 8.93333 12.088 8.528C11.6187 8.12267 10.936 7.92 10.04 7.92H6.456V12.624ZM10.488 21.584C11.4053 21.584 12.1093 21.3813 12.6 20.976C13.112 20.5493 13.368 19.9413 13.368 19.152C13.368 18.3627 13.1013 17.744 12.568 17.296C12.056 16.848 11.3413 16.624 10.424 16.624H6.456V21.584H10.488ZM38.9097 16.784C38.9097 17.296 38.8778 17.8293 38.8138 18.384H26.4298C26.5151 19.4933 26.8671 20.3467 27.4858 20.944C28.1258 21.52 28.9044 21.808 29.8218 21.808C31.1871 21.808 32.1364 21.232 32.6698 20.08H38.4938C38.1951 21.2533 37.6511 22.3093 36.8618 23.248C36.0938 24.1867 35.1231 24.9227 33.9498 25.456C32.7764 25.9893 31.4644 26.256 30.0138 26.256C28.2644 26.256 26.7071 25.8827 25.3418 25.136C23.9764 24.3893 22.9098 23.3227 22.1418 21.936C21.3738 20.5493 20.9898 18.928 20.9898 17.072C20.9898 15.216 21.3631 13.5947 22.1098 12.208C22.8778 10.8213 23.9444 9.75467 25.3098 9.008C26.6751 8.26133 28.2431 7.888 30.0138 7.888C31.7418 7.888 33.2778 8.25067 34.6218 8.976C35.9658 9.70133 37.0111 10.736 37.7578 12.08C38.5258 13.424 38.9097 14.992 38.9097 16.784ZM33.3098 15.344C33.3098 14.4053 32.9898 13.6587 32.3498 13.104C31.7098 12.5493 30.9098 12.272 29.9498 12.272C29.0324 12.272 28.2538 12.5387 27.6138 13.072C26.9951 13.6053 26.6111 14.3627 26.4618 15.344H33.3098ZM47.4898 17.04C47.4898 15.2053 47.8311 13.5947 48.5138 12.208C49.2178 10.8213 50.1671 9.75467 51.3618 9.008C52.5564 8.26133 53.8898 7.888 55.3618 7.888C56.6204 7.888 57.7191 8.144 58.6578 8.656C59.6178 9.168 60.3538 9.84 60.8658 10.672V8.144H66.3378V26H60.8658V23.472C60.3324 24.304 59.5858 24.976 58.6258 25.488C57.6871 26 56.5884 26.256 55.3298 26.256C53.8791 26.256 52.5564 25.8827 51.3618 25.136C50.1671 24.368 49.2178 23.2907 48.5138 21.904C47.8311 20.496 47.4898 18.8747 47.4898 17.04ZM60.8658 17.072C60.8658 15.7067 60.4818 14.6293 59.7138 13.84C58.9671 13.0507 58.0498 12.656 56.9618 12.656C55.8738 12.656 54.9458 13.0507 54.1778 13.84C53.4311 14.608 53.0578 15.6747 53.0578 17.04C53.0578 18.4053 53.4311 19.4933 54.1778 20.304C54.9458 21.0933 55.8738 21.488 56.9618 21.488C58.0498 21.488 58.9671 21.0933 59.7138 20.304C60.4818 19.5147 60.8658 18.4373 60.8658 17.072ZM91.7018 3.536V7.92H82.5498V12.656H89.3978V16.912H82.5498V26H77.0778V3.536H91.7018ZM97.3298 6.288C96.3698 6.288 95.5804 6.01067 94.9618 5.456C94.3644 4.88 94.0658 4.176 94.0658 3.344C94.0658 2.49067 94.3644 1.78667 94.9618 1.232C95.5804 0.655998 96.3698 0.367998 97.3298 0.367998C98.2684 0.367998 99.0364 0.655998 99.6338 1.232C100.252 1.78667 100.562 2.49067 100.562 3.344C100.562 4.176 100.252 4.88 99.6338 5.456C99.0364 6.01067 98.2684 6.288 97.3298 6.288ZM100.05 8.144V26H94.5778V8.144H100.05ZM114.895 7.952C116.986 7.952 118.65 8.63467 119.887 10C121.146 11.344 121.775 13.2 121.775 15.568V26H116.335V16.304C116.335 15.1093 116.026 14.1813 115.407 13.52C114.789 12.8587 113.957 12.528 112.911 12.528C111.866 12.528 111.034 12.8587 110.415 13.52C109.797 14.1813 109.487 15.1093 109.487 16.304V26H104.015V8.144H109.487V10.512C110.042 9.72267 110.789 9.104 111.727 8.656C112.666 8.18667 113.722 7.952 114.895 7.952ZM124.49 17.04C124.49 15.2053 124.831 13.5947 125.514 12.208C126.218 10.8213 127.167 9.75467 128.362 9.008C129.556 8.26133 130.89 7.888 132.362 7.888C133.62 7.888 134.719 8.144 135.658 8.656C136.618 9.168 137.354 9.84 137.866 10.672V8.144H143.338V26H137.866V23.472C137.332 24.304 136.586 24.976 135.626 25.488C134.687 26 133.588 26.256 132.33 26.256C130.879 26.256 129.556 25.8827 128.362 25.136C127.167 24.368 126.218 23.2907 125.514 21.904C124.831 20.496 124.49 18.8747 124.49 17.04ZM137.866 17.072C137.866 15.7067 137.482 14.6293 136.714 13.84C135.967 13.0507 135.05 12.656 133.962 12.656C132.874 12.656 131.946 13.0507 131.178 13.84C130.431 14.608 130.058 15.6747 130.058 17.04C130.058 18.4053 130.431 19.4933 131.178 20.304C131.946 21.0933 132.874 21.488 133.962 21.488C135.05 21.488 135.967 21.0933 136.714 20.304C137.482 19.5147 137.866 18.4373 137.866 17.072ZM158.177 7.952C160.267 7.952 161.931 8.63467 163.169 10C164.427 11.344 165.057 13.2 165.057 15.568V26H159.617V16.304C159.617 15.1093 159.307 14.1813 158.689 13.52C158.07 12.8587 157.238 12.528 156.193 12.528C155.147 12.528 154.315 12.8587 153.697 13.52C153.078 14.1813 152.769 15.1093 152.769 16.304V26H147.297V8.144H152.769V10.512C153.323 9.72267 154.07 9.104 155.009 8.656C155.947 8.18667 157.003 7.952 158.177 7.952ZM167.771 17.072C167.771 15.216 168.144 13.5947 168.891 12.208C169.659 10.8213 170.715 9.75467 172.059 9.008C173.424 8.26133 174.982 7.888 176.731 7.888C178.971 7.888 180.838 8.47467 182.331 9.648C183.846 10.8213 184.838 12.4747 185.307 14.608H179.483C178.992 13.2427 178.043 12.56 176.635 12.56C175.632 12.56 174.832 12.9547 174.235 13.744C173.638 14.512 173.339 15.6213 173.339 17.072C173.339 18.5227 173.638 19.6427 174.235 20.432C174.832 21.2 175.632 21.584 176.635 21.584C178.043 21.584 178.992 20.9013 179.483 19.536H185.307C184.838 21.6267 183.846 23.2693 182.331 24.464C180.816 25.6587 178.95 26.256 176.731 26.256C174.982 26.256 173.424 25.8827 172.059 25.136C170.715 24.3893 169.659 23.3227 168.891 21.936C168.144 20.5493 167.771 18.928 167.771 17.072ZM205.066 16.784C205.066 17.296 205.034 17.8293 204.97 18.384H192.586C192.671 19.4933 193.023 20.3467 193.642 20.944C194.282 21.52 195.061 21.808 195.978 21.808C197.343 21.808 198.293 21.232 198.826 20.08H204.65C204.351 21.2533 203.807 22.3093 203.018 23.248C202.25 24.1867 201.279 24.9227 200.106 25.456C198.933 25.9893 197.621 26.256 196.17 26.256C194.421 26.256 192.863 25.8827 191.498 25.136C190.133 24.3893 189.066 23.3227 188.298 21.936C187.53 20.5493 187.146 18.928 187.146 17.072C187.146 15.216 187.519 13.5947 188.266 12.208C189.034 10.8213 190.101 9.75467 191.466 9.008C192.831 8.26133 194.399 7.888 196.17 7.888C197.898 7.888 199.434 8.25067 200.778 8.976C202.122 9.70133 203.167 10.736 203.914 12.08C204.682 13.424 205.066 14.992 205.066 16.784ZM199.466 15.344C199.466 14.4053 199.146 13.6587 198.506 13.104C197.866 12.5493 197.066 12.272 196.106 12.272C195.189 12.272 194.41 12.5387 193.77 13.072C193.151 13.6053 192.767 14.3627 192.618 15.344H199.466ZM220.206 7.92V12.464H227.534V16.688H220.206V21.616H228.494V26H214.734V3.536H228.494V7.92H220.206ZM242.607 26L239.183 21.04L236.303 26H230.383L236.271 16.88L230.223 8.144H236.367L239.791 13.072L242.671 8.144H248.591L242.607 17.136L248.751 26H242.607ZM256.331 10.672C256.864 9.84 257.6 9.168 258.539 8.656C259.478 8.144 260.576 7.888 261.835 7.888C263.307 7.888 264.64 8.26133 265.835 9.008C267.03 9.75467 267.968 10.8213 268.651 12.208C269.355 13.5947 269.707 15.2053 269.707 17.04C269.707 18.8747 269.355 20.496 268.651 21.904C267.968 23.2907 267.03 24.368 265.835 25.136C264.64 25.8827 263.307 26.256 261.835 26.256C260.598 26.256 259.499 26 258.539 25.488C257.6 24.976 256.864 24.3147 256.331 23.504V34.512H250.859V8.144H256.331V10.672ZM264.139 17.04C264.139 15.6747 263.755 14.608 262.987 13.84C262.24 13.0507 261.312 12.656 260.203 12.656C259.115 12.656 258.187 13.0507 257.419 13.84C256.672 14.6293 256.299 15.7067 256.299 17.072C256.299 18.4373 256.672 19.5147 257.419 20.304C258.187 21.0933 259.115 21.488 260.203 21.488C261.291 21.488 262.219 21.0933 262.987 20.304C263.755 19.4933 264.139 18.4053 264.139 17.04ZM289.41 16.784C289.41 17.296 289.378 17.8293 289.314 18.384H276.93C277.015 19.4933 277.367 20.3467 277.986 20.944C278.626 21.52 279.404 21.808 280.322 21.808C281.687 21.808 282.636 21.232 283.17 20.08H288.994C288.695 21.2533 288.151 22.3093 287.362 23.248C286.594 24.1867 285.623 24.9227 284.45 25.456C283.276 25.9893 281.964 26.256 280.514 26.256C278.764 26.256 277.207 25.8827 275.842 25.136C274.476 24.3893 273.41 23.3227 272.642 21.936C271.874 20.5493 271.49 18.928 271.49 17.072C271.49 15.216 271.863 13.5947 272.61 12.208C273.378 10.8213 274.444 9.75467 275.81 9.008C277.175 8.26133 278.743 7.888 280.514 7.888C282.242 7.888 283.778 8.25067 285.122 8.976C286.466 9.70133 287.511 10.736 288.258 12.08C289.026 13.424 289.41 14.992 289.41 16.784ZM283.81 15.344C283.81 14.4053 283.49 13.6587 282.85 13.104C282.21 12.5493 281.41 12.272 280.45 12.272C279.532 12.272 278.754 12.5387 278.114 13.072C277.495 13.6053 277.111 14.3627 276.962 15.344H283.81ZM297.769 11.12C298.409 10.1387 299.209 9.37067 300.169 8.816C301.129 8.24 302.195 7.952 303.369 7.952V13.744H301.865C300.499 13.744 299.475 14.0427 298.793 14.64C298.11 15.216 297.769 16.24 297.769 17.712V26H292.297V8.144H297.769V11.12ZM315.936 21.36V26H313.152C311.168 26 309.621 25.52 308.512 24.56C307.403 23.5787 306.848 21.9893 306.848 19.792V12.688H304.672V8.144H306.848V3.792H312.32V8.144H315.904V12.688H312.32V19.856C312.32 20.3893 312.448 20.7733 312.704 21.008C312.96 21.2427 313.387 21.36 313.984 21.36H315.936ZM326.184 2.736L325.544 18.064H320.904L320.264 2.736H326.184ZM323.304 26.256C322.344 26.256 321.555 25.9787 320.936 25.424C320.339 24.848 320.04 24.144 320.04 23.312C320.04 22.4587 320.339 21.744 320.936 21.168C321.555 20.592 322.344 20.304 323.304 20.304C324.243 20.304 325.011 20.592 325.608 21.168C326.227 21.744 326.536 22.4587 326.536 23.312C326.536 24.144 326.227 24.848 325.608 25.424C325.011 25.9787 324.243 26.256 323.304 26.256Z" fill="url(#paint0_linear_58_8)"/>
<defs>
<linearGradient id="paint0_linear_58_8" x1="156" y1="-15.5" x2="157.5" y2="39" gradientUnits="userSpaceOnUse">
<stop stop-color="#579DFF"/>
<stop offset="1" stop-color="#486CF5"/>
</linearGradient>
</defs>
</svg>
