<svg width="351" height="62" viewBox="0 0 351 62" fill="none" xmlns="http://www.w3.org/2000/svg">
<path d="M1.74607 10.89H5.40607V12H0.381074V1.545H1.74607V10.89ZM14.3557 7.575C14.3557 7.835 14.3407 8.11 14.3107 8.4H7.74068C7.79068 9.21 8.06568 9.845 8.56568 10.305C9.07568 10.755 9.69068 10.98 10.4107 10.98C11.0007 10.98 11.4907 10.845 11.8807 10.575C12.2807 10.295 12.5607 9.925 12.7207 9.465H14.1907C13.9707 10.255 13.5307 10.9 12.8707 11.4C12.2107 11.89 11.3907 12.135 10.4107 12.135C9.63068 12.135 8.93068 11.96 8.31068 11.61C7.70068 11.26 7.22068 10.765 6.87068 10.125C6.52068 9.475 6.34568 8.725 6.34568 7.875C6.34568 7.025 6.51568 6.28 6.85568 5.64C7.19568 5 7.67068 4.51 8.28068 4.17C8.90068 3.82 9.61068 3.645 10.4107 3.645C11.1907 3.645 11.8807 3.815 12.4807 4.155C13.0807 4.495 13.5407 4.965 13.8607 5.565C14.1907 6.155 14.3557 6.825 14.3557 7.575ZM12.9457 7.29C12.9457 6.77 12.8307 6.325 12.6007 5.955C12.3707 5.575 12.0557 5.29 11.6557 5.1C11.2657 4.9 10.8307 4.8 10.3507 4.8C9.66068 4.8 9.07068 5.02 8.58068 5.46C8.10068 5.9 7.82568 6.51 7.75568 7.29H12.9457ZM19.2174 10.74L21.7674 3.78H23.2224L19.9974 12H18.4074L15.1824 3.78H16.6524L19.2174 10.74ZM32.0656 7.575C32.0656 7.835 32.0506 8.11 32.0206 8.4H25.4506C25.5006 9.21 25.7756 9.845 26.2756 10.305C26.7856 10.755 27.4006 10.98 28.1206 10.98C28.7106 10.98 29.2006 10.845 29.5906 10.575C29.9906 10.295 30.2706 9.925 30.4306 9.465H31.9006C31.6806 10.255 31.2406 10.9 30.5806 11.4C29.9206 11.89 29.1006 12.135 28.1206 12.135C27.3406 12.135 26.6406 11.96 26.0206 11.61C25.4106 11.26 24.9306 10.765 24.5806 10.125C24.2306 9.475 24.0556 8.725 24.0556 7.875C24.0556 7.025 24.2256 6.28 24.5656 5.64C24.9056 5 25.3806 4.51 25.9906 4.17C26.6106 3.82 27.3206 3.645 28.1206 3.645C28.9006 3.645 29.5906 3.815 30.1906 4.155C30.7906 4.495 31.2506 4.965 31.5706 5.565C31.9006 6.155 32.0656 6.825 32.0656 7.575ZM30.6556 7.29C30.6556 6.77 30.5406 6.325 30.3106 5.955C30.0806 5.575 29.7656 5.29 29.3656 5.1C28.9756 4.9 28.5406 4.8 28.0606 4.8C27.3706 4.8 26.7806 5.02 26.2906 5.46C25.8106 5.9 25.5356 6.51 25.4656 7.29H30.6556ZM35.2324 5.115C35.4724 4.645 35.8124 4.28 36.2524 4.02C36.7024 3.76 37.2474 3.63 37.8874 3.63V5.04H37.5274C35.9974 5.04 35.2324 5.87 35.2324 7.53V12H33.8674V3.78H35.2324V5.115ZM38.9531 7.86C38.9531 7.02 39.1231 6.285 39.4631 5.655C39.8031 5.015 40.2681 4.52 40.8581 4.17C41.4581 3.82 42.1231 3.645 42.8531 3.645C43.5731 3.645 44.1981 3.8 44.7281 4.11C45.2581 4.42 45.6531 4.81 45.9131 5.28V3.78H47.2931V12H45.9131V10.47C45.6431 10.95 45.2381 11.35 44.6981 11.67C44.1681 11.98 43.5481 12.135 42.8381 12.135C42.1081 12.135 41.4481 11.955 40.8581 11.595C40.2681 11.235 39.8031 10.73 39.4631 10.08C39.1231 9.43 38.9531 8.69 38.9531 7.86ZM45.9131 7.875C45.9131 7.255 45.7881 6.715 45.5381 6.255C45.2881 5.795 44.9481 5.445 44.5181 5.205C44.0981 4.955 43.6331 4.83 43.1231 4.83C42.6131 4.83 42.1481 4.95 41.7281 5.19C41.3081 5.43 40.9731 5.78 40.7231 6.24C40.4731 6.7 40.3481 7.24 40.3481 7.86C40.3481 8.49 40.4731 9.04 40.7231 9.51C40.9731 9.97 41.3081 10.325 41.7281 10.575C42.1481 10.815 42.6131 10.935 43.1231 10.935C43.6331 10.935 44.0981 10.815 44.5181 10.575C44.9481 10.325 45.2881 9.97 45.5381 9.51C45.7881 9.04 45.9131 8.495 45.9131 7.875ZM52.9898 3.645C53.6998 3.645 54.3198 3.8 54.8498 4.11C55.3898 4.42 55.7898 4.81 56.0498 5.28V3.78H57.4298V12.18C57.4298 12.93 57.2698 13.595 56.9498 14.175C56.6298 14.765 56.1698 15.225 55.5698 15.555C54.9798 15.885 54.2898 16.05 53.4998 16.05C52.4198 16.05 51.5198 15.795 50.7998 15.285C50.0798 14.775 49.6548 14.08 49.5248 13.2H50.8748C51.0248 13.7 51.3348 14.1 51.8048 14.4C52.2748 14.71 52.8398 14.865 53.4998 14.865C54.2498 14.865 54.8598 14.63 55.3298 14.16C55.8098 13.69 56.0498 13.03 56.0498 12.18V10.455C55.7798 10.935 55.3798 11.335 54.8498 11.655C54.3198 11.975 53.6998 12.135 52.9898 12.135C52.2598 12.135 51.5948 11.955 50.9948 11.595C50.4048 11.235 49.9398 10.73 49.5998 10.08C49.2598 9.43 49.0898 8.69 49.0898 7.86C49.0898 7.02 49.2598 6.285 49.5998 5.655C49.9398 5.015 50.4048 4.52 50.9948 4.17C51.5948 3.82 52.2598 3.645 52.9898 3.645ZM56.0498 7.875C56.0498 7.255 55.9248 6.715 55.6748 6.255C55.4248 5.795 55.0848 5.445 54.6548 5.205C54.2348 4.955 53.7698 4.83 53.2598 4.83C52.7498 4.83 52.2848 4.95 51.8648 5.19C51.4448 5.43 51.1098 5.78 50.8598 6.24C50.6098 6.7 50.4848 7.24 50.4848 7.86C50.4848 8.49 50.6098 9.04 50.8598 9.51C51.1098 9.97 51.4448 10.325 51.8648 10.575C52.2848 10.815 52.7498 10.935 53.2598 10.935C53.7698 10.935 54.2348 10.815 54.6548 10.575C55.0848 10.325 55.4248 9.97 55.6748 9.51C55.9248 9.04 56.0498 8.495 56.0498 7.875ZM67.2365 7.575C67.2365 7.835 67.2215 8.11 67.1915 8.4H60.6215C60.6715 9.21 60.9465 9.845 61.4465 10.305C61.9565 10.755 62.5715 10.98 63.2915 10.98C63.8815 10.98 64.3715 10.845 64.7615 10.575C65.1615 10.295 65.4415 9.925 65.6015 9.465H67.0715C66.8515 10.255 66.4115 10.9 65.7515 11.4C65.0915 11.89 64.2715 12.135 63.2915 12.135C62.5115 12.135 61.8115 11.96 61.1915 11.61C60.5815 11.26 60.1015 10.765 59.7515 10.125C59.4015 9.475 59.2265 8.725 59.2265 7.875C59.2265 7.025 59.3965 6.28 59.7365 5.64C60.0765 5 60.5515 4.51 61.1615 4.17C61.7815 3.82 62.4915 3.645 63.2915 3.645C64.0715 3.645 64.7615 3.815 65.3615 4.155C65.9615 4.495 66.4215 4.965 66.7415 5.565C67.0715 6.155 67.2365 6.825 67.2365 7.575ZM65.8265 7.29C65.8265 6.77 65.7115 6.325 65.4815 5.955C65.2515 5.575 64.9365 5.29 64.5365 5.1C64.1465 4.9 63.7115 4.8 63.2315 4.8C62.5415 4.8 61.9515 5.02 61.4615 5.46C60.9815 5.9 60.7065 6.51 60.6365 7.29H65.8265ZM80.1173 3.78L75.1673 15.87H73.7573L75.3773 11.91L72.0623 3.78H73.5773L76.1573 10.44L78.7073 3.78H80.1173ZM85.0745 12.135C84.3045 12.135 83.6045 11.96 82.9745 11.61C82.3545 11.26 81.8645 10.765 81.5045 10.125C81.1545 9.475 80.9795 8.725 80.9795 7.875C80.9795 7.035 81.1595 6.295 81.5195 5.655C81.8895 5.005 82.3895 4.51 83.0195 4.17C83.6495 3.82 84.3545 3.645 85.1345 3.645C85.9145 3.645 86.6195 3.82 87.2495 4.17C87.8795 4.51 88.3745 5 88.7345 5.64C89.1045 6.28 89.2895 7.025 89.2895 7.875C89.2895 8.725 89.0995 9.475 88.7195 10.125C88.3495 10.765 87.8445 11.26 87.2045 11.61C86.5645 11.96 85.8545 12.135 85.0745 12.135ZM85.0745 10.935C85.5645 10.935 86.0245 10.82 86.4545 10.59C86.8845 10.36 87.2295 10.015 87.4895 9.555C87.7595 9.095 87.8945 8.535 87.8945 7.875C87.8945 7.215 87.7645 6.655 87.5045 6.195C87.2445 5.735 86.9045 5.395 86.4845 5.175C86.0645 4.945 85.6095 4.83 85.1195 4.83C84.6195 4.83 84.1595 4.945 83.7395 5.175C83.3295 5.395 82.9995 5.735 82.7495 6.195C82.4995 6.655 82.3745 7.215 82.3745 7.875C82.3745 8.545 82.4945 9.11 82.7345 9.57C82.9845 10.03 83.3145 10.375 83.7245 10.605C84.1345 10.825 84.5845 10.935 85.0745 10.935ZM98.3742 3.78V12H97.0092V10.785C96.7492 11.205 96.3842 11.535 95.9142 11.775C95.4542 12.005 94.9442 12.12 94.3842 12.12C93.7442 12.12 93.1692 11.99 92.6592 11.73C92.1492 11.46 91.7442 11.06 91.4442 10.53C91.1542 10 91.0092 9.355 91.0092 8.595V3.78H92.3592V8.415C92.3592 9.225 92.5642 9.85 92.9742 10.29C93.3842 10.72 93.9442 10.935 94.6542 10.935C95.3842 10.935 95.9592 10.71 96.3792 10.26C96.7992 9.81 97.0092 9.155 97.0092 8.295V3.78H98.3742ZM102.044 5.115C102.284 4.645 102.624 4.28 103.064 4.02C103.514 3.76 104.059 3.63 104.699 3.63V5.04H104.339C102.809 5.04 102.044 5.87 102.044 7.53V12H100.679V3.78H102.044V5.115ZM109.185 12.135C108.555 12.135 107.99 12.03 107.49 11.82C106.99 11.6 106.595 11.3 106.305 10.92C106.015 10.53 105.855 10.085 105.825 9.585H107.235C107.275 9.995 107.465 10.33 107.805 10.59C108.155 10.85 108.61 10.98 109.17 10.98C109.69 10.98 110.1 10.865 110.4 10.635C110.7 10.405 110.85 10.115 110.85 9.765C110.85 9.405 110.69 9.14 110.37 8.97C110.05 8.79 109.555 8.615 108.885 8.445C108.275 8.285 107.775 8.125 107.385 7.965C107.005 7.795 106.675 7.55 106.395 7.23C106.125 6.9 105.99 6.47 105.99 5.94C105.99 5.52 106.115 5.135 106.365 4.785C106.615 4.435 106.97 4.16 107.43 3.96C107.89 3.75 108.415 3.645 109.005 3.645C109.915 3.645 110.65 3.875 111.21 4.335C111.77 4.795 112.07 5.425 112.11 6.225H110.745C110.715 5.795 110.54 5.45 110.22 5.19C109.91 4.93 109.49 4.8 108.96 4.8C108.47 4.8 108.08 4.905 107.79 5.115C107.5 5.325 107.355 5.6 107.355 5.94C107.355 6.21 107.44 6.435 107.61 6.615C107.79 6.785 108.01 6.925 108.27 7.035C108.54 7.135 108.91 7.25 109.38 7.38C109.97 7.54 110.45 7.7 110.82 7.86C111.19 8.01 111.505 8.24 111.765 8.55C112.035 8.86 112.175 9.265 112.185 9.765C112.185 10.215 112.06 10.62 111.81 10.98C111.56 11.34 111.205 11.625 110.745 11.835C110.295 12.035 109.775 12.135 109.185 12.135ZM121.612 7.575C121.612 7.835 121.597 8.11 121.567 8.4H114.997C115.047 9.21 115.322 9.845 115.822 10.305C116.332 10.755 116.947 10.98 117.667 10.98C118.257 10.98 118.747 10.845 119.137 10.575C119.537 10.295 119.817 9.925 119.977 9.465H121.447C121.227 10.255 120.787 10.9 120.127 11.4C119.467 11.89 118.647 12.135 117.667 12.135C116.887 12.135 116.187 11.96 115.567 11.61C114.957 11.26 114.477 10.765 114.127 10.125C113.777 9.475 113.602 8.725 113.602 7.875C113.602 7.025 113.772 6.28 114.112 5.64C114.452 5 114.927 4.51 115.537 4.17C116.157 3.82 116.867 3.645 117.667 3.645C118.447 3.645 119.137 3.815 119.737 4.155C120.337 4.495 120.797 4.965 121.117 5.565C121.447 6.155 121.612 6.825 121.612 7.575ZM120.202 7.29C120.202 6.77 120.087 6.325 119.857 5.955C119.627 5.575 119.312 5.29 118.912 5.1C118.522 4.9 118.087 4.8 117.607 4.8C116.917 4.8 116.327 5.02 115.837 5.46C115.357 5.9 115.082 6.51 115.012 7.29H120.202ZM124.778 0.9V12H123.413V0.9H124.778ZM130.45 4.905H128.725V12H127.36V4.905H126.295V3.78H127.36V3.195C127.36 2.275 127.595 1.605 128.065 1.185C128.545 0.754999 129.31 0.539999 130.36 0.539999V1.68C129.76 1.68 129.335 1.8 129.085 2.04C128.845 2.27 128.725 2.655 128.725 3.195V3.78H130.45V4.905ZM136.745 2.445C136.485 2.445 136.265 2.355 136.085 2.175C135.905 1.995 135.815 1.775 135.815 1.515C135.815 1.255 135.905 1.035 136.085 0.855C136.265 0.674999 136.485 0.584999 136.745 0.584999C136.995 0.584999 137.205 0.674999 137.375 0.855C137.555 1.035 137.645 1.255 137.645 1.515C137.645 1.775 137.555 1.995 137.375 2.175C137.205 2.355 136.995 2.445 136.745 2.445ZM137.405 3.78V12H136.04V3.78H137.405ZM143.737 3.63C144.737 3.63 145.547 3.935 146.167 4.545C146.787 5.145 147.097 6.015 147.097 7.155V12H145.747V7.35C145.747 6.53 145.542 5.905 145.132 5.475C144.722 5.035 144.162 4.815 143.452 4.815C142.732 4.815 142.157 5.04 141.727 5.49C141.307 5.94 141.097 6.595 141.097 7.455V12H139.732V3.78H141.097V4.95C141.367 4.53 141.732 4.205 142.192 3.975C142.662 3.745 143.177 3.63 143.737 3.63ZM154.99 4.905V9.75C154.99 10.15 155.075 10.435 155.245 10.605C155.415 10.765 155.71 10.845 156.13 10.845H157.135V12H155.905C155.145 12 154.575 11.825 154.195 11.475C153.815 11.125 153.625 10.55 153.625 9.75V4.905H152.56V3.78H153.625V1.71H154.99V3.78H157.135V4.905H154.99ZM162.869 3.63C163.489 3.63 164.049 3.765 164.549 4.035C165.049 4.295 165.439 4.69 165.719 5.22C166.009 5.75 166.154 6.395 166.154 7.155V12H164.804V7.35C164.804 6.53 164.599 5.905 164.189 5.475C163.779 5.035 163.219 4.815 162.509 4.815C161.789 4.815 161.214 5.04 160.784 5.49C160.364 5.94 160.154 6.595 160.154 7.455V12H158.789V0.9H160.154V4.95C160.424 4.53 160.794 4.205 161.264 3.975C161.744 3.745 162.279 3.63 162.869 3.63ZM175.884 7.575C175.884 7.835 175.869 8.11 175.839 8.4H169.269C169.319 9.21 169.594 9.845 170.094 10.305C170.604 10.755 171.219 10.98 171.939 10.98C172.529 10.98 173.019 10.845 173.409 10.575C173.809 10.295 174.089 9.925 174.249 9.465H175.719C175.499 10.255 175.059 10.9 174.399 11.4C173.739 11.89 172.919 12.135 171.939 12.135C171.159 12.135 170.459 11.96 169.839 11.61C169.229 11.26 168.749 10.765 168.399 10.125C168.049 9.475 167.874 8.725 167.874 7.875C167.874 7.025 168.044 6.28 168.384 5.64C168.724 5 169.199 4.51 169.809 4.17C170.429 3.82 171.139 3.645 171.939 3.645C172.719 3.645 173.409 3.815 174.009 4.155C174.609 4.495 175.069 4.965 175.389 5.565C175.719 6.155 175.884 6.825 175.884 7.575ZM174.474 7.29C174.474 6.77 174.359 6.325 174.129 5.955C173.899 5.575 173.584 5.29 173.184 5.1C172.794 4.9 172.359 4.8 171.879 4.8C171.189 4.8 170.599 5.02 170.109 5.46C169.629 5.9 169.354 6.51 169.284 7.29H174.474ZM192.635 3.78L190.07 12H188.66L186.68 5.475L184.7 12H183.29L180.71 3.78H182.105L183.995 10.68L186.035 3.78H187.43L189.425 10.695L191.285 3.78H192.635ZM197.574 12.135C196.804 12.135 196.104 11.96 195.474 11.61C194.854 11.26 194.364 10.765 194.004 10.125C193.654 9.475 193.479 8.725 193.479 7.875C193.479 7.035 193.659 6.295 194.019 5.655C194.389 5.005 194.889 4.51 195.519 4.17C196.149 3.82 196.854 3.645 197.634 3.645C198.414 3.645 199.119 3.82 199.749 4.17C200.379 4.51 200.874 5 201.234 5.64C201.604 6.28 201.789 7.025 201.789 7.875C201.789 8.725 201.599 9.475 201.219 10.125C200.849 10.765 200.344 11.26 199.704 11.61C199.064 11.96 198.354 12.135 197.574 12.135ZM197.574 10.935C198.064 10.935 198.524 10.82 198.954 10.59C199.384 10.36 199.729 10.015 199.989 9.555C200.259 9.095 200.394 8.535 200.394 7.875C200.394 7.215 200.264 6.655 200.004 6.195C199.744 5.735 199.404 5.395 198.984 5.175C198.564 4.945 198.109 4.83 197.619 4.83C197.119 4.83 196.659 4.945 196.239 5.175C195.829 5.395 195.499 5.735 195.249 6.195C194.999 6.655 194.874 7.215 194.874 7.875C194.874 8.545 194.994 9.11 195.234 9.57C195.484 10.03 195.814 10.375 196.224 10.605C196.634 10.825 197.084 10.935 197.574 10.935ZM204.949 5.115C205.189 4.645 205.529 4.28 205.969 4.02C206.419 3.76 206.964 3.63 207.604 3.63V5.04H207.244C205.714 5.04 204.949 5.87 204.949 7.53V12H203.584V3.78H204.949V5.115ZM210.545 0.9V12H209.18V0.9H210.545ZM212.361 7.86C212.361 7.02 212.531 6.285 212.871 5.655C213.211 5.015 213.676 4.52 214.266 4.17C214.866 3.82 215.536 3.645 216.276 3.645C216.916 3.645 217.511 3.795 218.061 4.095C218.611 4.385 219.031 4.77 219.321 5.25V0.9H220.701V12H219.321V10.455C219.051 10.945 218.651 11.35 218.121 11.67C217.591 11.98 216.971 12.135 216.261 12.135C215.531 12.135 214.866 11.955 214.266 11.595C213.676 11.235 213.211 10.73 212.871 10.08C212.531 9.43 212.361 8.69 212.361 7.86ZM219.321 7.875C219.321 7.255 219.196 6.715 218.946 6.255C218.696 5.795 218.356 5.445 217.926 5.205C217.506 4.955 217.041 4.83 216.531 4.83C216.021 4.83 215.556 4.95 215.136 5.19C214.716 5.43 214.381 5.78 214.131 6.24C213.881 6.7 213.756 7.24 213.756 7.86C213.756 8.49 213.881 9.04 214.131 9.51C214.381 9.97 214.716 10.325 215.136 10.575C215.556 10.815 216.021 10.935 216.531 10.935C217.041 10.935 217.506 10.815 217.926 10.575C218.356 10.325 218.696 9.97 218.946 9.51C219.196 9.04 219.321 8.495 219.321 7.875ZM230.592 12.135C229.822 12.135 229.122 11.96 228.492 11.61C227.872 11.26 227.382 10.765 227.022 10.125C226.672 9.475 226.497 8.725 226.497 7.875C226.497 7.035 226.677 6.295 227.037 5.655C227.407 5.005 227.907 4.51 228.537 4.17C229.167 3.82 229.872 3.645 230.652 3.645C231.432 3.645 232.137 3.82 232.767 4.17C233.397 4.51 233.892 5 234.252 5.64C234.622 6.28 234.807 7.025 234.807 7.875C234.807 8.725 234.617 9.475 234.237 10.125C233.867 10.765 233.362 11.26 232.722 11.61C232.082 11.96 231.372 12.135 230.592 12.135ZM230.592 10.935C231.082 10.935 231.542 10.82 231.972 10.59C232.402 10.36 232.747 10.015 233.007 9.555C233.277 9.095 233.412 8.535 233.412 7.875C233.412 7.215 233.282 6.655 233.022 6.195C232.762 5.735 232.422 5.395 232.002 5.175C231.582 4.945 231.127 4.83 230.637 4.83C230.137 4.83 229.677 4.945 229.257 5.175C228.847 5.395 228.517 5.735 228.267 6.195C228.017 6.655 227.892 7.215 227.892 7.875C227.892 8.545 228.012 9.11 228.252 9.57C228.502 10.03 228.832 10.375 229.242 10.605C229.652 10.825 230.102 10.935 230.592 10.935ZM239.947 4.905H238.222V12H236.857V4.905H235.792V3.78H236.857V3.195C236.857 2.275 237.092 1.605 237.562 1.185C238.042 0.754999 238.807 0.539999 239.857 0.539999V1.68C239.257 1.68 238.832 1.8 238.582 2.04C238.342 2.27 238.222 2.655 238.222 3.195V3.78H239.947V4.905ZM245.027 7.86C245.027 7.02 245.197 6.285 245.537 5.655C245.877 5.015 246.342 4.52 246.932 4.17C247.532 3.82 248.202 3.645 248.942 3.645C249.582 3.645 250.177 3.795 250.727 4.095C251.277 4.385 251.697 4.77 251.987 5.25V0.9H253.367V12H251.987V10.455C251.717 10.945 251.317 11.35 250.787 11.67C250.257 11.98 249.637 12.135 248.927 12.135C248.197 12.135 247.532 11.955 246.932 11.595C246.342 11.235 245.877 10.73 245.537 10.08C245.197 9.43 245.027 8.69 245.027 7.86ZM251.987 7.875C251.987 7.255 251.862 6.715 251.612 6.255C251.362 5.795 251.022 5.445 250.592 5.205C250.172 4.955 249.707 4.83 249.197 4.83C248.687 4.83 248.222 4.95 247.802 5.19C247.382 5.43 247.047 5.78 246.797 6.24C246.547 6.7 246.422 7.24 246.422 7.86C246.422 8.49 246.547 9.04 246.797 9.51C247.047 9.97 247.382 10.325 247.802 10.575C248.222 10.815 248.687 10.935 249.197 10.935C249.707 10.935 250.172 10.815 250.592 10.575C251.022 10.325 251.362 9.97 251.612 9.51C251.862 9.04 251.987 8.495 251.987 7.875ZM256.379 2.445C256.119 2.445 255.899 2.355 255.719 2.175C255.539 1.995 255.449 1.775 255.449 1.515C255.449 1.255 255.539 1.035 255.719 0.855C255.899 0.674999 256.119 0.584999 256.379 0.584999C256.629 0.584999 256.839 0.674999 257.009 0.855C257.189 1.035 257.279 1.255 257.279 1.515C257.279 1.775 257.189 1.995 257.009 2.175C256.839 2.355 256.629 2.445 256.379 2.445ZM257.039 3.78V12H255.674V3.78H257.039ZM262.755 3.645C263.465 3.645 264.085 3.8 264.615 4.11C265.155 4.42 265.555 4.81 265.815 5.28V3.78H267.195V12.18C267.195 12.93 267.035 13.595 266.715 14.175C266.395 14.765 265.935 15.225 265.335 15.555C264.745 15.885 264.055 16.05 263.265 16.05C262.185 16.05 261.285 15.795 260.565 15.285C259.845 14.775 259.42 14.08 259.29 13.2H260.64C260.79 13.7 261.1 14.1 261.57 14.4C262.04 14.71 262.605 14.865 263.265 14.865C264.015 14.865 264.625 14.63 265.095 14.16C265.575 13.69 265.815 13.03 265.815 12.18V10.455C265.545 10.935 265.145 11.335 264.615 11.655C264.085 11.975 263.465 12.135 262.755 12.135C262.025 12.135 261.36 11.955 260.76 11.595C260.17 11.235 259.705 10.73 259.365 10.08C259.025 9.43 258.855 8.69 258.855 7.86C258.855 7.02 259.025 6.285 259.365 5.655C259.705 5.015 260.17 4.52 260.76 4.17C261.36 3.82 262.025 3.645 262.755 3.645ZM265.815 7.875C265.815 7.255 265.69 6.715 265.44 6.255C265.19 5.795 264.85 5.445 264.42 5.205C264 4.955 263.535 4.83 263.025 4.83C262.515 4.83 262.05 4.95 261.63 5.19C261.21 5.43 260.875 5.78 260.625 6.24C260.375 6.7 260.25 7.24 260.25 7.86C260.25 8.49 260.375 9.04 260.625 9.51C260.875 9.97 261.21 10.325 261.63 10.575C262.05 10.815 262.515 10.935 263.025 10.935C263.535 10.935 264 10.815 264.42 10.575C264.85 10.325 265.19 9.97 265.44 9.51C265.69 9.04 265.815 8.495 265.815 7.875ZM270.207 2.445C269.947 2.445 269.727 2.355 269.547 2.175C269.367 1.995 269.277 1.775 269.277 1.515C269.277 1.255 269.367 1.035 269.547 0.855C269.727 0.674999 269.947 0.584999 270.207 0.584999C270.457 0.584999 270.667 0.674999 270.837 0.855C271.017 1.035 271.107 1.255 271.107 1.515C271.107 1.775 271.017 1.995 270.837 2.175C270.667 2.355 270.457 2.445 270.207 2.445ZM270.867 3.78V12H269.502V3.78H270.867ZM274.859 4.905V9.75C274.859 10.15 274.944 10.435 275.114 10.605C275.284 10.765 275.579 10.845 275.999 10.845H277.004V12H275.774C275.014 12 274.444 11.825 274.064 11.475C273.684 11.125 273.494 10.55 273.494 9.75V4.905H272.429V3.78H273.494V1.71H274.859V3.78H277.004V4.905H274.859ZM278.147 7.86C278.147 7.02 278.317 6.285 278.657 5.655C278.997 5.015 279.462 4.52 280.052 4.17C280.652 3.82 281.317 3.645 282.047 3.645C282.767 3.645 283.392 3.8 283.922 4.11C284.452 4.42 284.847 4.81 285.107 5.28V3.78H286.487V12H285.107V10.47C284.837 10.95 284.432 11.35 283.892 11.67C283.362 11.98 282.742 12.135 282.032 12.135C281.302 12.135 280.642 11.955 280.052 11.595C279.462 11.235 278.997 10.73 278.657 10.08C278.317 9.43 278.147 8.69 278.147 7.86ZM285.107 7.875C285.107 7.255 284.982 6.715 284.732 6.255C284.482 5.795 284.142 5.445 283.712 5.205C283.292 4.955 282.827 4.83 282.317 4.83C281.807 4.83 281.342 4.95 280.922 5.19C280.502 5.43 280.167 5.78 279.917 6.24C279.667 6.7 279.542 7.24 279.542 7.86C279.542 8.49 279.667 9.04 279.917 9.51C280.167 9.97 280.502 10.325 280.922 10.575C281.342 10.815 281.807 10.935 282.317 10.935C282.827 10.935 283.292 10.815 283.712 10.575C284.142 10.325 284.482 9.97 284.732 9.51C284.982 9.04 285.107 8.495 285.107 7.875ZM290.159 0.9V12H288.794V0.9H290.159ZM297.85 0.9V12H296.485V0.9H297.85ZM300.881 2.445C300.621 2.445 300.401 2.355 300.221 2.175C300.041 1.995 299.951 1.775 299.951 1.515C299.951 1.255 300.041 1.035 300.221 0.855C300.401 0.674999 300.621 0.584999 300.881 0.584999C301.131 0.584999 301.341 0.674999 301.511 0.855C301.691 1.035 301.781 1.255 301.781 1.515C301.781 1.775 301.691 1.995 301.511 2.175C301.341 2.355 301.131 2.445 300.881 2.445ZM301.541 3.78V12H300.176V3.78H301.541ZM305.532 4.905V9.75C305.532 10.15 305.617 10.435 305.787 10.605C305.957 10.765 306.252 10.845 306.672 10.845H307.677V12H306.447C305.687 12 305.117 11.825 304.737 11.475C304.357 11.125 304.167 10.55 304.167 9.75V4.905H303.102V3.78H304.167V1.71H305.532V3.78H307.677V4.905H305.532ZM316.831 7.575C316.831 7.835 316.816 8.11 316.786 8.4H310.216C310.266 9.21 310.541 9.845 311.041 10.305C311.551 10.755 312.166 10.98 312.886 10.98C313.476 10.98 313.966 10.845 314.356 10.575C314.756 10.295 315.036 9.925 315.196 9.465H316.666C316.446 10.255 316.006 10.9 315.346 11.4C314.686 11.89 313.866 12.135 312.886 12.135C312.106 12.135 311.406 11.96 310.786 11.61C310.176 11.26 309.696 10.765 309.346 10.125C308.996 9.475 308.821 8.725 308.821 7.875C308.821 7.025 308.991 6.28 309.331 5.64C309.671 5 310.146 4.51 310.756 4.17C311.376 3.82 312.086 3.645 312.886 3.645C313.666 3.645 314.356 3.815 314.956 4.155C315.556 4.495 316.016 4.965 316.336 5.565C316.666 6.155 316.831 6.825 316.831 7.575ZM315.421 7.29C315.421 6.77 315.306 6.325 315.076 5.955C314.846 5.575 314.531 5.29 314.131 5.1C313.741 4.9 313.306 4.8 312.826 4.8C312.136 4.8 311.546 5.02 311.056 5.46C310.576 5.9 310.301 6.51 310.231 7.29H315.421ZM319.998 5.115C320.238 4.645 320.578 4.28 321.018 4.02C321.468 3.76 322.013 3.63 322.653 3.63V5.04H322.293C320.763 5.04 319.998 5.87 319.998 7.53V12H318.633V3.78H319.998V5.115ZM323.719 7.86C323.719 7.02 323.889 6.285 324.229 5.655C324.569 5.015 325.034 4.52 325.624 4.17C326.224 3.82 326.889 3.645 327.619 3.645C328.339 3.645 328.964 3.8 329.494 4.11C330.024 4.42 330.419 4.81 330.679 5.28V3.78H332.059V12H330.679V10.47C330.409 10.95 330.004 11.35 329.464 11.67C328.934 11.98 328.314 12.135 327.604 12.135C326.874 12.135 326.214 11.955 325.624 11.595C325.034 11.235 324.569 10.73 324.229 10.08C323.889 9.43 323.719 8.69 323.719 7.86ZM330.679 7.875C330.679 7.255 330.554 6.715 330.304 6.255C330.054 5.795 329.714 5.445 329.284 5.205C328.864 4.955 328.399 4.83 327.889 4.83C327.379 4.83 326.914 4.95 326.494 5.19C326.074 5.43 325.739 5.78 325.489 6.24C325.239 6.7 325.114 7.24 325.114 7.86C325.114 8.49 325.239 9.04 325.489 9.51C325.739 9.97 326.074 10.325 326.494 10.575C326.914 10.815 327.379 10.935 327.889 10.935C328.399 10.935 328.864 10.815 329.284 10.575C329.714 10.325 330.054 9.97 330.304 9.51C330.554 9.04 330.679 8.495 330.679 7.875ZM333.855 7.875C333.855 7.025 334.025 6.285 334.365 5.655C334.705 5.015 335.175 4.52 335.775 4.17C336.385 3.82 337.08 3.645 337.86 3.645C338.87 3.645 339.7 3.89 340.35 4.38C341.01 4.87 341.445 5.55 341.655 6.42H340.185C340.045 5.92 339.77 5.525 339.36 5.235C338.96 4.945 338.46 4.8 337.86 4.8C337.08 4.8 336.45 5.07 335.97 5.61C335.49 6.14 335.25 6.895 335.25 7.875C335.25 8.865 335.49 9.63 335.97 10.17C336.45 10.71 337.08 10.98 337.86 10.98C338.46 10.98 338.96 10.84 339.36 10.56C339.76 10.28 340.035 9.88 340.185 9.36H341.655C341.435 10.2 340.995 10.875 340.335 11.385C339.675 11.885 338.85 12.135 337.86 12.135C337.08 12.135 336.385 11.96 335.775 11.61C335.175 11.26 334.705 10.765 334.365 10.125C334.025 9.485 333.855 8.735 333.855 7.875ZM350.557 3.78L345.607 15.87H344.197L345.817 11.91L342.502 3.78H344.017L346.597 10.44L349.147 3.78H350.557ZM20.9502 30.86C20.9502 30.02 21.1202 29.285 21.4602 28.655C21.8002 28.015 22.2652 27.52 22.8552 27.17C23.4552 26.82 24.1202 26.645 24.8502 26.645C25.5702 26.645 26.1952 26.8 26.7252 27.11C27.2552 27.42 27.6502 27.81 27.9102 28.28V26.78H29.2902V35H27.9102V33.47C27.6402 33.95 27.2352 34.35 26.6952 34.67C26.1652 34.98 25.5452 35.135 24.8352 35.135C24.1052 35.135 23.4452 34.955 22.8552 34.595C22.2652 34.235 21.8002 33.73 21.4602 33.08C21.1202 32.43 20.9502 31.69 20.9502 30.86ZM27.9102 30.875C27.9102 30.255 27.7852 29.715 27.5352 29.255C27.2852 28.795 26.9452 28.445 26.5152 28.205C26.0952 27.955 25.6302 27.83 25.1202 27.83C24.6102 27.83 24.1452 27.95 23.7252 28.19C23.3052 28.43 22.9702 28.78 22.7202 29.24C22.4702 29.7 22.3452 30.24 22.3452 30.86C22.3452 31.49 22.4702 32.04 22.7202 32.51C22.9702 32.97 23.3052 33.325 23.7252 33.575C24.1452 33.815 24.6102 33.935 25.1202 33.935C25.6302 33.935 26.0952 33.815 26.5152 33.575C26.9452 33.325 27.2852 32.97 27.5352 32.51C27.7852 32.04 27.9102 31.495 27.9102 30.875ZM35.6019 26.63C36.6019 26.63 37.4119 26.935 38.0319 27.545C38.6519 28.145 38.9619 29.015 38.9619 30.155V35H37.6119V30.35C37.6119 29.53 37.4069 28.905 36.9969 28.475C36.5869 28.035 36.0269 27.815 35.3169 27.815C34.5969 27.815 34.0219 28.04 33.5919 28.49C33.1719 28.94 32.9619 29.595 32.9619 30.455V35H31.5969V26.78H32.9619V27.95C33.2319 27.53 33.5969 27.205 34.0569 26.975C34.5269 26.745 35.0419 26.63 35.6019 26.63ZM40.6816 30.86C40.6816 30.02 40.8516 29.285 41.1916 28.655C41.5316 28.015 41.9966 27.52 42.5866 27.17C43.1866 26.82 43.8566 26.645 44.5966 26.645C45.2366 26.645 45.8316 26.795 46.3816 27.095C46.9316 27.385 47.3516 27.77 47.6416 28.25V23.9H49.0216V35H47.6416V33.455C47.3716 33.945 46.9716 34.35 46.4416 34.67C45.9116 34.98 45.2916 35.135 44.5816 35.135C43.8516 35.135 43.1866 34.955 42.5866 34.595C41.9966 34.235 41.5316 33.73 41.1916 33.08C40.8516 32.43 40.6816 31.69 40.6816 30.86ZM47.6416 30.875C47.6416 30.255 47.5166 29.715 47.2666 29.255C47.0166 28.795 46.6766 28.445 46.2466 28.205C45.8266 27.955 45.3616 27.83 44.8516 27.83C44.3416 27.83 43.8766 27.95 43.4566 28.19C43.0366 28.43 42.7016 28.78 42.4516 29.24C42.2016 29.7 42.0766 30.24 42.0766 30.86C42.0766 31.49 42.2016 32.04 42.4516 32.51C42.7016 32.97 43.0366 33.325 43.4566 33.575C43.8766 33.815 44.3416 33.935 44.8516 33.935C45.3616 33.935 45.8266 33.815 46.2466 33.575C46.6766 33.325 47.0166 32.97 47.2666 32.51C47.5166 32.04 47.6416 31.495 47.6416 30.875ZM62.8274 30.575C62.8274 30.835 62.8124 31.11 62.7824 31.4H56.2124C56.2624 32.21 56.5374 32.845 57.0374 33.305C57.5474 33.755 58.1624 33.98 58.8824 33.98C59.4724 33.98 59.9624 33.845 60.3524 33.575C60.7524 33.295 61.0324 32.925 61.1924 32.465H62.6624C62.4424 33.255 62.0024 33.9 61.3424 34.4C60.6824 34.89 59.8624 35.135 58.8824 35.135C58.1024 35.135 57.4024 34.96 56.7824 34.61C56.1724 34.26 55.6924 33.765 55.3424 33.125C54.9924 32.475 54.8174 31.725 54.8174 30.875C54.8174 30.025 54.9874 29.28 55.3274 28.64C55.6674 28 56.1424 27.51 56.7524 27.17C57.3724 26.82 58.0824 26.645 58.8824 26.645C59.6624 26.645 60.3524 26.815 60.9524 27.155C61.5524 27.495 62.0124 27.965 62.3324 28.565C62.6624 29.155 62.8274 29.825 62.8274 30.575ZM61.4174 30.29C61.4174 29.77 61.3024 29.325 61.0724 28.955C60.8424 28.575 60.5274 28.29 60.1274 28.1C59.7374 27.9 59.3024 27.8 58.8224 27.8C58.1324 27.8 57.5424 28.02 57.0524 28.46C56.5724 28.9 56.2974 29.51 56.2274 30.29H61.4174ZM68.6341 26.63C69.6341 26.63 70.4441 26.935 71.0641 27.545C71.6841 28.145 71.9941 29.015 71.9941 30.155V35H70.6441V30.35C70.6441 29.53 70.4391 28.905 70.0291 28.475C69.6191 28.035 69.0591 27.815 68.3491 27.815C67.6291 27.815 67.0541 28.04 66.6241 28.49C66.2041 28.94 65.9941 29.595 65.9941 30.455V35H64.6291V26.78H65.9941V27.95C66.2641 27.53 66.6291 27.205 67.0891 26.975C67.5591 26.745 68.0741 26.63 68.6341 26.63ZM78.3038 26.63C78.9238 26.63 79.4838 26.765 79.9838 27.035C80.4838 27.295 80.8738 27.69 81.1538 28.22C81.4438 28.75 81.5888 29.395 81.5888 30.155V35H80.2388V30.35C80.2388 29.53 80.0338 28.905 79.6238 28.475C79.2138 28.035 78.6538 27.815 77.9438 27.815C77.2238 27.815 76.6488 28.04 76.2188 28.49C75.7988 28.94 75.5888 29.595 75.5888 30.455V35H74.2238V23.9H75.5888V27.95C75.8588 27.53 76.2288 27.205 76.6988 26.975C77.1788 26.745 77.7138 26.63 78.3038 26.63ZM83.3086 30.86C83.3086 30.02 83.4786 29.285 83.8186 28.655C84.1586 28.015 84.6236 27.52 85.2136 27.17C85.8136 26.82 86.4786 26.645 87.2086 26.645C87.9286 26.645 88.5536 26.8 89.0836 27.11C89.6136 27.42 90.0086 27.81 90.2686 28.28V26.78H91.6486V35H90.2686V33.47C89.9986 33.95 89.5936 34.35 89.0536 34.67C88.5236 34.98 87.9036 35.135 87.1936 35.135C86.4636 35.135 85.8036 34.955 85.2136 34.595C84.6236 34.235 84.1586 33.73 83.8186 33.08C83.4786 32.43 83.3086 31.69 83.3086 30.86ZM90.2686 30.875C90.2686 30.255 90.1436 29.715 89.8936 29.255C89.6436 28.795 89.3036 28.445 88.8736 28.205C88.4536 27.955 87.9886 27.83 87.4786 27.83C86.9686 27.83 86.5036 27.95 86.0836 28.19C85.6636 28.43 85.3286 28.78 85.0786 29.24C84.8286 29.7 84.7036 30.24 84.7036 30.86C84.7036 31.49 84.8286 32.04 85.0786 32.51C85.3286 32.97 85.6636 33.325 86.0836 33.575C86.5036 33.815 86.9686 33.935 87.4786 33.935C87.9886 33.935 88.4536 33.815 88.8736 33.575C89.3036 33.325 89.6436 32.97 89.8936 32.51C90.1436 32.04 90.2686 31.495 90.2686 30.875ZM97.9603 26.63C98.9603 26.63 99.7703 26.935 100.39 27.545C101.01 28.145 101.32 29.015 101.32 30.155V35H99.9703V30.35C99.9703 29.53 99.7653 28.905 99.3553 28.475C98.9453 28.035 98.3853 27.815 97.6753 27.815C96.9553 27.815 96.3803 28.04 95.9503 28.49C95.5303 28.94 95.3203 29.595 95.3203 30.455V35H93.9553V26.78H95.3203V27.95C95.5903 27.53 95.9553 27.205 96.4153 26.975C96.8853 26.745 97.4003 26.63 97.9603 26.63ZM103.04 30.875C103.04 30.025 103.21 29.285 103.55 28.655C103.89 28.015 104.36 27.52 104.96 27.17C105.57 26.82 106.265 26.645 107.045 26.645C108.055 26.645 108.885 26.89 109.535 27.38C110.195 27.87 110.63 28.55 110.84 29.42H109.37C109.23 28.92 108.955 28.525 108.545 28.235C108.145 27.945 107.645 27.8 107.045 27.8C106.265 27.8 105.635 28.07 105.155 28.61C104.675 29.14 104.435 29.895 104.435 30.875C104.435 31.865 104.675 32.63 105.155 33.17C105.635 33.71 106.265 33.98 107.045 33.98C107.645 33.98 108.145 33.84 108.545 33.56C108.945 33.28 109.22 32.88 109.37 32.36H110.84C110.62 33.2 110.18 33.875 109.52 34.385C108.86 34.885 108.035 35.135 107.045 35.135C106.265 35.135 105.57 34.96 104.96 34.61C104.36 34.26 103.89 33.765 103.55 33.125C103.21 32.485 103.04 31.735 103.04 30.875ZM120.161 30.575C120.161 30.835 120.146 31.11 120.116 31.4H113.546C113.596 32.21 113.871 32.845 114.371 33.305C114.881 33.755 115.496 33.98 116.216 33.98C116.806 33.98 117.296 33.845 117.686 33.575C118.086 33.295 118.366 32.925 118.526 32.465H119.996C119.776 33.255 119.336 33.9 118.676 34.4C118.016 34.89 117.196 35.135 116.216 35.135C115.436 35.135 114.736 34.96 114.116 34.61C113.506 34.26 113.026 33.765 112.676 33.125C112.326 32.475 112.151 31.725 112.151 30.875C112.151 30.025 112.321 29.28 112.661 28.64C113.001 28 113.476 27.51 114.086 27.17C114.706 26.82 115.416 26.645 116.216 26.645C116.996 26.645 117.686 26.815 118.286 27.155C118.886 27.495 119.346 27.965 119.666 28.565C119.996 29.155 120.161 29.825 120.161 30.575ZM118.751 30.29C118.751 29.77 118.636 29.325 118.406 28.955C118.176 28.575 117.861 28.29 117.461 28.1C117.071 27.9 116.636 27.8 116.156 27.8C115.466 27.8 114.876 28.02 114.386 28.46C113.906 28.9 113.631 29.51 113.561 30.29H118.751ZM133.042 26.78L128.092 38.87H126.682L128.302 34.91L124.987 26.78H126.502L129.082 33.44L131.632 26.78H133.042ZM137.999 35.135C137.229 35.135 136.529 34.96 135.899 34.61C135.279 34.26 134.789 33.765 134.429 33.125C134.079 32.475 133.904 31.725 133.904 30.875C133.904 30.035 134.084 29.295 134.444 28.655C134.814 28.005 135.314 27.51 135.944 27.17C136.574 26.82 137.279 26.645 138.059 26.645C138.839 26.645 139.544 26.82 140.174 27.17C140.804 27.51 141.299 28 141.659 28.64C142.029 29.28 142.214 30.025 142.214 30.875C142.214 31.725 142.024 32.475 141.644 33.125C141.274 33.765 140.769 34.26 140.129 34.61C139.489 34.96 138.779 35.135 137.999 35.135ZM137.999 33.935C138.489 33.935 138.949 33.82 139.379 33.59C139.809 33.36 140.154 33.015 140.414 32.555C140.684 32.095 140.819 31.535 140.819 30.875C140.819 30.215 140.689 29.655 140.429 29.195C140.169 28.735 139.829 28.395 139.409 28.175C138.989 27.945 138.534 27.83 138.044 27.83C137.544 27.83 137.084 27.945 136.664 28.175C136.254 28.395 135.924 28.735 135.674 29.195C135.424 29.655 135.299 30.215 135.299 30.875C135.299 31.545 135.419 32.11 135.659 32.57C135.909 33.03 136.239 33.375 136.649 33.605C137.059 33.825 137.509 33.935 137.999 33.935ZM151.299 26.78V35H149.934V33.785C149.674 34.205 149.309 34.535 148.839 34.775C148.379 35.005 147.869 35.12 147.309 35.12C146.669 35.12 146.094 34.99 145.584 34.73C145.074 34.46 144.669 34.06 144.369 33.53C144.079 33 143.934 32.355 143.934 31.595V26.78H145.284V31.415C145.284 32.225 145.489 32.85 145.899 33.29C146.309 33.72 146.869 33.935 147.579 33.935C148.309 33.935 148.884 33.71 149.304 33.26C149.724 32.81 149.934 32.155 149.934 31.295V26.78H151.299ZM154.969 28.115C155.209 27.645 155.549 27.28 155.989 27.02C156.439 26.76 156.984 26.63 157.624 26.63V28.04H157.264C155.734 28.04 154.969 28.87 154.969 30.53V35H153.604V26.78H154.969V28.115ZM167.788 35L164.563 31.37V35H163.198V23.9H164.563V30.425L167.728 26.78H169.633L165.763 30.875L169.648 35H167.788ZM174.923 26.63C175.923 26.63 176.733 26.935 177.353 27.545C177.973 28.145 178.283 29.015 178.283 30.155V35H176.933V30.35C176.933 29.53 176.728 28.905 176.318 28.475C175.908 28.035 175.348 27.815 174.638 27.815C173.918 27.815 173.343 28.04 172.913 28.49C172.493 28.94 172.283 29.595 172.283 30.455V35H170.918V26.78H172.283V27.95C172.553 27.53 172.918 27.205 173.378 26.975C173.848 26.745 174.363 26.63 174.923 26.63ZM184.098 35.135C183.328 35.135 182.628 34.96 181.998 34.61C181.378 34.26 180.888 33.765 180.528 33.125C180.178 32.475 180.003 31.725 180.003 30.875C180.003 30.035 180.183 29.295 180.543 28.655C180.913 28.005 181.413 27.51 182.043 27.17C182.673 26.82 183.378 26.645 184.158 26.645C184.938 26.645 185.643 26.82 186.273 27.17C186.903 27.51 187.398 28 187.758 28.64C188.128 29.28 188.313 30.025 188.313 30.875C188.313 31.725 188.123 32.475 187.743 33.125C187.373 33.765 186.868 34.26 186.228 34.61C185.588 34.96 184.878 35.135 184.098 35.135ZM184.098 33.935C184.588 33.935 185.048 33.82 185.478 33.59C185.908 33.36 186.253 33.015 186.513 32.555C186.783 32.095 186.918 31.535 186.918 30.875C186.918 30.215 186.788 29.655 186.528 29.195C186.268 28.735 185.928 28.395 185.508 28.175C185.088 27.945 184.633 27.83 184.143 27.83C183.643 27.83 183.183 27.945 182.763 28.175C182.353 28.395 182.023 28.735 181.773 29.195C181.523 29.655 181.398 30.215 181.398 30.875C181.398 31.545 181.518 32.11 181.758 32.57C182.008 33.03 182.338 33.375 182.748 33.605C183.158 33.825 183.608 33.935 184.098 33.935ZM201.058 26.78L198.493 35H197.083L195.103 28.475L193.123 35H191.713L189.133 26.78H190.528L192.418 33.68L194.458 26.78H195.853L197.848 33.695L199.708 26.78H201.058ZM203.777 23.9V35H202.412V23.9H203.777ZM213.604 30.575C213.604 30.835 213.589 31.11 213.559 31.4H206.989C207.039 32.21 207.314 32.845 207.814 33.305C208.324 33.755 208.939 33.98 209.659 33.98C210.249 33.98 210.739 33.845 211.129 33.575C211.529 33.295 211.809 32.925 211.969 32.465H213.439C213.219 33.255 212.779 33.9 212.119 34.4C211.459 34.89 210.639 35.135 209.659 35.135C208.879 35.135 208.179 34.96 207.559 34.61C206.949 34.26 206.469 33.765 206.119 33.125C205.769 32.475 205.594 31.725 205.594 30.875C205.594 30.025 205.764 29.28 206.104 28.64C206.444 28 206.919 27.51 207.529 27.17C208.149 26.82 208.859 26.645 209.659 26.645C210.439 26.645 211.129 26.815 211.729 27.155C212.329 27.495 212.789 27.965 213.109 28.565C213.439 29.155 213.604 29.825 213.604 30.575ZM212.194 30.29C212.194 29.77 212.079 29.325 211.849 28.955C211.619 28.575 211.304 28.29 210.904 28.1C210.514 27.9 210.079 27.8 209.599 27.8C208.909 27.8 208.319 28.02 207.829 28.46C207.349 28.9 207.074 29.51 207.004 30.29H212.194ZM214.895 30.86C214.895 30.02 215.065 29.285 215.405 28.655C215.745 28.015 216.21 27.52 216.8 27.17C217.4 26.82 218.07 26.645 218.81 26.645C219.45 26.645 220.045 26.795 220.595 27.095C221.145 27.385 221.565 27.77 221.855 28.25V23.9H223.235V35H221.855V33.455C221.585 33.945 221.185 34.35 220.655 34.67C220.125 34.98 219.505 35.135 218.795 35.135C218.065 35.135 217.4 34.955 216.8 34.595C216.21 34.235 215.745 33.73 215.405 33.08C215.065 32.43 214.895 31.69 214.895 30.86ZM221.855 30.875C221.855 30.255 221.73 29.715 221.48 29.255C221.23 28.795 220.89 28.445 220.46 28.205C220.04 27.955 219.575 27.83 219.065 27.83C218.555 27.83 218.09 27.95 217.67 28.19C217.25 28.43 216.915 28.78 216.665 29.24C216.415 29.7 216.29 30.24 216.29 30.86C216.29 31.49 216.415 32.04 216.665 32.51C216.915 32.97 217.25 33.325 217.67 33.575C218.09 33.815 218.555 33.935 219.065 33.935C219.575 33.935 220.04 33.815 220.46 33.575C220.89 33.325 221.23 32.97 221.48 32.51C221.73 32.04 221.855 31.495 221.855 30.875ZM228.932 26.645C229.642 26.645 230.262 26.8 230.792 27.11C231.332 27.42 231.732 27.81 231.992 28.28V26.78H233.372V35.18C233.372 35.93 233.212 36.595 232.892 37.175C232.572 37.765 232.112 38.225 231.512 38.555C230.922 38.885 230.232 39.05 229.442 39.05C228.362 39.05 227.462 38.795 226.742 38.285C226.022 37.775 225.597 37.08 225.467 36.2H226.817C226.967 36.7 227.277 37.1 227.747 37.4C228.217 37.71 228.782 37.865 229.442 37.865C230.192 37.865 230.802 37.63 231.272 37.16C231.752 36.69 231.992 36.03 231.992 35.18V33.455C231.722 33.935 231.322 34.335 230.792 34.655C230.262 34.975 229.642 35.135 228.932 35.135C228.202 35.135 227.537 34.955 226.937 34.595C226.347 34.235 225.882 33.73 225.542 33.08C225.202 32.43 225.032 31.69 225.032 30.86C225.032 30.02 225.202 29.285 225.542 28.655C225.882 28.015 226.347 27.52 226.937 27.17C227.537 26.82 228.202 26.645 228.932 26.645ZM231.992 30.875C231.992 30.255 231.867 29.715 231.617 29.255C231.367 28.795 231.027 28.445 230.597 28.205C230.177 27.955 229.712 27.83 229.202 27.83C228.692 27.83 228.227 27.95 227.807 28.19C227.387 28.43 227.052 28.78 226.802 29.24C226.552 29.7 226.427 30.24 226.427 30.86C226.427 31.49 226.552 32.04 226.802 32.51C227.052 32.97 227.387 33.325 227.807 33.575C228.227 33.815 228.692 33.935 229.202 33.935C229.712 33.935 230.177 33.815 230.597 33.575C231.027 33.325 231.367 32.97 231.617 32.51C231.867 32.04 231.992 31.495 231.992 30.875ZM243.179 30.575C243.179 30.835 243.164 31.11 243.134 31.4H236.564C236.614 32.21 236.889 32.845 237.389 33.305C237.899 33.755 238.514 33.98 239.234 33.98C239.824 33.98 240.314 33.845 240.704 33.575C241.104 33.295 241.384 32.925 241.544 32.465H243.014C242.794 33.255 242.354 33.9 241.694 34.4C241.034 34.89 240.214 35.135 239.234 35.135C238.454 35.135 237.754 34.96 237.134 34.61C236.524 34.26 236.044 33.765 235.694 33.125C235.344 32.475 235.169 31.725 235.169 30.875C235.169 30.025 235.339 29.28 235.679 28.64C236.019 28 236.494 27.51 237.104 27.17C237.724 26.82 238.434 26.645 239.234 26.645C240.014 26.645 240.704 26.815 241.304 27.155C241.904 27.495 242.364 27.965 242.684 28.565C243.014 29.155 243.179 29.825 243.179 30.575ZM241.769 30.29C241.769 29.77 241.654 29.325 241.424 28.955C241.194 28.575 240.879 28.29 240.479 28.1C240.089 27.9 239.654 27.8 239.174 27.8C238.484 27.8 237.894 28.02 237.404 28.46C236.924 28.9 236.649 29.51 236.579 30.29H241.769ZM249.685 25.445C249.425 25.445 249.205 25.355 249.025 25.175C248.845 24.995 248.755 24.775 248.755 24.515C248.755 24.255 248.845 24.035 249.025 23.855C249.205 23.675 249.425 23.585 249.685 23.585C249.935 23.585 250.145 23.675 250.315 23.855C250.495 24.035 250.585 24.255 250.585 24.515C250.585 24.775 250.495 24.995 250.315 25.175C250.145 25.355 249.935 25.445 249.685 25.445ZM250.345 26.78V35H248.98V26.78H250.345ZM256.676 26.63C257.676 26.63 258.486 26.935 259.106 27.545C259.726 28.145 260.036 29.015 260.036 30.155V35H258.686V30.35C258.686 29.53 258.481 28.905 258.071 28.475C257.661 28.035 257.101 27.815 256.391 27.815C255.671 27.815 255.096 28.04 254.666 28.49C254.246 28.94 254.036 29.595 254.036 30.455V35H252.671V26.78H254.036V27.95C254.306 27.53 254.671 27.205 255.131 26.975C255.601 26.745 256.116 26.63 256.676 26.63ZM269.61 27.905H267.885V35H266.52V27.905H265.455V26.78H266.52V26.195C266.52 25.275 266.755 24.605 267.225 24.185C267.705 23.755 268.47 23.54 269.52 23.54V24.68C268.92 24.68 268.495 24.8 268.245 25.04C268.005 25.27 267.885 25.655 267.885 26.195V26.78H269.61V27.905ZM271.906 25.445C271.646 25.445 271.426 25.355 271.246 25.175C271.066 24.995 270.976 24.775 270.976 24.515C270.976 24.255 271.066 24.035 271.246 23.855C271.426 23.675 271.646 23.585 271.906 23.585C272.156 23.585 272.366 23.675 272.536 23.855C272.716 24.035 272.806 24.255 272.806 24.515C272.806 24.775 272.716 24.995 272.536 25.175C272.366 25.355 272.156 25.445 271.906 25.445ZM272.566 26.78V35H271.201V26.78H272.566ZM278.898 26.63C279.898 26.63 280.708 26.935 281.328 27.545C281.948 28.145 282.258 29.015 282.258 30.155V35H280.908V30.35C280.908 29.53 280.703 28.905 280.293 28.475C279.883 28.035 279.323 27.815 278.613 27.815C277.893 27.815 277.318 28.04 276.888 28.49C276.468 28.94 276.258 29.595 276.258 30.455V35H274.893V26.78H276.258V27.95C276.528 27.53 276.893 27.205 277.353 26.975C277.823 26.745 278.338 26.63 278.898 26.63ZM283.978 30.86C283.978 30.02 284.148 29.285 284.488 28.655C284.828 28.015 285.293 27.52 285.883 27.17C286.483 26.82 287.148 26.645 287.878 26.645C288.598 26.645 289.223 26.8 289.753 27.11C290.283 27.42 290.678 27.81 290.938 28.28V26.78H292.318V35H290.938V33.47C290.668 33.95 290.263 34.35 289.723 34.67C289.193 34.98 288.573 35.135 287.863 35.135C287.133 35.135 286.473 34.955 285.883 34.595C285.293 34.235 284.828 33.73 284.488 33.08C284.148 32.43 283.978 31.69 283.978 30.86ZM290.938 30.875C290.938 30.255 290.813 29.715 290.563 29.255C290.313 28.795 289.973 28.445 289.543 28.205C289.123 27.955 288.658 27.83 288.148 27.83C287.638 27.83 287.173 27.95 286.753 28.19C286.333 28.43 285.998 28.78 285.748 29.24C285.498 29.7 285.373 30.24 285.373 30.86C285.373 31.49 285.498 32.04 285.748 32.51C285.998 32.97 286.333 33.325 286.753 33.575C287.173 33.815 287.638 33.935 288.148 33.935C288.658 33.935 289.123 33.815 289.543 33.575C289.973 33.325 290.313 32.97 290.563 32.51C290.813 32.04 290.938 31.495 290.938 30.875ZM298.629 26.63C299.629 26.63 300.439 26.935 301.059 27.545C301.679 28.145 301.989 29.015 301.989 30.155V35H300.639V30.35C300.639 29.53 300.434 28.905 300.024 28.475C299.614 28.035 299.054 27.815 298.344 27.815C297.624 27.815 297.049 28.04 296.619 28.49C296.199 28.94 295.989 29.595 295.989 30.455V35H294.624V26.78H295.989V27.95C296.259 27.53 296.624 27.205 297.084 26.975C297.554 26.745 298.069 26.63 298.629 26.63ZM303.709 30.875C303.709 30.025 303.879 29.285 304.219 28.655C304.559 28.015 305.029 27.52 305.629 27.17C306.239 26.82 306.934 26.645 307.714 26.645C308.724 26.645 309.554 26.89 310.204 27.38C310.864 27.87 311.299 28.55 311.509 29.42H310.039C309.899 28.92 309.624 28.525 309.214 28.235C308.814 27.945 308.314 27.8 307.714 27.8C306.934 27.8 306.304 28.07 305.824 28.61C305.344 29.14 305.104 29.895 305.104 30.875C305.104 31.865 305.344 32.63 305.824 33.17C306.304 33.71 306.934 33.98 307.714 33.98C308.314 33.98 308.814 33.84 309.214 33.56C309.614 33.28 309.889 32.88 310.039 32.36H311.509C311.289 33.2 310.849 33.875 310.189 34.385C309.529 34.885 308.704 35.135 307.714 35.135C306.934 35.135 306.239 34.96 305.629 34.61C305.029 34.26 304.559 33.765 304.219 33.125C303.879 32.485 303.709 31.735 303.709 30.875ZM314.035 25.445C313.775 25.445 313.555 25.355 313.375 25.175C313.195 24.995 313.105 24.775 313.105 24.515C313.105 24.255 313.195 24.035 313.375 23.855C313.555 23.675 313.775 23.585 314.035 23.585C314.285 23.585 314.495 23.675 314.665 23.855C314.845 24.035 314.935 24.255 314.935 24.515C314.935 24.775 314.845 24.995 314.665 25.175C314.495 25.355 314.285 25.445 314.035 25.445ZM314.695 26.78V35H313.33V26.78H314.695ZM316.512 30.86C316.512 30.02 316.682 29.285 317.022 28.655C317.362 28.015 317.827 27.52 318.417 27.17C319.017 26.82 319.682 26.645 320.412 26.645C321.132 26.645 321.757 26.8 322.287 27.11C322.817 27.42 323.212 27.81 323.472 28.28V26.78H324.852V35H323.472V33.47C323.202 33.95 322.797 34.35 322.257 34.67C321.727 34.98 321.107 35.135 320.397 35.135C319.667 35.135 319.007 34.955 318.417 34.595C317.827 34.235 317.362 33.73 317.022 33.08C316.682 32.43 316.512 31.69 316.512 30.86ZM323.472 30.875C323.472 30.255 323.347 29.715 323.097 29.255C322.847 28.795 322.507 28.445 322.077 28.205C321.657 27.955 321.192 27.83 320.682 27.83C320.172 27.83 319.707 27.95 319.287 28.19C318.867 28.43 318.532 28.78 318.282 29.24C318.032 29.7 317.907 30.24 317.907 30.86C317.907 31.49 318.032 32.04 318.282 32.51C318.532 32.97 318.867 33.325 319.287 33.575C319.707 33.815 320.172 33.935 320.682 33.935C321.192 33.935 321.657 33.815 322.077 33.575C322.507 33.325 322.847 32.97 323.097 32.51C323.347 32.04 323.472 31.495 323.472 30.875ZM328.523 23.9V35H327.158V23.9H328.523ZM130.557 53.875C130.557 53.025 130.727 52.285 131.067 51.655C131.407 51.015 131.877 50.52 132.477 50.17C133.087 49.82 133.782 49.645 134.562 49.645C135.572 49.645 136.402 49.89 137.052 50.38C137.712 50.87 138.147 51.55 138.357 52.42H136.887C136.747 51.92 136.472 51.525 136.062 51.235C135.662 50.945 135.162 50.8 134.562 50.8C133.782 50.8 133.152 51.07 132.672 51.61C132.192 52.14 131.952 52.895 131.952 53.875C131.952 54.865 132.192 55.63 132.672 56.17C133.152 56.71 133.782 56.98 134.562 56.98C135.162 56.98 135.662 56.84 136.062 56.56C136.462 56.28 136.737 55.88 136.887 55.36H138.357C138.137 56.2 137.697 56.875 137.037 57.385C136.377 57.885 135.552 58.135 134.562 58.135C133.782 58.135 133.087 57.96 132.477 57.61C131.877 57.26 131.407 56.765 131.067 56.125C130.727 55.485 130.557 54.735 130.557 53.875ZM139.668 53.86C139.668 53.02 139.838 52.285 140.178 51.655C140.518 51.015 140.983 50.52 141.573 50.17C142.173 49.82 142.838 49.645 143.568 49.645C144.288 49.645 144.913 49.8 145.443 50.11C145.973 50.42 146.368 50.81 146.628 51.28V49.78H148.008V58H146.628V56.47C146.358 56.95 145.953 57.35 145.413 57.67C144.883 57.98 144.263 58.135 143.553 58.135C142.823 58.135 142.163 57.955 141.573 57.595C140.983 57.235 140.518 56.73 140.178 56.08C139.838 55.43 139.668 54.69 139.668 53.86ZM146.628 53.875C146.628 53.255 146.503 52.715 146.253 52.255C146.003 51.795 145.663 51.445 145.233 51.205C144.813 50.955 144.348 50.83 143.838 50.83C143.328 50.83 142.863 50.95 142.443 51.19C142.023 51.43 141.688 51.78 141.438 52.24C141.188 52.7 141.063 53.24 141.063 53.86C141.063 54.49 141.188 55.04 141.438 55.51C141.688 55.97 142.023 56.325 142.443 56.575C142.863 56.815 143.328 56.935 143.838 56.935C144.348 56.935 144.813 56.815 145.233 56.575C145.663 56.325 146.003 55.97 146.253 55.51C146.503 55.04 146.628 54.495 146.628 53.875ZM151.68 51.295C151.95 50.825 152.35 50.435 152.88 50.125C153.42 49.805 154.045 49.645 154.755 49.645C155.485 49.645 156.145 49.82 156.735 50.17C157.335 50.52 157.805 51.015 158.145 51.655C158.485 52.285 158.655 53.02 158.655 53.86C158.655 54.69 158.485 55.43 158.145 56.08C157.805 56.73 157.335 57.235 156.735 57.595C156.145 57.955 155.485 58.135 154.755 58.135C154.055 58.135 153.435 57.98 152.895 57.67C152.365 57.35 151.96 56.955 151.68 56.485V61.9H150.315V49.78H151.68V51.295ZM157.26 53.86C157.26 53.24 157.135 52.7 156.885 52.24C156.635 51.78 156.295 51.43 155.865 51.19C155.445 50.95 154.98 50.83 154.47 50.83C153.97 50.83 153.505 50.955 153.075 51.205C152.655 51.445 152.315 51.8 152.055 52.27C151.805 52.73 151.68 53.265 151.68 53.875C151.68 54.495 151.805 55.04 152.055 55.51C152.315 55.97 152.655 56.325 153.075 56.575C153.505 56.815 153.97 56.935 154.47 56.935C154.98 56.935 155.445 56.815 155.865 56.575C156.295 56.325 156.635 55.97 156.885 55.51C157.135 55.04 157.26 54.49 157.26 53.86ZM159.942 53.86C159.942 53.02 160.112 52.285 160.452 51.655C160.792 51.015 161.257 50.52 161.847 50.17C162.447 49.82 163.112 49.645 163.842 49.645C164.562 49.645 165.187 49.8 165.717 50.11C166.247 50.42 166.642 50.81 166.902 51.28V49.78H168.282V58H166.902V56.47C166.632 56.95 166.227 57.35 165.687 57.67C165.157 57.98 164.537 58.135 163.827 58.135C163.097 58.135 162.437 57.955 161.847 57.595C161.257 57.235 160.792 56.73 160.452 56.08C160.112 55.43 159.942 54.69 159.942 53.86ZM166.902 53.875C166.902 53.255 166.777 52.715 166.527 52.255C166.277 51.795 165.937 51.445 165.507 51.205C165.087 50.955 164.622 50.83 164.112 50.83C163.602 50.83 163.137 50.95 162.717 51.19C162.297 51.43 161.962 51.78 161.712 52.24C161.462 52.7 161.337 53.24 161.337 53.86C161.337 54.49 161.462 55.04 161.712 55.51C161.962 55.97 162.297 56.325 162.717 56.575C163.137 56.815 163.602 56.935 164.112 56.935C164.622 56.935 165.087 56.815 165.507 56.575C165.937 56.325 166.277 55.97 166.527 55.51C166.777 55.04 166.902 54.495 166.902 53.875ZM171.954 51.31C172.234 50.82 172.644 50.42 173.184 50.11C173.724 49.8 174.339 49.645 175.029 49.645C175.769 49.645 176.434 49.82 177.024 50.17C177.614 50.52 178.079 51.015 178.419 51.655C178.759 52.285 178.929 53.02 178.929 53.86C178.929 54.69 178.759 55.43 178.419 56.08C178.079 56.73 177.609 57.235 177.009 57.595C176.419 57.955 175.759 58.135 175.029 58.135C174.319 58.135 173.694 57.98 173.154 57.67C172.624 57.36 172.224 56.965 171.954 56.485V58H170.589V46.9H171.954V51.31ZM177.534 53.86C177.534 53.24 177.409 52.7 177.159 52.24C176.909 51.78 176.569 51.43 176.139 51.19C175.719 50.95 175.254 50.83 174.744 50.83C174.244 50.83 173.779 50.955 173.349 51.205C172.929 51.445 172.589 51.8 172.329 52.27C172.079 52.73 171.954 53.265 171.954 53.875C171.954 54.495 172.079 55.04 172.329 55.51C172.589 55.97 172.929 56.325 173.349 56.575C173.779 56.815 174.244 56.935 174.744 56.935C175.254 56.935 175.719 56.815 176.139 56.575C176.569 56.325 176.909 55.97 177.159 55.51C177.409 55.04 177.534 54.49 177.534 53.86ZM181.43 48.445C181.17 48.445 180.95 48.355 180.77 48.175C180.59 47.995 180.5 47.775 180.5 47.515C180.5 47.255 180.59 47.035 180.77 46.855C180.95 46.675 181.17 46.585 181.43 46.585C181.68 46.585 181.89 46.675 182.06 46.855C182.24 47.035 182.33 47.255 182.33 47.515C182.33 47.775 182.24 47.995 182.06 48.175C181.89 48.355 181.68 48.445 181.43 48.445ZM182.09 49.78V58H180.725V49.78H182.09ZM185.782 46.9V58H184.417V46.9H185.782ZM188.813 48.445C188.553 48.445 188.333 48.355 188.153 48.175C187.973 47.995 187.883 47.775 187.883 47.515C187.883 47.255 187.973 47.035 188.153 46.855C188.333 46.675 188.553 46.585 188.813 46.585C189.063 46.585 189.273 46.675 189.443 46.855C189.623 47.035 189.713 47.255 189.713 47.515C189.713 47.775 189.623 47.995 189.443 48.175C189.273 48.355 189.063 48.445 188.813 48.445ZM189.473 49.78V58H188.108V49.78H189.473ZM193.465 50.905V55.75C193.465 56.15 193.55 56.435 193.72 56.605C193.89 56.765 194.185 56.845 194.605 56.845H195.61V58H194.38C193.62 58 193.05 57.825 192.67 57.475C192.29 57.125 192.1 56.55 192.1 55.75V50.905H191.035V49.78H192.1V47.71H193.465V49.78H195.61V50.905H193.465ZM197.968 48.445C197.708 48.445 197.488 48.355 197.308 48.175C197.128 47.995 197.038 47.775 197.038 47.515C197.038 47.255 197.128 47.035 197.308 46.855C197.488 46.675 197.708 46.585 197.968 46.585C198.218 46.585 198.428 46.675 198.598 46.855C198.778 47.035 198.868 47.255 198.868 47.515C198.868 47.775 198.778 47.995 198.598 48.175C198.428 48.355 198.218 48.445 197.968 48.445ZM198.628 49.78V58H197.263V49.78H198.628ZM208.455 53.575C208.455 53.835 208.44 54.11 208.41 54.4H201.84C201.89 55.21 202.165 55.845 202.665 56.305C203.175 56.755 203.79 56.98 204.51 56.98C205.1 56.98 205.59 56.845 205.98 56.575C206.38 56.295 206.66 55.925 206.82 55.465H208.29C208.07 56.255 207.63 56.9 206.97 57.4C206.31 57.89 205.49 58.135 204.51 58.135C203.73 58.135 203.03 57.96 202.41 57.61C201.8 57.26 201.32 56.765 200.97 56.125C200.62 55.475 200.445 54.725 200.445 53.875C200.445 53.025 200.615 52.28 200.955 51.64C201.295 51 201.77 50.51 202.38 50.17C203 49.82 203.71 49.645 204.51 49.645C205.29 49.645 205.98 49.815 206.58 50.155C207.18 50.495 207.64 50.965 207.96 51.565C208.29 52.155 208.455 52.825 208.455 53.575ZM207.045 53.29C207.045 52.77 206.93 52.325 206.7 51.955C206.47 51.575 206.155 51.29 205.755 51.1C205.365 50.9 204.93 50.8 204.45 50.8C203.76 50.8 203.17 51.02 202.68 51.46C202.2 51.9 201.925 52.51 201.855 53.29H207.045ZM213.167 58.135C212.537 58.135 211.972 58.03 211.472 57.82C210.972 57.6 210.577 57.3 210.287 56.92C209.997 56.53 209.837 56.085 209.807 55.585H211.217C211.257 55.995 211.447 56.33 211.787 56.59C212.137 56.85 212.592 56.98 213.152 56.98C213.672 56.98 214.082 56.865 214.382 56.635C214.682 56.405 214.832 56.115 214.832 55.765C214.832 55.405 214.672 55.14 214.352 54.97C214.032 54.79 213.537 54.615 212.867 54.445C212.257 54.285 211.757 54.125 211.367 53.965C210.987 53.795 210.657 53.55 210.377 53.23C210.107 52.9 209.972 52.47 209.972 51.94C209.972 51.52 210.097 51.135 210.347 50.785C210.597 50.435 210.952 50.16 211.412 49.96C211.872 49.75 212.397 49.645 212.987 49.645C213.897 49.645 214.632 49.875 215.192 50.335C215.752 50.795 216.052 51.425 216.092 52.225H214.727C214.697 51.795 214.522 51.45 214.202 51.19C213.892 50.93 213.472 50.8 212.942 50.8C212.452 50.8 212.062 50.905 211.772 51.115C211.482 51.325 211.337 51.6 211.337 51.94C211.337 52.21 211.422 52.435 211.592 52.615C211.772 52.785 211.992 52.925 212.252 53.035C212.522 53.135 212.892 53.25 213.362 53.38C213.952 53.54 214.432 53.7 214.802 53.86C215.172 54.01 215.487 54.24 215.747 54.55C216.017 54.86 216.157 55.265 216.167 55.765C216.167 56.215 216.042 56.62 215.792 56.98C215.542 57.34 215.187 57.625 214.727 57.835C214.277 58.035 213.757 58.135 213.167 58.135ZM218.528 58.09C218.268 58.09 218.048 58 217.868 57.82C217.688 57.64 217.598 57.42 217.598 57.16C217.598 56.9 217.688 56.68 217.868 56.5C218.048 56.32 218.268 56.23 218.528 56.23C218.778 56.23 218.988 56.32 219.158 56.5C219.338 56.68 219.428 56.9 219.428 57.16C219.428 57.42 219.338 57.64 219.158 57.82C218.988 58 218.778 58.09 218.528 58.09Z" fill="#2F2F2F"/>
</svg>
