<svg width="341" height="35" viewBox="0 0 341 35" fill="none" xmlns="http://www.w3.org/2000/svg">
<path d="M0.056 14.736C0.056 12.5173 0.536 10.544 1.496 8.816C2.456 7.06667 3.78933 5.712 5.496 4.752C7.224 3.77067 9.176 3.28 11.352 3.28C14.0187 3.28 16.3013 3.984 18.2 5.392C20.0987 6.8 21.368 8.72 22.008 11.152H15.992C15.544 10.2133 14.904 9.49867 14.072 9.008C13.2613 8.51733 12.3333 8.272 11.288 8.272C9.60267 8.272 8.23733 8.85867 7.192 10.032C6.14667 11.2053 5.624 12.7733 5.624 14.736C5.624 16.6987 6.14667 18.2667 7.192 19.44C8.23733 20.6133 9.60267 21.2 11.288 21.2C12.3333 21.2 13.2613 20.9547 14.072 20.464C14.904 19.9733 15.544 19.2587 15.992 18.32H22.008C21.368 20.752 20.0987 22.672 18.2 24.08C16.3013 25.4667 14.0187 26.16 11.352 26.16C9.176 26.16 7.224 25.68 5.496 24.72C3.78933 23.7387 2.456 22.384 1.496 20.656C0.536 18.928 0.056 16.9547 0.056 14.736ZM33.487 26.256C31.7377 26.256 30.159 25.8827 28.751 25.136C27.3643 24.3893 26.2657 23.3227 25.455 21.936C24.6657 20.5493 24.271 18.928 24.271 17.072C24.271 15.2373 24.6763 13.6267 25.487 12.24C26.2977 10.832 27.407 9.75467 28.815 9.008C30.223 8.26133 31.8017 7.888 33.551 7.888C35.3003 7.888 36.879 8.26133 38.287 9.008C39.695 9.75467 40.8043 10.832 41.615 12.24C42.4257 13.6267 42.831 15.2373 42.831 17.072C42.831 18.9067 42.415 20.528 41.583 21.936C40.7723 23.3227 39.6523 24.3893 38.223 25.136C36.815 25.8827 35.2363 26.256 33.487 26.256ZM33.487 21.52C34.5323 21.52 35.4177 21.136 36.143 20.368C36.8897 19.6 37.263 18.5013 37.263 17.072C37.263 15.6427 36.9003 14.544 36.175 13.776C35.471 13.008 34.5963 12.624 33.551 12.624C32.4843 12.624 31.599 13.008 30.895 13.776C30.191 14.5227 29.839 15.6213 29.839 17.072C29.839 18.5013 30.1803 19.6 30.863 20.368C31.567 21.136 32.4417 21.52 33.487 21.52ZM56.614 7.952C58.7047 7.952 60.3687 8.63467 61.606 10C62.8647 11.344 63.494 13.2 63.494 15.568V26H58.054V16.304C58.054 15.1093 57.7447 14.1813 57.126 13.52C56.5073 12.8587 55.6753 12.528 54.63 12.528C53.5847 12.528 52.7527 12.8587 52.134 13.52C51.5153 14.1813 51.206 15.1093 51.206 16.304V26H45.734V8.144H51.206V10.512C51.7607 9.72267 52.5073 9.104 53.446 8.656C54.3847 8.18667 55.4407 7.952 56.614 7.952ZM78.1765 7.952C80.2672 7.952 81.9312 8.63467 83.1685 10C84.4272 11.344 85.0565 13.2 85.0565 15.568V26H79.6165V16.304C79.6165 15.1093 79.3072 14.1813 78.6885 13.52C78.0698 12.8587 77.2378 12.528 76.1925 12.528C75.1472 12.528 74.3152 12.8587 73.6965 13.52C73.0778 14.1813 72.7685 15.1093 72.7685 16.304V26H67.2965V8.144H72.7685V10.512C73.3232 9.72267 74.0698 9.104 75.0085 8.656C75.9472 8.18667 77.0032 7.952 78.1765 7.952ZM105.691 16.784C105.691 17.296 105.659 17.8293 105.595 18.384H93.211C93.2963 19.4933 93.6483 20.3467 94.267 20.944C94.907 21.52 95.6857 21.808 96.603 21.808C97.9683 21.808 98.9177 21.232 99.451 20.08H105.275C104.976 21.2533 104.432 22.3093 103.643 23.248C102.875 24.1867 101.904 24.9227 100.731 25.456C99.5577 25.9893 98.2457 26.256 96.795 26.256C95.0457 26.256 93.4883 25.8827 92.123 25.136C90.7577 24.3893 89.691 23.3227 88.923 21.936C88.155 20.5493 87.771 18.928 87.771 17.072C87.771 15.216 88.1443 13.5947 88.891 12.208C89.659 10.8213 90.7257 9.75467 92.091 9.008C93.4563 8.26133 95.0243 7.888 96.795 7.888C98.523 7.888 100.059 8.25067 101.403 8.976C102.747 9.70133 103.792 10.736 104.539 12.08C105.307 13.424 105.691 14.992 105.691 16.784ZM100.091 15.344C100.091 14.4053 99.771 13.6587 99.131 13.104C98.491 12.5493 97.691 12.272 96.731 12.272C95.8137 12.272 95.035 12.5387 94.395 13.072C93.7763 13.6053 93.3923 14.3627 93.243 15.344H100.091ZM107.49 17.072C107.49 15.216 107.863 13.5947 108.61 12.208C109.378 10.8213 110.434 9.75467 111.778 9.008C113.143 8.26133 114.7 7.888 116.45 7.888C118.69 7.888 120.556 8.47467 122.05 9.648C123.564 10.8213 124.556 12.4747 125.026 14.608H119.202C118.711 13.2427 117.762 12.56 116.354 12.56C115.351 12.56 114.551 12.9547 113.954 13.744C113.356 14.512 113.058 15.6213 113.058 17.072C113.058 18.5227 113.356 19.6427 113.954 20.432C114.551 21.2 115.351 21.584 116.354 21.584C117.762 21.584 118.711 20.9013 119.202 19.536H125.026C124.556 21.6267 123.564 23.2693 122.05 24.464C120.535 25.6587 118.668 26.256 116.45 26.256C114.7 26.256 113.143 25.8827 111.778 25.136C110.434 24.3893 109.378 23.3227 108.61 21.936C107.863 20.5493 107.49 18.928 107.49 17.072ZM137.905 21.36V26H135.121C133.137 26 131.59 25.52 130.481 24.56C129.371 23.5787 128.817 21.9893 128.817 19.792V12.688H126.641V8.144H128.817V3.792H134.289V8.144H137.873V12.688H134.289V19.856C134.289 20.3893 134.417 20.7733 134.673 21.008C134.929 21.2427 135.355 21.36 135.953 21.36H137.905ZM178.646 3.536L172.79 26H166.166L162.582 11.216L158.87 26H152.246L146.55 3.536H152.406L155.638 19.888L159.638 3.536H165.654L169.494 19.888L172.758 3.536H178.646ZM184.142 6.288C183.182 6.288 182.393 6.01067 181.774 5.456C181.177 4.88 180.878 4.176 180.878 3.344C180.878 2.49067 181.177 1.78667 181.774 1.232C182.393 0.655998 183.182 0.367998 184.142 0.367998C185.081 0.367998 185.849 0.655998 186.446 1.232C187.065 1.78667 187.374 2.49067 187.374 3.344C187.374 4.176 187.065 4.88 186.446 5.456C185.849 6.01067 185.081 6.288 184.142 6.288ZM186.862 8.144V26H181.39V8.144H186.862ZM200.78 21.36V26H197.996C196.012 26 194.465 25.52 193.356 24.56C192.246 23.5787 191.692 21.9893 191.692 19.792V12.688H189.516V8.144H191.692V3.792H197.164V8.144H200.748V12.688H197.164V19.856C197.164 20.3893 197.292 20.7733 197.548 21.008C197.804 21.2427 198.23 21.36 198.828 21.36H200.78ZM214.804 7.952C216.852 7.952 218.494 8.63467 219.732 10C220.969 11.344 221.588 13.2 221.588 15.568V26H216.148V16.304C216.148 15.1093 215.838 14.1813 215.22 13.52C214.601 12.8587 213.769 12.528 212.724 12.528C211.678 12.528 210.846 12.8587 210.228 13.52C209.609 14.1813 209.3 15.1093 209.3 16.304V26H203.828V2.32H209.3V10.544C209.854 9.75467 210.612 9.12533 211.572 8.656C212.532 8.18667 213.609 7.952 214.804 7.952ZM249.292 10.768C249.292 12.0693 248.993 13.264 248.396 14.352C247.798 15.4187 246.881 16.2827 245.644 16.944C244.406 17.6053 242.87 17.936 241.036 17.936H237.644V26H232.172V3.536H241.036C242.828 3.536 244.342 3.84533 245.58 4.464C246.817 5.08267 247.745 5.936 248.364 7.024C248.982 8.112 249.292 9.36 249.292 10.768ZM240.62 13.584C241.665 13.584 242.444 13.3387 242.956 12.848C243.468 12.3573 243.724 11.664 243.724 10.768C243.724 9.872 243.468 9.17867 242.956 8.688C242.444 8.19733 241.665 7.952 240.62 7.952H237.644V13.584H240.62ZM268.972 16.784C268.972 17.296 268.94 17.8293 268.876 18.384H256.492C256.578 19.4933 256.93 20.3467 257.548 20.944C258.188 21.52 258.967 21.808 259.884 21.808C261.25 21.808 262.199 21.232 262.732 20.08H268.556C268.258 21.2533 267.714 22.3093 266.924 23.248C266.156 24.1867 265.186 24.9227 264.012 25.456C262.839 25.9893 261.527 26.256 260.076 26.256C258.327 26.256 256.77 25.8827 255.404 25.136C254.039 24.3893 252.972 23.3227 252.204 21.936C251.436 20.5493 251.052 18.928 251.052 17.072C251.052 15.216 251.426 13.5947 252.172 12.208C252.94 10.8213 254.007 9.75467 255.372 9.008C256.738 8.26133 258.306 7.888 260.076 7.888C261.804 7.888 263.34 8.25067 264.684 8.976C266.028 9.70133 267.074 10.736 267.82 12.08C268.588 13.424 268.972 14.992 268.972 16.784ZM263.372 15.344C263.372 14.4053 263.052 13.6587 262.412 13.104C261.772 12.5493 260.972 12.272 260.012 12.272C259.095 12.272 258.316 12.5387 257.676 13.072C257.058 13.6053 256.674 14.3627 256.524 15.344H263.372ZM279.987 26.256C278.238 26.256 276.659 25.8827 275.251 25.136C273.864 24.3893 272.766 23.3227 271.955 21.936C271.166 20.5493 270.771 18.928 270.771 17.072C270.771 15.2373 271.176 13.6267 271.987 12.24C272.798 10.832 273.907 9.75467 275.315 9.008C276.723 8.26133 278.302 7.888 280.051 7.888C281.8 7.888 283.379 8.26133 284.787 9.008C286.195 9.75467 287.304 10.832 288.115 12.24C288.926 13.6267 289.331 15.2373 289.331 17.072C289.331 18.9067 288.915 20.528 288.083 21.936C287.272 23.3227 286.152 24.3893 284.723 25.136C283.315 25.8827 281.736 26.256 279.987 26.256ZM279.987 21.52C281.032 21.52 281.918 21.136 282.643 20.368C283.39 19.6 283.763 18.5013 283.763 17.072C283.763 15.6427 283.4 14.544 282.675 13.776C281.971 13.008 281.096 12.624 280.051 12.624C278.984 12.624 278.099 13.008 277.395 13.776C276.691 14.5227 276.339 15.6213 276.339 17.072C276.339 18.5013 276.68 19.6 277.363 20.368C278.067 21.136 278.942 21.52 279.987 21.52ZM297.706 10.672C298.239 9.84 298.975 9.168 299.914 8.656C300.853 8.144 301.951 7.888 303.21 7.888C304.682 7.888 306.015 8.26133 307.21 9.008C308.405 9.75467 309.343 10.8213 310.026 12.208C310.73 13.5947 311.082 15.2053 311.082 17.04C311.082 18.8747 310.73 20.496 310.026 21.904C309.343 23.2907 308.405 24.368 307.21 25.136C306.015 25.8827 304.682 26.256 303.21 26.256C301.973 26.256 300.874 26 299.914 25.488C298.975 24.976 298.239 24.3147 297.706 23.504V34.512H292.234V8.144H297.706V10.672ZM305.514 17.04C305.514 15.6747 305.13 14.608 304.362 13.84C303.615 13.0507 302.687 12.656 301.578 12.656C300.49 12.656 299.562 13.0507 298.794 13.84C298.047 14.6293 297.674 15.7067 297.674 17.072C297.674 18.4373 298.047 19.5147 298.794 20.304C299.562 21.0933 300.49 21.488 301.578 21.488C302.666 21.488 303.594 21.0933 304.362 20.304C305.13 19.4933 305.514 18.4053 305.514 17.04ZM319.425 2.32V26H313.953V2.32H319.425ZM340.222 16.784C340.222 17.296 340.19 17.8293 340.126 18.384H327.742C327.828 19.4933 328.18 20.3467 328.798 20.944C329.438 21.52 330.217 21.808 331.134 21.808C332.5 21.808 333.449 21.232 333.982 20.08H339.806C339.508 21.2533 338.964 22.3093 338.174 23.248C337.406 24.1867 336.436 24.9227 335.262 25.456C334.089 25.9893 332.777 26.256 331.326 26.256C329.577 26.256 328.02 25.8827 326.654 25.136C325.289 24.3893 324.222 23.3227 323.454 21.936C322.686 20.5493 322.302 18.928 322.302 17.072C322.302 15.216 322.676 13.5947 323.422 12.208C324.19 10.8213 325.257 9.75467 326.622 9.008C327.988 8.26133 329.556 7.888 331.326 7.888C333.054 7.888 334.59 8.25067 335.934 8.976C337.278 9.70133 338.324 10.736 339.07 12.08C339.838 13.424 340.222 14.992 340.222 16.784ZM334.622 15.344C334.622 14.4053 334.302 13.6587 333.662 13.104C333.022 12.5493 332.222 12.272 331.262 12.272C330.345 12.272 329.566 12.5387 328.926 13.072C328.308 13.6053 327.924 14.3627 327.774 15.344H334.622Z" fill="url(#paint0_linear_58_55)"/>
<defs>
<linearGradient id="paint0_linear_58_55" x1="161.692" y1="-15.5" x2="163.139" y2="39.0028" gradientUnits="userSpaceOnUse">
<stop stop-color="#579DFF"/>
<stop offset="1" stop-color="#486CF5"/>
</linearGradient>
</defs>
</svg>
