<svg width="292" height="63" viewBox="0 0 292 63" fill="none" xmlns="http://www.w3.org/2000/svg">
<path d="M8.81055 12H7.44555L1.95555 3.675V12H0.590547V1.53H1.95555L7.44555 9.84V1.53H8.81055V12ZM18.6374 7.575C18.6374 7.835 18.6224 8.11 18.5924 8.4H12.0224C12.0724 9.21 12.3474 9.845 12.8474 10.305C13.3574 10.755 13.9724 10.98 14.6924 10.98C15.2824 10.98 15.7724 10.845 16.1624 10.575C16.5624 10.295 16.8424 9.925 17.0024 9.465H18.4724C18.2524 10.255 17.8124 10.9 17.1524 11.4C16.4924 11.89 15.6724 12.135 14.6924 12.135C13.9124 12.135 13.2124 11.96 12.5924 11.61C11.9824 11.26 11.5024 10.765 11.1524 10.125C10.8024 9.475 10.6274 8.725 10.6274 7.875C10.6274 7.025 10.7974 6.28 11.1374 5.64C11.4774 5 11.9524 4.51 12.5624 4.17C13.1824 3.82 13.8924 3.645 14.6924 3.645C15.4724 3.645 16.1624 3.815 16.7624 4.155C17.3624 4.495 17.8224 4.965 18.1424 5.565C18.4724 6.155 18.6374 6.825 18.6374 7.575ZM17.2274 7.29C17.2274 6.77 17.1124 6.325 16.8824 5.955C16.6524 5.575 16.3374 5.29 15.9374 5.1C15.5474 4.9 15.1124 4.8 14.6324 4.8C13.9424 4.8 13.3524 5.02 12.8624 5.46C12.3824 5.9 12.1074 6.51 12.0374 7.29H17.2274ZM22.1042 4.905V9.75C22.1042 10.15 22.1892 10.435 22.3592 10.605C22.5292 10.765 22.8242 10.845 23.2442 10.845H24.2492V12H23.0192C22.2592 12 21.6892 11.825 21.3092 11.475C20.9292 11.125 20.7392 10.55 20.7392 9.75V4.905H19.6742V3.78H20.7392V1.71H22.1042V3.78H24.2492V4.905H22.1042ZM36.853 3.78L34.288 12H32.878L30.898 5.475L28.918 12H27.508L24.928 3.78H26.323L28.213 10.68L30.253 3.78H31.648L33.643 10.695L35.503 3.78H36.853ZM41.7927 12.135C41.0227 12.135 40.3227 11.96 39.6927 11.61C39.0727 11.26 38.5827 10.765 38.2227 10.125C37.8727 9.475 37.6977 8.725 37.6977 7.875C37.6977 7.035 37.8777 6.295 38.2377 5.655C38.6077 5.005 39.1077 4.51 39.7377 4.17C40.3677 3.82 41.0727 3.645 41.8527 3.645C42.6327 3.645 43.3377 3.82 43.9677 4.17C44.5977 4.51 45.0927 5 45.4527 5.64C45.8227 6.28 46.0077 7.025 46.0077 7.875C46.0077 8.725 45.8177 9.475 45.4377 10.125C45.0677 10.765 44.5627 11.26 43.9227 11.61C43.2827 11.96 42.5727 12.135 41.7927 12.135ZM41.7927 10.935C42.2827 10.935 42.7427 10.82 43.1727 10.59C43.6027 10.36 43.9477 10.015 44.2077 9.555C44.4777 9.095 44.6127 8.535 44.6127 7.875C44.6127 7.215 44.4827 6.655 44.2227 6.195C43.9627 5.735 43.6227 5.395 43.2027 5.175C42.7827 4.945 42.3277 4.83 41.8377 4.83C41.3377 4.83 40.8777 4.945 40.4577 5.175C40.0477 5.395 39.7177 5.735 39.4677 6.195C39.2177 6.655 39.0927 7.215 39.0927 7.875C39.0927 8.545 39.2127 9.11 39.4527 9.57C39.7027 10.03 40.0327 10.375 40.4427 10.605C40.8527 10.825 41.3027 10.935 41.7927 10.935ZM49.1675 5.115C49.4075 4.645 49.7475 4.28 50.1875 4.02C50.6375 3.76 51.1825 3.63 51.8225 3.63V5.04H51.4625C49.9325 5.04 49.1675 5.87 49.1675 7.53V12H47.8025V3.78H49.1675V5.115ZM57.9882 12L54.7632 8.37V12H53.3982V0.9H54.7632V7.425L57.9282 3.78H59.8332L55.9632 7.875L59.8482 12H57.9882ZM76.0669 3.78L73.5019 12H72.0919L70.1119 5.475L68.1319 12H66.7219L64.1419 3.78H65.5369L67.4269 10.68L69.4669 3.78H70.8619L72.8569 10.695L74.7169 3.78H76.0669ZM78.1266 2.445C77.8666 2.445 77.6466 2.355 77.4666 2.175C77.2866 1.995 77.1966 1.775 77.1966 1.515C77.1966 1.255 77.2866 1.035 77.4666 0.855C77.6466 0.674999 77.8666 0.584999 78.1266 0.584999C78.3766 0.584999 78.5866 0.674999 78.7566 0.855C78.9366 1.035 79.0266 1.255 79.0266 1.515C79.0266 1.775 78.9366 1.995 78.7566 2.175C78.5866 2.355 78.3766 2.445 78.1266 2.445ZM78.7866 3.78V12H77.4216V3.78H78.7866ZM82.778 4.905V9.75C82.778 10.15 82.863 10.435 83.033 10.605C83.203 10.765 83.498 10.845 83.918 10.845H84.923V12H83.693C82.933 12 82.363 11.825 81.983 11.475C81.603 11.125 81.413 10.55 81.413 9.75V4.905H80.348V3.78H81.413V1.71H82.778V3.78H84.923V4.905H82.778ZM90.6569 3.63C91.2769 3.63 91.8369 3.765 92.3369 4.035C92.8369 4.295 93.2269 4.69 93.5069 5.22C93.7969 5.75 93.9419 6.395 93.9419 7.155V12H92.5919V7.35C92.5919 6.53 92.3869 5.905 91.9769 5.475C91.5669 5.035 91.0069 4.815 90.2969 4.815C89.5769 4.815 89.0019 5.04 88.5719 5.49C88.1519 5.94 87.9419 6.595 87.9419 7.455V12H86.5769V0.9H87.9419V4.95C88.2119 4.53 88.5819 4.205 89.0519 3.975C89.5319 3.745 90.0669 3.63 90.6569 3.63ZM103.516 4.905H101.791V12H100.426V4.905H99.3606V3.78H100.426V3.195C100.426 2.275 100.661 1.605 101.131 1.185C101.611 0.754999 102.376 0.539999 103.426 0.539999V1.68C102.826 1.68 102.401 1.8 102.151 2.04C101.911 2.27 101.791 2.655 101.791 3.195V3.78H103.516V4.905ZM112.607 7.575C112.607 7.835 112.592 8.11 112.562 8.4H105.992C106.042 9.21 106.317 9.845 106.817 10.305C107.327 10.755 107.942 10.98 108.662 10.98C109.252 10.98 109.742 10.845 110.132 10.575C110.532 10.295 110.812 9.925 110.972 9.465H112.442C112.222 10.255 111.782 10.9 111.122 11.4C110.462 11.89 109.642 12.135 108.662 12.135C107.882 12.135 107.182 11.96 106.562 11.61C105.952 11.26 105.472 10.765 105.122 10.125C104.772 9.475 104.597 8.725 104.597 7.875C104.597 7.025 104.767 6.28 105.107 5.64C105.447 5 105.922 4.51 106.532 4.17C107.152 3.82 107.862 3.645 108.662 3.645C109.442 3.645 110.132 3.815 110.732 4.155C111.332 4.495 111.792 4.965 112.112 5.565C112.442 6.155 112.607 6.825 112.607 7.575ZM111.197 7.29C111.197 6.77 111.082 6.325 110.852 5.955C110.622 5.575 110.307 5.29 109.907 5.1C109.517 4.9 109.082 4.8 108.602 4.8C107.912 4.8 107.322 5.02 106.832 5.46C106.352 5.9 106.077 6.51 106.007 7.29H111.197ZM115.774 0.9V12H114.409V0.9H115.774ZM119.465 0.9V12H118.1V0.9H119.465ZM125.377 12.135C124.607 12.135 123.907 11.96 123.277 11.61C122.657 11.26 122.167 10.765 121.807 10.125C121.457 9.475 121.282 8.725 121.282 7.875C121.282 7.035 121.462 6.295 121.822 5.655C122.192 5.005 122.692 4.51 123.322 4.17C123.952 3.82 124.657 3.645 125.437 3.645C126.217 3.645 126.922 3.82 127.552 4.17C128.182 4.51 128.677 5 129.037 5.64C129.407 6.28 129.592 7.025 129.592 7.875C129.592 8.725 129.402 9.475 129.022 10.125C128.652 10.765 128.147 11.26 127.507 11.61C126.867 11.96 126.157 12.135 125.377 12.135ZM125.377 10.935C125.867 10.935 126.327 10.82 126.757 10.59C127.187 10.36 127.532 10.015 127.792 9.555C128.062 9.095 128.197 8.535 128.197 7.875C128.197 7.215 128.067 6.655 127.807 6.195C127.547 5.735 127.207 5.395 126.787 5.175C126.367 4.945 125.912 4.83 125.422 4.83C124.922 4.83 124.462 4.945 124.042 5.175C123.632 5.395 123.302 5.735 123.052 6.195C122.802 6.655 122.677 7.215 122.677 7.875C122.677 8.545 122.797 9.11 123.037 9.57C123.287 10.03 123.617 10.375 124.027 10.605C124.437 10.825 124.887 10.935 125.377 10.935ZM142.336 3.78L139.771 12H138.361L136.381 5.475L134.401 12H132.991L130.411 3.78H131.806L133.696 10.68L135.736 3.78H137.131L139.126 10.695L140.986 3.78H142.336ZM149.055 5.295C149.325 4.825 149.725 4.435 150.255 4.125C150.795 3.805 151.42 3.645 152.13 3.645C152.86 3.645 153.52 3.82 154.11 4.17C154.71 4.52 155.18 5.015 155.52 5.655C155.86 6.285 156.03 7.02 156.03 7.86C156.03 8.69 155.86 9.43 155.52 10.08C155.18 10.73 154.71 11.235 154.11 11.595C153.52 11.955 152.86 12.135 152.13 12.135C151.43 12.135 150.81 11.98 150.27 11.67C149.74 11.35 149.335 10.955 149.055 10.485V15.9H147.69V3.78H149.055V5.295ZM154.635 7.86C154.635 7.24 154.51 6.7 154.26 6.24C154.01 5.78 153.67 5.43 153.24 5.19C152.82 4.95 152.355 4.83 151.845 4.83C151.345 4.83 150.88 4.955 150.45 5.205C150.03 5.445 149.69 5.8 149.43 6.27C149.18 6.73 149.055 7.265 149.055 7.875C149.055 8.495 149.18 9.04 149.43 9.51C149.69 9.97 150.03 10.325 150.45 10.575C150.88 10.815 151.345 10.935 151.845 10.935C152.355 10.935 152.82 10.815 153.24 10.575C153.67 10.325 154.01 9.97 154.26 9.51C154.51 9.04 154.635 8.49 154.635 7.86ZM165.327 7.575C165.327 7.835 165.312 8.11 165.282 8.4H158.712C158.762 9.21 159.037 9.845 159.537 10.305C160.047 10.755 160.662 10.98 161.382 10.98C161.972 10.98 162.462 10.845 162.852 10.575C163.252 10.295 163.532 9.925 163.692 9.465H165.162C164.942 10.255 164.502 10.9 163.842 11.4C163.182 11.89 162.362 12.135 161.382 12.135C160.602 12.135 159.902 11.96 159.282 11.61C158.672 11.26 158.192 10.765 157.842 10.125C157.492 9.475 157.317 8.725 157.317 7.875C157.317 7.025 157.487 6.28 157.827 5.64C158.167 5 158.642 4.51 159.252 4.17C159.872 3.82 160.582 3.645 161.382 3.645C162.162 3.645 162.852 3.815 163.452 4.155C164.052 4.495 164.512 4.965 164.832 5.565C165.162 6.155 165.327 6.825 165.327 7.575ZM163.917 7.29C163.917 6.77 163.802 6.325 163.572 5.955C163.342 5.575 163.027 5.29 162.627 5.1C162.237 4.9 161.802 4.8 161.322 4.8C160.632 4.8 160.042 5.02 159.552 5.46C159.072 5.9 158.797 6.51 158.727 7.29H163.917ZM174.629 7.575C174.629 7.835 174.614 8.11 174.584 8.4H168.014C168.064 9.21 168.339 9.845 168.839 10.305C169.349 10.755 169.964 10.98 170.684 10.98C171.274 10.98 171.764 10.845 172.154 10.575C172.554 10.295 172.834 9.925 172.994 9.465H174.464C174.244 10.255 173.804 10.9 173.144 11.4C172.484 11.89 171.664 12.135 170.684 12.135C169.904 12.135 169.204 11.96 168.584 11.61C167.974 11.26 167.494 10.765 167.144 10.125C166.794 9.475 166.619 8.725 166.619 7.875C166.619 7.025 166.789 6.28 167.129 5.64C167.469 5 167.944 4.51 168.554 4.17C169.174 3.82 169.884 3.645 170.684 3.645C171.464 3.645 172.154 3.815 172.754 4.155C173.354 4.495 173.814 4.965 174.134 5.565C174.464 6.155 174.629 6.825 174.629 7.575ZM173.219 7.29C173.219 6.77 173.104 6.325 172.874 5.955C172.644 5.575 172.329 5.29 171.929 5.1C171.539 4.9 171.104 4.8 170.624 4.8C169.934 4.8 169.344 5.02 168.854 5.46C168.374 5.9 168.099 6.51 168.029 7.29H173.219ZM177.795 5.115C178.035 4.645 178.375 4.28 178.815 4.02C179.265 3.76 179.81 3.63 180.45 3.63V5.04H180.09C178.56 5.04 177.795 5.87 177.795 7.53V12H176.43V3.78H177.795V5.115ZM184.936 12.135C184.306 12.135 183.741 12.03 183.241 11.82C182.741 11.6 182.346 11.3 182.056 10.92C181.766 10.53 181.606 10.085 181.576 9.585H182.986C183.026 9.995 183.216 10.33 183.556 10.59C183.906 10.85 184.361 10.98 184.921 10.98C185.441 10.98 185.851 10.865 186.151 10.635C186.451 10.405 186.601 10.115 186.601 9.765C186.601 9.405 186.441 9.14 186.121 8.97C185.801 8.79 185.306 8.615 184.636 8.445C184.026 8.285 183.526 8.125 183.136 7.965C182.756 7.795 182.426 7.55 182.146 7.23C181.876 6.9 181.741 6.47 181.741 5.94C181.741 5.52 181.866 5.135 182.116 4.785C182.366 4.435 182.721 4.16 183.181 3.96C183.641 3.75 184.166 3.645 184.756 3.645C185.666 3.645 186.401 3.875 186.961 4.335C187.521 4.795 187.821 5.425 187.861 6.225H186.496C186.466 5.795 186.291 5.45 185.971 5.19C185.661 4.93 185.241 4.8 184.711 4.8C184.221 4.8 183.831 4.905 183.541 5.115C183.251 5.325 183.106 5.6 183.106 5.94C183.106 6.21 183.191 6.435 183.361 6.615C183.541 6.785 183.761 6.925 184.021 7.035C184.291 7.135 184.661 7.25 185.131 7.38C185.721 7.54 186.201 7.7 186.571 7.86C186.941 8.01 187.256 8.24 187.516 8.55C187.786 8.86 187.926 9.265 187.936 9.765C187.936 10.215 187.811 10.62 187.561 10.98C187.311 11.34 186.956 11.625 186.496 11.835C186.046 12.035 185.526 12.135 184.936 12.135ZM193.352 7.86C193.352 7.02 193.522 6.285 193.862 5.655C194.202 5.015 194.667 4.52 195.257 4.17C195.857 3.82 196.522 3.645 197.252 3.645C197.972 3.645 198.597 3.8 199.127 4.11C199.657 4.42 200.052 4.81 200.312 5.28V3.78H201.692V12H200.312V10.47C200.042 10.95 199.637 11.35 199.097 11.67C198.567 11.98 197.947 12.135 197.237 12.135C196.507 12.135 195.847 11.955 195.257 11.595C194.667 11.235 194.202 10.73 193.862 10.08C193.522 9.43 193.352 8.69 193.352 7.86ZM200.312 7.875C200.312 7.255 200.187 6.715 199.937 6.255C199.687 5.795 199.347 5.445 198.917 5.205C198.497 4.955 198.032 4.83 197.522 4.83C197.012 4.83 196.547 4.95 196.127 5.19C195.707 5.43 195.372 5.78 195.122 6.24C194.872 6.7 194.747 7.24 194.747 7.86C194.747 8.49 194.872 9.04 195.122 9.51C195.372 9.97 195.707 10.325 196.127 10.575C196.547 10.815 197.012 10.935 197.522 10.935C198.032 10.935 198.497 10.815 198.917 10.575C199.347 10.325 199.687 9.97 199.937 9.51C200.187 9.04 200.312 8.495 200.312 7.875ZM208.004 3.63C209.004 3.63 209.814 3.935 210.434 4.545C211.054 5.145 211.364 6.015 211.364 7.155V12H210.014V7.35C210.014 6.53 209.809 5.905 209.399 5.475C208.989 5.035 208.429 4.815 207.719 4.815C206.999 4.815 206.424 5.04 205.994 5.49C205.574 5.94 205.364 6.595 205.364 7.455V12H203.999V3.78H205.364V4.95C205.634 4.53 205.999 4.205 206.459 3.975C206.929 3.745 207.444 3.63 208.004 3.63ZM213.083 7.86C213.083 7.02 213.253 6.285 213.593 5.655C213.933 5.015 214.398 4.52 214.988 4.17C215.588 3.82 216.258 3.645 216.998 3.645C217.638 3.645 218.233 3.795 218.783 4.095C219.333 4.385 219.753 4.77 220.043 5.25V0.9H221.423V12H220.043V10.455C219.773 10.945 219.373 11.35 218.843 11.67C218.313 11.98 217.693 12.135 216.983 12.135C216.253 12.135 215.588 11.955 214.988 11.595C214.398 11.235 213.933 10.73 213.593 10.08C213.253 9.43 213.083 8.69 213.083 7.86ZM220.043 7.875C220.043 7.255 219.918 6.715 219.668 6.255C219.418 5.795 219.078 5.445 218.648 5.205C218.228 4.955 217.763 4.83 217.253 4.83C216.743 4.83 216.278 4.95 215.858 5.19C215.438 5.43 215.103 5.78 214.853 6.24C214.603 6.7 214.478 7.24 214.478 7.86C214.478 8.49 214.603 9.04 214.853 9.51C215.103 9.97 215.438 10.325 215.858 10.575C216.278 10.815 216.743 10.935 217.253 10.935C217.763 10.935 218.228 10.815 218.648 10.575C219.078 10.325 219.418 9.97 219.668 9.51C219.918 9.04 220.043 8.495 220.043 7.875ZM237.614 3.63C238.254 3.63 238.824 3.765 239.324 4.035C239.824 4.295 240.219 4.69 240.509 5.22C240.799 5.75 240.944 6.395 240.944 7.155V12H239.594V7.35C239.594 6.53 239.389 5.905 238.979 5.475C238.579 5.035 238.034 4.815 237.344 4.815C236.634 4.815 236.069 5.045 235.649 5.505C235.229 5.955 235.019 6.61 235.019 7.47V12H233.669V7.35C233.669 6.53 233.464 5.905 233.054 5.475C232.654 5.035 232.109 4.815 231.419 4.815C230.709 4.815 230.144 5.045 229.724 5.505C229.304 5.955 229.094 6.61 229.094 7.47V12H227.729V3.78H229.094V4.965C229.364 4.535 229.724 4.205 230.174 3.975C230.634 3.745 231.139 3.63 231.689 3.63C232.379 3.63 232.989 3.785 233.519 4.095C234.049 4.405 234.444 4.86 234.704 5.46C234.934 4.88 235.314 4.43 235.844 4.11C236.374 3.79 236.964 3.63 237.614 3.63ZM250.683 7.575C250.683 7.835 250.668 8.11 250.638 8.4H244.068C244.118 9.21 244.393 9.845 244.893 10.305C245.403 10.755 246.018 10.98 246.738 10.98C247.328 10.98 247.818 10.845 248.208 10.575C248.608 10.295 248.888 9.925 249.048 9.465H250.518C250.298 10.255 249.858 10.9 249.198 11.4C248.538 11.89 247.718 12.135 246.738 12.135C245.958 12.135 245.258 11.96 244.638 11.61C244.028 11.26 243.548 10.765 243.198 10.125C242.848 9.475 242.673 8.725 242.673 7.875C242.673 7.025 242.843 6.28 243.183 5.64C243.523 5 243.998 4.51 244.608 4.17C245.228 3.82 245.938 3.645 246.738 3.645C247.518 3.645 248.208 3.815 248.808 4.155C249.408 4.495 249.868 4.965 250.188 5.565C250.518 6.155 250.683 6.825 250.683 7.575ZM249.273 7.29C249.273 6.77 249.158 6.325 248.928 5.955C248.698 5.575 248.383 5.29 247.983 5.1C247.593 4.9 247.158 4.8 246.678 4.8C245.988 4.8 245.398 5.02 244.908 5.46C244.428 5.9 244.153 6.51 244.083 7.29H249.273ZM256.49 3.63C257.49 3.63 258.3 3.935 258.92 4.545C259.54 5.145 259.85 6.015 259.85 7.155V12H258.5V7.35C258.5 6.53 258.295 5.905 257.885 5.475C257.475 5.035 256.915 4.815 256.205 4.815C255.485 4.815 254.91 5.04 254.48 5.49C254.06 5.94 253.85 6.595 253.85 7.455V12H252.485V3.78H253.85V4.95C254.12 4.53 254.485 4.205 254.945 3.975C255.415 3.745 255.93 3.63 256.49 3.63ZM263.745 4.905V9.75C263.745 10.15 263.83 10.435 264 10.605C264.17 10.765 264.465 10.845 264.885 10.845H265.89V12H264.66C263.9 12 263.33 11.825 262.95 11.475C262.57 11.125 262.38 10.55 262.38 9.75V4.905H261.315V3.78H262.38V1.71H263.745V3.78H265.89V4.905H263.745ZM271.129 12.135C270.359 12.135 269.659 11.96 269.029 11.61C268.409 11.26 267.919 10.765 267.559 10.125C267.209 9.475 267.034 8.725 267.034 7.875C267.034 7.035 267.214 6.295 267.574 5.655C267.944 5.005 268.444 4.51 269.074 4.17C269.704 3.82 270.409 3.645 271.189 3.645C271.969 3.645 272.674 3.82 273.304 4.17C273.934 4.51 274.429 5 274.789 5.64C275.159 6.28 275.344 7.025 275.344 7.875C275.344 8.725 275.154 9.475 274.774 10.125C274.404 10.765 273.899 11.26 273.259 11.61C272.619 11.96 271.909 12.135 271.129 12.135ZM271.129 10.935C271.619 10.935 272.079 10.82 272.509 10.59C272.939 10.36 273.284 10.015 273.544 9.555C273.814 9.095 273.949 8.535 273.949 7.875C273.949 7.215 273.819 6.655 273.559 6.195C273.299 5.735 272.959 5.395 272.539 5.175C272.119 4.945 271.664 4.83 271.174 4.83C270.674 4.83 270.214 4.945 269.794 5.175C269.384 5.395 269.054 5.735 268.804 6.195C268.554 6.655 268.429 7.215 268.429 7.875C268.429 8.545 268.549 9.11 268.789 9.57C269.039 10.03 269.369 10.375 269.779 10.605C270.189 10.825 270.639 10.935 271.129 10.935ZM278.503 5.115C278.743 4.645 279.083 4.28 279.523 4.02C279.973 3.76 280.518 3.63 281.158 3.63V5.04H280.798C279.268 5.04 278.503 5.87 278.503 7.53V12H277.138V3.78H278.503V5.115ZM285.644 12.135C285.014 12.135 284.449 12.03 283.949 11.82C283.449 11.6 283.054 11.3 282.764 10.92C282.474 10.53 282.314 10.085 282.284 9.585H283.694C283.734 9.995 283.924 10.33 284.264 10.59C284.614 10.85 285.069 10.98 285.629 10.98C286.149 10.98 286.559 10.865 286.859 10.635C287.159 10.405 287.309 10.115 287.309 9.765C287.309 9.405 287.149 9.14 286.829 8.97C286.509 8.79 286.014 8.615 285.344 8.445C284.734 8.285 284.234 8.125 283.844 7.965C283.464 7.795 283.134 7.55 282.854 7.23C282.584 6.9 282.449 6.47 282.449 5.94C282.449 5.52 282.574 5.135 282.824 4.785C283.074 4.435 283.429 4.16 283.889 3.96C284.349 3.75 284.874 3.645 285.464 3.645C286.374 3.645 287.109 3.875 287.669 4.335C288.229 4.795 288.529 5.425 288.569 6.225H287.204C287.174 5.795 286.999 5.45 286.679 5.19C286.369 4.93 285.949 4.8 285.419 4.8C284.929 4.8 284.539 4.905 284.249 5.115C283.959 5.325 283.814 5.6 283.814 5.94C283.814 6.21 283.899 6.435 284.069 6.615C284.249 6.785 284.469 6.925 284.729 7.035C284.999 7.135 285.369 7.25 285.839 7.38C286.429 7.54 286.909 7.7 287.279 7.86C287.649 8.01 287.964 8.24 288.224 8.55C288.494 8.86 288.634 9.265 288.644 9.765C288.644 10.215 288.519 10.62 288.269 10.98C288.019 11.34 287.664 11.625 287.204 11.835C286.754 12.035 286.234 12.135 285.644 12.135ZM291.006 12.09C290.746 12.09 290.526 12 290.346 11.82C290.166 11.64 290.076 11.42 290.076 11.16C290.076 10.9 290.166 10.68 290.346 10.5C290.526 10.32 290.746 10.23 291.006 10.23C291.256 10.23 291.466 10.32 291.636 10.5C291.816 10.68 291.906 10.9 291.906 11.16C291.906 11.42 291.816 11.64 291.636 11.82C291.466 12 291.256 12.09 291.006 12.09ZM10.9881 35.105C10.2981 35.105 9.67807 34.985 9.12807 34.745C8.58807 34.495 8.16307 34.155 7.85307 33.725C7.54307 33.285 7.38307 32.78 7.37307 32.21H8.82807C8.87807 32.7 9.07807 33.115 9.42807 33.455C9.78807 33.785 10.3081 33.95 10.9881 33.95C11.6381 33.95 12.1481 33.79 12.5181 33.47C12.8981 33.14 13.0881 32.72 13.0881 32.21C13.0881 31.81 12.9781 31.485 12.7581 31.235C12.5381 30.985 12.2631 30.795 11.9331 30.665C11.6031 30.535 11.1581 30.395 10.5981 30.245C9.90807 30.065 9.35307 29.885 8.93307 29.705C8.52307 29.525 8.16807 29.245 7.86807 28.865C7.57807 28.475 7.43307 27.955 7.43307 27.305C7.43307 26.735 7.57807 26.23 7.86807 25.79C8.15807 25.35 8.56307 25.01 9.08307 24.77C9.61307 24.53 10.2181 24.41 10.8981 24.41C11.8781 24.41 12.6781 24.655 13.2981 25.145C13.9281 25.635 14.2831 26.285 14.3631 27.095H12.8631C12.8131 26.695 12.6031 26.345 12.2331 26.045C11.8631 25.735 11.3731 25.58 10.7631 25.58C10.1931 25.58 9.72807 25.73 9.36807 26.03C9.00807 26.32 8.82807 26.73 8.82807 27.26C8.82807 27.64 8.93307 27.95 9.14307 28.19C9.36307 28.43 9.62807 28.615 9.93807 28.745C10.2581 28.865 10.7031 29.005 11.2731 29.165C11.9631 29.355 12.5181 29.545 12.9381 29.735C13.3581 29.915 13.7181 30.2 14.0181 30.59C14.3181 30.97 14.4681 31.49 14.4681 32.15C14.4681 32.66 14.3331 33.14 14.0631 33.59C13.7931 34.04 13.3931 34.405 12.8631 34.685C12.3331 34.965 11.7081 35.105 10.9881 35.105ZM23.9768 30.575C23.9768 30.835 23.9618 31.11 23.9318 31.4H17.3618C17.4118 32.21 17.6868 32.845 18.1868 33.305C18.6968 33.755 19.3118 33.98 20.0318 33.98C20.6218 33.98 21.1118 33.845 21.5018 33.575C21.9018 33.295 22.1818 32.925 22.3418 32.465H23.8118C23.5918 33.255 23.1518 33.9 22.4918 34.4C21.8318 34.89 21.0118 35.135 20.0318 35.135C19.2518 35.135 18.5518 34.96 17.9318 34.61C17.3218 34.26 16.8418 33.765 16.4918 33.125C16.1418 32.475 15.9668 31.725 15.9668 30.875C15.9668 30.025 16.1368 29.28 16.4768 28.64C16.8168 28 17.2918 27.51 17.9018 27.17C18.5218 26.82 19.2318 26.645 20.0318 26.645C20.8118 26.645 21.5018 26.815 22.1018 27.155C22.7018 27.495 23.1618 27.965 23.4818 28.565C23.8118 29.155 23.9768 29.825 23.9768 30.575ZM22.5668 30.29C22.5668 29.77 22.4518 29.325 22.2218 28.955C21.9918 28.575 21.6768 28.29 21.2768 28.1C20.8868 27.9 20.4518 27.8 19.9718 27.8C19.2818 27.8 18.6918 28.02 18.2018 28.46C17.7218 28.9 17.4468 29.51 17.3768 30.29H22.5668ZM26.4835 25.445C26.2235 25.445 26.0035 25.355 25.8235 25.175C25.6435 24.995 25.5535 24.775 25.5535 24.515C25.5535 24.255 25.6435 24.035 25.8235 23.855C26.0035 23.675 26.2235 23.585 26.4835 23.585C26.7335 23.585 26.9435 23.675 27.1135 23.855C27.2935 24.035 27.3835 24.255 27.3835 24.515C27.3835 24.775 27.2935 24.995 27.1135 25.175C26.9435 25.355 26.7335 25.445 26.4835 25.445ZM27.1435 26.78V35H25.7785V26.78H27.1435ZM30.4899 33.875H34.5249V35H28.9299V33.875L32.9199 27.89H28.9599V26.78H34.4949V27.89L30.4899 33.875ZM43.7961 30.575C43.7961 30.835 43.7811 31.11 43.7511 31.4H37.1811C37.2311 32.21 37.5061 32.845 38.0061 33.305C38.5161 33.755 39.1311 33.98 39.8511 33.98C40.4411 33.98 40.9311 33.845 41.3211 33.575C41.7211 33.295 42.0011 32.925 42.1611 32.465H43.6311C43.4111 33.255 42.9711 33.9 42.3111 34.4C41.6511 34.89 40.8311 35.135 39.8511 35.135C39.0711 35.135 38.3711 34.96 37.7511 34.61C37.1411 34.26 36.6611 33.765 36.3111 33.125C35.9611 32.475 35.7861 31.725 35.7861 30.875C35.7861 30.025 35.9561 29.28 36.2961 28.64C36.6361 28 37.1111 27.51 37.7211 27.17C38.3411 26.82 39.0511 26.645 39.8511 26.645C40.6311 26.645 41.3211 26.815 41.9211 27.155C42.5211 27.495 42.9811 27.965 43.3011 28.565C43.6311 29.155 43.7961 29.825 43.7961 30.575ZM42.3861 30.29C42.3861 29.77 42.2711 29.325 42.0411 28.955C41.8111 28.575 41.4961 28.29 41.0961 28.1C40.7061 27.9 40.2711 27.8 39.7911 27.8C39.1011 27.8 38.5111 28.02 38.0211 28.46C37.5411 28.9 37.2661 29.51 37.1961 30.29H42.3861ZM53.1819 35.135C52.4119 35.135 51.7119 34.96 51.0819 34.61C50.4619 34.26 49.9719 33.765 49.6119 33.125C49.2619 32.475 49.0869 31.725 49.0869 30.875C49.0869 30.035 49.2669 29.295 49.6269 28.655C49.9969 28.005 50.4969 27.51 51.1269 27.17C51.7569 26.82 52.4619 26.645 53.2419 26.645C54.0219 26.645 54.7269 26.82 55.3569 27.17C55.9869 27.51 56.4819 28 56.8419 28.64C57.2119 29.28 57.3969 30.025 57.3969 30.875C57.3969 31.725 57.2069 32.475 56.8269 33.125C56.4569 33.765 55.9519 34.26 55.3119 34.61C54.6719 34.96 53.9619 35.135 53.1819 35.135ZM53.1819 33.935C53.6719 33.935 54.1319 33.82 54.5619 33.59C54.9919 33.36 55.3369 33.015 55.5969 32.555C55.8669 32.095 56.0019 31.535 56.0019 30.875C56.0019 30.215 55.8719 29.655 55.6119 29.195C55.3519 28.735 55.0119 28.395 54.5919 28.175C54.1719 27.945 53.7169 27.83 53.2269 27.83C52.7269 27.83 52.2669 27.945 51.8469 28.175C51.4369 28.395 51.1069 28.735 50.8569 29.195C50.6069 29.655 50.4819 30.215 50.4819 30.875C50.4819 31.545 50.6019 32.11 50.8419 32.57C51.0919 33.03 51.4219 33.375 51.8319 33.605C52.2419 33.825 52.6919 33.935 53.1819 33.935ZM60.5566 28.295C60.8266 27.825 61.2266 27.435 61.7566 27.125C62.2966 26.805 62.9216 26.645 63.6316 26.645C64.3616 26.645 65.0216 26.82 65.6116 27.17C66.2116 27.52 66.6816 28.015 67.0216 28.655C67.3616 29.285 67.5316 30.02 67.5316 30.86C67.5316 31.69 67.3616 32.43 67.0216 33.08C66.6816 33.73 66.2116 34.235 65.6116 34.595C65.0216 34.955 64.3616 35.135 63.6316 35.135C62.9316 35.135 62.3116 34.98 61.7716 34.67C61.2416 34.35 60.8366 33.955 60.5566 33.485V38.9H59.1916V26.78H60.5566V28.295ZM66.1366 30.86C66.1366 30.24 66.0116 29.7 65.7616 29.24C65.5116 28.78 65.1716 28.43 64.7416 28.19C64.3216 27.95 63.8566 27.83 63.3466 27.83C62.8466 27.83 62.3816 27.955 61.9516 28.205C61.5316 28.445 61.1916 28.8 60.9316 29.27C60.6816 29.73 60.5566 30.265 60.5566 30.875C60.5566 31.495 60.6816 32.04 60.9316 32.51C61.1916 32.97 61.5316 33.325 61.9516 33.575C62.3816 33.815 62.8466 33.935 63.3466 33.935C63.8566 33.935 64.3216 33.815 64.7416 33.575C65.1716 33.325 65.5116 32.97 65.7616 32.51C66.0116 32.04 66.1366 31.49 66.1366 30.86ZM70.6933 28.295C70.9633 27.825 71.3633 27.435 71.8933 27.125C72.4333 26.805 73.0583 26.645 73.7683 26.645C74.4983 26.645 75.1583 26.82 75.7483 27.17C76.3483 27.52 76.8183 28.015 77.1583 28.655C77.4983 29.285 77.6683 30.02 77.6683 30.86C77.6683 31.69 77.4983 32.43 77.1583 33.08C76.8183 33.73 76.3483 34.235 75.7483 34.595C75.1583 34.955 74.4983 35.135 73.7683 35.135C73.0683 35.135 72.4483 34.98 71.9083 34.67C71.3783 34.35 70.9733 33.955 70.6933 33.485V38.9H69.3283V26.78H70.6933V28.295ZM76.2733 30.86C76.2733 30.24 76.1483 29.7 75.8983 29.24C75.6483 28.78 75.3083 28.43 74.8783 28.19C74.4583 27.95 73.9933 27.83 73.4833 27.83C72.9833 27.83 72.5183 27.955 72.0883 28.205C71.6683 28.445 71.3283 28.8 71.0683 29.27C70.8183 29.73 70.6933 30.265 70.6933 30.875C70.6933 31.495 70.8183 32.04 71.0683 32.51C71.3283 32.97 71.6683 33.325 72.0883 33.575C72.5183 33.815 72.9833 33.935 73.4833 33.935C73.9933 33.935 74.4583 33.815 74.8783 33.575C75.3083 33.325 75.6483 32.97 75.8983 32.51C76.1483 32.04 76.2733 31.49 76.2733 30.86ZM83.0501 35.135C82.2801 35.135 81.5801 34.96 80.9501 34.61C80.3301 34.26 79.8401 33.765 79.4801 33.125C79.1301 32.475 78.9551 31.725 78.9551 30.875C78.9551 30.035 79.1351 29.295 79.4951 28.655C79.8651 28.005 80.3651 27.51 80.9951 27.17C81.6251 26.82 82.3301 26.645 83.1101 26.645C83.8901 26.645 84.5951 26.82 85.2251 27.17C85.8551 27.51 86.3501 28 86.7101 28.64C87.0801 29.28 87.2651 30.025 87.2651 30.875C87.2651 31.725 87.0751 32.475 86.6951 33.125C86.3251 33.765 85.8201 34.26 85.1801 34.61C84.5401 34.96 83.8301 35.135 83.0501 35.135ZM83.0501 33.935C83.5401 33.935 84.0001 33.82 84.4301 33.59C84.8601 33.36 85.2051 33.015 85.4651 32.555C85.7351 32.095 85.8701 31.535 85.8701 30.875C85.8701 30.215 85.7401 29.655 85.4801 29.195C85.2201 28.735 84.8801 28.395 84.4601 28.175C84.0401 27.945 83.5851 27.83 83.0951 27.83C82.5951 27.83 82.1351 27.945 81.7151 28.175C81.3051 28.395 80.9751 28.735 80.7251 29.195C80.4751 29.655 80.3501 30.215 80.3501 30.875C80.3501 31.545 80.4701 32.11 80.7101 32.57C80.9601 33.03 81.2901 33.375 81.7001 33.605C82.1101 33.825 82.5601 33.935 83.0501 33.935ZM90.4248 28.115C90.6648 27.645 91.0048 27.28 91.4448 27.02C91.8948 26.76 92.4398 26.63 93.0798 26.63V28.04H92.7198C91.1898 28.04 90.4248 28.87 90.4248 30.53V35H89.0598V26.78H90.4248V28.115ZM96.3205 27.905V32.75C96.3205 33.15 96.4055 33.435 96.5755 33.605C96.7455 33.765 97.0405 33.845 97.4605 33.845H98.4655V35H97.2355C96.4755 35 95.9055 34.825 95.5255 34.475C95.1455 34.125 94.9555 33.55 94.9555 32.75V27.905H93.8905V26.78H94.9555V24.71H96.3205V26.78H98.4655V27.905H96.3205ZM107.409 26.78V35H106.044V33.785C105.784 34.205 105.419 34.535 104.949 34.775C104.489 35.005 103.979 35.12 103.419 35.12C102.779 35.12 102.204 34.99 101.694 34.73C101.184 34.46 100.779 34.06 100.479 33.53C100.189 33 100.044 32.355 100.044 31.595V26.78H101.394V31.415C101.394 32.225 101.599 32.85 102.009 33.29C102.419 33.72 102.979 33.935 103.689 33.935C104.419 33.935 104.994 33.71 105.414 33.26C105.834 32.81 106.044 32.155 106.044 31.295V26.78H107.409ZM113.719 26.63C114.719 26.63 115.529 26.935 116.149 27.545C116.769 28.145 117.079 29.015 117.079 30.155V35H115.729V30.35C115.729 29.53 115.524 28.905 115.114 28.475C114.704 28.035 114.144 27.815 113.434 27.815C112.714 27.815 112.139 28.04 111.709 28.49C111.289 28.94 111.079 29.595 111.079 30.455V35H109.714V26.78H111.079V27.95C111.349 27.53 111.714 27.205 112.174 26.975C112.644 26.745 113.159 26.63 113.719 26.63ZM120.014 25.445C119.754 25.445 119.534 25.355 119.354 25.175C119.174 24.995 119.084 24.775 119.084 24.515C119.084 24.255 119.174 24.035 119.354 23.855C119.534 23.675 119.754 23.585 120.014 23.585C120.264 23.585 120.474 23.675 120.644 23.855C120.824 24.035 120.914 24.255 120.914 24.515C120.914 24.775 120.824 24.995 120.644 25.175C120.474 25.355 120.264 25.445 120.014 25.445ZM120.674 26.78V35H119.309V26.78H120.674ZM124.665 27.905V32.75C124.665 33.15 124.75 33.435 124.92 33.605C125.09 33.765 125.385 33.845 125.805 33.845H126.81V35H125.58C124.82 35 124.25 34.825 123.87 34.475C123.49 34.125 123.3 33.55 123.3 32.75V27.905H122.235V26.78H123.3V24.71H124.665V26.78H126.81V27.905H124.665ZM129.169 25.445C128.909 25.445 128.689 25.355 128.509 25.175C128.329 24.995 128.239 24.775 128.239 24.515C128.239 24.255 128.329 24.035 128.509 23.855C128.689 23.675 128.909 23.585 129.169 23.585C129.419 23.585 129.629 23.675 129.799 23.855C129.979 24.035 130.069 24.255 130.069 24.515C130.069 24.775 129.979 24.995 129.799 25.175C129.629 25.355 129.419 25.445 129.169 25.445ZM129.829 26.78V35H128.464V26.78H129.829ZM139.655 30.575C139.655 30.835 139.64 31.11 139.61 31.4H133.04C133.09 32.21 133.365 32.845 133.865 33.305C134.375 33.755 134.99 33.98 135.71 33.98C136.3 33.98 136.79 33.845 137.18 33.575C137.58 33.295 137.86 32.925 138.02 32.465H139.49C139.27 33.255 138.83 33.9 138.17 34.4C137.51 34.89 136.69 35.135 135.71 35.135C134.93 35.135 134.23 34.96 133.61 34.61C133 34.26 132.52 33.765 132.17 33.125C131.82 32.475 131.645 31.725 131.645 30.875C131.645 30.025 131.815 29.28 132.155 28.64C132.495 28 132.97 27.51 133.58 27.17C134.2 26.82 134.91 26.645 135.71 26.645C136.49 26.645 137.18 26.815 137.78 27.155C138.38 27.495 138.84 27.965 139.16 28.565C139.49 29.155 139.655 29.825 139.655 30.575ZM138.245 30.29C138.245 29.77 138.13 29.325 137.9 28.955C137.67 28.575 137.355 28.29 136.955 28.1C136.565 27.9 136.13 27.8 135.65 27.8C134.96 27.8 134.37 28.02 133.88 28.46C133.4 28.9 133.125 29.51 133.055 30.29H138.245ZM144.367 35.135C143.737 35.135 143.172 35.03 142.672 34.82C142.172 34.6 141.777 34.3 141.487 33.92C141.197 33.53 141.037 33.085 141.007 32.585H142.417C142.457 32.995 142.647 33.33 142.987 33.59C143.337 33.85 143.792 33.98 144.352 33.98C144.872 33.98 145.282 33.865 145.582 33.635C145.882 33.405 146.032 33.115 146.032 32.765C146.032 32.405 145.872 32.14 145.552 31.97C145.232 31.79 144.737 31.615 144.067 31.445C143.457 31.285 142.957 31.125 142.567 30.965C142.187 30.795 141.857 30.55 141.577 30.23C141.307 29.9 141.172 29.47 141.172 28.94C141.172 28.52 141.297 28.135 141.547 27.785C141.797 27.435 142.152 27.16 142.612 26.96C143.072 26.75 143.597 26.645 144.187 26.645C145.097 26.645 145.832 26.875 146.392 27.335C146.952 27.795 147.252 28.425 147.292 29.225H145.927C145.897 28.795 145.722 28.45 145.402 28.19C145.092 27.93 144.672 27.8 144.142 27.8C143.652 27.8 143.262 27.905 142.972 28.115C142.682 28.325 142.537 28.6 142.537 28.94C142.537 29.21 142.622 29.435 142.792 29.615C142.972 29.785 143.192 29.925 143.452 30.035C143.722 30.135 144.092 30.25 144.562 30.38C145.152 30.54 145.632 30.7 146.002 30.86C146.372 31.01 146.687 31.24 146.947 31.55C147.217 31.86 147.357 32.265 147.367 32.765C147.367 33.215 147.242 33.62 146.992 33.98C146.742 34.34 146.387 34.625 145.927 34.835C145.477 35.035 144.957 35.135 144.367 35.135ZM153.998 25.445C153.738 25.445 153.518 25.355 153.338 25.175C153.158 24.995 153.068 24.775 153.068 24.515C153.068 24.255 153.158 24.035 153.338 23.855C153.518 23.675 153.738 23.585 153.998 23.585C154.248 23.585 154.458 23.675 154.628 23.855C154.808 24.035 154.898 24.255 154.898 24.515C154.898 24.775 154.808 24.995 154.628 25.175C154.458 25.355 154.248 25.445 153.998 25.445ZM154.658 26.78V35H153.293V26.78H154.658ZM160.99 26.63C161.99 26.63 162.8 26.935 163.42 27.545C164.04 28.145 164.35 29.015 164.35 30.155V35H163V30.35C163 29.53 162.795 28.905 162.385 28.475C161.975 28.035 161.415 27.815 160.705 27.815C159.985 27.815 159.41 28.04 158.98 28.49C158.56 28.94 158.35 29.595 158.35 30.455V35H156.985V26.78H158.35V27.95C158.62 27.53 158.985 27.205 159.445 26.975C159.915 26.745 160.43 26.63 160.99 26.63ZM178.078 30.575C178.078 30.835 178.063 31.11 178.033 31.4H171.463C171.513 32.21 171.788 32.845 172.288 33.305C172.798 33.755 173.413 33.98 174.133 33.98C174.723 33.98 175.213 33.845 175.603 33.575C176.003 33.295 176.283 32.925 176.443 32.465H177.913C177.693 33.255 177.253 33.9 176.593 34.4C175.933 34.89 175.113 35.135 174.133 35.135C173.353 35.135 172.653 34.96 172.033 34.61C171.423 34.26 170.943 33.765 170.593 33.125C170.243 32.475 170.068 31.725 170.068 30.875C170.068 30.025 170.238 29.28 170.578 28.64C170.918 28 171.393 27.51 172.003 27.17C172.623 26.82 173.333 26.645 174.133 26.645C174.913 26.645 175.603 26.815 176.203 27.155C176.803 27.495 177.263 27.965 177.583 28.565C177.913 29.155 178.078 29.825 178.078 30.575ZM176.668 30.29C176.668 29.77 176.553 29.325 176.323 28.955C176.093 28.575 175.778 28.29 175.378 28.1C174.988 27.9 174.553 27.8 174.073 27.8C173.383 27.8 172.793 28.02 172.303 28.46C171.823 28.9 171.548 29.51 171.478 30.29H176.668ZM182.94 33.74L185.49 26.78H186.945L183.72 35H182.13L178.905 26.78H180.375L182.94 33.74ZM195.788 30.575C195.788 30.835 195.773 31.11 195.743 31.4H189.173C189.223 32.21 189.498 32.845 189.998 33.305C190.508 33.755 191.123 33.98 191.843 33.98C192.433 33.98 192.923 33.845 193.313 33.575C193.713 33.295 193.993 32.925 194.153 32.465H195.623C195.403 33.255 194.963 33.9 194.303 34.4C193.643 34.89 192.823 35.135 191.843 35.135C191.063 35.135 190.363 34.96 189.743 34.61C189.133 34.26 188.653 33.765 188.303 33.125C187.953 32.475 187.778 31.725 187.778 30.875C187.778 30.025 187.948 29.28 188.288 28.64C188.628 28 189.103 27.51 189.713 27.17C190.333 26.82 191.043 26.645 191.843 26.645C192.623 26.645 193.313 26.815 193.913 27.155C194.513 27.495 194.973 27.965 195.293 28.565C195.623 29.155 195.788 29.825 195.788 30.575ZM194.378 30.29C194.378 29.77 194.263 29.325 194.033 28.955C193.803 28.575 193.488 28.29 193.088 28.1C192.698 27.9 192.263 27.8 191.783 27.8C191.093 27.8 190.503 28.02 190.013 28.46C189.533 28.9 189.258 29.51 189.188 30.29H194.378ZM201.595 26.63C202.595 26.63 203.405 26.935 204.025 27.545C204.645 28.145 204.955 29.015 204.955 30.155V35H203.605V30.35C203.605 29.53 203.4 28.905 202.99 28.475C202.58 28.035 202.02 27.815 201.31 27.815C200.59 27.815 200.015 28.04 199.585 28.49C199.165 28.94 198.955 29.595 198.955 30.455V35H197.59V26.78H198.955V27.95C199.225 27.53 199.59 27.205 200.05 26.975C200.52 26.745 201.035 26.63 201.595 26.63ZM208.85 27.905V32.75C208.85 33.15 208.935 33.435 209.105 33.605C209.275 33.765 209.57 33.845 209.99 33.845H210.995V35H209.765C209.005 35 208.435 34.825 208.055 34.475C207.675 34.125 207.485 33.55 207.485 32.75V27.905H206.42V26.78H207.485V24.71H208.85V26.78H210.995V27.905H208.85ZM215.559 35.135C214.929 35.135 214.364 35.03 213.864 34.82C213.364 34.6 212.969 34.3 212.679 33.92C212.389 33.53 212.229 33.085 212.199 32.585H213.609C213.649 32.995 213.839 33.33 214.179 33.59C214.529 33.85 214.984 33.98 215.544 33.98C216.064 33.98 216.474 33.865 216.774 33.635C217.074 33.405 217.224 33.115 217.224 32.765C217.224 32.405 217.064 32.14 216.744 31.97C216.424 31.79 215.929 31.615 215.259 31.445C214.649 31.285 214.149 31.125 213.759 30.965C213.379 30.795 213.049 30.55 212.769 30.23C212.499 29.9 212.364 29.47 212.364 28.94C212.364 28.52 212.489 28.135 212.739 27.785C212.989 27.435 213.344 27.16 213.804 26.96C214.264 26.75 214.789 26.645 215.379 26.645C216.289 26.645 217.024 26.875 217.584 27.335C218.144 27.795 218.444 28.425 218.484 29.225H217.119C217.089 28.795 216.914 28.45 216.594 28.19C216.284 27.93 215.864 27.8 215.334 27.8C214.844 27.8 214.454 27.905 214.164 28.115C213.874 28.325 213.729 28.6 213.729 28.94C213.729 29.21 213.814 29.435 213.984 29.615C214.164 29.785 214.384 29.925 214.644 30.035C214.914 30.135 215.284 30.25 215.754 30.38C216.344 30.54 216.824 30.7 217.194 30.86C217.564 31.01 217.879 31.24 218.139 31.55C218.409 31.86 218.549 32.265 218.559 32.765C218.559 33.215 218.434 33.62 218.184 33.98C217.934 34.34 217.579 34.625 217.119 34.835C216.669 35.035 216.149 35.135 215.559 35.135ZM227.83 27.905H226.105V35H224.74V27.905H223.675V26.78H224.74V26.195C224.74 25.275 224.975 24.605 225.445 24.185C225.925 23.755 226.69 23.54 227.74 23.54V24.68C227.14 24.68 226.715 24.8 226.465 25.04C226.225 25.27 226.105 25.655 226.105 26.195V26.78H227.83V27.905ZM233.006 35.135C232.236 35.135 231.536 34.96 230.906 34.61C230.286 34.26 229.796 33.765 229.436 33.125C229.086 32.475 228.911 31.725 228.911 30.875C228.911 30.035 229.091 29.295 229.451 28.655C229.821 28.005 230.321 27.51 230.951 27.17C231.581 26.82 232.286 26.645 233.066 26.645C233.846 26.645 234.551 26.82 235.181 27.17C235.811 27.51 236.306 28 236.666 28.64C237.036 29.28 237.221 30.025 237.221 30.875C237.221 31.725 237.031 32.475 236.651 33.125C236.281 33.765 235.776 34.26 235.136 34.61C234.496 34.96 233.786 35.135 233.006 35.135ZM233.006 33.935C233.496 33.935 233.956 33.82 234.386 33.59C234.816 33.36 235.161 33.015 235.421 32.555C235.691 32.095 235.826 31.535 235.826 30.875C235.826 30.215 235.696 29.655 235.436 29.195C235.176 28.735 234.836 28.395 234.416 28.175C233.996 27.945 233.541 27.83 233.051 27.83C232.551 27.83 232.091 27.945 231.671 28.175C231.261 28.395 230.931 28.735 230.681 29.195C230.431 29.655 230.306 30.215 230.306 30.875C230.306 31.545 230.426 32.11 230.666 32.57C230.916 33.03 231.246 33.375 231.656 33.605C232.066 33.825 232.516 33.935 233.006 33.935ZM241.926 35.135C241.296 35.135 240.731 35.03 240.231 34.82C239.731 34.6 239.336 34.3 239.046 33.92C238.756 33.53 238.596 33.085 238.566 32.585H239.976C240.016 32.995 240.206 33.33 240.546 33.59C240.896 33.85 241.351 33.98 241.911 33.98C242.431 33.98 242.841 33.865 243.141 33.635C243.441 33.405 243.591 33.115 243.591 32.765C243.591 32.405 243.431 32.14 243.111 31.97C242.791 31.79 242.296 31.615 241.626 31.445C241.016 31.285 240.516 31.125 240.126 30.965C239.746 30.795 239.416 30.55 239.136 30.23C238.866 29.9 238.731 29.47 238.731 28.94C238.731 28.52 238.856 28.135 239.106 27.785C239.356 27.435 239.711 27.16 240.171 26.96C240.631 26.75 241.156 26.645 241.746 26.645C242.656 26.645 243.391 26.875 243.951 27.335C244.511 27.795 244.811 28.425 244.851 29.225H243.486C243.456 28.795 243.281 28.45 242.961 28.19C242.651 27.93 242.231 27.8 241.701 27.8C241.211 27.8 240.821 27.905 240.531 28.115C240.241 28.325 240.096 28.6 240.096 28.94C240.096 29.21 240.181 29.435 240.351 29.615C240.531 29.785 240.751 29.925 241.011 30.035C241.281 30.135 241.651 30.25 242.121 30.38C242.711 30.54 243.191 30.7 243.561 30.86C243.931 31.01 244.246 31.24 244.506 31.55C244.776 31.86 244.916 32.265 244.926 32.765C244.926 33.215 244.801 33.62 244.551 33.98C244.301 34.34 243.946 34.625 243.486 34.835C243.036 35.035 242.516 35.135 241.926 35.135ZM248.518 27.905V32.75C248.518 33.15 248.603 33.435 248.773 33.605C248.943 33.765 249.238 33.845 249.658 33.845H250.663V35H249.433C248.673 35 248.103 34.825 247.723 34.475C247.343 34.125 247.153 33.55 247.153 32.75V27.905H246.088V26.78H247.153V24.71H248.518V26.78H250.663V27.905H248.518ZM259.817 30.575C259.817 30.835 259.802 31.11 259.772 31.4H253.202C253.252 32.21 253.527 32.845 254.027 33.305C254.537 33.755 255.152 33.98 255.872 33.98C256.462 33.98 256.952 33.845 257.342 33.575C257.742 33.295 258.022 32.925 258.182 32.465H259.652C259.432 33.255 258.992 33.9 258.332 34.4C257.672 34.89 256.852 35.135 255.872 35.135C255.092 35.135 254.392 34.96 253.772 34.61C253.162 34.26 252.682 33.765 252.332 33.125C251.982 32.475 251.807 31.725 251.807 30.875C251.807 30.025 251.977 29.28 252.317 28.64C252.657 28 253.132 27.51 253.742 27.17C254.362 26.82 255.072 26.645 255.872 26.645C256.652 26.645 257.342 26.815 257.942 27.155C258.542 27.495 259.002 27.965 259.322 28.565C259.652 29.155 259.817 29.825 259.817 30.575ZM258.407 30.29C258.407 29.77 258.292 29.325 258.062 28.955C257.832 28.575 257.517 28.29 257.117 28.1C256.727 27.9 256.292 27.8 255.812 27.8C255.122 27.8 254.532 28.02 254.042 28.46C253.562 28.9 253.287 29.51 253.217 30.29H258.407ZM262.983 28.115C263.223 27.645 263.563 27.28 264.003 27.02C264.453 26.76 264.998 26.63 265.638 26.63V28.04H265.278C263.748 28.04 262.983 28.87 262.983 30.53V35H261.618V26.78H262.983V28.115ZM267.919 25.445C267.659 25.445 267.439 25.355 267.259 25.175C267.079 24.995 266.989 24.775 266.989 24.515C266.989 24.255 267.079 24.035 267.259 23.855C267.439 23.675 267.659 23.585 267.919 23.585C268.169 23.585 268.379 23.675 268.549 23.855C268.729 24.035 268.819 24.255 268.819 24.515C268.819 24.775 268.729 24.995 268.549 25.175C268.379 25.355 268.169 25.445 267.919 25.445ZM268.579 26.78V35H267.214V26.78H268.579ZM274.91 26.63C275.91 26.63 276.72 26.935 277.34 27.545C277.96 28.145 278.27 29.015 278.27 30.155V35H276.92V30.35C276.92 29.53 276.715 28.905 276.305 28.475C275.895 28.035 275.335 27.815 274.625 27.815C273.905 27.815 273.33 28.04 272.9 28.49C272.48 28.94 272.27 29.595 272.27 30.455V35H270.905V26.78H272.27V27.95C272.54 27.53 272.905 27.205 273.365 26.975C273.835 26.745 274.35 26.63 274.91 26.63ZM283.89 26.645C284.6 26.645 285.22 26.8 285.75 27.11C286.29 27.42 286.69 27.81 286.95 28.28V26.78H288.33V35.18C288.33 35.93 288.17 36.595 287.85 37.175C287.53 37.765 287.07 38.225 286.47 38.555C285.88 38.885 285.19 39.05 284.4 39.05C283.32 39.05 282.42 38.795 281.7 38.285C280.98 37.775 280.555 37.08 280.425 36.2H281.775C281.925 36.7 282.235 37.1 282.705 37.4C283.175 37.71 283.74 37.865 284.4 37.865C285.15 37.865 285.76 37.63 286.23 37.16C286.71 36.69 286.95 36.03 286.95 35.18V33.455C286.68 33.935 286.28 34.335 285.75 34.655C285.22 34.975 284.6 35.135 283.89 35.135C283.16 35.135 282.495 34.955 281.895 34.595C281.305 34.235 280.84 33.73 280.5 33.08C280.16 32.43 279.99 31.69 279.99 30.86C279.99 30.02 280.16 29.285 280.5 28.655C280.84 28.015 281.305 27.52 281.895 27.17C282.495 26.82 283.16 26.645 283.89 26.645ZM286.95 30.875C286.95 30.255 286.825 29.715 286.575 29.255C286.325 28.795 285.985 28.445 285.555 28.205C285.135 27.955 284.67 27.83 284.16 27.83C283.65 27.83 283.185 27.95 282.765 28.19C282.345 28.43 282.01 28.78 281.76 29.24C281.51 29.7 281.385 30.24 281.385 30.86C281.385 31.49 281.51 32.04 281.76 32.51C282.01 32.97 282.345 33.325 282.765 33.575C283.185 33.815 283.65 33.935 284.16 33.935C284.67 33.935 285.135 33.815 285.555 33.575C285.985 33.325 286.325 32.97 286.575 32.51C286.825 32.04 286.95 31.495 286.95 30.875ZM4.80467 53.875C4.80467 53.025 4.97467 52.285 5.31467 51.655C5.65467 51.015 6.12467 50.52 6.72467 50.17C7.33467 49.82 8.02967 49.645 8.80967 49.645C9.81967 49.645 10.6497 49.89 11.2997 50.38C11.9597 50.87 12.3947 51.55 12.6047 52.42H11.1347C10.9947 51.92 10.7197 51.525 10.3097 51.235C9.90967 50.945 9.40967 50.8 8.80967 50.8C8.02967 50.8 7.39967 51.07 6.91967 51.61C6.43967 52.14 6.19967 52.895 6.19967 53.875C6.19967 54.865 6.43967 55.63 6.91967 56.17C7.39967 56.71 8.02967 56.98 8.80967 56.98C9.40967 56.98 9.90967 56.84 10.3097 56.56C10.7097 56.28 10.9847 55.88 11.1347 55.36H12.6047C12.3847 56.2 11.9447 56.875 11.2847 57.385C10.6247 57.885 9.79967 58.135 8.80967 58.135C8.02967 58.135 7.33467 57.96 6.72467 57.61C6.12467 57.26 5.65467 56.765 5.31467 56.125C4.97467 55.485 4.80467 54.735 4.80467 53.875ZM18.011 58.135C17.241 58.135 16.541 57.96 15.911 57.61C15.291 57.26 14.801 56.765 14.441 56.125C14.091 55.475 13.916 54.725 13.916 53.875C13.916 53.035 14.096 52.295 14.456 51.655C14.826 51.005 15.326 50.51 15.956 50.17C16.586 49.82 17.291 49.645 18.071 49.645C18.851 49.645 19.556 49.82 20.186 50.17C20.816 50.51 21.311 51 21.671 51.64C22.041 52.28 22.226 53.025 22.226 53.875C22.226 54.725 22.036 55.475 21.656 56.125C21.286 56.765 20.781 57.26 20.141 57.61C19.501 57.96 18.791 58.135 18.011 58.135ZM18.011 56.935C18.501 56.935 18.961 56.82 19.391 56.59C19.821 56.36 20.166 56.015 20.426 55.555C20.696 55.095 20.831 54.535 20.831 53.875C20.831 53.215 20.701 52.655 20.441 52.195C20.181 51.735 19.841 51.395 19.421 51.175C19.001 50.945 18.546 50.83 18.056 50.83C17.556 50.83 17.096 50.945 16.676 51.175C16.266 51.395 15.936 51.735 15.686 52.195C15.436 52.655 15.311 53.215 15.311 53.875C15.311 54.545 15.431 55.11 15.671 55.57C15.921 56.03 16.251 56.375 16.661 56.605C17.071 56.825 17.521 56.935 18.011 56.935ZM25.3857 46.9V58H24.0207V46.9H25.3857ZM29.0771 46.9V58H27.7121V46.9H29.0771ZM30.8935 53.86C30.8935 53.02 31.0635 52.285 31.4035 51.655C31.7435 51.015 32.2085 50.52 32.7985 50.17C33.3985 49.82 34.0635 49.645 34.7935 49.645C35.5135 49.645 36.1385 49.8 36.6685 50.11C37.1985 50.42 37.5935 50.81 37.8535 51.28V49.78H39.2335V58H37.8535V56.47C37.5835 56.95 37.1785 57.35 36.6385 57.67C36.1085 57.98 35.4885 58.135 34.7785 58.135C34.0485 58.135 33.3885 57.955 32.7985 57.595C32.2085 57.235 31.7435 56.73 31.4035 56.08C31.0635 55.43 30.8935 54.69 30.8935 53.86ZM37.8535 53.875C37.8535 53.255 37.7285 52.715 37.4785 52.255C37.2285 51.795 36.8885 51.445 36.4585 51.205C36.0385 50.955 35.5735 50.83 35.0635 50.83C34.5535 50.83 34.0885 50.95 33.6685 51.19C33.2485 51.43 32.9135 51.78 32.6635 52.24C32.4135 52.7 32.2885 53.24 32.2885 53.86C32.2885 54.49 32.4135 55.04 32.6635 55.51C32.9135 55.97 33.2485 56.325 33.6685 56.575C34.0885 56.815 34.5535 56.935 35.0635 56.935C35.5735 56.935 36.0385 56.815 36.4585 56.575C36.8885 56.325 37.2285 55.97 37.4785 55.51C37.7285 55.04 37.8535 54.495 37.8535 53.875ZM42.9053 51.31C43.1853 50.82 43.5953 50.42 44.1353 50.11C44.6753 49.8 45.2903 49.645 45.9803 49.645C46.7203 49.645 47.3853 49.82 47.9753 50.17C48.5653 50.52 49.0303 51.015 49.3703 51.655C49.7103 52.285 49.8803 53.02 49.8803 53.86C49.8803 54.69 49.7103 55.43 49.3703 56.08C49.0303 56.73 48.5603 57.235 47.9603 57.595C47.3703 57.955 46.7103 58.135 45.9803 58.135C45.2703 58.135 44.6453 57.98 44.1053 57.67C43.5753 57.36 43.1753 56.965 42.9053 56.485V58H41.5403V46.9H42.9053V51.31ZM48.4853 53.86C48.4853 53.24 48.3603 52.7 48.1103 52.24C47.8603 51.78 47.5203 51.43 47.0903 51.19C46.6703 50.95 46.2053 50.83 45.6953 50.83C45.1953 50.83 44.7303 50.955 44.3003 51.205C43.8803 51.445 43.5403 51.8 43.2803 52.27C43.0303 52.73 42.9053 53.265 42.9053 53.875C42.9053 54.495 43.0303 55.04 43.2803 55.51C43.5403 55.97 43.8803 56.325 44.3003 56.575C44.7303 56.815 45.1953 56.935 45.6953 56.935C46.2053 56.935 46.6703 56.815 47.0903 56.575C47.5203 56.325 47.8603 55.97 48.1103 55.51C48.3603 55.04 48.4853 54.49 48.4853 53.86ZM55.262 58.135C54.492 58.135 53.792 57.96 53.162 57.61C52.542 57.26 52.052 56.765 51.692 56.125C51.342 55.475 51.167 54.725 51.167 53.875C51.167 53.035 51.347 52.295 51.707 51.655C52.077 51.005 52.577 50.51 53.207 50.17C53.837 49.82 54.542 49.645 55.322 49.645C56.102 49.645 56.807 49.82 57.437 50.17C58.067 50.51 58.562 51 58.922 51.64C59.292 52.28 59.477 53.025 59.477 53.875C59.477 54.725 59.287 55.475 58.907 56.125C58.537 56.765 58.032 57.26 57.392 57.61C56.752 57.96 56.042 58.135 55.262 58.135ZM55.262 56.935C55.752 56.935 56.212 56.82 56.642 56.59C57.072 56.36 57.417 56.015 57.677 55.555C57.947 55.095 58.082 54.535 58.082 53.875C58.082 53.215 57.952 52.655 57.692 52.195C57.432 51.735 57.092 51.395 56.672 51.175C56.252 50.945 55.797 50.83 55.307 50.83C54.807 50.83 54.347 50.945 53.927 51.175C53.517 51.395 53.187 51.735 52.937 52.195C52.687 52.655 52.562 53.215 52.562 53.875C52.562 54.545 52.682 55.11 52.922 55.57C53.172 56.03 53.502 56.375 53.912 56.605C54.322 56.825 54.772 56.935 55.262 56.935ZM62.6367 51.115C62.8767 50.645 63.2167 50.28 63.6567 50.02C64.1067 49.76 64.6517 49.63 65.2917 49.63V51.04H64.9317C63.4017 51.04 62.6367 51.87 62.6367 53.53V58H61.2717V49.78H62.6367V51.115ZM66.3574 53.86C66.3574 53.02 66.5274 52.285 66.8674 51.655C67.2074 51.015 67.6724 50.52 68.2624 50.17C68.8624 49.82 69.5274 49.645 70.2574 49.645C70.9774 49.645 71.6024 49.8 72.1324 50.11C72.6624 50.42 73.0574 50.81 73.3174 51.28V49.78H74.6974V58H73.3174V56.47C73.0474 56.95 72.6424 57.35 72.1024 57.67C71.5724 57.98 70.9524 58.135 70.2424 58.135C69.5124 58.135 68.8524 57.955 68.2624 57.595C67.6724 57.235 67.2074 56.73 66.8674 56.08C66.5274 55.43 66.3574 54.69 66.3574 53.86ZM73.3174 53.875C73.3174 53.255 73.1924 52.715 72.9424 52.255C72.6924 51.795 72.3524 51.445 71.9224 51.205C71.5024 50.955 71.0374 50.83 70.5274 50.83C70.0174 50.83 69.5524 50.95 69.1324 51.19C68.7124 51.43 68.3774 51.78 68.1274 52.24C67.8774 52.7 67.7524 53.24 67.7524 53.86C67.7524 54.49 67.8774 55.04 68.1274 55.51C68.3774 55.97 68.7124 56.325 69.1324 56.575C69.5524 56.815 70.0174 56.935 70.5274 56.935C71.0374 56.935 71.5024 56.815 71.9224 56.575C72.3524 56.325 72.6924 55.97 72.9424 55.51C73.1924 55.04 73.3174 54.495 73.3174 53.875ZM78.6691 50.905V55.75C78.6691 56.15 78.7541 56.435 78.9241 56.605C79.0941 56.765 79.3891 56.845 79.8091 56.845H80.8141V58H79.5841C78.8241 58 78.2541 57.825 77.8741 57.475C77.4941 57.125 77.3041 56.55 77.3041 55.75V50.905H76.2391V49.78H77.3041V47.71H78.6691V49.78H80.8141V50.905H78.6691ZM83.173 48.445C82.913 48.445 82.693 48.355 82.513 48.175C82.333 47.995 82.243 47.775 82.243 47.515C82.243 47.255 82.333 47.035 82.513 46.855C82.693 46.675 82.913 46.585 83.173 46.585C83.423 46.585 83.633 46.675 83.803 46.855C83.983 47.035 84.073 47.255 84.073 47.515C84.073 47.775 83.983 47.995 83.803 48.175C83.633 48.355 83.423 48.445 83.173 48.445ZM83.833 49.78V58H82.468V49.78H83.833ZM89.7444 58.135C88.9744 58.135 88.2744 57.96 87.6444 57.61C87.0244 57.26 86.5344 56.765 86.1744 56.125C85.8244 55.475 85.6494 54.725 85.6494 53.875C85.6494 53.035 85.8294 52.295 86.1894 51.655C86.5594 51.005 87.0594 50.51 87.6894 50.17C88.3194 49.82 89.0244 49.645 89.8044 49.645C90.5844 49.645 91.2894 49.82 91.9194 50.17C92.5494 50.51 93.0444 51 93.4044 51.64C93.7744 52.28 93.9594 53.025 93.9594 53.875C93.9594 54.725 93.7694 55.475 93.3894 56.125C93.0194 56.765 92.5144 57.26 91.8744 57.61C91.2344 57.96 90.5244 58.135 89.7444 58.135ZM89.7444 56.935C90.2344 56.935 90.6944 56.82 91.1244 56.59C91.5544 56.36 91.8994 56.015 92.1594 55.555C92.4294 55.095 92.5644 54.535 92.5644 53.875C92.5644 53.215 92.4344 52.655 92.1744 52.195C91.9144 51.735 91.5744 51.395 91.1544 51.175C90.7344 50.945 90.2794 50.83 89.7894 50.83C89.2894 50.83 88.8294 50.945 88.4094 51.175C87.9994 51.395 87.6694 51.735 87.4194 52.195C87.1694 52.655 87.0444 53.215 87.0444 53.875C87.0444 54.545 87.1644 55.11 87.4044 55.57C87.6544 56.03 87.9844 56.375 88.3944 56.605C88.8044 56.825 89.2544 56.935 89.7444 56.935ZM99.7591 49.63C100.759 49.63 101.569 49.935 102.189 50.545C102.809 51.145 103.119 52.015 103.119 53.155V58H101.769V53.35C101.769 52.53 101.564 51.905 101.154 51.475C100.744 51.035 100.184 50.815 99.4741 50.815C98.7541 50.815 98.1791 51.04 97.7491 51.49C97.3291 51.94 97.1191 52.595 97.1191 53.455V58H95.7541V49.78H97.1191V50.95C97.3891 50.53 97.7541 50.205 98.2141 49.975C98.6841 49.745 99.1991 49.63 99.7591 49.63ZM108.838 53.86C108.838 53.02 109.008 52.285 109.348 51.655C109.688 51.015 110.153 50.52 110.743 50.17C111.343 49.82 112.008 49.645 112.738 49.645C113.458 49.645 114.083 49.8 114.613 50.11C115.143 50.42 115.538 50.81 115.798 51.28V49.78H117.178V58H115.798V56.47C115.528 56.95 115.123 57.35 114.583 57.67C114.053 57.98 113.433 58.135 112.723 58.135C111.993 58.135 111.333 57.955 110.743 57.595C110.153 57.235 109.688 56.73 109.348 56.08C109.008 55.43 108.838 54.69 108.838 53.86ZM115.798 53.875C115.798 53.255 115.673 52.715 115.423 52.255C115.173 51.795 114.833 51.445 114.403 51.205C113.983 50.955 113.518 50.83 113.008 50.83C112.498 50.83 112.033 50.95 111.613 51.19C111.193 51.43 110.858 51.78 110.608 52.24C110.358 52.7 110.233 53.24 110.233 53.86C110.233 54.49 110.358 55.04 110.608 55.51C110.858 55.97 111.193 56.325 111.613 56.575C112.033 56.815 112.498 56.935 113.008 56.935C113.518 56.935 113.983 56.815 114.403 56.575C114.833 56.325 115.173 55.97 115.423 55.51C115.673 55.04 115.798 54.495 115.798 53.875ZM123.49 49.63C124.49 49.63 125.3 49.935 125.92 50.545C126.54 51.145 126.85 52.015 126.85 53.155V58H125.5V53.35C125.5 52.53 125.295 51.905 124.885 51.475C124.475 51.035 123.915 50.815 123.205 50.815C122.485 50.815 121.91 51.04 121.48 51.49C121.06 51.94 120.85 52.595 120.85 53.455V58H119.485V49.78H120.85V50.95C121.12 50.53 121.485 50.205 121.945 49.975C122.415 49.745 122.93 49.63 123.49 49.63ZM128.569 53.86C128.569 53.02 128.739 52.285 129.079 51.655C129.419 51.015 129.884 50.52 130.474 50.17C131.074 49.82 131.744 49.645 132.484 49.645C133.124 49.645 133.719 49.795 134.269 50.095C134.819 50.385 135.239 50.77 135.529 51.25V46.9H136.909V58H135.529V56.455C135.259 56.945 134.859 57.35 134.329 57.67C133.799 57.98 133.179 58.135 132.469 58.135C131.739 58.135 131.074 57.955 130.474 57.595C129.884 57.235 129.419 56.73 129.079 56.08C128.739 55.43 128.569 54.69 128.569 53.86ZM135.529 53.875C135.529 53.255 135.404 52.715 135.154 52.255C134.904 51.795 134.564 51.445 134.134 51.205C133.714 50.955 133.249 50.83 132.739 50.83C132.229 50.83 131.764 50.95 131.344 51.19C130.924 51.43 130.589 51.78 130.339 52.24C130.089 52.7 129.964 53.24 129.964 53.86C129.964 54.49 130.089 55.04 130.339 55.51C130.589 55.97 130.924 56.325 131.344 56.575C131.764 56.815 132.229 56.935 132.739 56.935C133.249 56.935 133.714 56.815 134.134 56.575C134.564 56.325 134.904 55.97 135.154 55.51C135.404 55.04 135.529 54.495 135.529 53.875ZM147.805 58L144.58 54.37V58H143.215V46.9H144.58V53.425L147.745 49.78H149.65L145.78 53.875L149.665 58H147.805ZM154.94 49.63C155.94 49.63 156.75 49.935 157.37 50.545C157.99 51.145 158.3 52.015 158.3 53.155V58H156.95V53.35C156.95 52.53 156.745 51.905 156.335 51.475C155.925 51.035 155.365 50.815 154.655 50.815C153.935 50.815 153.36 51.04 152.93 51.49C152.51 51.94 152.3 52.595 152.3 53.455V58H150.935V49.78H152.3V50.95C152.57 50.53 152.935 50.205 153.395 49.975C153.865 49.745 154.38 49.63 154.94 49.63ZM164.115 58.135C163.345 58.135 162.645 57.96 162.015 57.61C161.395 57.26 160.905 56.765 160.545 56.125C160.195 55.475 160.02 54.725 160.02 53.875C160.02 53.035 160.2 52.295 160.56 51.655C160.93 51.005 161.43 50.51 162.06 50.17C162.69 49.82 163.395 49.645 164.175 49.645C164.955 49.645 165.66 49.82 166.29 50.17C166.92 50.51 167.415 51 167.775 51.64C168.145 52.28 168.33 53.025 168.33 53.875C168.33 54.725 168.14 55.475 167.76 56.125C167.39 56.765 166.885 57.26 166.245 57.61C165.605 57.96 164.895 58.135 164.115 58.135ZM164.115 56.935C164.605 56.935 165.065 56.82 165.495 56.59C165.925 56.36 166.27 56.015 166.53 55.555C166.8 55.095 166.935 54.535 166.935 53.875C166.935 53.215 166.805 52.655 166.545 52.195C166.285 51.735 165.945 51.395 165.525 51.175C165.105 50.945 164.65 50.83 164.16 50.83C163.66 50.83 163.2 50.945 162.78 51.175C162.37 51.395 162.04 51.735 161.79 52.195C161.54 52.655 161.415 53.215 161.415 53.875C161.415 54.545 161.535 55.11 161.775 55.57C162.025 56.03 162.355 56.375 162.765 56.605C163.175 56.825 163.625 56.935 164.115 56.935ZM181.074 49.78L178.509 58H177.099L175.119 51.475L173.139 58H171.729L169.149 49.78H170.544L172.434 56.68L174.474 49.78H175.869L177.864 56.695L179.724 49.78H181.074ZM183.794 46.9V58H182.429V46.9H183.794ZM193.62 53.575C193.62 53.835 193.605 54.11 193.575 54.4H187.005C187.055 55.21 187.33 55.845 187.83 56.305C188.34 56.755 188.955 56.98 189.675 56.98C190.265 56.98 190.755 56.845 191.145 56.575C191.545 56.295 191.825 55.925 191.985 55.465H193.455C193.235 56.255 192.795 56.9 192.135 57.4C191.475 57.89 190.655 58.135 189.675 58.135C188.895 58.135 188.195 57.96 187.575 57.61C186.965 57.26 186.485 56.765 186.135 56.125C185.785 55.475 185.61 54.725 185.61 53.875C185.61 53.025 185.78 52.28 186.12 51.64C186.46 51 186.935 50.51 187.545 50.17C188.165 49.82 188.875 49.645 189.675 49.645C190.455 49.645 191.145 49.815 191.745 50.155C192.345 50.495 192.805 50.965 193.125 51.565C193.455 52.155 193.62 52.825 193.62 53.575ZM192.21 53.29C192.21 52.77 192.095 52.325 191.865 51.955C191.635 51.575 191.32 51.29 190.92 51.1C190.53 50.9 190.095 50.8 189.615 50.8C188.925 50.8 188.335 51.02 187.845 51.46C187.365 51.9 187.09 52.51 187.02 53.29H192.21ZM194.912 53.86C194.912 53.02 195.082 52.285 195.422 51.655C195.762 51.015 196.227 50.52 196.817 50.17C197.417 49.82 198.087 49.645 198.827 49.645C199.467 49.645 200.062 49.795 200.612 50.095C201.162 50.385 201.582 50.77 201.872 51.25V46.9H203.252V58H201.872V56.455C201.602 56.945 201.202 57.35 200.672 57.67C200.142 57.98 199.522 58.135 198.812 58.135C198.082 58.135 197.417 57.955 196.817 57.595C196.227 57.235 195.762 56.73 195.422 56.08C195.082 55.43 194.912 54.69 194.912 53.86ZM201.872 53.875C201.872 53.255 201.747 52.715 201.497 52.255C201.247 51.795 200.907 51.445 200.477 51.205C200.057 50.955 199.592 50.83 199.082 50.83C198.572 50.83 198.107 50.95 197.687 51.19C197.267 51.43 196.932 51.78 196.682 52.24C196.432 52.7 196.307 53.24 196.307 53.86C196.307 54.49 196.432 55.04 196.682 55.51C196.932 55.97 197.267 56.325 197.687 56.575C198.107 56.815 198.572 56.935 199.082 56.935C199.592 56.935 200.057 56.815 200.477 56.575C200.907 56.325 201.247 55.97 201.497 55.51C201.747 55.04 201.872 54.495 201.872 53.875ZM208.949 49.645C209.659 49.645 210.279 49.8 210.809 50.11C211.349 50.42 211.749 50.81 212.009 51.28V49.78H213.389V58.18C213.389 58.93 213.229 59.595 212.909 60.175C212.589 60.765 212.129 61.225 211.529 61.555C210.939 61.885 210.249 62.05 209.459 62.05C208.379 62.05 207.479 61.795 206.759 61.285C206.039 60.775 205.614 60.08 205.484 59.2H206.834C206.984 59.7 207.294 60.1 207.764 60.4C208.234 60.71 208.799 60.865 209.459 60.865C210.209 60.865 210.819 60.63 211.289 60.16C211.769 59.69 212.009 59.03 212.009 58.18V56.455C211.739 56.935 211.339 57.335 210.809 57.655C210.279 57.975 209.659 58.135 208.949 58.135C208.219 58.135 207.554 57.955 206.954 57.595C206.364 57.235 205.899 56.73 205.559 56.08C205.219 55.43 205.049 54.69 205.049 53.86C205.049 53.02 205.219 52.285 205.559 51.655C205.899 51.015 206.364 50.52 206.954 50.17C207.554 49.82 208.219 49.645 208.949 49.645ZM212.009 53.875C212.009 53.255 211.884 52.715 211.634 52.255C211.384 51.795 211.044 51.445 210.614 51.205C210.194 50.955 209.729 50.83 209.219 50.83C208.709 50.83 208.244 50.95 207.824 51.19C207.404 51.43 207.069 51.78 206.819 52.24C206.569 52.7 206.444 53.24 206.444 53.86C206.444 54.49 206.569 55.04 206.819 55.51C207.069 55.97 207.404 56.325 207.824 56.575C208.244 56.815 208.709 56.935 209.219 56.935C209.729 56.935 210.194 56.815 210.614 56.575C211.044 56.325 211.384 55.97 211.634 55.51C211.884 55.04 212.009 54.495 212.009 53.875ZM223.196 53.575C223.196 53.835 223.181 54.11 223.151 54.4H216.581C216.631 55.21 216.906 55.845 217.406 56.305C217.916 56.755 218.531 56.98 219.251 56.98C219.841 56.98 220.331 56.845 220.721 56.575C221.121 56.295 221.401 55.925 221.561 55.465H223.031C222.811 56.255 222.371 56.9 221.711 57.4C221.051 57.89 220.231 58.135 219.251 58.135C218.471 58.135 217.771 57.96 217.151 57.61C216.541 57.26 216.061 56.765 215.711 56.125C215.361 55.475 215.186 54.725 215.186 53.875C215.186 53.025 215.356 52.28 215.696 51.64C216.036 51 216.511 50.51 217.121 50.17C217.741 49.82 218.451 49.645 219.251 49.645C220.031 49.645 220.721 49.815 221.321 50.155C221.921 50.495 222.381 50.965 222.701 51.565C223.031 52.155 223.196 52.825 223.196 53.575ZM221.786 53.29C221.786 52.77 221.671 52.325 221.441 51.955C221.211 51.575 220.896 51.29 220.496 51.1C220.106 50.9 219.671 50.8 219.191 50.8C218.501 50.8 217.911 51.02 217.421 51.46C216.941 51.9 216.666 52.51 216.596 53.29H221.786ZM230.697 51.925V53.08H224.712V51.925H230.697ZM236.169 58.135C235.539 58.135 234.974 58.03 234.474 57.82C233.974 57.6 233.579 57.3 233.289 56.92C232.999 56.53 232.839 56.085 232.809 55.585H234.219C234.259 55.995 234.449 56.33 234.789 56.59C235.139 56.85 235.594 56.98 236.154 56.98C236.674 56.98 237.084 56.865 237.384 56.635C237.684 56.405 237.834 56.115 237.834 55.765C237.834 55.405 237.674 55.14 237.354 54.97C237.034 54.79 236.539 54.615 235.869 54.445C235.259 54.285 234.759 54.125 234.369 53.965C233.989 53.795 233.659 53.55 233.379 53.23C233.109 52.9 232.974 52.47 232.974 51.94C232.974 51.52 233.099 51.135 233.349 50.785C233.599 50.435 233.954 50.16 234.414 49.96C234.874 49.75 235.399 49.645 235.989 49.645C236.899 49.645 237.634 49.875 238.194 50.335C238.754 50.795 239.054 51.425 239.094 52.225H237.729C237.699 51.795 237.524 51.45 237.204 51.19C236.894 50.93 236.474 50.8 235.944 50.8C235.454 50.8 235.064 50.905 234.774 51.115C234.484 51.325 234.339 51.6 234.339 51.94C234.339 52.21 234.424 52.435 234.594 52.615C234.774 52.785 234.994 52.925 235.254 53.035C235.524 53.135 235.894 53.25 236.364 53.38C236.954 53.54 237.434 53.7 237.804 53.86C238.174 54.01 238.489 54.24 238.749 54.55C239.019 54.86 239.159 55.265 239.169 55.765C239.169 56.215 239.044 56.62 238.794 56.98C238.544 57.34 238.189 57.625 237.729 57.835C237.279 58.035 236.759 58.135 236.169 58.135ZM245.176 49.63C245.796 49.63 246.356 49.765 246.856 50.035C247.356 50.295 247.746 50.69 248.026 51.22C248.316 51.75 248.461 52.395 248.461 53.155V58H247.111V53.35C247.111 52.53 246.906 51.905 246.496 51.475C246.086 51.035 245.526 50.815 244.816 50.815C244.096 50.815 243.521 51.04 243.091 51.49C242.671 51.94 242.461 52.595 242.461 53.455V58H241.096V46.9H242.461V50.95C242.731 50.53 243.101 50.205 243.571 49.975C244.051 49.745 244.586 49.63 245.176 49.63ZM250.181 53.86C250.181 53.02 250.351 52.285 250.691 51.655C251.031 51.015 251.496 50.52 252.086 50.17C252.686 49.82 253.351 49.645 254.081 49.645C254.801 49.645 255.426 49.8 255.956 50.11C256.486 50.42 256.881 50.81 257.141 51.28V49.78H258.521V58H257.141V56.47C256.871 56.95 256.466 57.35 255.926 57.67C255.396 57.98 254.776 58.135 254.066 58.135C253.336 58.135 252.676 57.955 252.086 57.595C251.496 57.235 251.031 56.73 250.691 56.08C250.351 55.43 250.181 54.69 250.181 53.86ZM257.141 53.875C257.141 53.255 257.016 52.715 256.766 52.255C256.516 51.795 256.176 51.445 255.746 51.205C255.326 50.955 254.861 50.83 254.351 50.83C253.841 50.83 253.376 50.95 252.956 51.19C252.536 51.43 252.201 51.78 251.951 52.24C251.701 52.7 251.576 53.24 251.576 53.86C251.576 54.49 251.701 55.04 251.951 55.51C252.201 55.97 252.536 56.325 252.956 56.575C253.376 56.815 253.841 56.935 254.351 56.935C254.861 56.935 255.326 56.815 255.746 56.575C256.176 56.325 256.516 55.97 256.766 55.51C257.016 55.04 257.141 54.495 257.141 53.875ZM262.192 51.115C262.432 50.645 262.772 50.28 263.212 50.02C263.662 49.76 264.207 49.63 264.847 49.63V51.04H264.487C262.957 51.04 262.192 51.87 262.192 53.53V58H260.827V49.78H262.192V51.115ZM267.128 48.445C266.868 48.445 266.648 48.355 266.468 48.175C266.288 47.995 266.198 47.775 266.198 47.515C266.198 47.255 266.288 47.035 266.468 46.855C266.648 46.675 266.868 46.585 267.128 46.585C267.378 46.585 267.588 46.675 267.758 46.855C267.938 47.035 268.028 47.255 268.028 47.515C268.028 47.775 267.938 47.995 267.758 48.175C267.588 48.355 267.378 48.445 267.128 48.445ZM267.788 49.78V58H266.423V49.78H267.788ZM274.119 49.63C275.119 49.63 275.929 49.935 276.549 50.545C277.169 51.145 277.479 52.015 277.479 53.155V58H276.129V53.35C276.129 52.53 275.924 51.905 275.514 51.475C275.104 51.035 274.544 50.815 273.834 50.815C273.114 50.815 272.539 51.04 272.109 51.49C271.689 51.94 271.479 52.595 271.479 53.455V58H270.114V49.78H271.479V50.95C271.749 50.53 272.114 50.205 272.574 49.975C273.044 49.745 273.559 49.63 274.119 49.63ZM283.099 49.645C283.809 49.645 284.429 49.8 284.959 50.11C285.499 50.42 285.899 50.81 286.159 51.28V49.78H287.539V58.18C287.539 58.93 287.379 59.595 287.059 60.175C286.739 60.765 286.279 61.225 285.679 61.555C285.089 61.885 284.399 62.05 283.609 62.05C282.529 62.05 281.629 61.795 280.909 61.285C280.189 60.775 279.764 60.08 279.634 59.2H280.984C281.134 59.7 281.444 60.1 281.914 60.4C282.384 60.71 282.949 60.865 283.609 60.865C284.359 60.865 284.969 60.63 285.439 60.16C285.919 59.69 286.159 59.03 286.159 58.18V56.455C285.889 56.935 285.489 57.335 284.959 57.655C284.429 57.975 283.809 58.135 283.099 58.135C282.369 58.135 281.704 57.955 281.104 57.595C280.514 57.235 280.049 56.73 279.709 56.08C279.369 55.43 279.199 54.69 279.199 53.86C279.199 53.02 279.369 52.285 279.709 51.655C280.049 51.015 280.514 50.52 281.104 50.17C281.704 49.82 282.369 49.645 283.099 49.645ZM286.159 53.875C286.159 53.255 286.034 52.715 285.784 52.255C285.534 51.795 285.194 51.445 284.764 51.205C284.344 50.955 283.879 50.83 283.369 50.83C282.859 50.83 282.394 50.95 281.974 51.19C281.554 51.43 281.219 51.78 280.969 52.24C280.719 52.7 280.594 53.24 280.594 53.86C280.594 54.49 280.719 55.04 280.969 55.51C281.219 55.97 281.554 56.325 281.974 56.575C282.394 56.815 282.859 56.935 283.369 56.935C283.879 56.935 284.344 56.815 284.764 56.575C285.194 56.325 285.534 55.97 285.784 55.51C286.034 55.04 286.159 54.495 286.159 53.875ZM290.281 58.09C290.021 58.09 289.801 58 289.621 57.82C289.441 57.64 289.351 57.42 289.351 57.16C289.351 56.9 289.441 56.68 289.621 56.5C289.801 56.32 290.021 56.23 290.281 56.23C290.531 56.23 290.741 56.32 290.911 56.5C291.091 56.68 291.181 56.9 291.181 57.16C291.181 57.42 291.091 57.64 290.911 57.82C290.741 58 290.531 58.09 290.281 58.09Z" fill="#2F2F2F"/>
</svg>
