<svg width="26" height="36" viewBox="0 0 26 36" fill="none" xmlns="http://www.w3.org/2000/svg">
<g filter="url(#filter0_d_58_59)">
<path d="M3.99993 28.0923C3.99993 27.6112 4.19945 27.1301 4.58816 26.7875L16.8688 15.9758L4.58816 5.16408C3.87265 4.5342 3.80042 3.44058 4.42649 2.72072C5.05256 2.00086 6.13958 1.92818 6.85509 2.55806L20.6149 14.6711C20.9864 14.9998 21.2031 15.474 21.2031 15.9723C21.2031 16.4707 20.9898 16.9448 20.6149 17.2736L6.85509 29.3866C6.13958 30.0165 5.05256 29.9438 4.42649 29.224C4.14097 28.8952 3.99993 28.4903 3.99993 28.0853V28.0923Z" fill="url(#paint0_linear_58_59)"/>
</g>
<defs>
<filter id="filter0_d_58_59" x="0" y="0.129395" width="25.2031" height="35.686" filterUnits="userSpaceOnUse" color-interpolation-filters="sRGB">
<feFlood flood-opacity="0" result="BackgroundImageFix"/>
<feColorMatrix in="SourceAlpha" type="matrix" values="0 0 0 0 0 0 0 0 0 0 0 0 0 0 0 0 0 0 127 0" result="hardAlpha"/>
<feOffset dy="2"/>
<feGaussianBlur stdDeviation="2"/>
<feComposite in2="hardAlpha" operator="out"/>
<feColorMatrix type="matrix" values="0 0 0 0 0 0 0 0 0 0 0 0 0 0 0 0 0 0 0.25 0"/>
<feBlend mode="normal" in2="BackgroundImageFix" result="effect1_dropShadow_58_59"/>
<feBlend mode="normal" in="SourceGraphic" in2="effect1_dropShadow_58_59" result="shape"/>
</filter>
<linearGradient id="paint0_linear_58_59" x1="12.6015" y1="2.12939" x2="12.6015" y2="29.8153" gradientUnits="userSpaceOnUse">
<stop stop-color="#579DFF"/>
<stop offset="1" stop-color="#579DFF"/>
</linearGradient>
</defs>
</svg>
